<?xml version="1.0" encoding="UTF-8"?>
<svg id="_레이어_1" xmlns="http://www.w3.org/2000/svg" version="1.1" viewBox="0 0 255.1 141.7">
  <!-- Generator: Adobe Illustrator 29.6.1, SVG Export Plug-In . SVG Version: 2.1.1 Build 9)  -->
  <defs>
    <style>
      .st0 {
        fill: #fff;
      }

      .st1 {
        opacity: 0;
      }
    </style>
  </defs>
  <rect class="st0" y="0" width="255.1" height="141.7"/>
  <path d="M4.7,5.2h1.1v.7c0,.8,0,1.5-.2,2.2-.2.7-.4,1.3-.8,1.9-.4.5-.8.9-1.4,1.2l-.7-1.5c.4-.2.7-.4.9-.7.3-.3.5-.6.6-.9.2-.3.3-.7.3-1.1,0-.4.1-.8.1-1.1v-.7ZM3.1,4.7h4.6v1.5H3.1v-1.5ZM7.1,11.4c.6,0,1.1,0,1.6.3.4.2.8.5,1,.8.2.4.4.8.4,1.3,0,.8-.3,1.3-.8,1.7-.5.4-1.2.6-2.1.6s-1.6-.2-2.1-.6c-.5-.4-.8-1-.8-1.7s.1-.9.4-1.3c.2-.4.6-.6,1-.8.4-.2,1-.3,1.6-.3ZM5,5.2h1.1v.7c0,.5,0,.9.2,1.4.1.5.3.9.6,1.2.3.4.6.7,1.1.9l-.6,1.5c-.5-.3-1-.6-1.3-1.1-.3-.5-.6-1.1-.7-1.8-.2-.7-.2-1.4-.2-2.1v-.7ZM7.1,12.8c-.4,0-.6,0-.9,0-.2,0-.4.2-.5.3s-.2.3-.2.5,0,.4.2.5.3.2.5.3c.2,0,.5,0,.9,0s.7,0,.9,0c.2,0,.4-.2.5-.3.1-.1.2-.3.2-.5s0-.4-.2-.5c-.1-.1-.3-.2-.5-.3-.2,0-.5,0-.9,0ZM7.5,6.8h1.5v1.5h-1.5v-1.5ZM8.6,4h1.3v7.2h-1.3V4Z"/>
  <path d="M243.7,4.7h1.3v1.5h1.5v-1.5h1.3v5.9h-4.1v-5.9ZM244.5,11.7h5.7v4.4h-1.3v-2.8h-4.4v-1.5ZM245,7.7v1.5h1.5v-1.5h-1.5ZM248.8,4h1.3v7.2h-1.3V4ZM249.8,6.9h1.5v1.6h-1.5v-1.6Z"/>
  <path d="M3,33.7l-.2-1.5c.5,0,1,0,1.6,0,.6,0,1.2,0,1.8-.1.6,0,1.2-.1,1.8-.3v1.4c-.5.2-1.1.3-1.7.4-.6,0-1.2.1-1.8.1-.6,0-1.1,0-1.6,0ZM5.5,24.7c.4,0,.9.1,1.2.4.4.3.6.6.8,1.1.2.5.3,1,.3,1.6s-.1,1.1-.3,1.6c-.2.5-.5.8-.8,1.1-.4.3-.8.4-1.2.4s-.8-.1-1.2-.4c-.4-.3-.6-.6-.8-1.1-.2-.5-.3-1-.3-1.6s.1-1.1.3-1.6c.2-.5.5-.8.8-1.1.4-.3.8-.4,1.2-.4ZM5.5,26.4c-.2,0-.4,0-.5.2-.2.1-.3.3-.4.5s-.1.5-.1.8,0,.6.1.8.2.4.4.5c.2.1.3.2.5.2s.4,0,.5-.2.3-.3.4-.5c0-.2.1-.5.1-.8s0-.6-.1-.8c0-.2-.2-.4-.4-.5s-.3-.2-.5-.2ZM8.6,23.9h1.3v12.2h-1.3v-12.2Z"/>
  <path class="st1" d="M250.1,35.1c-.3,0-.5-.1-.6-.4-.2-.3-.3-.6-.3-1s0-.7.3-.9c.2-.3.4-.4.6-.4s.5.1.6.4c.2.3.3.6.3.9s0,.7-.3,1-.4.4-.6.4Z"/>
  <path d="M2.9,49.8v-1.4c.1,0,.5,0,.8,0,.3,0,.7,0,1.1,0,.4,0,.8,0,1.1,0,.4,0,.7-.1,1.1-.2v1.3c-.4.1-.8.3-1.4.3-.5,0-1,.1-1.5.1-.5,0-.9,0-1.3,0ZM5,44.4c.6,0,1,.2,1.3.5.3.3.5.8.5,1.3s-.2,1-.5,1.3-.8.5-1.3.5-1-.2-1.4-.5c-.3-.3-.5-.8-.5-1.3s.2-1,.5-1.3c.3-.3.8-.5,1.4-.5ZM4.1,51.8h1.3v.7h3.5v-.7h1.3v4.2h-6.1v-4.2ZM5,45.7c-.2,0-.4,0-.5.1-.1,0-.2.2-.2.4s0,.3.2.4c.1,0,.3.1.5.1s.4,0,.5-.1c.1,0,.2-.2.2-.4s0-.3-.2-.4c-.1,0-.3-.1-.5-.1ZM4.4,49h1.3v2.3h-1.3v-2.3ZM5.4,53.9v.6h3.5v-.6h-3.5ZM6.1,49.9h1.7v1.2h-1.7v-1.2ZM7.3,44.2h1.3v7.2h-1.3v-7.2ZM9,44h1.3v7.4h-1.3v-7.4Z"/>
  <path d="M13,44.9h1.1v1.7c0,.8,0,1.5-.1,2.2s-.2,1.4-.4,2c-.2.6-.4,1.2-.7,1.7-.3.5-.7.9-1.1,1.2l-.8-1.5c.4-.3.7-.6,1-1,.3-.4.5-.8.6-1.3.2-.5.3-1,.4-1.6,0-.6.1-1.1.1-1.7v-1.7ZM13.3,44.9h1.1v1.7c0,.5,0,1.1.1,1.6,0,.5.2,1,.3,1.5.2.5.3.9.6,1.3.2.4.5.7.9.9l-.8,1.5c-.4-.3-.7-.7-1-1.1-.3-.5-.5-1-.7-1.6-.2-.6-.3-1.3-.4-2,0-.7-.1-1.4-.1-2.2v-1.7ZM16.5,44h1.3v12.1h-1.3v-12.1ZM17.5,48.6h1.5v1.6h-1.5v-1.6Z"/>
  <path d="M22,44.8c.4,0,.8.2,1.2.5.3.4.6.9.8,1.5.2.7.3,1.4.3,2.3s0,1.7-.3,2.3c-.2.7-.5,1.2-.8,1.5s-.7.5-1.2.5-.8-.2-1.2-.5-.6-.9-.8-1.5c-.2-.7-.3-1.4-.3-2.3s0-1.7.3-2.3c.2-.6.5-1.2.8-1.5.3-.4.7-.5,1.2-.5ZM22,46.5c-.2,0-.4,0-.5.3s-.3.5-.3.9c0,.4-.1.9-.1,1.4s0,1.1.1,1.5c0,.4.2.7.3.9.1.2.3.3.5.3s.4,0,.5-.3c.1-.2.3-.5.3-.9,0-.4.1-.9.1-1.5s0-1.1-.1-1.4c0-.4-.2-.7-.3-.9-.1-.2-.3-.3-.5-.3ZM25.2,43.9h1.3v12.2h-1.3v-12.2Z"/>
  <path d="M27.6,53.2h7.7v1.5h-7.7v-1.5ZM28.5,44.8h5.9v1.5h-4.6v4.2h-1.4v-5.7ZM28.5,50.1h6v1.5h-6v-1.5ZM29.4,47.5h4.8v1.5h-4.8v-1.5Z"/>
  <path d="M156.6,48l-1.1,7.6c-.1.7-.3,1.2-.5,1.5-.2.3-.6.5-1.2.5s0,0-.2,0-.2,0-.3,0l.2-1.4c0,0,.1,0,.1,0,0,0,0,0,0,0,.1,0,.2,0,.3-.1,0,0,.1-.3.2-.5l1.1-7.6h1.3ZM155.4,47.2l.2-1.7h1.3l-.2,1.7h-1.3Z"/>
  <path d="M159.9,53.9s0,0-.1.2-.1.2-.2.3c-.2.3-.5.4-.7.5s-.4.1-.7.1c-.7,0-1.1-.4-1.3-1.1,0-.4,0-1,0-1.8l.6-4.2h1.3l-.6,4.2c0,.4,0,.7,0,.9,0,.4.3.5.6.5s.8-.2,1-.7c.1-.3.2-.6.3-1.1l.6-3.8h1.3l-1,6.9h-1.2v-1Z"/>
  <path d="M165.9,50.7c0-.4,0-.6,0-.8,0-.4-.3-.5-.6-.5s-.8.3-1,.8c-.1.3-.2.6-.3,1.1l-.6,3.7h-1.3l1-6.9h1.2l-.2,1c.2-.4.4-.6.6-.8.3-.3.7-.4,1.1-.4s.9.2,1.1.6c.3.4.3,1,.2,1.9l-.7,4.7h-1.3l.6-4.2Z"/>
  <path d="M169.5,57.7c-.6,0-1.1-.2-1.4-.5s-.5-.9-.4-1.6h1.4c0,.2,0,.4.1.5.1.2.3.2.7.2s.8-.2,1-.7c.1-.3.3-.7.4-1.4v-.4c0,.3-.3.5-.4.7-.3.3-.6.4-1,.4-.6,0-1.1-.3-1.4-.9-.3-.6-.3-1.5-.2-2.5.2-1,.5-1.9.9-2.6.5-.7,1-1.1,1.7-1.1s.4,0,.6.2c.3.2.5.5.6,1v-1h1.4l-1,6.6c-.1.9-.3,1.6-.6,2-.5.8-1.2,1.2-2.3,1.2ZM169.4,51.5c0,.4,0,.8,0,1.1,0,.6.3.9.8.9s.6-.2.8-.5c.3-.3.4-.8.5-1.5,0-.7,0-1.2,0-1.5-.1-.3-.4-.5-.7-.5s-.8.3-1.1.9c-.1.3-.2.7-.3,1.2Z"/>
  <path d="M176.3,48.3c.3-.3.7-.5,1.1-.5.6,0,1,.3,1.3.9.3.6.4,1.5.2,2.6-.2,1.2-.5,2.1-1,2.8s-1,1-1.6,1-.7-.1-.9-.4c-.1-.2-.2-.4-.3-.7l-.5,3.6h-1.3l1.4-9.6h1.2l-.2,1c.2-.3.4-.5.5-.7ZM177,53c.2-.4.4-.9.5-1.6,0-.5,0-1,0-1.4s-.4-.6-.7-.6-.8.3-1.1.9c-.1.3-.2.7-.3,1.3-.1.8,0,1.4.2,1.7.2.2.3.3.6.3.4,0,.7-.2.9-.6Z"/>
  <path d="M181.8,50.7c.2,0,.4,0,.5-.2.2-.1.3-.3.3-.5,0-.3,0-.5-.1-.6-.1-.1-.3-.2-.6-.2s-.5.1-.7.3c-.1.2-.2.4-.3.6h-1.2c.1-.6.3-1.1.6-1.5.4-.6,1-.9,1.9-.9s1,.2,1.3.5.5.9.4,1.7l-.5,3.2c0,.2,0,.5-.1.8,0,.2,0,.4,0,.5s0,.2.2.2v.3h-1.4c0-.1,0-.3,0-.4s0-.3,0-.4c-.2.3-.5.5-.7.7-.3.2-.6.3-1,.3s-.8-.2-1-.5c-.2-.4-.3-.9-.2-1.5.1-.9.4-1.5,1-1.8.3-.2.7-.4,1.2-.4h.4ZM181.8,51.8h-.3c-.3.1-.5.2-.6.3-.2.2-.4.4-.4.8,0,.3,0,.5,0,.7,0,.1.2.2.4.2.3,0,.5-.1.8-.3s.4-.6.5-1.3v-.7c0,0,0,.1-.2.2,0,0-.2,0-.4.1Z"/>
  <path d="M188.1,47.8s0,0,.1,0l-.3,1.9c0,0-.1,0-.2,0,0,0-.1,0-.2,0-.5,0-.9.2-1.1.7-.1.3-.2.7-.3,1.2l-.5,3.3h-1.3l1-6.9h1.2l-.2,1.2c.3-.5.5-.8.6-.9.3-.3.6-.4,1-.4h0Z"/>
  <path d="M189.5,52.7l-.3,2.2h-1.2l1.4-9.3h1.2l-.8,5,2-2.6h1.6l-2.1,2.6,1.1,4.2h-1.5l-.7-3-.6.8Z"/>
  <path d="M193,54.9l.3-1.9h1.3l-.3,1.9h-1.3Z"/>
  <path d="M199.2,50.7c0-.4,0-.6,0-.8,0-.4-.3-.5-.6-.5s-.8.3-1,.8c-.1.3-.2.6-.3,1.1l-.6,3.7h-1.3l1-6.9h1.2l-.2,1c.2-.4.4-.6.6-.8.3-.3.7-.4,1.1-.4s.9.2,1.1.6c.3.4.3,1,.2,1.9l-.7,4.7h-1.3l.6-4.2Z"/>
  <path d="M203.9,53.3c.1-.1.2-.3.3-.5h1.3c0,.4-.3.8-.6,1.3-.5.7-1.1,1-1.9,1s-1.1-.3-1.5-.9-.5-1.5-.3-2.8c.2-1.2.5-2.1,1-2.8.5-.6,1.1-1,1.8-1s.8.1,1,.3.5.6.6,1c.1.4.2.9.2,1.4,0,.3,0,.8-.2,1.4h-3.3c0,.7,0,1.2.2,1.5.1.2.3.3.6.3s.5-.1.7-.3ZM203.7,49.3c-.3,0-.5.1-.7.4s-.4.6-.5,1.1h2c0-.5,0-.8-.1-1.1-.1-.2-.4-.4-.6-.4Z"/>
  <path d="M211,48.9c.3.7.4,1.6.2,2.6-.2,1-.5,1.9-1,2.6-.5.7-1.2,1.1-2,1.1s-1.4-.4-1.7-1.1c-.3-.7-.4-1.6-.2-2.6.1-1,.5-1.9,1-2.6.5-.7,1.2-1.1,2-1.1s1.4.4,1.7,1.1ZM209,49.3c-.4,0-.7.2-.9.6-.3.4-.4.9-.5,1.6-.1.7,0,1.2,0,1.6s.4.6.8.6.7-.2.9-.6c.3-.4.4-.9.5-1.6s0-1.2,0-1.6c-.1-.4-.4-.6-.8-.6Z"/>
  <path d="M214.8,52.4h1.3c-.1.6-.3,1.1-.6,1.6-.5.8-1.2,1.2-1.9,1.2s-1.3-.3-1.6-1c-.3-.7-.3-1.5-.2-2.6.2-1.2.5-2.1,1-2.8.5-.7,1.1-1,1.8-1s1.1.2,1.4.6c.3.4.5,1.1.4,2.1h-1.3c0-.3,0-.5,0-.7-.1-.3-.3-.4-.6-.4-.4,0-.8.3-1,.9-.1.3-.2.7-.3,1.3,0,.5,0,.9,0,1.2,0,.6.3.9.7.9s.5-.1.7-.3c.2-.2.3-.5.4-.9Z"/>
  <path d="M217.7,48h1.3l-1,6.9h-1.3l1-6.9ZM218,45.5h1.3l-.2,1.7h-1.3l.2-1.7Z"/>
  <path d="M220.8,53c0,.3,0,.5,0,.5,0,0,.2.1.4.1s0,0,.1,0c0,0,0,0,.1,0l-.2,1.4h-.6c-.6,0-1,0-1.2-.4-.1-.2-.1-.5,0-1l.6-4.3h-.7l.2-1.3h.7l.3-1.9h1.3l-.3,1.9h.8l-.2,1.3h-.8l-.5,3.7Z"/>
  <path d="M223.1,48h1.3l-1,6.9h-1.3l1-6.9ZM223.5,45.5h1.3l-.2,1.7h-1.3l.2-1.7Z"/>
  <path d="M227.5,53.3c.1-.1.2-.3.3-.5h1.3c0,.4-.3.8-.6,1.3-.5.7-1.1,1-1.9,1s-1.1-.3-1.5-.9c-.4-.6-.5-1.5-.3-2.8.2-1.2.5-2.1,1-2.8.5-.6,1.1-1,1.8-1s.8.1,1,.3.5.6.6,1c.1.4.2.9.2,1.4,0,.3,0,.8-.2,1.4h-3.3c0,.7,0,1.2.2,1.5.1.2.3.3.6.3s.5-.1.7-.3ZM227.4,49.3c-.3,0-.5.1-.7.4s-.4.6-.5,1.1h2c0-.5,0-.8-.1-1.1-.1-.2-.4-.4-.6-.4Z"/>
  <path d="M231.6,49.8c0,.2,0,.4.1.5.1,0,.5.3,1.2.5.5.2.8.4,1,.8.2.3.3.8.2,1.3-.1.7-.4,1.2-.8,1.7-.4.4-1,.7-1.8.7s-1.3-.2-1.6-.7c-.3-.5-.4-1-.3-1.8h1.3c0,.3,0,.6,0,.7.1.2.4.4.8.4s.5,0,.6-.2.3-.3.3-.5c0-.2,0-.4-.1-.5-.1-.1-.5-.3-1.2-.5-.5-.2-.9-.4-1-.7-.2-.3-.2-.7-.2-1.2,0-.6.4-1.2.8-1.6.4-.5.9-.7,1.6-.7s1.1.2,1.4.5c.3.3.5.9.4,1.8h-1.3c0-.2,0-.4,0-.6-.1-.2-.3-.4-.7-.4s-.5,0-.6.2-.2.3-.2.4Z"/>
  <path d="M234.8,54.9l.3-1.9h1.3l-.3,1.9h-1.3Z"/>
  <path d="M242.1,48.9c.3.7.4,1.6.2,2.6-.2,1-.5,1.9-1,2.6-.5.7-1.2,1.1-2,1.1s-1.4-.4-1.7-1.1c-.3-.7-.4-1.6-.2-2.6.1-1,.5-1.9,1-2.6s1.2-1.1,2-1.1,1.4.4,1.7,1.1ZM240.2,49.3c-.4,0-.7.2-.9.6-.3.4-.4.9-.5,1.6s0,1.2,0,1.6.4.6.8.6.7-.2.9-.6.4-.9.5-1.6,0-1.2,0-1.6c-.1-.4-.4-.6-.8-.6Z"/>
  <path d="M246.5,47.8s0,0,.1,0l-.3,1.9c0,0-.1,0-.2,0,0,0-.1,0-.2,0-.5,0-.9.2-1.1.7-.1.3-.2.7-.3,1.2l-.5,3.3h-1.3l1-6.9h1.2l-.2,1.2c.3-.5.5-.8.6-.9.3-.3.6-.4,1-.4h0Z"/>
  <path d="M248,57.7c-.6,0-1.1-.2-1.4-.5-.3-.3-.5-.9-.4-1.6h1.4c0,.2,0,.4.1.5.1.2.3.2.7.2s.8-.2,1-.7c.1-.3.3-.7.4-1.4v-.4c0,.3-.3.5-.4.7-.3.3-.6.4-1,.4-.6,0-1.1-.3-1.4-.9-.3-.6-.3-1.5-.2-2.5.2-1,.5-1.9.9-2.6.5-.7,1-1.1,1.7-1.1s.4,0,.6.2c.3.2.5.5.6,1v-1h1.4l-1,6.6c-.1.9-.3,1.6-.6,2-.5.8-1.2,1.2-2.3,1.2ZM247.9,51.5c0,.4,0,.8,0,1.1,0,.6.3.9.8.9s.6-.2.8-.5c.3-.3.4-.8.5-1.5,0-.7,0-1.2,0-1.5s-.4-.5-.7-.5-.8.3-1.1.9c-.1.3-.2.7-.3,1.2Z"/>
  <path d="M5.2,64.7c.4,0,.8.1,1.2.4.4.3.6.6.8,1.1.2.5.3,1,.3,1.6s-.1,1.1-.3,1.6c-.2.5-.5.8-.8,1.1-.4.3-.7.4-1.2.4s-.8-.1-1.2-.4-.6-.6-.8-1.1c-.2-.5-.3-1-.3-1.6s.1-1.1.3-1.6c.2-.5.5-.8.8-1.1.4-.3.7-.4,1.2-.4ZM4.2,71.8h1.3v3.2h-1.3v-3.2ZM4.2,74.4h5.9v1.5h-5.9v-1.5ZM5.2,66.4c-.2,0-.4,0-.5.2s-.3.3-.4.5-.1.5-.1.8,0,.6.1.8c0,.2.2.4.4.5.2.1.3.2.5.2s.4,0,.5-.2c.2-.1.3-.3.4-.5,0-.2.1-.5.1-.8s0-.6-.1-.8-.2-.4-.4-.5c-.2-.1-.3-.2-.5-.2ZM8.5,64h1.3v8.7h-1.3v-8.7Z"/>
  <path d="M11,73.1h7.7v1.5h-7.7v-1.5ZM14,64.6h1.2v.9c0,.5,0,1-.1,1.5,0,.5-.2,1-.4,1.4-.2.4-.4.8-.7,1.2-.3.4-.6.7-1,.9-.4.3-.8.5-1.3.6l-.6-1.6c.4-.1.8-.3,1.1-.5.3-.2.6-.4.8-.7.2-.3.4-.6.6-.9.2-.3.3-.7.3-1,0-.3.1-.7.1-1v-.9ZM14.3,64.6h1.2v.9c0,.3,0,.7.1,1s.2.7.3,1c.2.3.3.6.6.9s.5.5.8.7.7.4,1.1.4l-.6,1.6c-.5-.1-.9-.3-1.3-.6-.4-.3-.7-.6-1-.9-.3-.4-.5-.8-.7-1.2-.2-.4-.3-.9-.4-1.4s-.1-1-.1-1.6v-.9Z"/>
  <path d="M19.5,64.9h4v1.5h-2.6v5.9h-1.3v-7.4ZM19.5,71.9h.7c.5,0,.9,0,1.3,0s.8,0,1.2,0c.4,0,.8-.1,1.2-.2v1.5c-.3,0-.7.2-1.1.2-.4,0-.8,0-1.3,0-.4,0-.9,0-1.4,0h-.7v-1.5ZM20.5,68.3h2.9v1.5h-2.9v-1.5ZM24.5,64h1.3v12.1h-1.3v-12.1ZM25.6,68.5h1.5v1.6h-1.5v-1.6Z"/>
  <path d="M27.6,73h7.7v1.5h-7.7v-1.5ZM28.4,65h5.4v1.5h-5.4v-1.5ZM33,65h1.3v1.5c0,.6,0,1.2,0,1.7,0,.6,0,1.2,0,1.9s-.1,1.4-.2,2.2l-1.3-.2c.1-.8.2-1.5.2-2.1,0-.6,0-1.3,0-1.8,0-.6,0-1.1,0-1.7v-1.5Z"/>
  <path d="M36.1,64.7h3.2v3.7h-1.9v2.1h-1.3v-3.4h1.9v-.8h-1.9v-1.5ZM36.2,69.2h.6c.4,0,.8,0,1.1,0,.3,0,.6,0,.9,0,.3,0,.6,0,.9-.2v1.5c-.2,0-.5.1-.8.2s-.6,0-1,0-.7,0-1.1,0h-.6v-1.5ZM37.3,71.6h5.8v4.4h-5.8v-4.4ZM41.8,73.1h-3.2v1.4h3.2v-1.4ZM40,64.2h1.2v6.8h-1.2v-6.8ZM40.9,66.7h1.3v1.5h-1.3v-1.5ZM41.8,64h1.3v7.1h-1.3v-7.1Z"/>
  <path d="M205.6,73.1h.1c0-.1.2.6.2.6-.5.5-1,.8-1.5,1.1-.5.2-1.1.4-1.6.4-1.2,0-2.1-.5-2.6-1.6-.4-.9-.5-2-.4-3.2.2-1.4.7-2.6,1.6-3.5.9-1,1.9-1.5,3-1.5s1.7.3,2.2,1c.5.7.7,1.7.5,2.9-.1,1-.5,1.8-1,2.5-.5.7-1,1-1.6,1s-.5-.1-.6-.3c-.1-.2-.2-.4-.1-.7,0,0,0,0,0,0,0,0,0,0,0-.1-.2.3-.3.5-.5.7-.3.3-.6.5-1,.5s-.6-.2-.8-.6-.2-.9-.1-1.5c.1-.8.4-1.5.9-2.2s1-1,1.5-1,.5.1.7.4c.1.2.2.4.2.7l.3-.8h.8l-1,2.8c0,.2-.1.4-.2.5,0,.1,0,.2,0,.3,0,.1,0,.2,0,.4,0,.1.1.2.3.2.3,0,.5-.2.9-.7.3-.5.5-1.1.7-1.9.2-1.2,0-2-.7-2.5-.4-.3-.9-.5-1.4-.5-1,0-1.9.4-2.6,1.3-.7.8-1.1,1.8-1.3,2.9-.2,1.2,0,2.2.5,2.9.5.6,1.1,1,2,1s1.1-.1,1.6-.4c.3-.2.6-.4.9-.7ZM202.6,70.7c0,.3,0,.6,0,.7,0,.2.2.3.4.3.3,0,.6-.3.9-1,.3-.7.5-1.2.5-1.6,0-.2,0-.4,0-.6,0-.2-.2-.2-.3-.2-.3,0-.6.3-.9.8-.3.5-.5,1.1-.6,1.6Z"/>
  <path d="M210.4,68l-1.1,7.6c-.1.7-.3,1.2-.5,1.5-.2.3-.6.5-1.2.5s0,0-.2,0-.2,0-.3,0l.2-1.4c0,0,.1,0,.1,0,0,0,0,0,0,0,.1,0,.2,0,.3-.1,0,0,.1-.3.2-.5l1.1-7.6h1.3ZM209.3,67.2l.2-1.7h1.3l-.2,1.7h-1.3Z"/>
  <path d="M213.7,73.9s0,0-.1.2c0,.1-.1.2-.2.3-.2.3-.5.4-.7.5-.2,0-.4.1-.7.1-.7,0-1.1-.4-1.3-1.1,0-.4,0-1,0-1.8l.6-4.2h1.3l-.6,4.2c0,.4,0,.7,0,.9,0,.4.3.5.6.5s.8-.2,1-.7c.1-.3.2-.6.3-1.1l.6-3.8h1.3l-1,6.9h-1.2v-1Z"/>
  <path d="M219.8,70.7c0-.4,0-.6,0-.8,0-.4-.3-.5-.6-.5s-.8.3-1,.8c-.1.3-.2.6-.3,1.1l-.6,3.7h-1.3l1-6.9h1.2l-.2,1c.2-.4.4-.6.6-.8.3-.3.7-.4,1.1-.4s.9.2,1.1.6c.3.4.3,1,.2,1.9l-.7,4.7h-1.3l.6-4.2Z"/>
  <path d="M223.3,77.7c-.6,0-1.1-.2-1.4-.5-.3-.3-.5-.9-.4-1.6h1.4c0,.2,0,.4.1.5.1.2.3.2.7.2s.8-.2,1-.7c.1-.3.3-.7.4-1.4v-.4c0,.3-.3.5-.4.7-.3.3-.6.4-1,.4-.6,0-1.1-.3-1.4-.9-.3-.6-.3-1.5-.2-2.5.2-1,.5-1.9.9-2.6.5-.7,1-1.1,1.7-1.1s.4,0,.6.2c.3.2.5.5.6,1v-1h1.4l-1,6.6c-.1.9-.3,1.6-.6,2-.5.8-1.2,1.2-2.3,1.2ZM223.3,71.5c0,.4,0,.8,0,1.1,0,.6.3.9.8.9s.6-.2.8-.5c.3-.3.4-.8.5-1.5,0-.7,0-1.2,0-1.5s-.4-.5-.7-.5-.8.3-1.1.9c-.1.3-.2.7-.3,1.2Z"/>
  <path d="M230.1,68.3c.3-.3.7-.5,1.1-.5.6,0,1,.3,1.3.9s.4,1.5.2,2.6c-.2,1.2-.5,2.1-1,2.8-.5.6-1,1-1.6,1s-.7-.1-.9-.4c-.1-.2-.2-.4-.3-.7l-.5,3.6h-1.3l1.4-9.6h1.2l-.2,1c.2-.3.4-.5.5-.7ZM230.9,73c.2-.4.4-.9.5-1.6,0-.5,0-1,0-1.4s-.4-.6-.7-.6-.8.3-1.1.9c-.1.3-.2.7-.3,1.3-.1.8,0,1.4.2,1.7.2.2.3.3.6.3.4,0,.7-.2.9-.6Z"/>
  <path d="M235.7,70.7c.2,0,.4,0,.5-.2.2-.1.3-.3.3-.5,0-.3,0-.5-.1-.6-.1-.1-.3-.2-.6-.2s-.5.1-.7.3c-.1.2-.2.4-.3.6h-1.2c.1-.6.3-1.1.6-1.5.4-.6,1-.9,1.9-.9s1,.2,1.3.5.5.9.4,1.7l-.5,3.2c0,.2,0,.5-.1.8,0,.2,0,.4,0,.5,0,0,0,.2.2.2v.3h-1.4c0-.1,0-.3,0-.4s0-.3,0-.4c-.2.3-.5.5-.7.7-.3.2-.6.3-1,.3s-.8-.2-1-.5c-.2-.4-.3-.9-.2-1.5.1-.9.4-1.5,1-1.8.3-.2.7-.4,1.2-.4h.4ZM235.7,71.8h-.3c-.3.1-.5.2-.6.3-.2.2-.4.4-.4.8,0,.3,0,.5,0,.7,0,.1.2.2.4.2.3,0,.5-.1.8-.3.3-.2.4-.6.5-1.3v-.7c0,0,0,.1-.2.2,0,0-.2,0-.4.1Z"/>
  <path d="M240.8,70.7c.2,0,.4,0,.5-.2.2-.1.3-.3.3-.5,0-.3,0-.5-.1-.6-.1-.1-.3-.2-.6-.2s-.5.1-.7.3c-.1.2-.2.4-.3.6h-1.2c.1-.6.3-1.1.6-1.5.4-.6,1-.9,1.9-.9s1,.2,1.3.5.5.9.4,1.7l-.5,3.2c0,.2,0,.5-.1.8,0,.2,0,.4,0,.5,0,0,0,.2.2.2v.3h-1.4c0-.1,0-.3,0-.4s0-.3,0-.4c-.2.3-.5.5-.7.7-.3.2-.6.3-1,.3s-.8-.2-1-.5c-.2-.4-.3-.9-.2-1.5.1-.9.4-1.5,1-1.8.3-.2.7-.4,1.2-.4h.4ZM240.8,71.8h-.3c-.3.1-.5.2-.6.3-.2.2-.4.4-.4.8,0,.3,0,.5,0,.7,0,.1.2.2.4.2.3,0,.5-.1.8-.3.3-.2.4-.6.5-1.3v-.7c0,0,0,.1-.2.2,0,0-.2,0-.4.1Z"/>
  <path d="M247.1,67.8s0,0,.1,0l-.3,1.9c0,0-.1,0-.2,0,0,0-.1,0-.2,0-.5,0-.9.2-1.1.7-.1.3-.2.7-.3,1.2l-.5,3.3h-1.3l1-6.9h1.2l-.2,1.2c.3-.5.5-.8.6-.9.3-.3.6-.4,1-.4h0Z"/>
  <path d="M248.5,72.7l-.3,2.2h-1.2l1.4-9.3h1.2l-.8,5,2-2.6h1.6l-2.1,2.6,1.1,4.2h-1.5l-.7-3-.6.8Z"/>
  <path d="M2.8,90.6h7.7v1.5H2.8v-1.5ZM3.2,84.8h6.9v1.4H3.2v-1.4ZM3.7,92.7h5.9v3.4h-1.3v-2H3.7v-1.4ZM6.7,86.5c.9,0,1.6.2,2.1.5s.7.7.7,1.3-.2,1-.7,1.3c-.5.3-1.2.4-2.1.4s-1.6-.1-2.1-.4c-.5-.3-.7-.7-.7-1.3s.2-1,.7-1.3,1.2-.5,2.1-.5ZM6.7,87.8c-.5,0-.9,0-1.1.1-.2,0-.4.2-.4.4s.1.3.4.4c.2,0,.6.1,1.1.1s.9,0,1.2-.1c.2,0,.4-.2.4-.4s-.1-.3-.4-.4c-.2,0-.6-.1-1.2-.1ZM6,83.9h1.3v1.9h-1.3v-1.9ZM6,89.6h1.3v1.7h-1.3v-1.7Z"/>
  <path d="M243.5,90.1h7.7v1.5h-7.7v-1.5ZM247.3,84.3c.6,0,1.2.1,1.6.3s.8.5,1.1.9c.3.4.4.8.4,1.3s-.1,1-.4,1.3-.6.7-1.1.9-1,.3-1.6.3-1.2-.1-1.6-.3-.8-.5-1.1-.9-.4-.8-.4-1.3.1-1,.4-1.3c.3-.4.6-.7,1.1-.9s1-.3,1.6-.3ZM244.4,92.3h1.3v2.5h-1.3v-2.5ZM244.4,94.4h5.9v1.5h-5.9v-1.5ZM247.3,85.8c-.4,0-.7,0-.9.1s-.4.2-.6.3c-.1.1-.2.3-.2.6s0,.4.2.6c.1.2.3.3.6.3s.6.1.9.1.7,0,.9-.1.4-.2.6-.3c.1-.2.2-.3.2-.6s0-.4-.2-.6c-.1-.1-.3-.3-.6-.3s-.6-.1-.9-.1Z"/>
  <path d="M5.1,104.7c.4,0,.8.1,1.1.4.3.3.6.6.8,1.1s.3,1,.3,1.6-.1,1.2-.3,1.6-.5.9-.8,1.1c-.3.3-.7.4-1.1.4s-.8-.1-1.1-.4c-.3-.3-.6-.6-.8-1.1s-.3-1-.3-1.6.1-1.1.3-1.6.5-.8.8-1.1c.3-.3.7-.4,1.1-.4ZM5.1,106.4c-.2,0-.4,0-.5.2-.1.1-.3.3-.4.5,0,.2-.1.5-.1.8s0,.6.1.8c0,.2.2.4.4.5.1.1.3.2.5.2s.4,0,.5-.2c.1-.1.3-.3.4-.5,0-.2.1-.5.1-.8s0-.6-.1-.8c0-.2-.2-.4-.4-.5-.1-.1-.3-.2-.5-.2ZM4.3,112h1.3v3.2h-1.3v-3.2ZM4.3,114.4h5.8v1.5h-5.8v-1.5ZM6.6,105.6h2.5v1.5h-2.5v-1.5ZM6.6,108.6h2.5v1.5h-2.5v-1.5ZM8.6,104h1.3v8.8h-1.3v-8.8Z"/>
  <path d="M11.2,104.6h3.9v3.8h-2.6v1.7h-1.3v-3.1h2.6v-.9h-2.6v-1.5ZM11.2,109.4h.7c.6,0,1.1,0,1.5,0,.4,0,.8,0,1.2-.1s.7-.1,1.1-.2v1.5c-.3.1-.6.2-1,.2s-.8,0-1.3.1c-.4,0-1,0-1.6,0h-.7v-1.5ZM11.9,111.9h5.7v4.2h-1.3v-2.7h-4.4v-1.5ZM16.2,104h1.3v7.4h-1.3v-7.4ZM17.2,106.8h1.5v1.6h-1.5v-1.6Z"/>
  <path d="M19.3,108.7h7.7v1.5h-7.7v-1.5ZM23.1,104.1c1,0,1.7.2,2.3.5.5.4.8.9.8,1.5s-.3,1.2-.8,1.5-1.3.5-2.3.5-1.7-.2-2.3-.5-.8-.9-.8-1.5.3-1.2.8-1.5c.5-.4,1.3-.5,2.3-.5ZM20.1,110.8h5.9v3.2h-4.6v1h-1.3v-2.3h4.6v-.5h-4.6v-1.4ZM20.1,114.6h6.1v1.4h-6.1v-1.4ZM23.1,105.5c-.4,0-.7,0-1,0-.3,0-.4.1-.6.2-.1,0-.2.2-.2.4s0,.3.2.4c.1,0,.3.2.6.2.3,0,.6,0,1,0s.7,0,1,0c.2,0,.4-.1.6-.2.1,0,.2-.2.2-.4s0-.3-.2-.4c-.1,0-.3-.2-.6-.2-.2,0-.6,0-1,0Z"/>
  <path d="M219,110.8l-.2-1.5c.5,0,1.1,0,1.7,0,.6,0,1.2,0,1.9,0,.6,0,1.2-.1,1.8-.2v1.4c-.5.1-1.1.3-1.8.3-.6,0-1.2.1-1.8.1-.6,0-1.1,0-1.6,0ZM221.5,104.4c.4,0,.8,0,1.1.3.3.2.6.4.7.8.2.3.3.7.3,1.1s0,.8-.3,1.1c-.2.3-.4.6-.7.8-.3.2-.7.3-1.1.3s-.8,0-1.1-.3c-.3-.2-.6-.4-.8-.8s-.3-.7-.3-1.1,0-.8.3-1.1c.2-.3.4-.6.8-.8.3-.2.7-.3,1.1-.3ZM219.9,112.3h1.3v2.5h-1.3v-2.5ZM219.9,114.4h6.4v1.5h-6.4v-1.5ZM221.5,105.8c-.3,0-.5,0-.6.2-.2.1-.2.3-.2.6s0,.5.2.6c.2.1.4.2.6.2s.5,0,.6-.2c.2-.1.2-.3.2-.6s0-.3-.1-.4c0-.1-.2-.2-.3-.3-.1,0-.3,0-.4,0ZM221,110.2h1.3v2.6h-1.3v-2.6ZM223.2,111h1.8v1.3h-1.8v-1.3ZM224.7,104h1.3v9.2h-1.3v-9.2Z"/>
  <path d="M227.1,105.2h5v1.5h-5v-1.5ZM229.6,107c.4,0,.8,0,1.1.3s.6.5.7.8c.2.4.3.8.3,1.2s0,.9-.3,1.2c-.2.4-.4.6-.7.8-.3.2-.7.3-1.1.3s-.8,0-1.1-.3c-.3-.2-.6-.5-.7-.8-.2-.4-.3-.8-.3-1.2s0-.9.3-1.2c.2-.4.4-.6.7-.8s.7-.3,1.1-.3ZM228.3,112.4h1.3v2.7h-1.3v-2.7ZM228.3,114.4h5.8v1.5h-5.8v-1.5ZM229.6,108.5c-.2,0-.4,0-.6.2-.2.2-.2.4-.2.7s0,.5.2.7c.2.2.4.2.6.2s.4,0,.6-.2c.1-.2.2-.4.2-.7s0-.5-.2-.7c-.1-.2-.3-.2-.6-.2ZM228.9,103.9h1.3v2h-1.3v-2ZM232.5,104h1.3v9h-1.3v-9ZM233.4,107.6h1.5v1.6h-1.5v-1.6Z"/>
  <path d="M235.7,105.1h4v1.5h-2.6v5.8h-1.3v-7.3ZM235.7,111.6h.7c.5,0,.9,0,1.3,0,.4,0,.8,0,1.2-.1.4,0,.8-.1,1.2-.2v1.6c-.3.1-.7.2-1.1.2-.4,0-.8,0-1.3.1-.4,0-.9,0-1.4,0h-.7v-1.6ZM240.7,103.9h1.3v12.2h-1.3v-12.2ZM241.7,108.4h1.5v1.6h-1.5v-1.6Z"/>
  <path d="M244,104.9h4v6h-4v-6ZM245.1,111.9h1.3v3.2h-1.3v-3.2ZM245.1,114.4h5.8v1.5h-5.8v-1.5ZM246.7,106.4h-1.4v3h1.4v-3ZM247.7,105.8h2.1v1.5h-2.1v-1.5ZM247.7,108.4h2.1v1.5h-2.1v-1.5ZM249.4,104h1.3v8.8h-1.3v-8.8Z"/>
  <path d="M9.2,126.9c.2.5.2,1,.2,1.5,0,.5,0,1.1-.1,1.5-.2,1.2-.5,2.3-1,3.2-.6,1.2-1.5,1.7-2.5,1.7h-2.8l1.4-9.4h2.8c.4,0,.7,0,1,.2.4.2.7.6.9,1.2ZM7.9,130.1c.1-1,.1-1.7,0-2.2s-.5-.8-1.1-.8h-1.3l-.9,6.1h1.3c.6,0,1.2-.5,1.6-1.4.2-.5.4-1.1.5-1.8Z"/>
  <path d="M13.4,134.9h-1.3v-7.9c0,.2-.1.4-.2.8s0,.6-.1.8l-.9,6.3h-1.3l1.4-9.4h2v7.4c0,0,2.4-7.4,2.4-7.4h2l-1.4,9.4h-1.3l.9-6.3c0-.2,0-.4.1-.8s0-.6.1-.8l-2.4,7.9Z"/>
  <g>
    <path d="M119.5,133.2h7.7v1.6h-7.7v-1.6ZM120.1,124.9h3v1.5h-1.7v3.2h-1.3v-4.7ZM120.1,129h.6c.3,0,.7,0,.9,0,.3,0,.5,0,.8,0,.3,0,.5,0,.8-.2v1.6c-.2,0-.5.1-.7.2-.3,0-.5,0-.8,0s-.6,0-1,0h-.6v-1.6ZM122.7,131h1.3v2.8h-1.3v-2.8ZM123.7,124.9h3v1.5h-1.7v3.4h-1.3v-4.9ZM123.7,129h3v1.5h-3v-1.5Z"/>
    <path d="M127.9,129.8h7.7v1.5h-7.7v-1.5ZM128.7,132.2h1.3v2.5h-1.3v-2.5ZM128.7,134.3h6.1v1.5h-6.1v-1.5ZM128.8,124.4h1.3v3.5h-1.3v-3.5ZM128.8,127.1h5.9v1.5h-5.9v-1.5Z"/>
  </g>
  <path d="M157,128l-1.1,7.6c-.1.7-.3,1.2-.5,1.5-.2.3-.6.5-1.2.5s0,0-.2,0c0,0-.2,0-.3,0l.2-1.4c0,0,.1,0,.1,0s0,0,0,0c.1,0,.2,0,.3-.1s.1-.3.2-.5l1.1-7.6h1.3ZM155.8,127.2l.2-1.7h1.3l-.2,1.7h-1.3Z"/>
  <path d="M160.3,133.9s0,0-.1.2c0,.1-.1.2-.2.3-.2.3-.5.4-.7.5-.2,0-.4.1-.7.1-.7,0-1.1-.4-1.3-1.1,0-.4,0-1,0-1.8l.6-4.2h1.3l-.6,4.2c0,.4,0,.7,0,.9,0,.4.3.5.6.5s.8-.2,1-.7c.1-.3.2-.6.3-1.1l.6-3.8h1.3l-1,6.9h-1.2v-1Z"/>
  <path d="M166.3,130.7c0-.4,0-.6,0-.8,0-.4-.3-.5-.6-.5s-.8.3-1,.8c-.1.3-.2.6-.3,1.1l-.6,3.7h-1.3l1-6.9h1.2l-.2,1c.2-.4.4-.6.6-.8.3-.3.7-.4,1.1-.4s.9.2,1.1.6c.3.4.3,1,.2,1.9l-.7,4.7h-1.3l.6-4.2Z"/>
  <path d="M169.9,137.7c-.6,0-1.1-.2-1.4-.5-.3-.3-.5-.9-.4-1.6h1.4c0,.2,0,.4.1.5.1.2.3.2.7.2s.8-.2,1-.7c.1-.3.3-.8.4-1.4v-.4c0,.3-.3.5-.4.7-.3.3-.6.4-1,.4-.6,0-1.1-.3-1.4-.9s-.3-1.5-.2-2.5c.2-1,.5-1.9.9-2.6s1-1.1,1.7-1.1.4,0,.6.2c.3.2.5.5.6,1v-1h1.4l-1,6.6c-.1.9-.3,1.6-.6,2-.5.8-1.2,1.2-2.3,1.2ZM169.8,131.5c0,.4,0,.8,0,1.1,0,.6.3.9.8.9s.6-.2.8-.5c.3-.3.4-.8.5-1.5,0-.7,0-1.2,0-1.5-.1-.3-.4-.5-.7-.5s-.8.3-1.1.9c-.1.3-.2.7-.3,1.2Z"/>
  <path d="M173.3,136.5v-.6h5.2v.6h-5.2Z"/>
  <path d="M181.9,128.3c.3-.3.7-.5,1.1-.5.6,0,1,.3,1.3.9.3.6.4,1.5.2,2.6-.2,1.2-.5,2.1-1,2.8s-1,1-1.6,1-.7-.1-.9-.4c-.1-.2-.2-.4-.3-.7l-.5,3.6h-1.3l1.4-9.6h1.2l-.2,1c.2-.3.4-.5.5-.7ZM182.7,133c.2-.4.4-.9.5-1.6,0-.5,0-1,0-1.4s-.4-.6-.7-.6-.8.3-1.1.9c-.1.3-.2.7-.3,1.3-.1.8,0,1.4.2,1.7.2.2.3.3.6.3.4,0,.7-.2.9-.6Z"/>
  <path d="M187.5,130.7c.2,0,.4,0,.5-.2.2-.1.3-.3.3-.5,0-.3,0-.5-.1-.6-.1-.1-.3-.2-.6-.2s-.5.1-.7.3c-.1.2-.2.4-.3.6h-1.2c.1-.6.3-1.1.6-1.5.4-.6,1-.9,1.9-.9s1,.2,1.3.5c.4.3.5.9.4,1.7l-.5,3.2c0,.2,0,.5-.1.8,0,.2,0,.4,0,.5,0,0,0,.2.2.2v.3h-1.4c0-.1,0-.3,0-.4s0-.3,0-.4c-.2.3-.5.5-.7.7-.3.2-.6.3-1,.3s-.8-.2-1-.5-.3-.9-.2-1.5c.1-.9.4-1.5,1-1.8.3-.2.7-.4,1.2-.4h.4ZM187.5,131.8h-.3c-.3.1-.5.2-.6.3-.2.2-.4.4-.4.8,0,.3,0,.5,0,.7,0,.1.2.2.4.2.3,0,.5-.1.8-.3s.4-.6.5-1.2v-.7c0,0,0,.1-.2.2,0,0-.2,0-.4.1Z"/>
  <path d="M193.8,127.8s0,0,.1,0l-.3,1.9c0,0-.1,0-.2,0,0,0-.1,0-.2,0-.5,0-.9.2-1.1.7-.1.3-.2.7-.3,1.2l-.5,3.3h-1.3l1-6.9h1.2l-.2,1.2c.3-.5.5-.8.6-.9.3-.3.6-.4,1-.4h0Z"/>
  <path d="M195.2,132.7l-.3,2.2h-1.2l1.4-9.3h1.2l-.8,5,2-2.6h1.6l-2.1,2.6,1.1,4.2h-1.5l-.7-3-.6.8Z"/>
  <path d="M205,133.1h.1c0-.1.2.6.2.6-.5.5-1,.8-1.5,1.1-.5.2-1.1.4-1.6.4-1.2,0-2.1-.5-2.6-1.6-.4-.9-.5-2-.4-3.2.2-1.4.7-2.6,1.6-3.5.9-1,1.9-1.5,3-1.5s1.7.3,2.2,1c.5.7.7,1.7.5,2.9-.1,1-.5,1.8-1,2.5s-1,1-1.6,1-.5-.1-.6-.3-.2-.4-.1-.7c0,0,0,0,0,0,0,0,0,0,0-.1-.2.3-.3.5-.5.7-.3.3-.6.5-1,.5s-.6-.2-.8-.6-.2-.9-.1-1.5c.1-.8.4-1.5.9-2.2.5-.7,1-1,1.5-1s.5.1.7.4c.1.2.2.4.2.7l.3-.8h.8l-1,2.8c0,.2-.1.4-.2.5,0,.1,0,.2,0,.3,0,.1,0,.2,0,.4s.1.2.3.2c.3,0,.5-.2.9-.7.3-.5.5-1.1.7-1.9.2-1.2,0-2-.7-2.5-.4-.3-.9-.5-1.4-.5-1,0-1.9.4-2.6,1.3-.7.8-1.1,1.7-1.3,2.9-.2,1.2,0,2.2.5,2.9.5.6,1.1,1,2,1s1.1-.1,1.6-.4c.3-.2.6-.4.9-.7ZM202,130.7c0,.3,0,.6,0,.7,0,.2.2.3.4.3.3,0,.6-.3.9-1s.5-1.2.5-1.6c0-.2,0-.4,0-.6,0-.2-.2-.2-.3-.2-.3,0-.6.3-.9.8-.3.5-.5,1.1-.6,1.6Z"/>
  <path d="M210.9,130.7c0-.4,0-.6,0-.8,0-.4-.3-.5-.6-.5s-.8.3-1,.8c-.1.3-.2.6-.3,1.1l-.6,3.7h-1.3l1-6.9h1.2l-.2,1c.2-.4.4-.6.6-.8.3-.3.7-.4,1.1-.4s.9.2,1.1.6c.3.4.3,1,.2,1.9l-.7,4.7h-1.3l.6-4.2Z"/>
  <path d="M215.4,130.7c.2,0,.4,0,.5-.2.2-.1.3-.3.3-.5,0-.3,0-.5-.1-.6-.1-.1-.3-.2-.6-.2s-.5.1-.7.3c-.1.2-.2.4-.3.6h-1.2c.1-.6.3-1.1.6-1.5.4-.6,1-.9,1.9-.9s1,.2,1.3.5c.4.3.5.9.4,1.7l-.5,3.2c0,.2,0,.5-.1.8,0,.2,0,.4,0,.5,0,0,0,.2.2.2v.3h-1.4c0-.1,0-.3,0-.4s0-.3,0-.4c-.2.3-.5.5-.7.7-.3.2-.6.3-1,.3s-.8-.2-1-.5-.3-.9-.2-1.5c.1-.9.4-1.5,1-1.8.3-.2.7-.4,1.2-.4h.4ZM215.4,131.8h-.3c-.3.1-.5.2-.6.3-.2.2-.4.4-.4.8,0,.3,0,.5,0,.7,0,.1.2.2.4.2.3,0,.5-.1.8-.3s.4-.6.5-1.2v-.7c0,0,0,.1-.2.2,0,0-.2,0-.4.1Z"/>
  <path d="M219.9,133.1l1.8-5.1h1.4l-2.8,6.9h-1.3l-.7-6.9h1.4l.2,5.1Z"/>
  <path d="M225.6,133.3c.1-.1.2-.3.3-.5h1.3c0,.4-.3.8-.6,1.2-.5.7-1.1,1-1.9,1s-1.1-.3-1.5-.9c-.4-.6-.5-1.5-.3-2.8.2-1.2.5-2.1,1-2.8.5-.6,1.1-1,1.8-1s.8.1,1,.3.5.6.6,1c.1.4.2.9.2,1.4,0,.3,0,.8-.2,1.4h-3.3c0,.7,0,1.2.2,1.5.1.2.3.3.6.3s.5-.1.7-.3ZM225.5,129.3c-.3,0-.5.1-.7.4s-.4.6-.5,1.1h2c0-.5,0-.8-.1-1.1-.1-.2-.4-.4-.6-.4Z"/>
  <path d="M231.6,127.8s0,0,.1,0l-.3,1.9c0,0-.1,0-.2,0,0,0-.1,0-.2,0-.5,0-.9.2-1.1.7-.1.3-.2.7-.3,1.2l-.5,3.3h-1.3l1-6.9h1.2l-.2,1.2c.3-.5.5-.8.6-.9.3-.3.6-.4,1-.4h0Z"/>
  <path d="M230.9,134.9l.3-1.9h1.3l-.3,1.9h-1.3Z"/>
  <path d="M236.5,132.4h1.3c-.1.6-.3,1.1-.6,1.6-.5.8-1.2,1.2-1.9,1.2s-1.3-.3-1.6-1c-.3-.7-.3-1.5-.2-2.6.2-1.2.5-2.1,1-2.8s1.1-1,1.8-1,1.1.2,1.4.6c.3.4.5,1.1.4,2.1h-1.3c0-.3,0-.5,0-.7-.1-.3-.3-.4-.6-.4-.4,0-.8.3-1,.9-.1.3-.2.7-.3,1.3,0,.5,0,.9,0,1.2,0,.6.3.9.7.9s.5-.1.7-.3c.2-.2.3-.5.4-.9Z"/>
  <path d="M243.2,128.9c.3.7.4,1.6.2,2.6-.2,1-.5,1.9-1,2.6-.5.7-1.2,1.1-2,1.1s-1.4-.4-1.7-1.1-.4-1.6-.2-2.6c.1-1,.5-1.9,1-2.6s1.2-1.1,2-1.1,1.4.4,1.7,1.1ZM241.3,129.3c-.4,0-.7.2-.9.6-.3.4-.4.9-.5,1.6-.1.7,0,1.2,0,1.6s.4.6.8.6.7-.2.9-.6.4-.9.5-1.6c.1-.7,0-1.2,0-1.6-.1-.4-.4-.6-.8-.6Z"/>
  <path d="M246.8,129.4c-.4,0-.6.2-.8.5,0,.2-.2.5-.2.9l-.6,4.2h-1.3l1-6.9h1.2l-.2,1c.2-.4.4-.6.6-.8.3-.3.6-.4,1-.4s.7.1.8.3c.2.2.2.5.3.8.2-.4.5-.7.8-.9.3-.2.6-.3.9-.3s.4,0,.6.2c.2.1.3.3.5.6,0,.2.1.5.1.9,0,.2,0,.6-.1,1l-.7,4.4h-1.3l.7-4.4c0-.3,0-.5,0-.6,0-.3-.2-.5-.6-.5s-.6.2-.8.6c-.1.2-.2.5-.2.8l-.6,4.1h-1.3l.6-4.1c0-.4,0-.7,0-.9,0-.3-.2-.5-.6-.5Z"/>
</svg>