<?xml version="1.0" encoding="UTF-8"?>
<svg id="_레이어_1" xmlns="http://www.w3.org/2000/svg" version="1.1" viewBox="0 0 255.1 141.7">
  <!-- Generator: Adobe Illustrator 29.6.1, SVG Export Plug-In . SVG Version: 2.1.1 Build 9)  -->
  <defs>
    <style>
      .st0 {
        fill: #fff;
      }

      .st1 {
        opacity: 0;
      }
    </style>
  </defs>
  <rect class="st0" y="0" width="255.1" height="141.7"/>
  <path d="M4.6,5.2h1v.7c0,.8,0,1.5-.2,2.2-.2.7-.4,1.3-.7,1.9-.3.5-.7.9-1.3,1.2l-.6-1.5c.3-.2.6-.4.8-.7.2-.3.4-.6.6-.9.1-.3.2-.7.3-1.1,0-.4,0-.8,0-1.1v-.7ZM3.1,4.7h4.2v1.5H3.1v-1.5ZM6.8,11.4c.6,0,1,0,1.5.3.4.2.7.5.9.8s.3.8.3,1.3c0,.8-.2,1.3-.7,1.7-.5.4-1.2.6-2,.6s-1.5-.2-2-.6c-.5-.4-.7-1-.7-1.7s.1-.9.3-1.3c.2-.4.5-.6.9-.8.4-.2.9-.3,1.4-.3ZM4.9,5.2h1v.7c0,.5,0,.9.2,1.4.1.5.3.9.6,1.2.3.4.6.7,1,.9l-.6,1.5c-.5-.3-.9-.6-1.2-1.1-.3-.5-.5-1.1-.7-1.8-.1-.7-.2-1.4-.2-2.1v-.7ZM6.8,12.8c-.3,0-.6,0-.8,0-.2,0-.4.2-.5.3s-.2.3-.2.5,0,.4.2.5.3.2.5.3c.2,0,.5,0,.8,0s.6,0,.8,0,.4-.2.5-.3.2-.3.2-.5,0-.4-.2-.5-.3-.2-.5-.3-.5,0-.8,0ZM7.1,6.8h1.4v1.5h-1.4v-1.5ZM8.2,4h1.3v7.2h-1.3V4Z"/>
  <path d="M244.3,4.7h1.2v1.5h1.4v-1.5h1.2v5.9h-3.8v-5.9ZM245,11.7h5.3v4.4h-1.2v-2.8h-4v-1.5ZM245.5,7.7v1.5h1.4v-1.5h-1.4ZM249.1,4h1.2v7.2h-1.2V4ZM250,6.9h1.4v1.6h-1.4v-1.6Z"/>
  <path d="M3,33.7v-1.5c.3,0,.8,0,1.4,0,.6,0,1.1,0,1.7-.1.6,0,1.2-.1,1.7-.3v1.4c-.5.2-1,.3-1.6.4-.6,0-1.1.1-1.7.1s-1,0-1.5,0ZM5.4,24.7c.4,0,.8.1,1.1.4.3.3.6.6.8,1.1.2.5.3,1,.3,1.6s0,1.1-.3,1.6c-.2.5-.5.8-.8,1.1-.3.3-.7.4-1.1.4s-.8-.1-1.1-.4c-.3-.3-.6-.6-.8-1.1s-.3-1-.3-1.6,0-1.1.3-1.6.5-.8.8-1.1c.3-.3.7-.4,1.1-.4ZM5.4,26.4c-.2,0-.3,0-.5.2s-.3.3-.4.5-.1.5-.1.8,0,.6.1.8.2.4.4.5.3.2.5.2.4,0,.5-.2c.1-.1.3-.3.3-.5s.1-.5.1-.8,0-.6-.1-.8-.2-.4-.3-.5c-.1-.1-.3-.2-.5-.2ZM8.2,23.9h1.2v12.2h-1.2v-12.2Z"/>
  <path class="st1" d="M250.2,35.1c-.2,0-.4-.1-.6-.4-.2-.3-.2-.6-.2-1s0-.7.2-.9c.2-.3.4-.4.6-.4s.4.1.6.4c.2.3.2.6.2.9s0,.7-.2,1c-.2.3-.4.4-.6.4Z"/>
  <path d="M2.9,49.8v-1.4c.1,0,.4,0,.7,0,.3,0,.7,0,1,0,.4,0,.7,0,1.1,0,.3,0,.7-.1,1-.2v1.3c-.3.1-.8.3-1.3.3s-.9.1-1.4.1c-.4,0-.8,0-1.2,0ZM4.8,44.4c.5,0,.9.2,1.2.5.3.3.5.8.5,1.3s-.2,1-.5,1.3c-.3.3-.7.5-1.2.5s-.9-.2-1.3-.5-.5-.8-.5-1.3.2-1,.5-1.3c.3-.3.7-.5,1.3-.5ZM4,51.8h1.2v.7h3.2v-.7h1.2v4.2h-5.7v-4.2ZM4.8,45.7c-.2,0-.3,0-.5.1-.1,0-.2.2-.2.4s0,.3.2.4c.1,0,.3.1.5.1s.3,0,.4-.1c.1,0,.2-.2.2-.4s0-.3-.2-.4-.3-.1-.4-.1ZM4.3,49h1.2v2.3h-1.2v-2.3ZM5.3,53.9v.6h3.2v-.6h-3.2ZM5.9,49.9h1.5v1.2h-1.5v-1.2ZM7,44.2h1.2v7.2h-1.2v-7.2ZM8.5,44h1.2v7.4h-1.2v-7.4Z"/>
  <path d="M12.3,44.9h1v1.7c0,.8,0,1.5-.1,2.2,0,.7-.2,1.4-.4,2s-.4,1.2-.7,1.7c-.3.5-.6.9-1,1.2l-.7-1.5c.3-.3.6-.6.9-1s.4-.8.6-1.3c.1-.5.3-1,.3-1.6,0-.6.1-1.1.1-1.7v-1.7ZM12.6,44.9h1v1.7c0,.5,0,1.1,0,1.6,0,.5.2,1,.3,1.5.1.5.3.9.5,1.3.2.4.5.7.8.9l-.7,1.5c-.4-.3-.7-.7-.9-1.1-.3-.5-.5-1-.6-1.6-.2-.6-.3-1.3-.4-2,0-.7-.1-1.4-.1-2.2v-1.7ZM15.5,44h1.3v12.1h-1.3v-12.1ZM16.5,48.6h1.4v1.6h-1.4v-1.6Z"/>
  <path d="M20.6,44.8c.4,0,.8.2,1.1.5.3.4.6.9.7,1.5.2.7.3,1.4.3,2.3s0,1.7-.3,2.3c-.2.7-.4,1.2-.7,1.5-.3.4-.7.5-1.1.5s-.8-.2-1.1-.5-.6-.9-.7-1.5c-.2-.7-.3-1.4-.3-2.3s0-1.7.3-2.3c.2-.6.4-1.2.7-1.5.3-.4.7-.5,1.1-.5ZM20.6,46.5c-.2,0-.3,0-.5.3s-.2.5-.3.9c0,.4-.1.9-.1,1.4s0,1.1.1,1.5c0,.4.2.7.3.9.1.2.3.3.5.3s.3,0,.5-.3c.1-.2.2-.5.3-.9,0-.4.1-.9.1-1.5s0-1.1-.1-1.4c0-.4-.2-.7-.3-.9-.1-.2-.3-.3-.5-.3ZM23.6,43.9h1.3v12.2h-1.3v-12.2Z"/>
  <path d="M25.8,53.2h7.1v1.5h-7.1v-1.5ZM26.7,44.8h5.5v1.5h-4.3v4.2h-1.3v-5.7ZM26.7,50.1h5.6v1.5h-5.6v-1.5ZM27.5,47.5h4.5v1.5h-4.5v-1.5Z"/>
  <path d="M33.6,49.8h7.1v1.5h-7.1v-1.5ZM34.4,52.2h1.3v2.5h-1.3v-2.5ZM34.4,54.3h5.6v1.5h-5.6v-1.5ZM34.5,44.4h1.2v3.5h-1.2v-3.5ZM34.5,47.1h5.5v1.5h-5.5v-1.5Z"/>
  <path d="M163.4,48l-1.1,7.6c0,.7-.3,1.2-.5,1.5s-.6.5-1.1.5,0,0-.2,0c0,0-.2,0-.3,0l.2-1.4c0,0,.1,0,.1,0,0,0,0,0,0,0,.1,0,.2,0,.3-.1,0,0,.1-.3.2-.5l1-7.6h1.2ZM162.3,47.2l.2-1.7h1.2l-.2,1.7h-1.2Z"/>
  <path d="M166.5,53.9s0,0-.1.2-.1.2-.2.3c-.2.3-.4.4-.6.5s-.4.1-.6.1c-.7,0-1.1-.4-1.2-1.1,0-.4,0-1,0-1.8l.6-4.2h1.2l-.6,4.2c0,.4,0,.7,0,.9,0,.4.2.5.6.5s.7-.2.9-.7c.1-.3.2-.6.3-1.1l.5-3.8h1.2l-1,6.9h-1.1v-1Z"/>
  <path d="M172.1,50.7c0-.4,0-.6,0-.8,0-.4-.3-.5-.6-.5s-.7.3-.9.8c-.1.3-.2.6-.3,1.1l-.5,3.7h-1.2l1-6.9h1.1v1c0-.4.2-.6.4-.8.3-.3.6-.4,1-.4s.8.2,1.1.6c.2.4.3,1,.2,1.9l-.6,4.7h-1.2l.6-4.2Z"/>
  <path d="M175.4,57.7c-.6,0-1-.2-1.3-.5-.3-.3-.4-.9-.4-1.6h1.3c0,.2,0,.4,0,.5.1.2.3.2.6.2s.7-.2.9-.7c.1-.3.2-.7.3-1.4v-.4c0,.3-.2.5-.4.7-.3.3-.6.4-1,.4-.6,0-1-.3-1.3-.9-.3-.6-.3-1.5-.2-2.5.1-1,.4-1.9.9-2.6.4-.7,1-1.1,1.6-1.1s.4,0,.6.2c.3.2.4.5.6,1v-1h1.3l-.9,6.6c-.1.9-.3,1.6-.6,2-.4.8-1.1,1.2-2.1,1.2ZM175.3,51.5c0,.4,0,.8,0,1.1,0,.6.3.9.7.9s.5-.2.8-.5c.2-.3.4-.8.5-1.5,0-.7,0-1.2,0-1.5s-.3-.5-.7-.5-.7.3-1,.9c-.1.3-.2.7-.3,1.2Z"/>
  <path d="M181.7,48.3c.3-.3.6-.5,1-.5.5,0,.9.3,1.2.9s.3,1.5.2,2.6c-.2,1.2-.5,2.1-.9,2.8s-.9,1-1.5,1-.6-.1-.8-.4c-.1-.2-.2-.4-.3-.7l-.5,3.6h-1.2l1.3-9.6h1.1v1c0-.3.2-.5.4-.7ZM182.4,53c.2-.4.4-.9.5-1.6,0-.5,0-1,0-1.4s-.3-.6-.7-.6-.8.3-1,.9c-.1.3-.2.7-.3,1.3-.1.8,0,1.4.2,1.7.1.2.3.3.5.3.3,0,.6-.2.8-.6Z"/>
  <path d="M186.8,50.7c.2,0,.4,0,.5-.2.2-.1.3-.3.3-.5,0-.3,0-.5-.1-.6-.1-.1-.3-.2-.5-.2s-.5.1-.6.3c-.1.2-.2.4-.3.6h-1.1c.1-.6.3-1.1.5-1.5.4-.6,1-.9,1.7-.9s.9.2,1.2.5.5.9.3,1.7l-.4,3.2c0,.2,0,.5,0,.8,0,.2,0,.4,0,.5s0,.2.1.2v.3h-1.3c0-.1,0-.3,0-.4,0-.1,0-.3,0-.4-.2.3-.4.5-.7.7-.3.2-.6.3-.9.3s-.7-.2-.9-.5c-.2-.4-.3-.9-.2-1.5.1-.9.4-1.5.9-1.8.3-.2.6-.4,1.1-.4h.4ZM186.9,51.8h-.3c-.3.1-.4.2-.6.3-.2.2-.3.4-.4.8,0,.3,0,.5,0,.7,0,.1.2.2.4.2.3,0,.5-.1.7-.3s.4-.6.5-1.3v-.7c0,0,0,.1-.2.2,0,0-.2,0-.3.1Z"/>
  <path d="M192.7,47.8s0,0,0,0l-.3,1.9c0,0-.1,0-.2,0s-.1,0-.1,0c-.5,0-.8.2-1.1.7-.1.3-.2.7-.3,1.2l-.5,3.3h-1.2l1-6.9h1.1l-.2,1.2c.2-.5.4-.8.6-.9.3-.3.6-.4.9-.4h0Z"/>
  <path d="M194,52.7l-.3,2.2h-1.2l1.3-9.3h1.2l-.7,5,1.8-2.6h1.5l-1.9,2.6,1.1,4.2h-1.4l-.7-3-.6.8Z"/>
  <path d="M197.2,54.9l.3-1.9h1.2l-.3,1.9h-1.2Z"/>
  <path d="M202.9,50.7c0-.4,0-.6,0-.8,0-.4-.3-.5-.6-.5s-.7.3-.9.8c-.1.3-.2.6-.3,1.1l-.5,3.7h-1.2l1-6.9h1.1v1c0-.4.2-.6.4-.8.3-.3.6-.4,1-.4s.8.2,1.1.6c.2.4.3,1,.2,1.9l-.6,4.7h-1.2l.6-4.2Z"/>
  <path d="M207.3,53.3c0-.1.2-.3.3-.5h1.2c0,.4-.3.8-.6,1.3-.5.7-1.1,1-1.8,1s-1-.3-1.4-.9c-.4-.6-.5-1.5-.3-2.8.2-1.2.5-2.1,1-2.8.5-.6,1-1,1.7-1s.7.1,1,.3c.3.2.5.6.6,1,.1.4.2.9.1,1.4,0,.3,0,.8-.1,1.4h-3.1c0,.7,0,1.2.2,1.5.1.2.3.3.5.3s.5-.1.6-.3ZM207.2,49.3c-.3,0-.5.1-.7.4s-.3.6-.4,1.1h1.8c0-.5,0-.8-.1-1.1-.1-.2-.3-.4-.6-.4Z"/>
  <path d="M213.9,48.9c.3.7.3,1.6.2,2.6-.1,1-.5,1.9-.9,2.6-.5.7-1.1,1.1-1.9,1.1s-1.3-.4-1.6-1.1c-.3-.7-.3-1.6-.2-2.6.1-1,.4-1.9.9-2.6.5-.7,1.1-1.1,1.9-1.1s1.3.4,1.6,1.1ZM212.1,49.3c-.3,0-.6.2-.9.6-.2.4-.4.9-.5,1.6,0,.7,0,1.2,0,1.6.1.4.4.6.7.6s.6-.2.9-.6.4-.9.5-1.6c0-.7,0-1.2,0-1.6-.1-.4-.4-.6-.7-.6Z"/>
  <path d="M217.5,52.4h1.2c-.1.6-.3,1.1-.6,1.6-.5.8-1.1,1.2-1.8,1.2s-1.2-.3-1.5-1-.3-1.5-.2-2.6c.2-1.2.5-2.1.9-2.8.5-.7,1-1,1.7-1s1,.2,1.3.6.4,1.1.4,2.1h-1.2c0-.3,0-.5,0-.7,0-.3-.3-.4-.6-.4-.4,0-.7.3-.9.9-.1.3-.2.7-.3,1.3,0,.5,0,.9,0,1.2,0,.6.3.9.7.9s.5-.1.6-.3c.1-.2.3-.5.3-.9Z"/>
  <path d="M220.1,48h1.2l-1,6.9h-1.2l1-6.9ZM220.5,45.5h1.2l-.2,1.7h-1.2l.2-1.7Z"/>
  <path d="M223,53c0,.3,0,.5,0,.5,0,0,.2.1.4.1s0,0,.1,0c0,0,0,0,.1,0l-.2,1.4h-.6c-.6,0-.9,0-1.1-.4-.1-.2-.1-.5,0-1l.6-4.3h-.6l.2-1.3h.6l.3-1.9h1.2l-.3,1.9h.7l-.2,1.3h-.7l-.5,3.7Z"/>
  <path d="M225.2,48h1.2l-1,6.9h-1.2l1-6.9ZM225.5,45.5h1.2l-.2,1.7h-1.2l.2-1.7Z"/>
  <path d="M229.2,53.3c0-.1.2-.3.3-.5h1.2c0,.4-.3.8-.6,1.3-.5.7-1.1,1-1.8,1s-1-.3-1.4-.9-.5-1.5-.3-2.8c.2-1.2.5-2.1,1-2.8s1-1,1.7-1,.7.1,1,.3c.3.2.5.6.6,1,.1.4.2.9.1,1.4,0,.3,0,.8-.1,1.4h-3.1c0,.7,0,1.2.2,1.5.1.2.3.3.5.3s.5-.1.6-.3ZM229.1,49.3c-.3,0-.5.1-.7.4s-.3.6-.4,1.1h1.8c0-.5,0-.8-.1-1.1-.1-.2-.3-.4-.6-.4Z"/>
  <path d="M233,49.8c0,.2,0,.4.1.5.1,0,.5.3,1.2.5.4.2.8.4.9.8.2.3.2.8.2,1.3,0,.7-.3,1.2-.7,1.7-.4.4-.9.7-1.6.7s-1.2-.2-1.5-.7c-.3-.5-.4-1-.3-1.8h1.2c0,.3,0,.6,0,.7.1.2.4.4.8.4s.4,0,.6-.2c.2-.1.2-.3.3-.5,0-.2,0-.4-.1-.5,0-.1-.5-.3-1.2-.5-.5-.2-.8-.4-1-.7-.2-.3-.2-.7-.1-1.2,0-.6.3-1.2.7-1.6.4-.5.9-.7,1.5-.7s1,.2,1.3.5c.3.3.4.9.4,1.8h-1.2c0-.2,0-.4,0-.6,0-.2-.3-.4-.6-.4s-.4,0-.6.2c-.1.1-.2.3-.2.4Z"/>
  <path d="M236,54.9l.3-1.9h1.2l-.3,1.9h-1.2Z"/>
  <path d="M242.8,48.9c.3.7.3,1.6.2,2.6-.1,1-.5,1.9-.9,2.6-.5.7-1.1,1.1-1.9,1.1s-1.3-.4-1.6-1.1c-.3-.7-.3-1.6-.2-2.6.1-1,.4-1.9.9-2.6s1.1-1.1,1.9-1.1,1.3.4,1.6,1.1ZM241,49.3c-.3,0-.6.2-.9.6-.2.4-.4.9-.5,1.6,0,.7,0,1.2,0,1.6.1.4.4.6.7.6s.6-.2.9-.6.4-.9.5-1.6,0-1.2,0-1.6c-.1-.4-.4-.6-.7-.6Z"/>
  <path d="M246.9,47.8s0,0,0,0l-.3,1.9c0,0-.1,0-.2,0s-.1,0-.1,0c-.5,0-.8.2-1.1.7-.1.3-.2.7-.3,1.2l-.5,3.3h-1.2l1-6.9h1.1l-.2,1.2c.2-.5.4-.8.6-.9.3-.3.6-.4.9-.4h0Z"/>
  <path d="M248.3,57.7c-.6,0-1-.2-1.3-.5-.3-.3-.4-.9-.4-1.6h1.3c0,.2,0,.4,0,.5.1.2.3.2.6.2s.7-.2.9-.7c.1-.3.2-.7.3-1.4v-.4c0,.3-.2.5-.4.7-.3.3-.6.4-1,.4-.6,0-1-.3-1.3-.9-.3-.6-.3-1.5-.2-2.5.1-1,.4-1.9.9-2.6.4-.7,1-1.1,1.6-1.1s.4,0,.6.2c.3.2.4.5.6,1v-1h1.3l-.9,6.6c-.1.9-.3,1.6-.6,2-.4.8-1.1,1.2-2.1,1.2ZM248.2,51.5c0,.4,0,.8,0,1.1,0,.6.3.9.7.9s.5-.2.8-.5c.2-.3.4-.8.5-1.5,0-.7,0-1.2,0-1.5-.1-.3-.3-.5-.7-.5s-.7.3-1,.9c-.1.3-.2.7-.3,1.2Z"/>
  <path d="M5.1,64.7c.4,0,.8.1,1.1.4.3.3.6.6.8,1.1.2.5.3,1,.3,1.6s0,1.1-.3,1.6c-.2.5-.5.8-.8,1.1s-.7.4-1.1.4-.8-.1-1.1-.4-.6-.6-.8-1.1c-.2-.5-.3-1-.3-1.6s0-1.1.3-1.6c.2-.5.5-.8.8-1.1.3-.3.7-.4,1.1-.4ZM4.1,71.8h1.2v3.2h-1.2v-3.2ZM4.1,74.4h5.5v1.5h-5.5v-1.5ZM5.1,66.4c-.2,0-.3,0-.5.2-.1.1-.3.3-.3.5s-.1.5-.1.8,0,.6.1.8c0,.2.2.4.3.5.1.1.3.2.5.2s.3,0,.5-.2c.1-.1.3-.3.3-.5,0-.2.1-.5.1-.8s0-.6-.1-.8c0-.2-.2-.4-.3-.5-.1-.1-.3-.2-.5-.2ZM8.1,64h1.3v8.7h-1.3v-8.7Z"/>
  <path d="M10.4,73.1h7.1v1.5h-7.1v-1.5ZM13.3,64.6h1.1v.9c0,.5,0,1-.1,1.5,0,.5-.2,1-.4,1.4-.2.4-.4.8-.7,1.2-.3.4-.6.7-.9.9-.3.3-.7.5-1.2.6l-.5-1.6c.4-.1.7-.3,1-.5.3-.2.6-.4.8-.7s.4-.6.5-.9.2-.7.3-1c0-.3.1-.7.1-1v-.9ZM13.5,64.6h1.1v.9c0,.3,0,.7.1,1,0,.3.2.7.3,1,.1.3.3.6.5.9.2.3.5.5.8.7.3.2.6.4,1,.4l-.5,1.6c-.4-.1-.8-.3-1.2-.6-.3-.3-.7-.6-.9-.9-.3-.4-.5-.8-.7-1.2-.2-.4-.3-.9-.4-1.4,0-.5-.1-1-.1-1.6v-.9Z"/>
  <path d="M18.3,64.9h3.7v1.5h-2.5v5.9h-1.3v-7.4ZM18.3,71.9h.7c.4,0,.8,0,1.2,0,.4,0,.8,0,1.1,0s.7-.1,1.1-.2v1.5c-.3,0-.7.2-1.1.2-.4,0-.8,0-1.2,0-.4,0-.8,0-1.3,0h-.7v-1.5ZM19.3,68.3h2.7v1.5h-2.7v-1.5ZM23,64h1.3v12.1h-1.3v-12.1ZM24,68.5h1.4v1.6h-1.4v-1.6Z"/>
  <path d="M25.9,73h7.1v1.5h-7.1v-1.5ZM26.6,65h5v1.5h-5v-1.5ZM30.9,65h1.2v1.5c0,.6,0,1.2,0,1.7,0,.6,0,1.2,0,1.9s-.1,1.4-.2,2.2l-1.2-.2c0-.8.2-1.5.2-2.1s0-1.3,0-1.8c0-.6,0-1.1,0-1.7v-1.5Z"/>
  <path d="M33.8,64.7h3v3.7h-1.8v2.1h-1.2v-3.4h1.8v-.8h-1.8v-1.5ZM33.8,69.2h.5c.4,0,.7,0,1,0,.3,0,.6,0,.8,0,.3,0,.5,0,.8-.2v1.5c-.2,0-.5.1-.7.2-.3,0-.6,0-.9,0-.3,0-.7,0-1.1,0h-.5v-1.5ZM34.8,71.6h5.4v4.4h-5.4v-4.4ZM39,73.1h-2.9v1.4h2.9v-1.4ZM37.4,64.2h1.2v6.8h-1.2v-6.8ZM38.2,66.7h1.2v1.5h-1.2v-1.5ZM39,64h1.2v7.1h-1.2v-7.1Z"/>
  <path d="M41.1,70.1h7.1v1.5h-7.1v-1.5ZM44.6,64.3c.6,0,1.1.1,1.5.3s.8.5,1,.9c.2.4.4.8.4,1.3s-.1,1-.4,1.3-.6.7-1,.9-.9.3-1.5.3-1.1-.1-1.5-.3c-.4-.2-.8-.5-1-.9s-.4-.8-.4-1.3.1-1,.4-1.3c.2-.4.6-.7,1-.9.4-.2.9-.3,1.5-.3ZM41.9,72.3h1.2v2.5h-1.2v-2.5ZM41.9,74.4h5.5v1.5h-5.5v-1.5ZM44.6,65.8c-.3,0-.6,0-.9.1-.2,0-.4.2-.5.3-.1.1-.2.3-.2.6s0,.4.2.6c.1.2.3.3.5.3.2,0,.5.1.9.1s.6,0,.9-.1c.2,0,.4-.2.5-.3.1-.2.2-.3.2-.6s0-.4-.2-.6-.3-.3-.5-.3c-.2,0-.5-.1-.9-.1Z"/>
  <path d="M209,74.1h.1c0-.1.2.6.2.6-.5.5-.9.8-1.4,1.1-.5.2-1,.4-1.5.4-1.1,0-2-.5-2.4-1.6-.4-.9-.5-2-.3-3.2.2-1.4.7-2.6,1.5-3.5.8-1,1.8-1.5,2.8-1.5s1.5.3,2,1c.5.7.7,1.7.5,2.9-.1,1-.4,1.8-.9,2.5-.5.7-1,1-1.4,1s-.4-.1-.5-.3c-.1-.2-.1-.4-.1-.7,0,0,0,0,0,0,0,0,0,0,0-.1-.1.3-.3.5-.4.7-.3.3-.6.5-.9.5s-.6-.2-.8-.6-.2-.9-.1-1.5c.1-.8.4-1.5.8-2.2.4-.7.9-1,1.4-1s.5.1.6.4c0,.2.1.4.2.7l.3-.8h.8l-.9,2.8c0,.2-.1.4-.2.5,0,.1,0,.2,0,.3,0,.1,0,.2,0,.4,0,.1.1.2.2.2.2,0,.5-.2.8-.7.3-.5.5-1.1.6-1.9.2-1.2,0-2-.6-2.5-.4-.3-.8-.5-1.3-.5-.9,0-1.7.4-2.4,1.3-.6.8-1,1.8-1.2,2.9-.2,1.2,0,2.2.5,2.9.4.6,1,1,1.8,1s1-.1,1.5-.4c.3-.2.6-.4.9-.7ZM206.1,71.7c0,.3,0,.6,0,.7,0,.2.2.3.4.3.3,0,.6-.3.9-1,.3-.7.5-1.2.5-1.6,0-.2,0-.4,0-.6s-.2-.2-.3-.2c-.3,0-.6.3-.9.8-.3.5-.5,1.1-.5,1.6Z"/>
  <path d="M213.4,68l-1.1,7.6c0,.7-.3,1.2-.5,1.5s-.6.5-1.1.5,0,0-.2,0c0,0-.2,0-.3,0l.2-1.4c0,0,.1,0,.1,0,0,0,0,0,0,0,.1,0,.2,0,.3-.1,0,0,.1-.3.2-.5l1-7.6h1.2ZM212.3,67.2l.2-1.7h1.2l-.2,1.7h-1.2Z"/>
  <path d="M216.5,73.9s0,0-.1.2-.1.2-.2.3c-.2.3-.4.4-.6.5s-.4.1-.6.1c-.7,0-1.1-.4-1.2-1.1,0-.4,0-1,0-1.8l.6-4.2h1.2l-.6,4.2c0,.4,0,.7,0,.9,0,.4.2.5.6.5s.7-.2.9-.7c.1-.3.2-.6.3-1.1l.5-3.8h1.2l-1,6.9h-1.1v-1Z"/>
  <path d="M222.1,70.7c0-.4,0-.6,0-.8,0-.4-.3-.5-.6-.5s-.7.3-.9.8c-.1.3-.2.6-.3,1.1l-.5,3.7h-1.2l1-6.9h1.1v1c0-.4.2-.6.4-.8.3-.3.6-.4,1-.4s.8.2,1.1.6c.2.4.3,1,.2,1.9l-.6,4.7h-1.2l.6-4.2Z"/>
  <path d="M225.4,77.7c-.6,0-1-.2-1.3-.5-.3-.3-.4-.9-.4-1.6h1.3c0,.2,0,.4,0,.5.1.2.3.2.6.2s.7-.2.9-.7c.1-.3.2-.7.3-1.4v-.4c0,.3-.2.5-.4.7-.3.3-.6.4-1,.4-.6,0-1-.3-1.3-.9-.3-.6-.3-1.5-.2-2.5.1-1,.4-1.9.9-2.6.4-.7,1-1.1,1.6-1.1s.4,0,.6.2c.3.2.4.5.6,1v-1h1.3l-.9,6.6c-.1.9-.3,1.6-.6,2-.4.8-1.1,1.2-2.1,1.2ZM225.4,71.5c0,.4,0,.8,0,1.1,0,.6.3.9.7.9s.5-.2.8-.5c.2-.3.4-.8.5-1.5,0-.7,0-1.2,0-1.5-.1-.3-.3-.5-.7-.5s-.7.3-1,.9c-.1.3-.2.7-.3,1.2Z"/>
  <path d="M231.7,68.3c.3-.3.6-.5,1-.5.5,0,.9.3,1.2.9.3.6.3,1.5.2,2.6-.2,1.2-.5,2.1-.9,2.8-.4.6-.9,1-1.5,1s-.6-.1-.8-.4c-.1-.2-.2-.4-.3-.7l-.5,3.6h-1.2l1.3-9.6h1.1v1c0-.3.2-.5.4-.7ZM232.4,73c.2-.4.4-.9.5-1.6,0-.5,0-1,0-1.4-.1-.4-.3-.6-.7-.6s-.8.3-1,.9c-.1.3-.2.7-.3,1.3-.1.8,0,1.4.2,1.7.1.2.3.3.5.3.3,0,.6-.2.8-.6Z"/>
  <path d="M236.8,70.7c.2,0,.4,0,.5-.2.2-.1.3-.3.3-.5,0-.3,0-.5-.1-.6-.1-.1-.3-.2-.5-.2s-.5.1-.6.3c-.1.2-.2.4-.3.6h-1.1c.1-.6.3-1.1.5-1.5.4-.6,1-.9,1.7-.9s.9.2,1.2.5.5.9.3,1.7l-.4,3.2c0,.2,0,.5,0,.8,0,.2,0,.4,0,.5s0,.2.1.2v.3h-1.3c0-.1,0-.3,0-.4s0-.3,0-.4c-.2.3-.4.5-.7.7-.3.2-.6.3-.9.3s-.7-.2-.9-.5c-.2-.4-.3-.9-.2-1.5.1-.9.4-1.5.9-1.8.3-.2.6-.4,1.1-.4h.4ZM236.9,71.8h-.3c-.3.1-.4.2-.6.3-.2.2-.3.4-.4.8,0,.3,0,.5,0,.7,0,.1.2.2.4.2.3,0,.5-.1.7-.3.2-.2.4-.6.5-1.3v-.7c0,0,0,.1-.2.2,0,0-.2,0-.3.1Z"/>
  <path d="M241.6,70.7c.2,0,.4,0,.5-.2.2-.1.3-.3.3-.5,0-.3,0-.5-.1-.6-.1-.1-.3-.2-.5-.2s-.5.1-.6.3c-.1.2-.2.4-.3.6h-1.1c.1-.6.3-1.1.5-1.5.4-.6,1-.9,1.7-.9s.9.2,1.2.5.5.9.3,1.7l-.4,3.2c0,.2,0,.5,0,.8,0,.2,0,.4,0,.5s0,.2.1.2v.3h-1.3c0-.1,0-.3,0-.4s0-.3,0-.4c-.2.3-.4.5-.7.7-.3.2-.6.3-.9.3s-.7-.2-.9-.5c-.2-.4-.3-.9-.2-1.5.1-.9.4-1.5.9-1.8.3-.2.6-.4,1.1-.4h.4ZM241.6,71.8h-.3c-.3.1-.4.2-.6.3-.2.2-.3.4-.4.8,0,.3,0,.5,0,.7,0,.1.2.2.4.2.3,0,.5-.1.7-.3.2-.2.4-.6.5-1.3v-.7c0,0,0,.1-.2.2,0,0-.2,0-.3.1Z"/>
  <path d="M247.5,67.8s0,0,0,0l-.3,1.9c0,0-.1,0-.2,0s-.1,0-.1,0c-.5,0-.8.2-1.1.7-.1.3-.2.7-.3,1.2l-.5,3.3h-1.2l1-6.9h1.1l-.2,1.2c.2-.5.4-.8.6-.9.3-.3.6-.4.9-.4h0Z"/>
  <path d="M248.7,72.7l-.3,2.2h-1.2l1.3-9.3h1.2l-.7,5,1.8-2.6h1.5l-1.9,2.6,1.1,4.2h-1.4l-.7-3-.6.8Z"/>
  <path d="M2.8,90.6h7.1v1.5H2.8v-1.5ZM3.2,84.8h6.4v1.4H3.2v-1.4ZM3.6,92.7h5.5v3.4h-1.2v-2H3.6v-1.4ZM6.4,86.5c.9,0,1.5.2,2,.5s.7.7.7,1.3-.2,1-.7,1.3c-.5.3-1.1.4-2,.4s-1.5-.1-2-.4c-.5-.3-.7-.7-.7-1.3s.2-1,.7-1.3c.5-.3,1.1-.5,2-.5ZM6.4,87.8c-.5,0-.8,0-1.1.1-.2,0-.3.2-.3.4s.1.3.3.4.6.1,1.1.1.9,0,1.1-.1.3-.2.3-.4-.1-.3-.3-.4c-.2,0-.6-.1-1.1-.1ZM5.8,83.9h1.2v1.9h-1.2v-1.9ZM5.8,89.6h1.2v1.7h-1.2v-1.7Z"/>
  <path d="M244.1,90.1h7.1v1.5h-7.1v-1.5ZM247.7,84.3c.6,0,1.1.1,1.5.3.4.2.8.5,1,.9.2.4.4.8.4,1.3s-.1,1-.4,1.3-.6.7-1,.9c-.4.2-.9.3-1.5.3s-1.1-.1-1.5-.3c-.4-.2-.8-.5-1-.9s-.4-.8-.4-1.3.1-1,.4-1.3c.2-.4.6-.7,1-.9.4-.2.9-.3,1.5-.3ZM244.9,92.3h1.2v2.5h-1.2v-2.5ZM244.9,94.4h5.5v1.5h-5.5v-1.5ZM247.7,85.8c-.3,0-.6,0-.9.1-.2,0-.4.2-.5.3s-.2.3-.2.6,0,.4.2.6c.1.2.3.3.5.3.2,0,.5.1.9.1s.6,0,.9-.1.4-.2.5-.3c.1-.2.2-.3.2-.6s0-.4-.2-.6c-.1-.1-.3-.3-.5-.3s-.5-.1-.9-.1Z"/>
  <path d="M5,104.7c.4,0,.7.1,1.1.4.3.3.6.6.8,1.1s.3,1,.3,1.6,0,1.2-.3,1.6-.4.9-.8,1.1c-.3.3-.7.4-1.1.4s-.7-.1-1.1-.4c-.3-.3-.6-.6-.8-1.1-.2-.5-.3-1-.3-1.6s0-1.1.3-1.6c.2-.5.4-.8.8-1.1.3-.3.7-.4,1.1-.4ZM5,106.4c-.2,0-.3,0-.5.2-.1.1-.2.3-.3.5,0,.2-.1.5-.1.8s0,.6.1.8c0,.2.2.4.3.5s.3.2.5.2.3,0,.5-.2c.1-.1.2-.3.3-.5,0-.2.1-.5.1-.8s0-.6-.1-.8c0-.2-.2-.4-.3-.5-.1-.1-.3-.2-.5-.2ZM4.2,112h1.2v3.2h-1.2v-3.2ZM4.2,114.4h5.4v1.5h-5.4v-1.5ZM6.3,105.6h2.3v1.5h-2.3v-1.5ZM6.3,108.6h2.3v1.5h-2.3v-1.5ZM8.2,104h1.3v8.8h-1.3v-8.8Z"/>
  <path d="M10.6,104.6h3.6v3.8h-2.4v1.7h-1.2v-3.1h2.4v-.9h-2.4v-1.5ZM10.6,109.4h.7c.5,0,1,0,1.4,0,.4,0,.8,0,1.1-.1.3,0,.7-.1,1-.2v1.5c-.2.1-.6.2-1,.2-.4,0-.7,0-1.2.1-.4,0-.9,0-1.4,0h-.7v-1.5ZM11.3,111.9h5.3v4.2h-1.2v-2.7h-4v-1.5ZM15.3,104h1.2v7.4h-1.2v-7.4ZM16.2,106.8h1.4v1.6h-1.4v-1.6Z"/>
  <path d="M18.1,108.7h7.1v1.5h-7.1v-1.5ZM21.7,104.1c.9,0,1.6.2,2.1.5.5.4.8.9.8,1.5s-.3,1.2-.8,1.5c-.5.4-1.2.5-2.1.5s-1.6-.2-2.1-.5c-.5-.4-.8-.9-.8-1.5s.3-1.2.8-1.5c.5-.4,1.2-.5,2.1-.5ZM18.9,110.8h5.5v3.2h-4.2v1h-1.2v-2.3h4.2v-.5h-4.2v-1.4ZM18.9,114.6h5.7v1.4h-5.7v-1.4ZM21.7,105.5c-.4,0-.7,0-.9,0-.2,0-.4.1-.5.2s-.2.2-.2.4,0,.3.2.4.3.2.5.2c.2,0,.5,0,.9,0s.7,0,.9,0c.2,0,.4-.1.5-.2.1,0,.2-.2.2-.4s0-.3-.2-.4c-.1,0-.3-.2-.5-.2-.2,0-.5,0-.9,0Z"/>
  <path d="M221.4,110.8l-.2-1.5c.5,0,1,0,1.6,0,.6,0,1.1,0,1.7,0s1.2-.1,1.7-.2v1.4c-.5.1-1,.3-1.6.3-.6,0-1.1.1-1.7.1-.5,0-1.1,0-1.5,0ZM223.7,104.4c.4,0,.7,0,1,.3.3.2.5.4.7.8.2.3.2.7.2,1.1s0,.8-.2,1.1-.4.6-.7.8c-.3.2-.6.3-1,.3s-.7,0-1-.3-.5-.4-.7-.8-.2-.7-.2-1.1,0-.8.2-1.1c.2-.3.4-.6.7-.8.3-.2.6-.3,1-.3ZM222.2,112.3h1.2v2.5h-1.2v-2.5ZM222.2,114.4h5.9v1.5h-5.9v-1.5ZM223.7,105.8c-.2,0-.4,0-.6.2-.1.1-.2.3-.2.6s0,.5.2.6.3.2.6.2.4,0,.6-.2.2-.3.2-.6,0-.3-.1-.4-.2-.2-.3-.3c-.1,0-.3,0-.4,0ZM223.2,110.2h1.2v2.6h-1.2v-2.6ZM225.2,111h1.7v1.3h-1.7v-1.3ZM226.7,104h1.2v9.2h-1.2v-9.2Z"/>
  <path d="M228.9,105.2h4.6v1.5h-4.6v-1.5ZM231.2,107c.4,0,.7,0,1,.3s.5.5.7.8c.2.4.2.8.2,1.2s0,.9-.2,1.2c-.2.4-.4.6-.7.8-.3.2-.6.3-1,.3s-.7,0-1-.3c-.3-.2-.5-.5-.7-.8s-.2-.8-.2-1.2,0-.9.2-1.2.4-.6.7-.8.6-.3,1-.3ZM230,112.4h1.2v2.7h-1.2v-2.7ZM230,114.4h5.4v1.5h-5.4v-1.5ZM231.2,108.5c-.2,0-.4,0-.5.2-.1.2-.2.4-.2.7s0,.5.2.7c.1.2.3.2.5.2s.4,0,.5-.2c.1-.2.2-.4.2-.7s0-.5-.2-.7c-.1-.2-.3-.2-.5-.2ZM230.6,103.9h1.2v2h-1.2v-2ZM233.9,104h1.2v9h-1.2v-9ZM234.8,107.6h1.4v1.6h-1.4v-1.6Z"/>
  <path d="M236.9,105.1h3.7v1.5h-2.4v5.8h-1.2v-7.3ZM236.9,111.6h.7c.4,0,.8,0,1.2,0,.4,0,.8,0,1.1-.1.4,0,.7-.1,1.1-.2v1.6c-.3.1-.7.2-1,.2-.4,0-.8,0-1.2.1-.4,0-.8,0-1.3,0h-.7v-1.6ZM241.5,103.9h1.3v12.2h-1.3v-12.2ZM242.5,108.4h1.4v1.6h-1.4v-1.6Z"/>
  <path d="M244.6,104.9h3.8v6h-3.8v-6ZM245.6,111.9h1.2v3.2h-1.2v-3.2ZM245.6,114.4h5.4v1.5h-5.4v-1.5ZM247.1,106.4h-1.3v3h1.3v-3ZM248.1,105.8h1.9v1.5h-1.9v-1.5ZM248.1,108.4h2v1.5h-2v-1.5ZM249.6,104h1.3v8.8h-1.3v-8.8Z"/>
  <path d="M8.7,126.9c.1.5.2,1,.2,1.5,0,.5,0,1.1,0,1.5-.2,1.2-.5,2.3-.9,3.2-.6,1.2-1.4,1.7-2.3,1.7h-2.6l1.3-9.4h2.6c.4,0,.7,0,.9.2.4.2.7.6.9,1.2ZM7.5,130.1c.1-1,.1-1.7,0-2.2-.1-.5-.5-.8-1.1-.8h-1.2l-.8,6.1h1.2c.6,0,1.1-.5,1.4-1.4.2-.5.3-1.1.4-1.8Z"/>
  <path d="M12.7,134.9h-1.2v-7.9c0,.2-.1.4-.2.8,0,.3,0,.6-.1.8l-.9,6.3h-1.2l1.3-9.4h1.8v7.4c0,0,2.2-7.4,2.2-7.4h1.8l-1.3,9.4h-1.2l.9-6.3c0-.2,0-.4.1-.8,0-.3,0-.6.1-.8l-2.2,7.9Z"/>
  <g>
    <path d="M120.1,133.2h7.1v1.6h-7.1v-1.6ZM120.6,124.9h2.8v1.5h-1.6v3.2h-1.2v-4.7ZM120.6,129h.5c.3,0,.6,0,.9,0,.3,0,.5,0,.7,0,.2,0,.5,0,.7-.2v1.6c-.2,0-.4.1-.7.2-.2,0-.5,0-.8,0s-.6,0-.9,0h-.5v-1.6ZM123,131h1.2v2.8h-1.2v-2.8ZM123.9,124.9h2.8v1.5h-1.6v3.4h-1.2v-4.9ZM123.9,129h2.8v1.5h-2.8v-1.5Z"/>
    <path d="M127.9,129.8h7.1v1.5h-7.1v-1.5ZM128.6,132.2h1.3v2.5h-1.3v-2.5ZM128.6,134.3h5.6v1.5h-5.6v-1.5ZM128.7,124.4h1.2v3.5h-1.2v-3.5ZM128.7,127.1h5.5v1.5h-5.5v-1.5Z"/>
  </g>
  <path d="M163.7,128l-1.1,7.6c0,.7-.3,1.2-.5,1.5-.2.3-.6.5-1.1.5s0,0-.2,0c0,0-.2,0-.3,0l.2-1.4c0,0,.1,0,.1,0,0,0,0,0,0,0,.1,0,.2,0,.3-.1s.1-.3.2-.5l1-7.6h1.2ZM162.7,127.2l.2-1.7h1.2l-.2,1.7h-1.2Z"/>
  <path d="M166.8,133.9s0,0-.1.2-.1.2-.2.3c-.2.3-.4.4-.6.5s-.4.1-.6.1c-.7,0-1.1-.4-1.2-1.1,0-.4,0-1,0-1.8l.6-4.2h1.2l-.6,4.2c0,.4,0,.7,0,.9,0,.4.2.5.6.5s.7-.2.9-.7c.1-.3.2-.6.3-1.1l.5-3.8h1.2l-1,6.9h-1.1v-1Z"/>
  <path d="M172.5,130.7c0-.4,0-.6,0-.8,0-.4-.3-.5-.6-.5s-.7.3-.9.8c-.1.3-.2.6-.3,1.1l-.5,3.7h-1.2l1-6.9h1.1v1c0-.4.2-.6.4-.8.3-.3.6-.4,1-.4s.8.2,1.1.6c.2.4.3,1,.2,1.9l-.6,4.7h-1.2l.6-4.2Z"/>
  <path d="M175.7,137.7c-.6,0-1-.2-1.3-.5-.3-.3-.4-.9-.4-1.6h1.3c0,.2,0,.4,0,.5.1.2.3.2.6.2s.7-.2.9-.7c.1-.3.2-.8.3-1.4v-.4c0,.3-.2.5-.4.7-.3.3-.6.4-1,.4-.6,0-1-.3-1.3-.9-.3-.6-.3-1.5-.2-2.5.1-1,.4-1.9.9-2.6s1-1.1,1.6-1.1.4,0,.6.2c.3.2.4.5.6,1v-1h1.3l-.9,6.6c-.1.9-.3,1.6-.6,2-.4.8-1.1,1.2-2.1,1.2ZM175.7,131.5c0,.4,0,.8,0,1.1,0,.6.3.9.7.9s.5-.2.8-.5c.2-.3.4-.8.5-1.5,0-.7,0-1.2,0-1.5s-.3-.5-.7-.5-.7.3-1,.9c-.1.3-.2.7-.3,1.2Z"/>
  <path d="M178.9,136.5v-.6h4.8v.6h-4.8Z"/>
  <path d="M186.9,128.3c.3-.3.6-.5,1-.5.5,0,.9.3,1.2.9.3.6.3,1.5.2,2.6-.2,1.2-.5,2.1-.9,2.8s-.9,1-1.5,1-.6-.1-.8-.4c-.1-.2-.2-.4-.3-.7l-.5,3.6h-1.2l1.3-9.6h1.1v1c0-.3.2-.5.4-.7ZM187.6,133c.2-.4.4-.9.5-1.6,0-.5,0-1,0-1.4s-.3-.6-.7-.6-.8.3-1,.9c-.1.3-.2.7-.3,1.3-.1.8,0,1.4.2,1.7.1.2.3.3.5.3.3,0,.6-.2.8-.6Z"/>
  <path d="M192.1,130.7c.2,0,.4,0,.5-.2.2-.1.3-.3.3-.5,0-.3,0-.5-.1-.6-.1-.1-.3-.2-.5-.2s-.5.1-.6.3c-.1.2-.2.4-.3.6h-1.1c.1-.6.3-1.1.5-1.5.4-.6,1-.9,1.7-.9s.9.2,1.2.5c.3.3.5.9.3,1.7l-.4,3.2c0,.2,0,.5,0,.8,0,.2,0,.4,0,.5,0,0,0,.2.1.2v.3h-1.3c0-.1,0-.3,0-.4,0-.1,0-.3,0-.4-.2.3-.4.5-.7.7-.3.2-.6.3-.9.3s-.7-.2-.9-.5c-.2-.4-.3-.9-.2-1.5.1-.9.4-1.5.9-1.8.3-.2.6-.4,1.1-.4h.4ZM192.1,131.8h-.3c-.3.1-.4.2-.6.3-.2.2-.3.4-.4.8,0,.3,0,.5,0,.7,0,.1.2.2.4.2.3,0,.5-.1.7-.3s.4-.6.5-1.2v-.7c0,0,0,.1-.2.2,0,0-.2,0-.3.1Z"/>
  <path d="M197.9,127.8s0,0,0,0l-.3,1.9c0,0-.1,0-.2,0s-.1,0-.1,0c-.5,0-.8.2-1.1.7-.1.3-.2.7-.3,1.2l-.5,3.3h-1.2l1-6.9h1.1l-.2,1.2c.2-.5.4-.8.6-.9.3-.3.6-.4.9-.4h0Z"/>
  <path d="M199.2,132.7l-.3,2.2h-1.2l1.3-9.3h1.2l-.7,5,1.8-2.6h1.5l-1.9,2.6,1.1,4.2h-1.4l-.7-3-.6.8Z"/>
  <path d="M208.4,134.1h.1c0-.1.2.6.2.6-.5.5-.9.8-1.4,1.1s-1,.4-1.5.4c-1.1,0-2-.5-2.4-1.6-.4-.9-.5-2-.3-3.2.2-1.4.7-2.6,1.5-3.5.8-1,1.8-1.5,2.8-1.5s1.5.3,2,1c.5.7.7,1.7.5,2.9-.1,1-.4,1.8-.9,2.5s-1,1-1.4,1-.4-.1-.5-.3c-.1-.2-.1-.4-.1-.7,0,0,0,0,0,0s0,0,0-.1c-.1.3-.3.5-.5.7-.3.3-.6.5-.9.5s-.6-.2-.8-.6c-.2-.4-.2-.9-.1-1.5.1-.8.4-1.5.8-2.2s.9-1,1.4-1,.5.1.6.4c0,.2.1.4.2.7l.3-.8h.8l-.9,2.8c0,.2-.1.4-.2.5,0,.1,0,.2,0,.3,0,.1,0,.2,0,.4,0,.1.1.2.2.2.2,0,.5-.2.8-.7.3-.5.5-1.1.6-1.9.2-1.2,0-2-.6-2.5-.4-.3-.8-.5-1.3-.5-.9,0-1.7.4-2.4,1.3-.6.8-1,1.7-1.2,2.9-.2,1.2,0,2.2.5,2.9.4.6,1,1,1.8,1s1-.1,1.5-.4c.3-.2.6-.4.9-.7ZM205.5,131.7c0,.3,0,.6,0,.7,0,.2.2.3.4.3.3,0,.6-.3.9-1,.3-.7.5-1.2.5-1.6,0-.2,0-.4,0-.6s-.2-.2-.3-.2c-.3,0-.6.3-.9.8s-.5,1.1-.5,1.6Z"/>
  <path d="M213.9,130.7c0-.4,0-.6,0-.8,0-.4-.3-.5-.6-.5s-.7.3-.9.8c-.1.3-.2.6-.3,1.1l-.5,3.7h-1.2l1-6.9h1.1v1c0-.4.2-.6.4-.8.3-.3.6-.4,1-.4s.8.2,1.1.6c.2.4.3,1,.2,1.9l-.6,4.7h-1.2l.6-4.2Z"/>
  <path d="M218,130.7c.2,0,.4,0,.5-.2.2-.1.3-.3.3-.5,0-.3,0-.5-.1-.6-.1-.1-.3-.2-.5-.2s-.5.1-.6.3c-.1.2-.2.4-.3.6h-1.1c.1-.6.3-1.1.5-1.5.4-.6,1-.9,1.7-.9s.9.2,1.2.5c.3.3.5.9.3,1.7l-.4,3.2c0,.2,0,.5,0,.8,0,.2,0,.4,0,.5,0,0,0,.2.1.2v.3h-1.3c0-.1,0-.3,0-.4s0-.3,0-.4c-.2.3-.4.5-.7.7-.3.2-.6.3-.9.3s-.7-.2-.9-.5-.3-.9-.2-1.5c.1-.9.4-1.5.9-1.8.3-.2.6-.4,1.1-.4h.4ZM218,131.8h-.3c-.3.1-.4.2-.6.3-.2.2-.3.4-.4.8,0,.3,0,.5,0,.7s.2.2.4.2c.3,0,.5-.1.7-.3.2-.2.4-.6.5-1.2v-.7c0,0,0,.1-.2.2,0,0-.2,0-.3.1Z"/>
  <path d="M222.2,133.1l1.7-5.1h1.3l-2.6,6.9h-1.2l-.7-6.9h1.3l.2,5.1Z"/>
  <path d="M227.5,133.3c0-.1.2-.3.3-.5h1.2c0,.4-.3.8-.6,1.2-.5.7-1.1,1-1.8,1s-1-.3-1.4-.9-.5-1.5-.3-2.8c.2-1.2.5-2.1,1-2.8s1-1,1.7-1,.7.1,1,.3c.3.2.5.6.6,1,.1.4.2.9.1,1.4,0,.3,0,.8-.1,1.4h-3.1c0,.7,0,1.2.2,1.5.1.2.3.3.5.3s.5-.1.6-.3ZM227.4,129.3c-.3,0-.5.1-.7.4s-.3.6-.4,1.1h1.8c0-.5,0-.8-.1-1.1-.1-.2-.3-.4-.6-.4Z"/>
  <path d="M233.1,127.8s0,0,0,0l-.3,1.9c0,0-.1,0-.2,0s-.1,0-.1,0c-.5,0-.8.2-1.1.7-.1.3-.2.7-.3,1.2l-.5,3.3h-1.2l1-6.9h1.1l-.2,1.2c.2-.5.4-.8.6-.9.3-.3.6-.4.9-.4h0Z"/>
  <path d="M232.4,134.9l.3-1.9h1.2l-.3,1.9h-1.2Z"/>
  <path d="M237.6,132.4h1.2c-.1.6-.3,1.1-.6,1.6-.5.8-1.1,1.2-1.8,1.2s-1.2-.3-1.5-1-.3-1.5-.2-2.6c.2-1.2.5-2.1.9-2.8.5-.7,1-1,1.7-1s1,.2,1.3.6c.3.4.4,1.1.4,2.1h-1.2c0-.3,0-.5,0-.7,0-.3-.3-.4-.6-.4-.4,0-.7.3-.9.9-.1.3-.2.7-.3,1.3,0,.5,0,.9,0,1.2,0,.6.3.9.7.9s.5-.1.6-.3c.1-.2.3-.5.3-.9Z"/>
  <path d="M243.9,128.9c.3.7.3,1.6.2,2.6-.1,1-.5,1.9-.9,2.6-.5.7-1.1,1.1-1.9,1.1s-1.3-.4-1.6-1.1-.3-1.6-.2-2.6c.1-1,.4-1.9.9-2.6s1.1-1.1,1.9-1.1,1.3.4,1.6,1.1ZM242.1,129.3c-.3,0-.6.2-.9.6-.2.4-.4.9-.5,1.6,0,.7,0,1.2,0,1.6.1.4.4.6.7.6s.6-.2.9-.6.4-.9.5-1.6c0-.7,0-1.2,0-1.6-.1-.4-.4-.6-.7-.6Z"/>
  <path d="M247.2,129.4c-.3,0-.6.2-.7.5,0,.2-.2.5-.2.9l-.6,4.2h-1.2l1-6.9h1.1v1c0-.4.2-.6.4-.8.3-.3.6-.4.9-.4s.6.1.8.3c.1.2.2.5.3.8.2-.4.4-.7.7-.9.3-.2.5-.3.8-.3s.4,0,.6.2c.2.1.3.3.4.6,0,.2.1.5.1.9,0,.2,0,.6,0,1l-.6,4.4h-1.2l.6-4.4c0-.3,0-.5,0-.6,0-.3-.2-.5-.5-.5s-.6.2-.8.6c0,.2-.2.5-.2.8l-.6,4.1h-1.2l.6-4.1c0-.4,0-.7,0-.9,0-.3-.2-.5-.5-.5Z"/>
</svg>