<?xml version="1.0" encoding="UTF-8"?>
<svg id="_레이어_1" xmlns="http://www.w3.org/2000/svg" version="1.1" viewBox="0 0 255.1 141.7">
  <!-- Generator: Adobe Illustrator 29.6.1, SVG Export Plug-In . SVG Version: 2.1.1 Build 9)  -->
  <defs>
    <style>
      .st0 {
        fill: #fff;
      }

      .st1 {
        opacity: 0;
      }
    </style>
  </defs>
  <rect class="st0" y="0" width="255.1" height="141.7"/>
  <path d="M4.2,6.1h1.1v.7c0,.8,0,1.5-.2,2.2-.2.7-.4,1.3-.8,1.9-.4.5-.8.9-1.4,1.2l-.7-1.5c.4-.2.7-.4.9-.7.3-.3.5-.6.6-.9.2-.3.3-.7.3-1.1,0-.4.1-.8.1-1.1v-.7ZM2.6,5.6h4.6v1.5H2.6v-1.5ZM6.5,12.3c.6,0,1.1,0,1.6.3.4.2.8.5,1,.8.2.4.4.8.4,1.3,0,.8-.3,1.3-.8,1.7-.5.4-1.2.6-2.1.6s-1.6-.2-2.1-.6c-.5-.4-.8-1-.8-1.7s.1-.9.4-1.3c.2-.4.6-.6,1-.8.4-.2,1-.3,1.6-.3ZM4.5,6.1h1.1v.7c0,.5,0,.9.2,1.4.1.5.3.9.6,1.2.3.4.6.7,1.1.9l-.6,1.5c-.5-.3-1-.6-1.3-1.1-.3-.5-.6-1.1-.7-1.8-.2-.7-.2-1.4-.2-2.1v-.7ZM6.5,13.8c-.4,0-.6,0-.9,0-.2,0-.4.2-.5.3s-.2.3-.2.5,0,.4.2.5.3.2.5.3c.2,0,.5,0,.9,0s.7,0,.9,0c.2,0,.4-.2.5-.3.1-.1.2-.3.2-.5s0-.4-.2-.5c-.1-.1-.3-.2-.5-.3-.2,0-.5,0-.9,0ZM6.9,7.8h1.5v1.5h-1.5v-1.5ZM8.1,4.9h1.3v7.2h-1.3v-7.2Z"/>
  <path d="M243.1,5.7h1.3v1.5h1.5v-1.5h1.3v5.9h-4.1v-5.9ZM243.9,12.7h5.7v4.4h-1.3v-2.8h-4.4v-1.5ZM244.5,8.7v1.5h1.5v-1.5h-1.5ZM248.3,4.9h1.3v7.2h-1.3v-7.2ZM249.2,7.8h1.5v1.6h-1.5v-1.6Z"/>
  <path d="M2.5,34.7l-.2-1.5c.5,0,1,0,1.6,0,.6,0,1.2,0,1.8-.1.6,0,1.2-.1,1.8-.3v1.4c-.5.2-1.1.3-1.7.4-.6,0-1.2.1-1.8.1-.6,0-1.1,0-1.6,0ZM5,25.7c.4,0,.9.1,1.2.4.4.3.6.6.8,1.1.2.5.3,1,.3,1.6s-.1,1.1-.3,1.6c-.2.5-.5.8-.8,1.1-.4.3-.8.4-1.2.4s-.8-.1-1.2-.4c-.4-.3-.6-.6-.8-1.1-.2-.5-.3-1-.3-1.6s.1-1.1.3-1.6c.2-.5.5-.8.8-1.1.4-.3.8-.4,1.2-.4ZM5,27.3c-.2,0-.4,0-.5.2-.2.1-.3.3-.4.5s-.1.5-.1.8,0,.6.1.8.2.4.4.5c.2.1.3.2.5.2s.4,0,.5-.2.3-.3.4-.5c0-.2.1-.5.1-.8s0-.6-.1-.8c0-.2-.2-.4-.4-.5s-.3-.2-.5-.2ZM8.1,24.9h1.3v12.2h-1.3v-12.2Z"/>
  <path class="st1" d="M249.6,36c-.3,0-.5-.1-.6-.4-.2-.3-.3-.6-.3-1s0-.7.3-.9c.2-.3.4-.4.6-.4s.5.1.6.4c.2.3.3.6.3.9s0,.7-.3,1-.4.4-.6.4Z"/>
  <path d="M2.4,50.7v-1.4c.1,0,.5,0,.8,0,.3,0,.7,0,1.1,0,.4,0,.8,0,1.1,0,.4,0,.7-.1,1.1-.2v1.3c-.4.1-.8.3-1.4.3-.5,0-1,.1-1.5.1-.5,0-.9,0-1.3,0ZM4.4,45.3c.6,0,1,.2,1.3.5.3.3.5.8.5,1.3s-.2,1-.5,1.3-.8.5-1.3.5-1-.2-1.4-.5c-.3-.3-.5-.8-.5-1.3s.2-1,.5-1.3c.3-.3.8-.5,1.4-.5ZM3.6,52.7h1.3v.7h3.5v-.7h1.3v4.2H3.6v-4.2ZM4.4,46.6c-.2,0-.4,0-.5.1-.1,0-.2.2-.2.4s0,.3.2.4c.1,0,.3.1.5.1s.4,0,.5-.1c.1,0,.2-.2.2-.4s0-.3-.2-.4c-.1,0-.3-.1-.5-.1ZM3.8,50h1.3v2.3h-1.3v-2.3ZM4.9,54.8v.6h3.5v-.6h-3.5ZM5.6,50.8h1.7v1.2h-1.7v-1.2ZM6.8,45.1h1.3v7.2h-1.3v-7.2ZM8.4,44.9h1.3v7.4h-1.3v-7.4Z"/>
  <path d="M12.5,45.8h1.1v1.7c0,.8,0,1.5-.1,2.2s-.2,1.4-.4,2c-.2.6-.4,1.2-.7,1.7-.3.5-.7.9-1.1,1.2l-.8-1.5c.4-.3.7-.6,1-1,.3-.4.5-.8.6-1.3.2-.5.3-1,.4-1.6,0-.6.1-1.1.1-1.7v-1.7ZM12.8,45.8h1.1v1.7c0,.5,0,1.1.1,1.6,0,.5.2,1,.3,1.5.2.5.3.9.6,1.3.2.4.5.7.9.9l-.8,1.5c-.4-.3-.7-.7-1-1.1-.3-.5-.5-1-.7-1.6-.2-.6-.3-1.3-.4-2,0-.7-.1-1.4-.1-2.2v-1.7ZM16,44.9h1.3v12.1h-1.3v-12.1ZM17,49.5h1.5v1.6h-1.5v-1.6Z"/>
  <path d="M21.4,45.7c.4,0,.8.2,1.2.5.3.4.6.9.8,1.5.2.7.3,1.4.3,2.3s0,1.7-.3,2.3c-.2.7-.5,1.2-.8,1.5s-.7.5-1.2.5-.8-.2-1.2-.5-.6-.9-.8-1.5c-.2-.7-.3-1.4-.3-2.3s0-1.7.3-2.3c.2-.6.5-1.2.8-1.5.3-.4.7-.5,1.2-.5ZM21.4,47.5c-.2,0-.4,0-.5.3s-.3.5-.3.9c0,.4-.1.9-.1,1.4s0,1.1.1,1.5c0,.4.2.7.3.9.1.2.3.3.5.3s.4,0,.5-.3c.1-.2.3-.5.3-.9,0-.4.1-.9.1-1.5s0-1.1-.1-1.4c0-.4-.2-.7-.3-.9-.1-.2-.3-.3-.5-.3ZM24.7,44.9h1.3v12.2h-1.3v-12.2Z"/>
  <path d="M27.1,54.2h7.7v1.5h-7.7v-1.5ZM27.9,45.8h5.9v1.5h-4.6v4.2h-1.4v-5.7ZM27.9,51.1h6v1.5h-6v-1.5ZM28.9,48.4h4.8v1.5h-4.8v-1.5Z"/>
  <path d="M124.7,49l-1.1,7.6c-.1.7-.3,1.2-.5,1.5-.2.3-.6.5-1.2.5s0,0-.2,0-.2,0-.3,0l.2-1.4c0,0,.1,0,.1,0,0,0,0,0,0,0,.1,0,.2,0,.3-.1,0,0,.1-.3.2-.5l1.1-7.6h1.3ZM123.5,48.1l.2-1.7h1.3l-.2,1.7h-1.3Z"/>
  <path d="M128,54.9s0,0-.1.2c0,.1-.1.2-.2.3-.2.3-.5.4-.7.5-.2,0-.4.1-.7.1-.7,0-1.1-.4-1.3-1.1,0-.4,0-1,0-1.8l.6-4.2h1.3l-.6,4.2c0,.4,0,.7,0,.9,0,.4.3.5.6.5s.8-.2,1-.7c.1-.3.2-.6.3-1.1l.6-3.8h1.3l-1,6.9h-1.2v-1Z"/>
  <path d="M134,51.6c0-.4,0-.6,0-.8,0-.4-.3-.5-.6-.5s-.8.3-1,.8c-.1.3-.2.6-.3,1.1l-.6,3.7h-1.3l1-6.9h1.2l-.2,1c.2-.4.4-.6.6-.8.3-.3.7-.4,1.1-.4s.9.2,1.1.6c.3.4.3,1,.2,1.9l-.7,4.7h-1.3l.6-4.2Z"/>
  <path d="M137.6,58.7c-.6,0-1.1-.2-1.4-.5-.3-.3-.5-.9-.4-1.6h1.4c0,.2,0,.4.1.5.1.2.3.2.7.2s.8-.2,1-.7c.1-.3.3-.7.4-1.4v-.4c0,.3-.3.5-.4.7-.3.3-.6.4-1,.4-.6,0-1.1-.3-1.4-.9-.3-.6-.3-1.5-.2-2.5.2-1,.5-1.9.9-2.6.5-.7,1-1.1,1.7-1.1s.4,0,.6.2c.3.2.5.5.6,1v-1h1.4l-1,6.6c-.1.9-.3,1.6-.6,2-.5.8-1.2,1.2-2.3,1.2ZM137.6,52.4c0,.4,0,.8,0,1.1,0,.6.3.9.8.9s.6-.2.8-.5c.3-.3.4-.8.5-1.5,0-.7,0-1.2,0-1.5-.1-.3-.4-.5-.7-.5s-.8.3-1.1.9c-.1.3-.2.7-.3,1.2Z"/>
  <path d="M144.4,49.2c.3-.3.7-.5,1.1-.5.6,0,1,.3,1.3.9s.4,1.5.2,2.6c-.2,1.2-.5,2.1-1,2.8s-1,1-1.6,1-.7-.1-.9-.4c-.1-.2-.2-.4-.3-.7l-.5,3.6h-1.3l1.4-9.6h1.2l-.2,1c.2-.3.4-.5.5-.7ZM145.1,53.9c.2-.4.4-.9.5-1.6,0-.5,0-1,0-1.4-.1-.4-.4-.6-.7-.6s-.8.3-1.1.9c-.1.3-.2.7-.3,1.3-.1.8,0,1.4.2,1.7.2.2.3.3.6.3.4,0,.7-.2.9-.6Z"/>
  <path d="M149.9,51.6c.2,0,.4,0,.5-.2.2-.1.3-.3.3-.5,0-.3,0-.5-.1-.6-.1-.1-.3-.2-.6-.2s-.5.1-.7.3c-.1.2-.2.4-.3.6h-1.2c.1-.6.3-1.1.6-1.5.4-.6,1-.9,1.9-.9s1,.2,1.3.5.5.9.4,1.7l-.5,3.2c0,.2,0,.5-.1.8,0,.2,0,.4,0,.5,0,0,0,.2.2.2v.3h-1.4c0-.1,0-.3,0-.4s0-.3,0-.4c-.2.3-.5.5-.7.7-.3.2-.6.3-1,.3s-.8-.2-1-.5c-.2-.4-.3-.9-.2-1.5.1-.9.4-1.5,1-1.8.3-.2.7-.4,1.2-.4h.4ZM150,52.8h-.3c-.3.1-.5.2-.6.3-.2.2-.4.4-.4.8,0,.3,0,.5,0,.7,0,.1.2.2.4.2.3,0,.5-.1.8-.3s.4-.6.5-1.3v-.7c0,0,0,.1-.2.2,0,0-.2,0-.4.1Z"/>
  <path d="M156.2,48.8s0,0,.1,0l-.3,1.9c0,0-.1,0-.2,0,0,0-.1,0-.2,0-.5,0-.9.2-1.1.7-.1.3-.2.7-.3,1.2l-.5,3.3h-1.3l1-6.9h1.2l-.2,1.2c.3-.5.5-.8.6-.9.3-.3.6-.4,1-.4h0Z"/>
  <path d="M157.6,53.7l-.3,2.2h-1.2l1.4-9.3h1.2l-.8,5,2-2.6h1.6l-2.1,2.6,1.1,4.2h-1.5l-.7-3-.6.8Z"/>
  <path d="M165.9,47.8c.2.8.2,2,0,3.5-.2,1.5-.6,2.7-1,3.5-.5.8-1.1,1.2-1.9,1.2s-1.3-.4-1.5-1.2-.2-2,0-3.5c.2-1.5.6-2.7,1-3.5.5-.8,1.1-1.2,1.9-1.2s1.3.4,1.5,1.2ZM164.6,51.3c.2-1.1.2-1.9.2-2.5s-.2-.8-.6-.8-.7.3-.9.8-.4,1.4-.5,2.5c-.2,1.1-.2,1.9-.2,2.4,0,.6.2.8.6.8s.7-.3.9-.8c.2-.6.4-1.4.5-2.4Z"/>
  <path d="M166.1,55.8l.3-1.9h1.3l-.3,1.9h-1.3Z"/>
  <path d="M170.2,58.7c-.6,0-1.1-.2-1.4-.5-.3-.3-.5-.9-.4-1.6h1.4c0,.2,0,.4.1.5.1.2.3.2.7.2s.8-.2,1-.7c.1-.3.3-.7.4-1.4v-.4c0,.3-.3.5-.4.7-.3.3-.6.4-1,.4-.6,0-1.1-.3-1.4-.9-.3-.6-.3-1.5-.2-2.5.2-1,.5-1.9.9-2.6.5-.7,1-1.1,1.7-1.1s.4,0,.6.2c.3.2.5.5.6,1v-1h1.4l-1,6.6c-.1.9-.3,1.6-.6,2-.5.8-1.2,1.2-2.3,1.2ZM170.2,52.4c0,.4,0,.8,0,1.1,0,.6.3.9.8.9s.6-.2.8-.5c.3-.3.4-.8.5-1.5,0-.7,0-1.2,0-1.5-.1-.3-.4-.5-.7-.5s-.8.3-1.1.9c-.1.3-.2.7-.3,1.2Z"/>
  <path d="M175.3,48.9h1.3l-1,6.9h-1.3l1-6.9ZM175.7,46.4h1.3l-.2,1.7h-1.3l.2-1.7Z"/>
  <path d="M178.4,53.9c0,.3,0,.5,0,.5,0,0,.2.1.4.1s0,0,.1,0c0,0,0,0,.1,0l-.2,1.4h-.6c-.6,0-1,0-1.2-.4-.1-.2-.1-.5,0-1l.6-4.3h-.7l.2-1.3h.7l.3-1.9h1.3l-.3,1.9h.8l-.2,1.3h-.8l-.5,3.7Z"/>
  <path d="M182.8,50.2c-.3,0-.6.2-.8.5-.2.3-.4.8-.5,1.4l-.6,3.7h-1.3l1.4-9.3h1.3l-.5,3.3c.2-.4.5-.7.8-.8.3-.2.5-.2.8-.2s.6,0,.8.2c.2.1.4.4.5.7,0,.3.1.5.1.8,0,.3,0,.7-.2,1.3l-.6,4.1h-1.3l.6-4.2c0-.4,0-.7,0-.9,0-.3-.3-.5-.6-.5Z"/>
  <path d="M188.4,54.9s0,0-.1.2c0,.1-.1.2-.2.3-.2.3-.5.4-.7.5-.2,0-.4.1-.7.1-.7,0-1.1-.4-1.3-1.1,0-.4,0-1,0-1.8l.6-4.2h1.3l-.6,4.2c0,.4,0,.7,0,.9,0,.4.3.5.6.5s.8-.2,1-.7c.1-.3.2-.6.3-1.1l.6-3.8h1.3l-1,6.9h-1.2v-1Z"/>
  <path d="M193.5,49.1c.3-.2.6-.3.9-.3.6,0,1.1.3,1.3,1,.3.7.3,1.5.2,2.5-.2,1.1-.5,2-.9,2.7s-1,1.1-1.6,1.1-.7-.1-.9-.3c-.1-.1-.2-.4-.4-.7v.9h-1.4l1.4-9.3h1.3l-.5,3.3c.2-.3.4-.6.6-.7ZM194.1,54c.2-.4.4-.9.5-1.5,0-.5,0-.9,0-1.2,0-.6-.3-.9-.8-.9s-.8.3-1.1.9c-.1.3-.2.7-.3,1.2,0,.6,0,1.1,0,1.5s.4.6.8.6.6-.2.8-.6Z"/>
  <path d="M196.4,55.8l.3-1.9h1.3l-.3,1.9h-1.3Z"/>
  <path d="M199.8,48.9h1.3l-1,6.9h-1.3l1-6.9ZM200.2,46.4h1.3l-.2,1.7h-1.3l.2-1.7Z"/>
  <path d="M206.2,49.8c.3.7.4,1.6.2,2.6-.2,1-.5,1.9-1,2.6-.5.7-1.2,1.1-2,1.1s-1.4-.4-1.7-1.1c-.3-.7-.4-1.6-.2-2.6.1-1,.5-1.9,1-2.6s1.2-1.1,2-1.1,1.4.4,1.7,1.1ZM204.3,50.2c-.4,0-.7.2-.9.6-.3.4-.4.9-.5,1.6s0,1.2,0,1.6c.1.4.4.6.8.6s.7-.2.9-.6.4-.9.5-1.6c.1-.7,0-1.2,0-1.6-.1-.4-.4-.6-.8-.6Z"/>
  <path d="M206,55.8l4-9.6h1.1l-4,9.6h-1Z"/>
  <path d="M212.2,49l-1.1,7.6c-.1.7-.3,1.2-.5,1.5-.2.3-.6.5-1.2.5s0,0-.2,0-.2,0-.3,0l.2-1.4c0,0,.1,0,.1,0,0,0,0,0,0,0,.1,0,.2,0,.3-.1,0,0,.1-.3.2-.5l1.1-7.6h1.3ZM211.1,48.1l.2-1.7h1.3l-.2,1.7h-1.3Z"/>
  <path d="M215.6,54.9s0,0-.1.2c0,.1-.1.2-.2.3-.2.3-.5.4-.7.5-.2,0-.4.1-.7.1-.7,0-1.1-.4-1.3-1.1,0-.4,0-1,0-1.8l.6-4.2h1.3l-.6,4.2c0,.4,0,.7,0,.9,0,.4.3.5.6.5s.8-.2,1-.7c.1-.3.2-.6.3-1.1l.6-3.8h1.3l-1,6.9h-1.2v-1Z"/>
  <path d="M221.6,51.6c0-.4,0-.6,0-.8,0-.4-.3-.5-.6-.5s-.8.3-1,.8c-.1.3-.2.6-.3,1.1l-.6,3.7h-1.3l1-6.9h1.2l-.2,1c.2-.4.4-.6.6-.8.3-.3.7-.4,1.1-.4s.9.2,1.1.6c.3.4.3,1,.2,1.9l-.7,4.7h-1.3l.6-4.2Z"/>
  <path d="M225.1,58.7c-.6,0-1.1-.2-1.4-.5-.3-.3-.5-.9-.4-1.6h1.4c0,.2,0,.4.1.5.1.2.3.2.7.2s.8-.2,1-.7c.1-.3.3-.7.4-1.4v-.4c0,.3-.3.5-.4.7-.3.3-.6.4-1,.4-.6,0-1.1-.3-1.4-.9-.3-.6-.3-1.5-.2-2.5.2-1,.5-1.9.9-2.6.5-.7,1-1.1,1.7-1.1s.4,0,.6.2c.3.2.5.5.6,1v-1h1.4l-1,6.6c-.1.9-.3,1.6-.6,2-.5.8-1.2,1.2-2.3,1.2ZM225.1,52.4c0,.4,0,.8,0,1.1,0,.6.3.9.8.9s.6-.2.8-.5c.3-.3.4-.8.5-1.5,0-.7,0-1.2,0-1.5s-.4-.5-.7-.5-.8.3-1.1.9c-.1.3-.2.7-.3,1.2Z"/>
  <path d="M231.9,49.2c.3-.3.7-.5,1.1-.5.6,0,1,.3,1.3.9s.4,1.5.2,2.6c-.2,1.2-.5,2.1-1,2.8-.5.6-1,1-1.6,1s-.7-.1-.9-.4c-.1-.2-.2-.4-.3-.7l-.5,3.6h-1.3l1.4-9.6h1.2l-.2,1c.2-.3.4-.5.5-.7ZM232.7,53.9c.2-.4.4-.9.5-1.6,0-.5,0-1,0-1.4s-.4-.6-.7-.6-.8.3-1.1.9c-.1.3-.2.7-.3,1.3-.1.8,0,1.4.2,1.7.2.2.3.3.6.3.4,0,.7-.2.9-.6Z"/>
  <path d="M237.5,51.6c.2,0,.4,0,.5-.2.2-.1.3-.3.3-.5,0-.3,0-.5-.1-.6-.1-.1-.3-.2-.6-.2s-.5.1-.7.3c-.1.2-.2.4-.3.6h-1.2c.1-.6.3-1.1.6-1.5.4-.6,1-.9,1.9-.9s1,.2,1.3.5.5.9.4,1.7l-.5,3.2c0,.2,0,.5-.1.8,0,.2,0,.4,0,.5,0,0,0,.2.2.2v.3h-1.4c0-.1,0-.3,0-.4s0-.3,0-.4c-.2.3-.5.5-.7.7-.3.2-.6.3-1,.3s-.8-.2-1-.5c-.2-.4-.3-.9-.2-1.5.1-.9.4-1.5,1-1.8.3-.2.7-.4,1.2-.4h.4ZM237.5,52.8h-.3c-.3.1-.5.2-.6.3-.2.2-.4.4-.4.8,0,.3,0,.5,0,.7,0,.1.2.2.4.2.3,0,.5-.1.8-.3.3-.2.4-.6.5-1.3v-.7c0,0,0,.1-.2.2,0,0-.2,0-.4.1Z"/>
  <path d="M243.8,48.8s0,0,.1,0l-.3,1.9c0,0-.1,0-.2,0,0,0-.1,0-.2,0-.5,0-.9.2-1.1.7-.1.3-.2.7-.3,1.2l-.5,3.3h-1.3l1-6.9h1.2l-.2,1.2c.3-.5.5-.8.6-.9.3-.3.6-.4,1-.4h0Z"/>
  <path d="M245.2,53.7l-.3,2.2h-1.2l1.4-9.3h1.2l-.8,5,2-2.6h1.6l-2.1,2.6,1.1,4.2h-1.5l-.7-3-.6.8Z"/>
  <path d="M247.8,55.8l4-9.6h1.1l-4,9.6h-1Z"/>
  <path d="M4.7,65.7c.4,0,.8.1,1.2.4.4.3.6.6.8,1.1.2.5.3,1,.3,1.6s-.1,1.1-.3,1.6c-.2.5-.5.8-.8,1.1-.4.3-.7.4-1.2.4s-.8-.1-1.2-.4-.6-.6-.8-1.1c-.2-.5-.3-1-.3-1.6s.1-1.1.3-1.6c.2-.5.5-.8.8-1.1.4-.3.7-.4,1.2-.4ZM3.6,72.7h1.3v3.2h-1.3v-3.2ZM3.6,75.3h5.9v1.5H3.6v-1.5ZM4.7,67.3c-.2,0-.4,0-.5.2s-.3.3-.4.5-.1.5-.1.8,0,.6.1.8c0,.2.2.4.4.5.2.1.3.2.5.2s.4,0,.5-.2c.2-.1.3-.3.4-.5,0-.2.1-.5.1-.8s0-.6-.1-.8-.2-.4-.4-.5c-.2-.1-.3-.2-.5-.2ZM8,64.9h1.3v8.7h-1.3v-8.7Z"/>
  <path d="M10.4,74h7.7v1.5h-7.7v-1.5ZM13.5,65.6h1.2v.9c0,.5,0,1-.1,1.5,0,.5-.2,1-.4,1.4-.2.4-.4.8-.7,1.2-.3.4-.6.7-1,.9-.4.3-.8.5-1.3.6l-.6-1.6c.4-.1.8-.3,1.1-.5.3-.2.6-.4.8-.7.2-.3.4-.6.6-.9.2-.3.3-.7.3-1,0-.3.1-.7.1-1v-.9ZM13.8,65.6h1.2v.9c0,.3,0,.7.1,1s.2.7.3,1c.2.3.3.6.6.9s.5.5.8.7.7.4,1.1.4l-.6,1.6c-.5-.1-.9-.3-1.3-.6-.4-.3-.7-.6-1-.9-.3-.4-.5-.8-.7-1.2-.2-.4-.3-.9-.4-1.4s-.1-1-.1-1.6v-.9Z"/>
  <path d="M19,65.9h4v1.5h-2.6v5.9h-1.3v-7.4ZM19,72.8h.7c.5,0,.9,0,1.3,0s.8,0,1.2,0c.4,0,.8-.1,1.2-.2v1.5c-.3,0-.7.2-1.1.2-.4,0-.8,0-1.3,0-.4,0-.9,0-1.4,0h-.7v-1.5ZM20,69.3h2.9v1.5h-2.9v-1.5ZM24,64.9h1.3v12.1h-1.3v-12.1ZM25,69.4h1.5v1.6h-1.5v-1.6Z"/>
  <path d="M27.1,74h7.7v1.5h-7.7v-1.5ZM27.8,66h5.4v1.5h-5.4v-1.5ZM32.5,66h1.3v1.5c0,.6,0,1.2,0,1.7,0,.6,0,1.2,0,1.9s-.1,1.4-.2,2.2l-1.3-.2c.1-.8.2-1.5.2-2.1,0-.6,0-1.3,0-1.8,0-.6,0-1.1,0-1.7v-1.5Z"/>
  <path d="M35.6,65.6h3.2v3.7h-1.9v2.1h-1.3v-3.4h1.9v-.8h-1.9v-1.5ZM35.6,70.2h.6c.4,0,.8,0,1.1,0,.3,0,.6,0,.9,0,.3,0,.6,0,.9-.2v1.5c-.2,0-.5.1-.8.2s-.6,0-1,0-.7,0-1.1,0h-.6v-1.5ZM36.8,72.5h5.8v4.4h-5.8v-4.4ZM41.2,74h-3.2v1.4h3.2v-1.4ZM39.5,65.1h1.2v6.8h-1.2v-6.8ZM40.3,67.7h1.3v1.5h-1.3v-1.5ZM41.3,64.9h1.3v7.1h-1.3v-7.1Z"/>
  <path d="M205.1,74.1h.1c0-.1.2.6.2.6-.5.5-1,.8-1.5,1.1-.5.2-1.1.4-1.6.4-1.2,0-2.1-.5-2.6-1.6-.4-.9-.5-2-.4-3.2.2-1.4.7-2.6,1.6-3.5.9-1,1.9-1.5,3-1.5s1.7.3,2.2,1c.5.7.7,1.7.5,2.9-.1,1-.5,1.8-1,2.5-.5.7-1,1-1.6,1s-.5-.1-.6-.3c-.1-.2-.2-.4-.1-.7,0,0,0,0,0,0,0,0,0,0,0-.1-.2.3-.3.5-.5.7-.3.3-.6.5-1,.5s-.6-.2-.8-.6-.2-.9-.1-1.5c.1-.8.4-1.5.9-2.2s1-1,1.5-1,.5.1.7.4c.1.2.2.4.2.7l.3-.8h.8l-1,2.8c0,.2-.1.4-.2.5,0,.1,0,.2,0,.3,0,.1,0,.2,0,.4,0,.1.1.2.3.2.3,0,.5-.2.9-.7.3-.5.5-1.1.7-1.9.2-1.2,0-2-.7-2.5-.4-.3-.9-.5-1.4-.5-1,0-1.9.4-2.6,1.3-.7.8-1.1,1.8-1.3,2.9-.2,1.2,0,2.2.5,2.9.5.6,1.1,1,2,1s1.1-.1,1.6-.4c.3-.2.6-.4.9-.7ZM202,71.7c0,.3,0,.6,0,.7,0,.2.2.3.4.3.3,0,.6-.3.9-1,.3-.7.5-1.2.5-1.6,0-.2,0-.4,0-.6,0-.2-.2-.2-.3-.2-.3,0-.6.3-.9.8-.3.5-.5,1.1-.6,1.6Z"/>
  <path d="M209.9,69l-1.1,7.6c-.1.7-.3,1.2-.5,1.5-.2.3-.6.5-1.2.5s0,0-.2,0-.2,0-.3,0l.2-1.4c0,0,.1,0,.1,0,0,0,0,0,0,0,.1,0,.2,0,.3-.1,0,0,.1-.3.2-.5l1.1-7.6h1.3ZM208.7,68.1l.2-1.7h1.3l-.2,1.7h-1.3Z"/>
  <path d="M213.2,74.9s0,0-.1.2c0,.1-.1.2-.2.3-.2.3-.5.4-.7.5-.2,0-.4.1-.7.1-.7,0-1.1-.4-1.3-1.1,0-.4,0-1,0-1.8l.6-4.2h1.3l-.6,4.2c0,.4,0,.7,0,.9,0,.4.3.5.6.5s.8-.2,1-.7c.1-.3.2-.6.3-1.1l.6-3.8h1.3l-1,6.9h-1.2v-1Z"/>
  <path d="M219.3,71.6c0-.4,0-.6,0-.8,0-.4-.3-.5-.6-.5s-.8.3-1,.8c-.1.3-.2.6-.3,1.1l-.6,3.7h-1.3l1-6.9h1.2l-.2,1c.2-.4.4-.6.6-.8.3-.3.7-.4,1.1-.4s.9.2,1.1.6c.3.4.3,1,.2,1.9l-.7,4.7h-1.3l.6-4.2Z"/>
  <path d="M222.8,78.7c-.6,0-1.1-.2-1.4-.5-.3-.3-.5-.9-.4-1.6h1.4c0,.2,0,.4.1.5.1.2.3.2.7.2s.8-.2,1-.7c.1-.3.3-.7.4-1.4v-.4c0,.3-.3.5-.4.7-.3.3-.6.4-1,.4-.6,0-1.1-.3-1.4-.9-.3-.6-.3-1.5-.2-2.5.2-1,.5-1.9.9-2.6.5-.7,1-1.1,1.7-1.1s.4,0,.6.2c.3.2.5.5.6,1v-1h1.4l-1,6.6c-.1.9-.3,1.6-.6,2-.5.8-1.2,1.2-2.3,1.2ZM222.8,72.4c0,.4,0,.8,0,1.1,0,.6.3.9.8.9s.6-.2.8-.5c.3-.3.4-.8.5-1.5,0-.7,0-1.2,0-1.5s-.4-.5-.7-.5-.8.3-1.1.9c-.1.3-.2.7-.3,1.2Z"/>
  <path d="M229.6,69.2c.3-.3.7-.5,1.1-.5.6,0,1,.3,1.3.9s.4,1.5.2,2.6c-.2,1.2-.5,2.1-1,2.8-.5.6-1,1-1.6,1s-.7-.1-.9-.4c-.1-.2-.2-.4-.3-.7l-.5,3.6h-1.3l1.4-9.6h1.2l-.2,1c.2-.3.4-.5.5-.7ZM230.3,73.9c.2-.4.4-.9.5-1.6,0-.5,0-1,0-1.4s-.4-.6-.7-.6-.8.3-1.1.9c-.1.3-.2.7-.3,1.3-.1.8,0,1.4.2,1.7.2.2.3.3.6.3.4,0,.7-.2.9-.6Z"/>
  <path d="M235.1,71.6c.2,0,.4,0,.5-.2.2-.1.3-.3.3-.5,0-.3,0-.5-.1-.6-.1-.1-.3-.2-.6-.2s-.5.1-.7.3c-.1.2-.2.4-.3.6h-1.2c.1-.6.3-1.1.6-1.5.4-.6,1-.9,1.9-.9s1,.2,1.3.5.5.9.4,1.7l-.5,3.2c0,.2,0,.5-.1.8,0,.2,0,.4,0,.5,0,0,0,.2.2.2v.3h-1.4c0-.1,0-.3,0-.4s0-.3,0-.4c-.2.3-.5.5-.7.7-.3.2-.6.3-1,.3s-.8-.2-1-.5c-.2-.4-.3-.9-.2-1.5.1-.9.4-1.5,1-1.8.3-.2.7-.4,1.2-.4h.4ZM235.2,72.8h-.3c-.3.1-.5.2-.6.3-.2.2-.4.4-.4.8,0,.3,0,.5,0,.7,0,.1.2.2.4.2.3,0,.5-.1.8-.3.3-.2.4-.6.5-1.3v-.7c0,0,0,.1-.2.2,0,0-.2,0-.4.1Z"/>
  <path d="M240.3,71.6c.2,0,.4,0,.5-.2.2-.1.3-.3.3-.5,0-.3,0-.5-.1-.6-.1-.1-.3-.2-.6-.2s-.5.1-.7.3c-.1.2-.2.4-.3.6h-1.2c.1-.6.3-1.1.6-1.5.4-.6,1-.9,1.9-.9s1,.2,1.3.5.5.9.4,1.7l-.5,3.2c0,.2,0,.5-.1.8,0,.2,0,.4,0,.5,0,0,0,.2.2.2v.3h-1.4c0-.1,0-.3,0-.4s0-.3,0-.4c-.2.3-.5.5-.7.7-.3.2-.6.3-1,.3s-.8-.2-1-.5c-.2-.4-.3-.9-.2-1.5.1-.9.4-1.5,1-1.8.3-.2.7-.4,1.2-.4h.4ZM240.3,72.8h-.3c-.3.1-.5.2-.6.3-.2.2-.4.4-.4.8,0,.3,0,.5,0,.7,0,.1.2.2.4.2.3,0,.5-.1.8-.3.3-.2.4-.6.5-1.3v-.7c0,0,0,.1-.2.2,0,0-.2,0-.4.1Z"/>
  <path d="M246.6,68.8s0,0,.1,0l-.3,1.9c0,0-.1,0-.2,0,0,0-.1,0-.2,0-.5,0-.9.2-1.1.7-.1.3-.2.7-.3,1.2l-.5,3.3h-1.3l1-6.9h1.2l-.2,1.2c.3-.5.5-.8.6-.9.3-.3.6-.4,1-.4h0Z"/>
  <path d="M247.9,73.7l-.3,2.2h-1.2l1.4-9.3h1.2l-.8,5,2-2.6h1.6l-2.1,2.6,1.1,4.2h-1.5l-.7-3-.6.8Z"/>
  <path d="M2.3,91.6h7.7v1.5H2.3v-1.5ZM2.6,85.8h6.9v1.4H2.6v-1.4ZM3.1,93.7h5.9v3.4h-1.3v-2H3.1v-1.4ZM6.1,87.5c.9,0,1.6.2,2.1.5s.7.7.7,1.3-.2,1-.7,1.3c-.5.3-1.2.4-2.1.4s-1.6-.1-2.1-.4c-.5-.3-.7-.7-.7-1.3s.2-1,.7-1.3,1.2-.5,2.1-.5ZM6.1,88.8c-.5,0-.9,0-1.1.1-.2,0-.4.2-.4.4s.1.3.4.4c.2,0,.6.1,1.1.1s.9,0,1.2-.1c.2,0,.4-.2.4-.4s-.1-.3-.4-.4c-.2,0-.6-.1-1.2-.1ZM5.5,84.8h1.3v1.9h-1.3v-1.9ZM5.5,90.5h1.3v1.7h-1.3v-1.7Z"/>
  <path d="M243,91h7.7v1.5h-7.7v-1.5ZM246.8,85.3c.6,0,1.2.1,1.6.3s.8.5,1.1.9c.3.4.4.8.4,1.3s-.1,1-.4,1.3-.6.7-1.1.9-1,.3-1.6.3-1.2-.1-1.6-.3-.8-.5-1.1-.9-.4-.8-.4-1.3.1-1,.4-1.3c.3-.4.6-.7,1.1-.9s1-.3,1.6-.3ZM243.9,93.3h1.3v2.5h-1.3v-2.5ZM243.9,95.3h5.9v1.5h-5.9v-1.5ZM246.8,86.8c-.4,0-.7,0-.9.1s-.4.2-.6.3c-.1.1-.2.3-.2.6s0,.4.2.6c.1.2.3.3.6.3s.6.1.9.1.7,0,.9-.1.4-.2.6-.3c.1-.2.2-.3.2-.6s0-.4-.2-.6c-.1-.1-.3-.3-.6-.3s-.6-.1-.9-.1Z"/>
  <path d="M4.6,105.6c.4,0,.8.1,1.1.4.3.3.6.6.8,1.1s.3,1,.3,1.6-.1,1.2-.3,1.6-.5.9-.8,1.1c-.3.3-.7.4-1.1.4s-.8-.1-1.1-.4c-.3-.3-.6-.6-.8-1.1s-.3-1-.3-1.6.1-1.1.3-1.6.5-.8.8-1.1c.3-.3.7-.4,1.1-.4ZM4.6,107.3c-.2,0-.4,0-.5.2-.1.1-.3.3-.4.5,0,.2-.1.5-.1.8s0,.6.1.8c0,.2.2.4.4.5.1.1.3.2.5.2s.4,0,.5-.2c.1-.1.3-.3.4-.5,0-.2.1-.5.1-.8s0-.6-.1-.8c0-.2-.2-.4-.4-.5-.1-.1-.3-.2-.5-.2ZM3.7,112.9h1.3v3.2h-1.3v-3.2ZM3.7,115.3h5.8v1.5H3.7v-1.5ZM6.1,106.5h2.5v1.5h-2.5v-1.5ZM6.1,109.5h2.5v1.5h-2.5v-1.5ZM8,104.9h1.3v8.8h-1.3v-8.8Z"/>
  <path d="M10.6,105.6h3.9v3.8h-2.6v1.7h-1.3v-3.1h2.6v-.9h-2.6v-1.5ZM10.6,110.4h.7c.6,0,1.1,0,1.5,0,.4,0,.8,0,1.2-.1s.7-.1,1.1-.2v1.5c-.3.1-.6.2-1,.2s-.8,0-1.3.1c-.4,0-1,0-1.6,0h-.7v-1.5ZM11.3,112.8h5.7v4.2h-1.3v-2.7h-4.4v-1.5ZM15.7,104.9h1.3v7.4h-1.3v-7.4ZM16.7,107.7h1.5v1.6h-1.5v-1.6Z"/>
  <path d="M18.7,109.7h7.7v1.5h-7.7v-1.5ZM22.6,105.1c1,0,1.7.2,2.3.5.5.4.8.9.8,1.5s-.3,1.2-.8,1.5-1.3.5-2.3.5-1.7-.2-2.3-.5-.8-.9-.8-1.5.3-1.2.8-1.5c.5-.4,1.3-.5,2.3-.5ZM19.6,111.8h5.9v3.2h-4.6v1h-1.3v-2.3h4.6v-.5h-4.6v-1.4ZM19.6,115.5h6.1v1.4h-6.1v-1.4ZM22.6,106.5c-.4,0-.7,0-1,0-.3,0-.4.1-.6.2-.1,0-.2.2-.2.4s0,.3.2.4c.1,0,.3.2.6.2.3,0,.6,0,1,0s.7,0,1,0c.2,0,.4-.1.6-.2.1,0,.2-.2.2-.4s0-.3-.2-.4c-.1,0-.3-.2-.6-.2-.2,0-.6,0-1,0Z"/>
  <path d="M218.5,111.7l-.2-1.5c.5,0,1.1,0,1.7,0,.6,0,1.2,0,1.9,0,.6,0,1.2-.1,1.8-.2v1.4c-.5.1-1.1.3-1.8.3-.6,0-1.2.1-1.8.1-.6,0-1.1,0-1.6,0ZM221,105.3c.4,0,.8,0,1.1.3.3.2.6.4.7.8.2.3.3.7.3,1.1s0,.8-.3,1.1c-.2.3-.4.6-.7.8-.3.2-.7.3-1.1.3s-.8,0-1.1-.3c-.3-.2-.6-.4-.8-.8s-.3-.7-.3-1.1,0-.8.3-1.1c.2-.3.4-.6.8-.8.3-.2.7-.3,1.1-.3ZM219.3,113.2h1.3v2.5h-1.3v-2.5ZM219.3,115.3h6.4v1.5h-6.4v-1.5ZM221,106.7c-.3,0-.5,0-.6.2-.2.1-.2.3-.2.6s0,.5.2.6c.2.1.4.2.6.2s.5,0,.6-.2c.2-.1.2-.3.2-.6s0-.3-.1-.4c0-.1-.2-.2-.3-.3-.1,0-.3,0-.4,0ZM220.5,111.2h1.3v2.6h-1.3v-2.6ZM222.6,111.9h1.8v1.3h-1.8v-1.3ZM224.2,104.9h1.3v9.2h-1.3v-9.2Z"/>
  <path d="M226.5,106.1h5v1.5h-5v-1.5ZM229,108c.4,0,.8,0,1.1.3s.6.5.7.8c.2.4.3.8.3,1.2s0,.9-.3,1.2c-.2.4-.4.6-.7.8-.3.2-.7.3-1.1.3s-.8,0-1.1-.3c-.3-.2-.6-.5-.7-.8-.2-.4-.3-.8-.3-1.2s0-.9.3-1.2c.2-.4.4-.6.7-.8s.7-.3,1.1-.3ZM227.7,113.3h1.3v2.7h-1.3v-2.7ZM227.7,115.3h5.8v1.5h-5.8v-1.5ZM229,109.4c-.2,0-.4,0-.6.2-.2.2-.2.4-.2.7s0,.5.2.7c.2.2.4.2.6.2s.4,0,.6-.2c.1-.2.2-.4.2-.7s0-.5-.2-.7c-.1-.2-.3-.2-.6-.2ZM228.4,104.9h1.3v2h-1.3v-2ZM231.9,104.9h1.3v9h-1.3v-9ZM232.9,108.5h1.5v1.6h-1.5v-1.6Z"/>
  <path d="M235.1,106h4v1.5h-2.6v5.8h-1.3v-7.3ZM235.1,112.6h.7c.5,0,.9,0,1.3,0,.4,0,.8,0,1.2-.1.4,0,.8-.1,1.2-.2v1.6c-.3.1-.7.2-1.1.2-.4,0-.8,0-1.3.1-.4,0-.9,0-1.4,0h-.7v-1.6ZM240.2,104.9h1.3v12.2h-1.3v-12.2ZM241.2,109.3h1.5v1.6h-1.5v-1.6Z"/>
  <path d="M243.4,105.9h4v6h-4v-6ZM244.6,112.9h1.3v3.2h-1.3v-3.2ZM244.6,115.3h5.8v1.5h-5.8v-1.5ZM246.2,107.4h-1.4v3h1.4v-3ZM247.2,106.8h2.1v1.5h-2.1v-1.5ZM247.2,109.4h2.1v1.5h-2.1v-1.5ZM248.9,104.9h1.3v8.8h-1.3v-8.8Z"/>
  <path d="M8.6,127.9c.2.5.2,1,.2,1.5,0,.5,0,1.1-.1,1.5-.2,1.2-.5,2.3-1,3.2-.6,1.2-1.5,1.7-2.5,1.7h-2.8l1.4-9.4h2.8c.4,0,.7,0,1,.2.4.2.7.6.9,1.2ZM7.4,131.1c.1-1,.1-1.7,0-2.2s-.5-.8-1.1-.8h-1.3l-.9,6.1h1.3c.6,0,1.2-.5,1.6-1.4.2-.5.4-1.1.5-1.8Z"/>
  <path d="M12.9,135.8h-1.3v-7.9c0,.2-.1.4-.2.8s0,.6-.1.8l-.9,6.3h-1.3l1.4-9.4h2v7.4c0,0,2.4-7.4,2.4-7.4h2l-1.4,9.4h-1.3l.9-6.3c0-.2,0-.4.1-.8s0-.6.1-.8l-2.4,7.9Z"/>
  <g>
    <path d="M119.5,134.1h7.7v1.6h-7.7v-1.6ZM120.1,125.9h3v1.5h-1.7v3.2h-1.3v-4.7ZM120.1,129.9h.6c.3,0,.7,0,.9,0,.3,0,.5,0,.8,0,.3,0,.5,0,.8-.2v1.6c-.2,0-.5.1-.7.2-.3,0-.5,0-.8,0s-.6,0-1,0h-.6v-1.6ZM122.7,132h1.3v2.8h-1.3v-2.8ZM123.7,125.9h3v1.5h-1.7v3.4h-1.3v-4.9ZM123.7,130h3v1.5h-3v-1.5Z"/>
    <path d="M127.9,130.7h7.7v1.5h-7.7v-1.5ZM128.7,133.2h1.3v2.5h-1.3v-2.5ZM128.7,135.3h6.1v1.5h-6.1v-1.5ZM128.8,125.3h1.3v3.5h-1.3v-3.5ZM128.8,128.1h5.9v1.5h-5.9v-1.5Z"/>
  </g>
  <path d="M196.3,127.8c.2.8.2,2,0,3.5-.2,1.5-.6,2.7-1,3.5-.5.8-1.1,1.2-1.9,1.2s-1.3-.4-1.5-1.2c-.2-.8-.2-2,0-3.5.2-1.5.6-2.7,1-3.5.5-.8,1.1-1.2,1.9-1.2s1.3.4,1.5,1.2ZM194.9,131.3c.2-1.1.2-1.9.2-2.5s-.2-.8-.6-.8-.7.3-.9.8c-.2.5-.4,1.4-.5,2.5-.2,1.1-.2,1.9-.2,2.4,0,.6.2.8.6.8s.7-.3.9-.8c.2-.6.4-1.4.5-2.4Z"/>
  <path d="M199.2,127c0-.2,0-.3.1-.4h1.1l-1.4,9.2h-1.3l.9-6.3h-1.5l.2-1.2c.4,0,.7,0,.9-.1.3,0,.5-.2.7-.5.1-.2.3-.4.3-.7Z"/>
  <path d="M205.9,127.8c.2.8.2,2,0,3.5-.2,1.5-.6,2.7-1,3.5-.5.8-1.1,1.2-1.9,1.2s-1.3-.4-1.5-1.2-.2-2,0-3.5c.2-1.5.6-2.7,1-3.5.5-.8,1.1-1.2,1.9-1.2s1.3.4,1.5,1.2ZM204.5,131.3c.2-1.1.2-1.9.2-2.5s-.2-.8-.6-.8-.7.3-.9.8-.4,1.4-.5,2.5c-.2,1.1-.2,1.9-.2,2.4s.2.8.6.8.7-.3.9-.8.4-1.4.5-2.4Z"/>
  <path d="M206.1,133.1l.3-1.7h2.5l-.3,1.7h-2.5Z"/>
  <path d="M211.4,128.7c-.1.2-.2.6-.3,1.1h-1.2c.1-.8.3-1.4.6-1.9.5-.9,1.1-1.4,2-1.4s1.2.3,1.5.8c.3.5.4,1.3.3,2.1-.1.7-.3,1.3-.7,1.8-.2.4-.6.7-1.1,1.2l-.6.5c-.4.3-.6.6-.8.7-.1.1-.3.3-.4.5h2.8l-.2,1.6h-4.4c.1-.7.3-1.3.6-1.8.3-.6.8-1.3,1.6-1.9.7-.6,1.1-1,1.3-1.3.3-.4.5-.8.6-1.3,0-.4,0-.7,0-1-.1-.3-.3-.4-.6-.4s-.7.2-.9.6Z"/>
  <path d="M217.3,133.6c.1-.4.3-.9.4-1.6-.1.2-.3.4-.4.5-.3.2-.6.3-.9.3-.5,0-.9-.3-1.3-.8-.3-.5-.4-1.2-.3-2.2.1-1,.5-1.8,1-2.4.5-.6,1.1-.9,1.7-.9,1,0,1.6.6,1.7,1.9.1.7,0,1.6-.1,2.8-.2,1.1-.4,2-.7,2.8-.6,1.4-1.4,2.1-2.4,2.1s-.9-.2-1.2-.6c-.3-.4-.5-1-.4-1.8h1.3c0,.3,0,.5.1.7.1.2.3.3.5.3.4,0,.8-.3,1-1ZM216.2,129.7c0,.5,0,1,0,1.2.1.3.3.4.7.4s.3,0,.5-.2c.3-.3.5-.7.6-1.4,0-.5,0-.9,0-1.2-.1-.3-.3-.5-.6-.5s-.4,0-.6.3c-.3.3-.5.7-.6,1.4Z"/>
  <path d="M221.2,130.3c.2-.2.4-.3.5-.4.2,0,.4-.1.7-.1.5,0,1,.3,1.3.8.3.5.4,1.3.3,2.2-.1.9-.4,1.6-.9,2.3-.5.7-1.1,1-1.9,1s-1.1-.2-1.4-.7c-.3-.5-.4-1.1-.4-2h1.3c0,.4,0,.7.2.9s.3.3.6.3.6-.2.8-.5c.2-.3.4-.7.4-1.2,0-.5,0-.9,0-1.2-.1-.3-.3-.5-.6-.5s-.3,0-.4,0c-.2.1-.4.3-.5.6h-1.1c0,0,1.2-5.2,1.2-5.2h3.5l-.2,1.5h-2.6l-.5,2Z"/>
  <path d="M227.1,127c0-.2,0-.3.1-.4h1.1l-1.4,9.2h-1.3l.9-6.3h-1.5l.2-1.2c.4,0,.7,0,.9-.1.3,0,.5-.2.7-.5.1-.2.3-.4.3-.7Z"/>
  <path d="M229.1,133.1l.3-1.7h2.6l-.3,1.7h-2.6Z"/>
  <path d="M235.8,128.4h-3.2l.3-1.6h4.5l-.2,1.4c-.2.3-.6.7-1,1.4-.4.7-.8,1.4-1.2,2.1-.3.6-.5,1.3-.8,2.1-.3.8-.4,1.5-.5,2h-1.3c.3-1.7.9-3.4,1.9-5.1.6-1.1,1.1-1.9,1.5-2.3Z"/>
  <path d="M240.7,128.4h-3.2l.3-1.6h4.5l-.2,1.4c-.2.3-.6.7-1,1.4-.4.7-.8,1.4-1.2,2.1-.3.6-.5,1.3-.8,2.1-.3.8-.4,1.5-.5,2h-1.3c.3-1.7.9-3.4,1.9-5.1.6-1.1,1.1-1.9,1.5-2.3Z"/>
  <path d="M244.5,127c0-.2,0-.3.1-.4h1.1l-1.4,9.2h-1.3l.9-6.3h-1.5l.2-1.2c.4,0,.7,0,.9-.1.3,0,.5-.2.7-.5.1-.2.3-.4.3-.7Z"/>
  <path d="M248.3,131.8l.2-1.3c.4,0,.7,0,.9-.2.3-.2.5-.5.6-1.1,0-.4,0-.6,0-.9-.1-.2-.3-.3-.6-.3s-.5.1-.7.4c-.2.3-.3.6-.4,1.1h-1.2c0-.5.2-.9.4-1.3.2-.4.4-.7.6-1,.2-.2.4-.4.7-.5s.5-.2.9-.2c.6,0,1.1.2,1.4.7s.4,1.1.3,1.8c0,.5-.3,1-.5,1.4-.2.2-.3.4-.5.5.1,0,.3.1.4.4.3.4.3,1,.2,1.8-.1.8-.4,1.5-.9,2.1-.5.6-1.1.9-1.8.9s-1.5-.4-1.7-1.3c-.1-.5-.1-1,0-1.8h1.2c0,.4,0,.7,0,.9,0,.4.3.7.7.7s.5-.1.7-.4c.2-.2.4-.6.4-1.1,0-.6,0-1-.3-1.2-.2-.1-.5-.2-.9-.2Z"/>
</svg>