<?xml version="1.0" encoding="UTF-8"?>
<svg id="_레이어_1" xmlns="http://www.w3.org/2000/svg" version="1.1" viewBox="0 0 255.1 141.7">
  <!-- Generator: Adobe Illustrator 29.6.1, SVG Export Plug-In . SVG Version: 2.1.1 Build 9)  -->
  <defs>
    <style>
      .st0 {
        fill: #fff;
      }
    </style>
  </defs>
  <rect class="st0" y="0" width="255.1" height="141.7"/>
  <path d="M3.6,5.6h4v5.6H3.6v-5.6ZM6.8,12.2h1.1v.3c0,.5,0,1-.2,1.4-.1.5-.3.9-.6,1.3-.3.4-.6.7-1,1-.4.3-.9.5-1.4.6l-.5-1.5c.5,0,.9-.2,1.2-.4.3-.2.6-.5.8-.7.2-.3.4-.6.5-.9.1-.3.2-.6.2-.8v-.3ZM6.3,7.1h-1.4v2.6h1.4v-2.6ZM7,12.2h1.1v.3c0,.3,0,.6.1.9s.3.6.5.9c.2.3.5.5.8.7.3.2.7.3,1.2.4l-.5,1.5c-.6-.1-1-.3-1.4-.6s-.8-.6-1-1c-.3-.4-.5-.8-.6-1.3-.1-.5-.2-1-.2-1.5v-.3ZM7.4,7.6h2v1.5h-2v-1.5ZM9,4.8h1.3v8.1h-1.3V4.8Z"/>
  <path d="M13.5,6.1h1.1v1c0,.8,0,1.5-.3,2.2-.2.7-.4,1.3-.8,1.8s-.8.9-1.4,1.2l-.7-1.5c.5-.2.9-.5,1.2-.9.3-.4.5-.8.6-1.3.1-.5.2-1,.2-1.5v-1ZM11.9,5.6h4.6v1.5h-4.6v-1.5ZM12.9,12.7h1.3v3.2h-1.3v-3.2ZM12.9,15.2h5.9v1.5h-5.9v-1.5ZM13.8,6.1h1.1v1c0,.3,0,.7.1,1,0,.3.2.7.3,1,.2.3.4.6.6.9.2.3.5.5.9.6l-.7,1.5c-.6-.3-1-.6-1.3-1.1s-.6-1.1-.8-1.7c-.2-.7-.2-1.4-.2-2.1v-1ZM17.3,4.8h1.3v8.7h-1.3V4.8Z"/>
  <path d="M63.4,5.8h4.1v1.5h-2.8v5.7h-1.3v-7.3ZM63.4,12.5h.7c.6,0,1.1,0,1.6,0s.9,0,1.2-.1c.4,0,.7-.1,1.1-.2v1.6c-.2.1-.6.2-1,.2-.4,0-.8,0-1.3.1-.5,0-1,0-1.6,0h-.7v-1.6ZM68.6,4.8h1.3v12.2h-1.3V4.8Z"/>
  <path d="M72.9,6.7h1.1v1.2c0,.7,0,1.4-.1,2.1,0,.7-.2,1.3-.4,1.9-.2.6-.4,1.1-.7,1.6-.3.5-.6.8-1.1,1.1l-.8-1.5c.4-.2.7-.6.9-.9.3-.4.5-.8.6-1.3.2-.5.3-1,.4-1.5,0-.5.1-1,.1-1.5v-1.2ZM71.2,5.9h4.7v1.6h-4.7v-1.6ZM73.2,6.7h1.1v1.2c0,.5,0,.9.1,1.4,0,.5.2.9.4,1.4.2.4.4.9.6,1.2.3.4.6.7.9.9l-.7,1.5c-.4-.3-.8-.6-1.1-1.1-.3-.5-.5-1-.7-1.5-.2-.6-.3-1.2-.4-1.8,0-.6-.1-1.3-.1-2v-1.2ZM76.4,4.8h1.3v12.1h-1.3V4.8ZM77.5,9.3h1.5v1.6h-1.5v-1.6Z"/>
  <path d="M81.9,5.6c.4,0,.8.2,1.2.5.3.4.6.9.8,1.5.2.7.3,1.4.3,2.3s0,1.7-.3,2.3c-.2.7-.5,1.2-.8,1.5s-.7.5-1.2.5-.8-.2-1.2-.5-.6-.9-.8-1.5c-.2-.7-.3-1.4-.3-2.3s0-1.7.3-2.3c.2-.6.5-1.2.8-1.5.3-.4.7-.5,1.2-.5ZM81.9,7.3c-.2,0-.4,0-.5.3s-.3.5-.3.9c0,.4-.1.9-.1,1.4s0,1.1.1,1.5c0,.4.2.7.3.9.1.2.3.3.5.3s.4,0,.5-.3c.1-.2.3-.5.3-.9,0-.4.1-.9.1-1.5s0-1.1-.1-1.4c0-.4-.2-.7-.3-.9-.1-.2-.3-.3-.5-.3ZM85.1,4.8h1.3v12.2h-1.3V4.8Z"/>
  <path d="M87.8,6.1h1.3v7.5h-1.3v-7.5ZM87.8,12.5h.7c.4,0,.8,0,1.2,0s.8,0,1.3-.2.9-.2,1.3-.3v1.6c-.3.1-.8.2-1.2.3s-.9.1-1.3.2-.8,0-1.3,0h-.7v-1.6ZM91,8.5h2.6v1.5h-2.6v-1.5ZM93.2,4.8h1.3v12.2h-1.3V4.8Z"/>
  <path d="M98.6,6h1.3c0,1.2-.1,2.4-.4,3.5-.2,1.1-.6,2.1-1.2,3-.5.9-1.3,1.7-2.2,2.4l-.7-1.5c.7-.5,1.3-1.2,1.8-1.8.5-.7.8-1.4,1.1-2.3.2-.9.3-1.8.3-2.9v-.3ZM95.9,6h3.4v1.5h-3.4v-1.5ZM100.9,4.8h1.3v12.1h-1.3V4.8ZM101.9,9.3h1.5v1.6h-1.5v-1.6Z"/>
  <path d="M176.2,14.6l-.2-1.5c.5,0,1.1,0,1.7,0s1.2,0,1.8,0c.6,0,1.2-.1,1.8-.2v1.4c-.5.1-1.1.2-1.7.3s-1.2.1-1.8.1c-.6,0-1.1,0-1.7,0ZM176.6,5.8h4.4v1.5h-3.1v2.7h-1.3v-4.2ZM176.6,9.6h4.5v1.5h-4.5v-1.5ZM178.1,10.8h1.3v2.5h-1.3v-2.5ZM181.8,4.8h1.3v12.2h-1.3V4.8Z"/>
  <path d="M184.1,14h7.7v1.5h-7.7v-1.5ZM184.9,5.8h5.4v1.5h-5.4v-1.5ZM186.8,9.8h1.3v4.9h-1.3v-4.9ZM189.8,5.8h1.3v1.2c0,.5,0,1,0,1.6,0,.6,0,1.2,0,1.9s-.1,1.5-.2,2.4l-1.3-.2c.2-1.2.3-2.3.3-3.2,0-.9,0-1.7,0-2.5v-1.2Z"/>
  <path d="M237.8,5.2h1.1v1.2c0,.8,0,1.5-.3,2.1-.2.7-.4,1.3-.8,1.8-.4.5-.8.9-1.4,1.1l-.6-1.5c.4-.2.7-.4.9-.6s.5-.5.6-.9c.2-.3.3-.7.3-1,0-.3.1-.7.1-1.1v-1.2ZM237.1,15.3h6v1.5h-6v-1.5ZM237.2,12h5.8v1.5h-5.8v-1.5ZM238.1,5.2h1.1v1.2c0,.3,0,.7.1,1,0,.3.2.6.3.9.2.3.3.6.6.8s.5.4.9.6l-.6,1.5c-.4-.2-.8-.4-1.1-.7-.3-.3-.5-.7-.7-1.1-.2-.4-.3-.9-.4-1.4s-.1-1-.1-1.6v-1.2ZM238.1,12.5h1.3v3.6h-1.3v-3.6ZM240.7,12.5h1.3v3.6h-1.3v-3.6ZM241.6,4.8h1.3v6.7h-1.3v-6.7Z"/>
  <path d="M244,10.9h7.7v1.5h-7.7v-1.5ZM247.9,5.1c.6,0,1.2.1,1.6.3s.8.5,1.1.9c.3.4.4.8.4,1.3s-.1,1-.4,1.3-.6.7-1.1.9-1,.3-1.6.3-1.2-.1-1.6-.3-.8-.5-1.1-.9-.4-.8-.4-1.3.1-1,.4-1.3c.3-.4.6-.7,1.1-.9s1-.3,1.6-.3ZM244.9,13.2h1.3v2.5h-1.3v-2.5ZM244.9,15.2h5.9v1.5h-5.9v-1.5ZM247.9,6.6c-.4,0-.7,0-.9.1s-.4.2-.6.3c-.1.1-.2.3-.2.6s0,.4.2.6c.1.2.3.3.6.3s.6.1.9.1.7,0,.9-.1.4-.2.6-.3c.1-.2.2-.3.2-.6s0-.4-.2-.6c-.1-.1-.3-.3-.6-.3s-.6-.1-.9-.1Z"/>
  <path d="M3.5,25.5h1.3v1.5h1.5v-1.5h1.3v5.9H3.5v-5.9ZM4.3,32.5h5.7v4.4h-1.3v-2.8h-4.4v-1.5ZM4.8,28.5v1.5h1.5v-1.5h-1.5ZM8.6,24.8h1.3v7.2h-1.3v-7.2ZM9.6,27.7h1.5v1.6h-1.5v-1.6Z"/>
  <path d="M125.8,26h1.1v.7c0,.8,0,1.5-.2,2.2-.2.7-.4,1.3-.8,1.9-.4.5-.8.9-1.4,1.2l-.7-1.5c.4-.2.7-.4.9-.7.3-.3.5-.6.6-.9.2-.3.3-.7.3-1.1,0-.4.1-.8.1-1.1v-.7ZM124.2,25.5h4.6v1.5h-4.6v-1.5ZM128.1,32.2c.6,0,1.1,0,1.6.3.4.2.8.5,1,.8.2.4.4.8.4,1.3,0,.8-.3,1.3-.8,1.7-.5.4-1.2.6-2.1.6s-1.6-.2-2.1-.6c-.5-.4-.8-1-.8-1.7s.1-.9.4-1.3c.2-.4.6-.6,1-.8.4-.2,1-.3,1.6-.3ZM126.1,26h1.1v.7c0,.5,0,.9.2,1.4.1.5.3.9.6,1.2.3.4.6.7,1.1.9l-.6,1.5c-.5-.3-1-.6-1.3-1.1-.3-.5-.6-1.1-.7-1.8-.2-.7-.2-1.4-.2-2.1v-.7ZM128.1,33.7c-.4,0-.6,0-.9,0-.2,0-.4.2-.5.3s-.2.3-.2.5,0,.4.2.5.3.2.5.3c.2,0,.5,0,.9,0s.7,0,.9,0,.4-.2.5-.3c.1-.1.2-.3.2-.5s0-.4-.2-.5c-.1-.1-.3-.2-.5-.3s-.5,0-.9,0ZM128.5,27.7h1.5v1.5h-1.5v-1.5ZM129.7,24.8h1.3v7.2h-1.3v-7.2Z"/>
  <path d="M244.2,26h4.6v1.5h-4.6v-1.5ZM246.6,27.9c.4,0,.7.1,1,.3s.5.5.7.8c.2.4.3.8.3,1.3s0,.9-.3,1.2c-.2.4-.4.6-.7.9s-.7.3-1,.3-.7-.1-1-.3-.5-.5-.7-.9c-.2-.4-.3-.8-.3-1.2s0-.9.3-1.3c.2-.4.4-.6.7-.8s.6-.3,1-.3ZM245.7,33.3h1.3v2.6h-1.3v-2.6ZM245.7,35.2h5.8v1.5h-5.8v-1.5ZM246.6,29.3c-.2,0-.4,0-.5.2-.1.2-.2.4-.2.7s0,.5.2.7c.1.2.3.2.5.2s.4,0,.5-.2c.1-.2.2-.4.2-.7s0-.5-.2-.7c-.1-.2-.3-.2-.5-.2ZM245.9,24.8h1.3v2.2h-1.3v-2.2ZM249,27.7h1.5v1.5h-1.5v-1.5ZM249,30.4h1.5v1.5h-1.5v-1.5ZM250,24.8h1.3v9.2h-1.3v-9.2Z"/>
  <path d="M3.4,51.5h7.7v1.5H3.4v-1.5ZM3.7,45.7h6.9v1.4H3.7v-1.4ZM4.2,53.5h5.9v3.4h-1.3v-1.9h-4.6v-1.4ZM7.2,47.3c.9,0,1.6.2,2.1.5s.7.7.7,1.3-.2,1-.7,1.3c-.5.3-1.2.4-2.1.4s-1.6-.1-2.1-.4c-.5-.3-.7-.7-.7-1.3s.2-1,.7-1.3,1.2-.5,2.1-.5ZM7.2,48.6c-.5,0-.9,0-1.1.1-.2,0-.4.2-.4.4s.1.3.4.4c.2,0,.6.1,1.1.1s.9,0,1.2-.1c.2,0,.4-.2.4-.4s-.1-.3-.4-.4c-.2,0-.6-.1-1.2-.1ZM6.5,44.7h1.3v1.9h-1.3v-1.9ZM6.5,50.4h1.3v1.7h-1.3v-1.7Z"/>
  <path d="M244,50.9h7.7v1.5h-7.7v-1.5ZM247.9,45.1c.6,0,1.2.1,1.6.3s.8.5,1.1.9c.3.4.4.8.4,1.3s-.1,1-.4,1.3-.6.7-1.1.9-1,.3-1.6.3-1.2-.1-1.6-.3-.8-.5-1.1-.9-.4-.8-.4-1.3.1-1,.4-1.3c.3-.4.6-.7,1.1-.9s1-.3,1.6-.3ZM245,53.2h1.3v2.5h-1.3v-2.5ZM245,55.2h5.9v1.5h-5.9v-1.5ZM247.9,46.6c-.4,0-.7,0-.9.1s-.4.2-.6.3c-.1.1-.2.3-.2.6s0,.4.2.6c.1.2.3.3.6.3s.6.1.9.1.7,0,.9-.1.4-.2.6-.3c.1-.2.2-.3.2-.6s0-.4-.2-.6c-.1-.1-.3-.3-.6-.3s-.6-.1-.9-.1Z"/>
  <path d="M5.3,66h1.1v.7c0,.8,0,1.5-.2,2.2-.2.7-.4,1.3-.8,1.9-.4.5-.8.9-1.4,1.2l-.7-1.5c.4-.2.7-.4.9-.7.3-.3.5-.6.6-.9.2-.3.3-.7.3-1.1,0-.4.1-.8.1-1.1v-.7ZM3.7,65.5h4.6v1.5H3.7v-1.5ZM7.6,72.2c.6,0,1.1,0,1.6.3.4.2.8.5,1,.8.2.4.4.8.4,1.3,0,.8-.3,1.3-.8,1.7-.5.4-1.2.6-2.1.6s-1.6-.2-2.1-.6c-.5-.4-.8-1-.8-1.7s.1-.9.4-1.3c.2-.4.6-.6,1-.8.4-.2,1-.3,1.6-.3ZM5.6,66h1.1v.7c0,.5,0,.9.2,1.4.1.5.3.9.6,1.2.3.4.6.7,1.1.9l-.6,1.5c-.5-.3-1-.6-1.3-1.1-.3-.5-.6-1.1-.7-1.8-.2-.7-.2-1.4-.2-2.1v-.7ZM7.6,73.7c-.4,0-.6,0-.9,0-.2,0-.4.2-.5.3s-.2.3-.2.5,0,.4.2.5.3.2.5.3c.2,0,.5,0,.9,0s.7,0,.9,0c.2,0,.4-.2.5-.3.1-.1.2-.3.2-.5s0-.4-.2-.5c-.1-.1-.3-.2-.5-.3-.2,0-.5,0-.9,0ZM8,67.7h1.5v1.5h-1.5v-1.5ZM9.2,64.8h1.3v7.2h-1.3v-7.2Z"/>
  <path d="M244.2,65.5h1.3v1.5h1.5v-1.5h1.3v5.9h-4.1v-5.9ZM245,72.5h5.7v4.4h-1.3v-2.8h-4.4v-1.5ZM245.5,68.5v1.5h1.5v-1.5h-1.5ZM249.4,64.8h1.3v7.2h-1.3v-7.2ZM250.3,67.7h1.5v1.6h-1.5v-1.6Z"/>
  <path d="M3.4,93.9h7.7v1.6H3.4v-1.6ZM7.2,85.3c.6,0,1.1.1,1.6.4.5.3.9.7,1.1,1.2.3.5.4,1.2.4,1.9s-.1,1.3-.4,1.9c-.3.5-.7.9-1.1,1.2-.5.3-1,.4-1.6.4s-1.1-.1-1.6-.4c-.5-.3-.9-.7-1.2-1.2-.3-.5-.4-1.2-.4-1.9s.1-1.3.4-1.9c.3-.5.7-.9,1.2-1.2.5-.3,1-.4,1.6-.4ZM7.2,86.9c-.4,0-.7,0-1,.2-.3.2-.5.4-.7.7-.2.3-.2.6-.2,1.1s0,.8.2,1.1c.2.3.4.5.7.7.3.2.6.2,1,.2s.7,0,1-.2c.3-.2.5-.4.7-.7.2-.3.2-.7.2-1.1s0-.8-.2-1.1c-.2-.3-.4-.5-.7-.7-.3-.2-.6-.2-1-.2Z"/>
  <path d="M11.7,94.1h7.7v1.5h-7.7v-1.5ZM12.6,85.5h6v4.1h-4.6v1.9h-1.3v-3.4h4.6v-1.1h-4.7v-1.5ZM12.6,90.9h6.2v1.5h-6.2v-1.5ZM14.9,91.9h1.3v2.8h-1.3v-2.8Z"/>
  <path d="M227.7,89.6h7.7v1.5h-7.7v-1.5ZM228.6,91.7h5.9v3.2h-4.6v1h-1.3v-2.3h4.6v-.5h-4.6v-1.4ZM228.6,95.4h6.1v1.4h-6.1v-1.4ZM228.7,85h1.3v.7h3.1v-.7h1.3v4.1h-5.7v-4.1ZM230,87.1v.6h3.1v-.6h-3.1ZM230.9,90.6h1.3v1.7h-1.3v-1.7Z"/>
  <path d="M236.4,85.8h4v4.8h-2.7v2.6h-1.4v-4.1h2.6v-1.8h-2.7v-1.5ZM236.4,92.6h.8c.5,0,1,0,1.4,0,.4,0,.9,0,1.3-.1.4,0,.8-.1,1.3-.2v1.5c-.5.2-1.2.3-1.8.3-.7,0-1.4,0-2.2,0h-.8v-1.6ZM241.7,84.8h1.3v12.2h-1.3v-12.2Z"/>
  <path d="M244,90.6h7.7v1.5h-7.7v-1.5ZM244.9,93h1.3v2.5h-1.3v-2.5ZM244.9,95.1h6.1v1.5h-6.1v-1.5ZM245,85.2h1.3v3.5h-1.3v-3.5ZM245,88h5.9v1.5h-5.9v-1.5Z"/>
  <path d="M5.3,106h1.1v.7c0,.8,0,1.5-.2,2.2-.2.7-.4,1.3-.8,1.9-.4.5-.8.9-1.4,1.2l-.7-1.5c.4-.2.7-.4.9-.7.3-.3.5-.6.6-.9.2-.3.3-.7.3-1.1s.1-.8.1-1.1v-.7ZM3.7,105.5h4.6v1.5H3.7v-1.5ZM7.6,112.2c.6,0,1.1,0,1.6.3.4.2.8.5,1,.8.2.4.4.8.4,1.3,0,.8-.3,1.3-.8,1.7s-1.2.6-2.1.6-1.6-.2-2.1-.6c-.5-.4-.8-1-.8-1.7s.1-.9.4-1.3c.2-.4.6-.6,1-.8.4-.2,1-.3,1.6-.3ZM5.6,106h1.1v.7c0,.5,0,.9.2,1.4.1.5.3.9.6,1.2.3.4.6.7,1.1.9l-.6,1.5c-.5-.3-1-.6-1.3-1.1-.3-.5-.6-1.1-.7-1.8s-.2-1.4-.2-2.1v-.7ZM7.6,113.7c-.4,0-.6,0-.9,0-.2,0-.4.2-.5.3s-.2.3-.2.5,0,.4.2.5c.1.1.3.2.5.3.2,0,.5,0,.9,0s.7,0,.9,0c.2,0,.4-.2.5-.3.1-.1.2-.3.2-.5s0-.4-.2-.5c-.1-.1-.3-.2-.5-.3-.2,0-.5,0-.9,0ZM8,107.7h1.5v1.5h-1.5v-1.5ZM9.2,104.8h1.3v7.2h-1.3v-7.2Z"/>
  <path d="M11.5,106h4.6v1.5h-4.6v-1.5ZM13.9,107.9c.4,0,.7.1,1,.3.3.2.5.5.7.8s.3.8.3,1.3,0,.9-.3,1.2-.4.6-.7.9c-.3.2-.7.3-1,.3s-.7-.1-1-.3c-.3-.2-.5-.5-.7-.9s-.3-.8-.3-1.2,0-.9.3-1.3.4-.6.7-.8c.3-.2.6-.3,1-.3ZM13,113.3h1.3v2.6h-1.3v-2.6ZM13,115.2h5.8v1.5h-5.8v-1.5ZM13.9,109.3c-.2,0-.4,0-.5.2s-.2.4-.2.7,0,.5.2.7.3.2.5.2.4,0,.5-.2.2-.4.2-.7,0-.5-.2-.7-.3-.2-.5-.2ZM13.2,104.8h1.3v2.2h-1.3v-2.2ZM16.3,107.7h1.5v1.5h-1.5v-1.5ZM16.3,110.4h1.5v1.5h-1.5v-1.5ZM17.3,104.8h1.3v9.2h-1.3v-9.2Z"/>
  <path d="M246.1,105.6c.4,0,.7.2,1,.5.3.4.5.9.6,1.5.2.7.2,1.5.2,2.4s0,1.7-.2,2.4c-.2.7-.4,1.2-.6,1.5s-.6.5-1,.5-.7-.2-1-.5c-.3-.4-.5-.9-.6-1.5-.1-.7-.2-1.5-.2-2.4s0-1.7.2-2.4c.1-.7.4-1.2.6-1.5.3-.4.6-.5,1-.5ZM246.1,107.4c-.1,0-.2,0-.3.3s-.2.5-.2.9c0,.4,0,.9,0,1.5s0,1.1,0,1.5c0,.4.1.7.2.9s.2.3.3.3.3,0,.4-.3.2-.5.2-.9c0-.4,0-.9,0-1.5s0-1.1,0-1.5c0-.4-.1-.7-.2-.9s-.2-.3-.4-.3ZM247.6,109.2h1.3v1.5h-1.3v-1.5ZM248.5,104.9h1.2v11.4h-1.2v-11.4ZM250.2,104.8h1.3v12.1h-1.3v-12.1Z"/>
  <path d="M3.5,126.2h3.1v1.5h-1.8v5.7h-1.3v-7.3ZM3.5,132.7h.6c.3,0,.6,0,1,0,.3,0,.6,0,.9,0,.3,0,.6-.1,1-.2v1.5c-.2,0-.6.2-.9.2-.3,0-.6,0-1,0-.3,0-.7,0-1,0h-.6v-1.6ZM7.4,125h1.2v11.4h-1.2v-11.4ZM8.3,129.4h1.3v1.5h-1.3v-1.5ZM9.3,124.8h1.3v12.1h-1.3v-12.1Z"/>
  <path d="M11.5,126.5h4v1.5h-4v-1.5ZM13.5,128.5c.4,0,.7.1,1,.4.3.2.5.6.7,1,.2.4.2.9.2,1.5s0,1.1-.2,1.5-.4.8-.7,1c-.3.2-.6.4-1,.4s-.7-.1-1-.4-.5-.6-.7-1-.2-.9-.2-1.5,0-1.1.2-1.5c.2-.4.4-.8.7-1s.6-.4,1-.4ZM13.5,130.1c-.1,0-.3,0-.4.1s-.2.2-.2.4c0,.2,0,.4,0,.7s0,.5,0,.7c0,.2.1.4.2.4s.2.1.4.1.3,0,.4-.1.2-.2.2-.4c0-.2,0-.4,0-.7s0-.5,0-.7c0-.2-.1-.3-.2-.4s-.2-.1-.4-.1ZM12.8,125.1h1.3v2.4h-1.3v-2.4ZM15.7,125h1.2v11.4h-1.2v-11.4ZM16.6,129.7h1.3v1.5h-1.3v-1.5ZM17.5,124.8h1.3v12.1h-1.3v-12.1Z"/>
  <g>
    <path d="M107.3,129.3h7.7v1.5h-7.7v-1.5ZM111.1,132.2c.9,0,1.6.2,2.2.6.5.4.8,1,.8,1.7s-.3,1.3-.8,1.7c-.5.4-1.3.6-2.2.6s-1.7-.2-2.2-.6c-.5-.4-.8-1-.8-1.7s.3-1.3.8-1.7c.5-.4,1.3-.6,2.2-.6ZM108.2,125.2h5.4v1.5h-5.4v-1.5ZM111.1,133.7c-.4,0-.7,0-.9,0-.2,0-.4.2-.5.3-.1.1-.2.3-.2.5s0,.4.2.5c.1.1.3.2.5.3.2,0,.5,0,.9,0s.7,0,.9,0c.2,0,.4-.2.5-.3.1-.1.2-.3.2-.5s0-.4-.2-.5c-.1-.1-.3-.2-.5-.3-.2,0-.5,0-.9,0ZM110.4,130.4h1.3v2.4h-1.3v-2.4ZM112.7,125.2h1.3v1c0,.5,0,1.1,0,1.7,0,.6,0,1.3-.2,2.1l-1.3-.2c.1-.8.2-1.5.2-2,0-.6,0-1.1,0-1.6v-1Z"/>
    <path d="M115.6,129.6h7.7v1.5h-7.7v-1.5ZM116.5,132.3h5.9v4.5h-5.9v-4.5ZM116.5,125.3h5.4v1.5h-5.4v-1.5ZM121,133.8h-3.2v1.5h3.2v-1.5ZM121.1,125.3h1.3v1c0,.5,0,1.1,0,1.7,0,.6,0,1.3-.2,2h-1.3c.1-.8.2-1.5.2-2,0-.6,0-1.1,0-1.7v-1Z"/>
    <path d="M123.9,126.5h4.9v1.5h-4.9v-1.5ZM126.4,128.7c.4,0,.8.1,1.1.4.3.3.6.6.8,1,.2.4.3.9.3,1.5s0,1.1-.3,1.5c-.2.4-.4.8-.8,1-.3.3-.7.4-1.1.4s-.8-.1-1.1-.4c-.3-.3-.6-.6-.8-1-.2-.4-.3-.9-.3-1.5s0-1.1.3-1.5c.2-.4.5-.8.8-1,.3-.3.7-.4,1.1-.4ZM126.4,130.2c-.2,0-.3,0-.5.2-.1.1-.2.3-.3.5,0,.2-.1.5-.1.7s0,.5.1.7c0,.2.2.4.3.5.1.1.3.2.5.2s.3,0,.5-.2c.1-.1.2-.3.3-.5,0-.2.1-.5.1-.7s0-.5-.1-.7c0-.2-.2-.4-.3-.5-.1-.1-.3-.2-.5-.2ZM125.7,125h1.3v2.1h-1.3v-2.1ZM129.3,124.8h1.3v12.1h-1.3v-12.1ZM130.3,129.4h1.5v1.6h-1.5v-1.6Z"/>
    <path d="M132.6,125.9h4v1.5h-2.6v5.8h-1.3v-7.3ZM132.6,132.5h.7c.5,0,.9,0,1.3,0,.4,0,.8,0,1.2-.1.4,0,.8-.1,1.2-.2v1.6c-.3.1-.7.2-1.1.2-.4,0-.8,0-1.3.1-.4,0-.9,0-1.4,0h-.7v-1.6ZM137.6,124.8h1.3v12.2h-1.3v-12.2ZM138.6,129.2h1.5v1.6h-1.5v-1.6Z"/>
    <path d="M140.9,125.7h4v6h-4v-6ZM142,132.8h1.3v3.2h-1.3v-3.2ZM142,135.2h5.8v1.5h-5.8v-1.5ZM143.6,127.2h-1.4v3h1.4v-3ZM144.6,126.6h2.1v1.5h-2.1v-1.5ZM144.6,129.2h2.1v1.5h-2.1v-1.5ZM146.3,124.8h1.3v8.8h-1.3v-8.8Z"/>
  </g>
  <path d="M219.5,131.6l-.2-1.5c.5,0,1.1,0,1.7,0,.6,0,1.2,0,1.8,0,.6,0,1.2,0,1.8-.2v1.4c-.5.1-1.1.2-1.7.3s-1.2,0-1.8.1c-.6,0-1.1,0-1.7,0ZM220.1,125.4h4v1.5h-2.7v1.5h-1.3v-3ZM220.1,127.8h4v1.5h-4v-1.5ZM223,132.5h1.1v.4c0,.5,0,1-.2,1.4-.1.4-.3.8-.6,1.2-.3.3-.6.6-1,.9-.4.2-.9.4-1.5.5l-.5-1.5c.5,0,.9-.2,1.2-.4s.6-.4.8-.6c.2-.2.4-.5.4-.7,0-.3.1-.5.1-.8v-.4ZM221.2,131h1.3v2.3h-1.3v-2.3ZM223.2,132.5h1.1v.4c0,.3,0,.5.1.8s.2.5.5.7c.2.2.5.4.8.6.3.2.7.3,1.2.4l-.5,1.4c-.6,0-1-.3-1.4-.5-.4-.2-.8-.5-1-.9s-.5-.7-.6-1.2c-.1-.4-.2-.9-.2-1.4v-.4ZM225.1,124.8h1.3v8.6h-1.3v-8.6Z"/>
  <path d="M227.8,125.7h4v6h-4v-6ZM229,132.8h1.3v3.2h-1.3v-3.2ZM229,135.2h5.8v1.5h-5.8v-1.5ZM230.6,127.2h-1.4v3h1.4v-3ZM231.6,126.6h2.1v1.5h-2.1v-1.5ZM231.6,129.2h2.1v1.5h-2.1v-1.5ZM233.3,124.8h1.3v8.8h-1.3v-8.8Z"/>
  <path d="M235.7,133.9h7.7v1.6h-7.7v-1.6ZM239.5,125.3c.6,0,1.1.1,1.6.4.5.3.9.7,1.1,1.2s.4,1.2.4,1.9-.1,1.3-.4,1.9c-.3.5-.7.9-1.1,1.2s-1,.4-1.6.4-1.1-.1-1.6-.4-.9-.7-1.2-1.2c-.3-.5-.4-1.2-.4-1.9s.1-1.3.4-1.9.7-.9,1.2-1.2c.5-.3,1-.4,1.6-.4ZM239.5,126.9c-.4,0-.7,0-1,.2s-.5.4-.7.7c-.2.3-.2.7-.2,1.1s0,.8.2,1.1c.2.3.4.5.7.7s.6.2,1,.2.7,0,1-.2c.3-.2.5-.4.7-.7s.2-.7.2-1.1,0-.8-.2-1.1c-.2-.3-.4-.5-.7-.7-.3-.2-.6-.2-1-.2Z"/>
  <path d="M244,134.1h7.7v1.5h-7.7v-1.5ZM244.9,125.5h6v4.1h-4.7v1.9h-1.3v-3.4h4.7v-1.1h-4.7v-1.5ZM244.9,130.8h6.2v1.5h-6.2v-1.5ZM247.2,131.9h1.3v2.8h-1.3v-2.8Z"/>
</svg>