<?xml version="1.0" encoding="UTF-8"?>
<svg id="_레이어_1" xmlns="http://www.w3.org/2000/svg" version="1.1" viewBox="0 0 255.1 141.7">
  <!-- Generator: Adobe Illustrator 29.6.1, SVG Export Plug-In . SVG Version: 2.1.1 Build 9)  -->
  <defs>
    <style>
      .st0 {
        fill: #fff;
      }
    </style>
  </defs>
  <rect class="st0" y="0" width="255.1" height="141.7"/>
  <path d="M3.5,5.6h3.8v5.6h-3.8v-5.6ZM6.5,12.2h1.1v.3c0,.5,0,1-.2,1.4-.1.5-.3.9-.6,1.3s-.6.7-1,1c-.4.3-.8.5-1.3.6l-.4-1.5c.4,0,.8-.2,1.1-.4.3-.2.6-.5.8-.7.2-.3.3-.6.4-.9,0-.3.1-.6.1-.8v-.3ZM6.1,7.1h-1.3v2.6h1.3v-2.6ZM6.7,12.2h1.1v.3c0,.3,0,.6.1.9,0,.3.2.6.4.9s.4.5.8.7c.3.2.7.3,1.1.4l-.5,1.5c-.5-.1-1-.3-1.3-.6s-.7-.6-1-1c-.3-.4-.4-.8-.6-1.3s-.2-1-.2-1.5v-.3ZM7.1,7.6h1.8v1.5h-1.8v-1.5ZM8.6,4.8h1.3v8.1h-1.3V4.8Z"/>
  <path d="M12.8,6.1h1v1c0,.8,0,1.5-.2,2.2-.2.7-.4,1.3-.7,1.8s-.8.9-1.3,1.2l-.6-1.5c.5-.2.8-.5,1.1-.9s.5-.8.6-1.3.2-1,.2-1.5v-1ZM11.3,5.6h4.3v1.5h-4.3v-1.5ZM12.2,12.7h1.2v3.2h-1.2v-3.2ZM12.2,15.2h5.5v1.5h-5.5v-1.5ZM13,6.1h1v1c0,.3,0,.7,0,1s.2.7.3,1c.1.3.3.6.6.9.2.3.5.5.8.6l-.6,1.5c-.5-.3-.9-.6-1.3-1.1-.3-.5-.6-1.1-.7-1.7-.2-.7-.2-1.4-.2-2.1v-1ZM16.3,4.8h1.3v8.7h-1.3V4.8Z"/>
  <path d="M63.9,5.8h3.8v1.5h-2.6v5.7h-1.2v-7.3ZM63.9,12.5h.7c.6,0,1.1,0,1.5,0,.4,0,.8,0,1.1-.1.3,0,.7-.1,1-.2v1.6c-.2.1-.6.2-.9.2-.4,0-.8,0-1.2.1-.4,0-.9,0-1.5,0h-.7v-1.6ZM68.8,4.8h1.3v12.2h-1.3V4.8Z"/>
  <path d="M72.8,6.7h1v1.2c0,.7,0,1.4-.1,2.1s-.2,1.3-.4,1.9c-.2.6-.4,1.1-.7,1.6s-.6.8-1,1.1l-.7-1.5c.3-.2.6-.6.9-.9.2-.4.4-.8.6-1.3.2-.5.3-1,.3-1.5,0-.5.1-1,.1-1.5v-1.2ZM71.2,5.9h4.3v1.6h-4.3v-1.6ZM73.1,6.7h1v1.2c0,.5,0,.9.1,1.4s.2.9.3,1.4.3.9.6,1.2c.2.4.5.7.9.9l-.7,1.5c-.4-.3-.7-.6-1-1.1-.3-.5-.5-1-.7-1.5-.2-.6-.3-1.2-.4-1.8,0-.7-.1-1.3-.1-2v-1.2ZM76,4.8h1.3v12.1h-1.3V4.8ZM77,9.3h1.4v1.6h-1.4v-1.6Z"/>
  <path d="M81.1,5.6c.4,0,.8.2,1.1.5.3.4.6.9.7,1.5.2.7.3,1.4.3,2.3s0,1.7-.3,2.3c-.2.7-.4,1.2-.7,1.5-.3.4-.7.5-1.1.5s-.8-.2-1.1-.5-.6-.9-.7-1.5c-.2-.7-.3-1.4-.3-2.3s0-1.7.3-2.3c.2-.6.4-1.2.7-1.5.3-.4.7-.5,1.1-.5ZM81.1,7.3c-.2,0-.3,0-.5.3s-.2.5-.3.9c0,.4-.1.9-.1,1.5s0,1.1.1,1.5.2.7.3.9c.1.2.3.3.5.3s.3,0,.5-.3c.1-.2.2-.5.3-.9s.1-.9.1-1.5,0-1.1-.1-1.5c0-.4-.2-.7-.3-.9-.1-.2-.3-.3-.5-.3ZM84.1,4.8h1.3v12.2h-1.3V4.8Z"/>
  <path d="M86.6,6.1h1.2v7.5h-1.2v-7.5ZM86.6,12.5h.7c.4,0,.7,0,1.1,0,.4,0,.8,0,1.2-.2.4,0,.8-.2,1.2-.3v1.6c-.3.1-.7.2-1.1.3-.4,0-.8.1-1.2.2-.4,0-.8,0-1.2,0h-.7v-1.6ZM89.6,8.5h2.4v1.5h-2.4v-1.5ZM91.6,4.8h1.2v12.2h-1.2V4.8Z"/>
  <path d="M96.7,6h1.2c0,1.2-.1,2.4-.3,3.5-.2,1.1-.6,2.1-1.1,3-.5.9-1.2,1.7-2.1,2.4l-.7-1.5c.7-.5,1.2-1.2,1.7-1.8.4-.7.8-1.4,1-2.3.2-.9.3-1.8.3-2.9v-.3ZM94.1,6h3.2v1.5h-3.2v-1.5ZM98.7,4.8h1.3v12.1h-1.3V4.8ZM99.7,9.3h1.4v1.6h-1.4v-1.6Z"/>
  <path d="M176.8,14.6v-1.5c.4,0,.9,0,1.4,0,.6,0,1.1,0,1.7,0,.6,0,1.1-.1,1.7-.2v1.4c-.5.1-1,.2-1.6.3-.6,0-1.1.1-1.6.1-.5,0-1,0-1.5,0ZM177.1,5.8h4.1v1.5h-2.8v2.7h-1.2v-4.2ZM177.1,9.6h4.1v1.5h-4.1v-1.5ZM178.5,10.8h1.3v2.5h-1.3v-2.5ZM182,4.8h1.2v12.2h-1.2V4.8Z"/>
  <path d="M184.1,14h7.1v1.5h-7.1v-1.5ZM184.9,5.8h5v1.5h-5v-1.5ZM186.6,9.8h1.2v4.9h-1.2v-4.9ZM189.4,5.8h1.3v1.2c0,.5,0,1,0,1.6,0,.6,0,1.2,0,1.9s-.1,1.5-.2,2.4l-1.2-.2c.2-1.2.2-2.3.3-3.2s0-1.7,0-2.5v-1.2Z"/>
  <path d="M238.8,5.2h1v1.2c0,.8,0,1.5-.2,2.1-.2.7-.4,1.3-.7,1.8-.3.5-.8.9-1.3,1.1l-.6-1.5c.3-.2.6-.4.9-.6s.4-.5.6-.9.3-.7.3-1c0-.3,0-.7,0-1.1v-1.2ZM238.2,15.3h5.5v1.5h-5.5v-1.5ZM238.3,12h5.4v1.5h-5.4v-1.5ZM239.1,5.2h1v1.2c0,.3,0,.7,0,1,0,.3.2.6.3.9.1.3.3.6.6.8.2.2.5.4.8.6l-.6,1.5c-.4-.2-.7-.4-1-.7-.3-.3-.5-.7-.7-1.1-.2-.4-.3-.9-.4-1.4,0-.5-.1-1-.1-1.6v-1.2ZM239.2,12.5h1.2v3.6h-1.2v-3.6ZM241.6,12.5h1.2v3.6h-1.2v-3.6ZM242.4,4.8h1.3v6.7h-1.3v-6.7Z"/>
  <path d="M244.6,10.9h7.1v1.5h-7.1v-1.5ZM248.2,5.1c.6,0,1.1.1,1.5.3.4.2.8.5,1,.9s.4.8.4,1.3-.1,1-.4,1.3-.6.7-1,.9c-.4.2-.9.3-1.5.3s-1.1-.1-1.5-.3c-.4-.2-.8-.5-1-.9s-.4-.8-.4-1.3.1-1,.4-1.3.6-.7,1-.9c.4-.2.9-.3,1.5-.3ZM245.5,13.2h1.2v2.5h-1.2v-2.5ZM245.5,15.2h5.5v1.5h-5.5v-1.5ZM248.2,6.6c-.3,0-.6,0-.9.1-.2,0-.4.2-.5.3s-.2.3-.2.6,0,.4.2.6c.1.2.3.3.5.3.2,0,.5.1.9.1s.6,0,.9-.1c.2,0,.4-.2.5-.3.1-.2.2-.3.2-.6s0-.4-.2-.6c-.1-.1-.3-.3-.5-.3-.2,0-.5-.1-.9-.1Z"/>
  <path d="M3.5,25.5h1.2v1.5h1.4v-1.5h1.2v5.9h-3.8v-5.9ZM4.2,32.5h5.3v4.4h-1.2v-2.8h-4v-1.5ZM4.7,28.5v1.5h1.4v-1.5h-1.4ZM8.2,24.8h1.2v7.2h-1.2v-7.2ZM9.1,27.7h1.4v1.6h-1.4v-1.6Z"/>
  <path d="M125.9,26h1v.7c0,.8,0,1.5-.2,2.2-.2.7-.4,1.3-.7,1.9-.3.5-.8.9-1.3,1.2l-.6-1.5c.3-.2.6-.4.8-.7s.4-.6.6-.9c.1-.3.2-.7.3-1.1,0-.4,0-.8,0-1.1v-.7ZM124.4,25.5h4.2v1.5h-4.2v-1.5ZM128.1,32.2c.6,0,1,0,1.5.3.4.2.7.5.9.8.2.4.3.8.3,1.3,0,.8-.2,1.3-.7,1.7-.5.4-1.2.6-2,.6s-1.5-.2-2-.6c-.5-.4-.7-1-.7-1.7s.1-.9.3-1.3c.2-.4.5-.6.9-.8.4-.2.9-.3,1.4-.3ZM126.2,26h1v.7c0,.5,0,.9.2,1.4.1.5.3.9.6,1.2.3.4.6.7,1,.9l-.6,1.5c-.5-.3-.9-.6-1.2-1.1-.3-.5-.5-1.1-.7-1.8s-.2-1.4-.2-2.1v-.7ZM128.1,33.7c-.3,0-.6,0-.8,0-.2,0-.4.2-.5.3-.1.1-.2.3-.2.5s0,.4.2.5c.1.1.3.2.5.3.2,0,.5,0,.8,0s.6,0,.8,0c.2,0,.4-.2.5-.3.1-.1.2-.3.2-.5s0-.4-.2-.5c-.1-.1-.3-.2-.5-.3-.2,0-.5,0-.8,0ZM128.4,27.7h1.4v1.5h-1.4v-1.5ZM129.5,24.8h1.3v7.2h-1.3v-7.2Z"/>
  <path d="M244.8,26h4.3v1.5h-4.3v-1.5ZM247,27.9c.4,0,.7.1,1,.3.3.2.5.5.7.8.2.4.2.8.2,1.3s0,.9-.2,1.2c-.2.4-.4.6-.7.9-.3.2-.6.3-1,.3s-.7-.1-1-.3c-.3-.2-.5-.5-.7-.9-.2-.4-.2-.8-.2-1.2s0-.9.2-1.3c.2-.4.4-.6.7-.8.3-.2.6-.3,1-.3ZM246.1,33.3h1.2v2.6h-1.2v-2.6ZM246.1,35.2h5.4v1.5h-5.4v-1.5ZM247,29.3c-.2,0-.4,0-.5.2-.1.2-.2.4-.2.7s0,.5.2.7c.1.2.3.2.5.2s.4,0,.5-.2c.1-.2.2-.4.2-.7s0-.5-.2-.7c-.1-.2-.3-.2-.5-.2ZM246.4,24.8h1.3v2.2h-1.3v-2.2ZM249.2,27.7h1.4v1.5h-1.4v-1.5ZM249.2,30.4h1.4v1.5h-1.4v-1.5ZM250.1,24.8h1.3v9.2h-1.3v-9.2Z"/>
  <path d="M3.3,51.5h7.1v1.5H3.3v-1.5ZM3.7,45.7h6.4v1.4H3.7v-1.4ZM4.1,53.5h5.5v3.4h-1.2v-2h-4.2v-1.4ZM6.9,47.3c.9,0,1.5.2,2,.5.5.3.7.8.7,1.3s-.2,1-.7,1.3c-.5.3-1.1.4-2,.4s-1.5-.1-2-.4c-.5-.3-.7-.7-.7-1.3s.2-1,.7-1.3c.5-.3,1.1-.5,2-.5ZM6.9,48.6c-.5,0-.8,0-1.1.1s-.3.2-.3.4.1.3.3.4.6.1,1.1.1.9,0,1.1-.1.3-.2.3-.4-.1-.3-.3-.4-.6-.1-1.1-.1ZM6.3,44.7h1.2v1.9h-1.2v-1.9ZM6.3,50.4h1.2v1.7h-1.2v-1.7Z"/>
  <path d="M244.6,50.9h7.1v1.5h-7.1v-1.5ZM248.2,45.1c.6,0,1.1.1,1.5.3.4.2.8.5,1,.9s.4.8.4,1.3-.1,1-.4,1.3-.6.7-1,.9c-.4.2-.9.3-1.5.3s-1.1-.1-1.5-.3c-.4-.2-.8-.5-1-.9s-.4-.8-.4-1.3.1-1,.4-1.3.6-.7,1-.9c.4-.2.9-.3,1.5-.3ZM245.5,53.2h1.2v2.5h-1.2v-2.5ZM245.5,55.2h5.5v1.5h-5.5v-1.5ZM248.2,46.6c-.3,0-.6,0-.9.1-.2,0-.4.2-.5.3s-.2.3-.2.6,0,.4.2.6c.1.2.3.3.5.3.2,0,.5.1.9.1s.6,0,.9-.1c.2,0,.4-.2.5-.3.1-.2.2-.3.2-.6s0-.4-.2-.6c-.1-.1-.3-.3-.5-.3-.2,0-.5-.1-.9-.1Z"/>
  <path d="M5.1,66h1v.7c0,.8,0,1.5-.2,2.2-.2.7-.4,1.3-.7,1.9s-.7.9-1.3,1.2l-.6-1.5c.3-.2.6-.4.8-.7.2-.3.4-.6.6-.9.1-.3.2-.7.3-1.1,0-.4,0-.8,0-1.1v-.7ZM3.6,65.5h4.2v1.5H3.6v-1.5ZM7.3,72.2c.6,0,1,0,1.5.3.4.2.7.5.9.8.2.4.3.8.3,1.3,0,.8-.2,1.3-.7,1.7-.5.4-1.2.6-2,.6s-1.5-.2-2-.6c-.5-.4-.7-1-.7-1.7s.1-.9.3-1.3c.2-.4.5-.6.9-.8.4-.2.9-.3,1.4-.3ZM5.4,66h1v.7c0,.5,0,.9.2,1.4.1.5.3.9.6,1.2.3.4.6.7,1,.9l-.6,1.5c-.5-.3-.9-.6-1.2-1.1-.3-.5-.5-1.1-.7-1.8s-.2-1.4-.2-2.1v-.7ZM7.3,73.7c-.3,0-.6,0-.8,0-.2,0-.4.2-.5.3s-.2.3-.2.5,0,.4.2.5c.1.1.3.2.5.3.2,0,.5,0,.8,0s.6,0,.8,0c.2,0,.4-.2.5-.3.1-.1.2-.3.2-.5s0-.4-.2-.5-.3-.2-.5-.3c-.2,0-.5,0-.8,0ZM7.6,67.7h1.4v1.5h-1.4v-1.5ZM8.7,64.8h1.3v7.2h-1.3v-7.2Z"/>
  <path d="M244.8,65.5h1.2v1.5h1.4v-1.5h1.2v5.9h-3.8v-5.9ZM245.5,72.5h5.3v4.4h-1.2v-2.8h-4v-1.5ZM246,68.5v1.5h1.4v-1.5h-1.4ZM249.5,64.8h1.2v7.2h-1.2v-7.2ZM250.4,67.7h1.4v1.6h-1.4v-1.6Z"/>
  <path d="M3.3,93.9h7.1v1.6H3.3v-1.6ZM6.9,85.3c.6,0,1.1.1,1.5.4.4.3.8.7,1.1,1.2.3.5.4,1.2.4,1.9s-.1,1.3-.4,1.9c-.3.5-.6.9-1.1,1.2-.4.3-.9.4-1.5.4s-1.1-.1-1.5-.4-.8-.7-1.1-1.2c-.3-.5-.4-1.2-.4-1.9s.1-1.3.4-1.9.6-.9,1.1-1.2,1-.4,1.5-.4ZM6.9,86.9c-.3,0-.6,0-.9.2-.3.2-.5.4-.6.7-.1.3-.2.6-.2,1.1s0,.8.2,1.1c.1.3.4.5.6.7.3.2.6.2.9.2s.6,0,.9-.2.5-.4.6-.7c.1-.3.2-.7.2-1.1s0-.8-.2-1.1c-.1-.3-.4-.5-.6-.7-.3-.2-.6-.2-.9-.2Z"/>
  <path d="M11.1,94.1h7.1v1.5h-7.1v-1.5ZM11.9,85.5h5.6v4.1h-4.3v1.9h-1.2v-3.4h4.3v-1.1h-4.3v-1.5ZM11.9,90.9h5.7v1.5h-5.7v-1.5ZM14,91.9h1.2v2.8h-1.2v-2.8Z"/>
  <path d="M229.5,89.6h7.1v1.5h-7.1v-1.5ZM230.3,91.7h5.5v3.2h-4.2v1h-1.2v-2.3h4.2v-.5h-4.2v-1.4ZM230.3,95.4h5.7v1.4h-5.7v-1.4ZM230.4,85h1.2v.7h2.9v-.7h1.2v4.1h-5.3v-4.1ZM231.6,87.1v.6h2.9v-.6h-2.9ZM232.4,90.6h1.2v1.7h-1.2v-1.7Z"/>
  <path d="M237.5,85.8h3.7v4.8h-2.5v2.6h-1.3v-4.1h2.5v-1.8h-2.5v-1.5ZM237.5,92.6h.7c.5,0,.9,0,1.3,0s.8,0,1.2-.1.8-.1,1.2-.2v1.5c-.5.2-1.1.3-1.7.3-.6,0-1.3,0-2,0h-.7v-1.6ZM242.4,84.8h1.2v12.2h-1.2v-12.2Z"/>
  <path d="M244.6,90.6h7.1v1.5h-7.1v-1.5ZM245.4,93h1.2v2.5h-1.2v-2.5ZM245.4,95.1h5.6v1.5h-5.6v-1.5ZM245.5,85.2h1.2v3.5h-1.2v-3.5ZM245.5,88h5.5v1.5h-5.5v-1.5Z"/>
  <path d="M5.1,106h1v.7c0,.8,0,1.5-.2,2.2-.2.7-.4,1.3-.7,1.9-.3.5-.7.9-1.3,1.2l-.6-1.5c.3-.2.6-.4.8-.7.2-.3.4-.6.6-.9.1-.3.2-.7.3-1.1,0-.4,0-.8,0-1.1v-.7ZM3.6,105.5h4.2v1.5H3.6v-1.5ZM7.3,112.2c.6,0,1,0,1.5.3.4.2.7.5.9.8.2.4.3.8.3,1.3,0,.8-.2,1.3-.7,1.7s-1.2.6-2,.6-1.5-.2-2-.6-.7-1-.7-1.7.1-.9.3-1.3c.2-.4.5-.6.9-.8.4-.2.9-.3,1.4-.3ZM5.4,106h1v.7c0,.5,0,.9.2,1.4.1.5.3.9.6,1.2.3.4.6.7,1,.9l-.6,1.5c-.5-.3-.9-.6-1.2-1.1-.3-.5-.5-1.1-.7-1.8s-.2-1.4-.2-2.1v-.7ZM7.3,113.7c-.3,0-.6,0-.8,0-.2,0-.4.2-.5.3s-.2.3-.2.5,0,.4.2.5c.1.1.3.2.5.3.2,0,.5,0,.8,0s.6,0,.8,0c.2,0,.4-.2.5-.3.1-.1.2-.3.2-.5s0-.4-.2-.5-.3-.2-.5-.3c-.2,0-.5,0-.8,0ZM7.6,107.7h1.4v1.5h-1.4v-1.5ZM8.7,104.8h1.3v7.2h-1.3v-7.2Z"/>
  <path d="M244.8,106h4.3v1.5h-4.3v-1.5ZM247,107.9c.4,0,.7.1,1,.3.3.2.5.5.7.8.2.4.2.8.2,1.3s0,.9-.2,1.2c-.2.4-.4.6-.7.9-.3.2-.6.3-1,.3s-.7-.1-1-.3c-.3-.2-.5-.5-.7-.9-.2-.4-.2-.8-.2-1.2s0-.9.2-1.3c.2-.4.4-.6.7-.8.3-.2.6-.3,1-.3ZM246.1,113.3h1.2v2.6h-1.2v-2.6ZM246.1,115.2h5.4v1.5h-5.4v-1.5ZM247,109.3c-.2,0-.4,0-.5.2-.1.2-.2.4-.2.7s0,.5.2.7c.1.2.3.2.5.2s.4,0,.5-.2c.1-.2.2-.4.2-.7s0-.5-.2-.7c-.1-.2-.3-.2-.5-.2ZM246.4,104.8h1.3v2.2h-1.3v-2.2ZM249.2,107.7h1.4v1.5h-1.4v-1.5ZM249.2,110.4h1.4v1.5h-1.4v-1.5ZM250.1,104.8h1.3v9.2h-1.3v-9.2Z"/>
  <path d="M5.6,125.6c.4,0,.8.2,1.1.5.3.4.6.9.7,1.5.2.7.3,1.4.3,2.3s0,1.7-.3,2.3c-.2.7-.4,1.2-.7,1.5-.3.4-.7.5-1.1.5s-.8-.2-1.1-.5-.6-.9-.7-1.5c-.2-.7-.3-1.4-.3-2.3s0-1.7.3-2.3c.2-.6.4-1.2.7-1.5s.7-.5,1.1-.5ZM5.6,127.3c-.2,0-.3,0-.5.3s-.2.5-.3.9-.1.9-.1,1.4,0,1.1.1,1.5c0,.4.2.7.3.9.1.2.3.3.5.3s.3,0,.5-.3c.1-.2.2-.5.3-.9,0-.4.1-.9.1-1.5s0-1.1-.1-1.4-.2-.7-.3-.9c-.1-.2-.3-.3-.5-.3ZM8.6,124.8h1.3v12.2h-1.3v-12.2Z"/>
  <g>
    <path d="M108.7,129.3h7.1v1.5h-7.1v-1.5ZM112.3,132.2c.9,0,1.5.2,2,.6s.7,1,.7,1.7-.2,1.3-.7,1.7-1.2.6-2,.6-1.5-.2-2-.6-.7-1-.7-1.7.2-1.3.7-1.7,1.2-.6,2-.6ZM109.6,125.2h5v1.5h-5v-1.5ZM112.3,133.7c-.3,0-.6,0-.9,0-.2,0-.4.2-.5.3s-.2.3-.2.5,0,.4.2.5c.1.1.3.2.5.3.2,0,.5,0,.9,0s.6,0,.8,0,.4-.2.5-.3c.1-.1.2-.3.2-.5s0-.4-.2-.5c-.1-.1-.3-.2-.5-.3s-.5,0-.8,0ZM111.6,130.4h1.2v2.4h-1.2v-2.4ZM113.8,125.2h1.2v1c0,.5,0,1.1,0,1.7,0,.6,0,1.3-.2,2.1l-1.2-.2c.1-.8.2-1.5.2-2,0-.6,0-1.1,0-1.6v-1Z"/>
    <path d="M116.5,129.6h7.1v1.5h-7.1v-1.5ZM117.3,132.3h5.4v4.5h-5.4v-4.5ZM117.3,125.3h5v1.5h-5v-1.5ZM121.5,133.8h-3v1.5h3v-1.5ZM121.5,125.3h1.2v1c0,.5,0,1.1,0,1.7,0,.6,0,1.3-.2,2h-1.2c.1-.8.2-1.5.2-2,0-.6,0-1.1,0-1.7v-1Z"/>
    <path d="M124.2,126.5h4.6v1.5h-4.6v-1.5ZM126.5,128.7c.4,0,.7.1,1,.4.3.3.5.6.7,1,.2.4.3.9.3,1.5s0,1.1-.3,1.5c-.2.4-.4.8-.7,1-.3.3-.6.4-1,.4s-.7-.1-1-.4c-.3-.3-.5-.6-.7-1-.2-.4-.3-.9-.3-1.5s0-1.1.3-1.5c.2-.4.4-.8.7-1,.3-.3.6-.4,1-.4ZM126.5,130.2c-.2,0-.3,0-.4.2-.1.1-.2.3-.3.5,0,.2-.1.5-.1.7s0,.5.1.7c0,.2.2.4.3.5.1.1.3.2.4.2s.3,0,.4-.2c.1-.1.2-.3.3-.5s.1-.5.1-.7,0-.5-.1-.7c0-.2-.2-.4-.3-.5-.1-.1-.3-.2-.4-.2ZM125.8,125h1.3v2.1h-1.3v-2.1ZM129.2,124.8h1.2v12.1h-1.2v-12.1ZM130.1,129.4h1.4v1.6h-1.4v-1.6Z"/>
    <path d="M132.2,125.9h3.7v1.5h-2.4v5.8h-1.2v-7.3ZM132.2,132.5h.7c.4,0,.8,0,1.2,0,.4,0,.8,0,1.1-.1.4,0,.7-.1,1.1-.2v1.6c-.3.1-.7.2-1,.2-.4,0-.8,0-1.2.1-.4,0-.8,0-1.3,0h-.7v-1.6ZM136.9,124.8h1.2v12.2h-1.2v-12.2ZM137.8,129.2h1.4v1.6h-1.4v-1.6Z"/>
    <path d="M139.9,125.7h3.8v6h-3.8v-6ZM141,132.8h1.2v3.2h-1.2v-3.2ZM141,135.2h5.4v1.5h-5.4v-1.5ZM142.5,127.2h-1.3v3h1.3v-3ZM143.4,126.6h1.9v1.5h-1.9v-1.5ZM143.4,129.2h2v1.5h-2v-1.5ZM145,124.8h1.3v8.8h-1.3v-8.8Z"/>
  </g>
  <path d="M221.8,131.6l-.2-1.5c.5,0,1,0,1.6,0,.6,0,1.1,0,1.7,0,.6,0,1.1,0,1.7-.2v1.4c-.5.1-1.1.2-1.6.3s-1.1,0-1.7.1c-.5,0-1.1,0-1.5,0ZM222.4,125.4h3.7v1.5h-2.5v1.5h-1.2v-3ZM222.4,127.8h3.7v1.5h-3.7v-1.5ZM225,132.5h1.1v.4c0,.5,0,1-.2,1.4-.1.4-.3.8-.6,1.2-.2.3-.6.6-1,.9-.4.2-.8.4-1.4.5l-.4-1.5c.4,0,.8-.2,1.1-.4s.6-.4.8-.6c.2-.2.3-.5.4-.7,0-.3.1-.5.1-.8v-.4ZM223.4,131h1.2v2.3h-1.2v-2.3ZM225.3,132.5h1.1v.4c0,.3,0,.5.1.8,0,.3.2.5.4.7.2.2.4.4.8.6s.7.3,1.1.4l-.4,1.4c-.5,0-1-.3-1.3-.5-.4-.2-.7-.5-1-.9s-.4-.7-.6-1.2c-.1-.4-.2-.9-.2-1.4v-.4ZM227,124.8h1.2v8.6h-1.2v-8.6Z"/>
  <path d="M229.6,125.7h3.8v6h-3.8v-6ZM230.6,132.8h1.2v3.2h-1.2v-3.2ZM230.6,135.2h5.4v1.5h-5.4v-1.5ZM232.1,127.2h-1.3v3h1.3v-3ZM233.1,126.6h1.9v1.5h-1.9v-1.5ZM233.1,129.2h2v1.5h-2v-1.5ZM234.6,124.8h1.3v8.8h-1.3v-8.8Z"/>
  <path d="M236.9,133.9h7.1v1.6h-7.1v-1.6ZM240.4,125.3c.6,0,1.1.1,1.5.4.4.3.8.7,1.1,1.2s.4,1.2.4,1.9-.1,1.3-.4,1.9c-.3.5-.6.9-1.1,1.2-.4.3-.9.4-1.5.4s-1.1-.1-1.5-.4c-.5-.3-.8-.7-1.1-1.2-.3-.5-.4-1.2-.4-1.9s.1-1.3.4-1.9c.3-.5.6-.9,1.1-1.2.5-.3,1-.4,1.5-.4ZM240.4,126.9c-.3,0-.6,0-.9.2s-.5.4-.6.7c-.1.3-.2.7-.2,1.1s0,.8.2,1.1c.1.3.4.5.6.7s.6.2.9.2.6,0,.9-.2.5-.4.6-.7c.1-.3.2-.7.2-1.1s0-.8-.2-1.1c-.1-.3-.4-.5-.6-.7s-.6-.2-.9-.2Z"/>
  <path d="M244.6,134.1h7.1v1.5h-7.1v-1.5ZM245.4,125.5h5.6v4.1h-4.3v1.9h-1.2v-3.4h4.3v-1.1h-4.3v-1.5ZM245.4,130.8h5.7v1.5h-5.7v-1.5ZM247.6,131.9h1.2v2.8h-1.2v-2.8Z"/>
</svg>