<?xml version="1.0" encoding="UTF-8"?>
<svg id="_레이어_1" data-name="레이어 1" xmlns="http://www.w3.org/2000/svg" viewBox="0 0 7228.53 3018.88">
  <defs>
    <style>
      .cls-1 {
        fill: #00f3ff;
      }

      .cls-1, .cls-2, .cls-3, .cls-4 {
        stroke-width: 0px;
      }

      .cls-2 {
        fill: #0062ff;
      }

      .cls-3 {
        fill: #0068ff;
      }

      .cls-4 {
        fill: #fff;
      }
    </style>
  </defs>
  <g>
    <g>
      <rect class="cls-4" x="5092.55" y="643.97" width="400.05" height="81.8"/>
      <path class="cls-2" d="M5095.05,646.47h395.05s0,76.8,0,76.8h-395.05v-76.8M5090.05,641.47v86.8s405.05,0,405.05,0v-86.79s-405.05,0-405.05,0h0Z"/>
    </g>
    <g>
      <g>
        <path class="cls-4" d="M5393.84,1550.34c-80.48,0-156.14-31.34-213.04-88.24s-88.24-132.57-88.24-213.04c0-41.21,8.2-81.16,24.36-118.72,15.6-36.24,37.89-68.71,66.26-96.48l4.38-4.29h-95v-81.8h602.58v81.8h-95.01l4.38,4.29c28.37,27.78,50.67,60.24,66.27,96.48,16.17,37.56,24.36,77.51,24.36,118.72,0,80.48-31.34,156.14-88.25,213.04s-132.57,88.24-213.04,88.24ZM5393.84,1029.56c-58.63,0-113.75,22.83-155.21,64.29s-64.29,96.58-64.29,155.2,22.83,113.75,64.29,155.21c41.46,41.46,96.58,64.29,155.21,64.29s113.75-22.83,155.2-64.29c41.46-41.46,64.29-96.58,64.29-155.21s-22.83-113.75-64.29-155.2c-41.46-41.46-96.58-64.29-155.2-64.29Z"/>
        <path class="cls-2" d="M5692.63,950.26v76.8h-98.64l8.76,8.57c28.14,27.55,50.25,59.74,65.72,95.68,16.03,37.25,24.16,76.86,24.16,117.73s-7.9,79.47-23.48,116.3c-15.05,35.58-36.59,67.53-64.04,94.97s-59.4,48.99-94.98,64.03c-36.83,15.58-75.96,23.48-116.3,23.48s-79.47-7.9-116.3-23.48c-35.58-15.05-67.53-36.59-94.97-64.03-27.44-27.44-48.99-59.4-64.03-94.97-15.58-36.83-23.48-75.96-23.48-116.3s8.13-80.48,24.16-117.73c15.47-35.94,37.58-68.14,65.72-95.68l8.76-8.57h-98.63v-76.8h597.58M5393.84,1471.04c29.97,0,59.04-5.87,86.41-17.45,26.44-11.18,50.18-27.19,70.56-47.57,20.39-20.39,36.39-44.13,47.57-70.56,11.58-27.37,17.45-56.45,17.45-86.41s-5.87-59.04-17.45-86.41c-11.18-26.44-27.19-50.18-47.57-70.56-20.39-20.39-44.13-36.39-70.56-47.57-27.37-11.58-56.44-17.45-86.41-17.45s-59.04,5.87-86.41,17.45c-26.44,11.18-50.18,27.19-70.56,47.57-20.39,20.39-36.39,44.13-47.57,70.56-11.58,27.37-17.45,56.44-17.45,86.41s5.87,59.04,17.45,86.41c11.18,26.44,27.19,50.18,47.57,70.56,20.39,20.39,44.13,36.39,70.56,47.57,27.37,11.58,56.44,17.45,86.41,17.45M5697.63,945.26h-607.58v86.8h91.38c-56.33,55.15-91.38,131.94-91.38,216.99,0,167.78,136.01,303.79,303.79,303.79s303.79-136.01,303.79-303.79c0-85.05-35.05-161.85-91.38-216.99h91.38v-86.8h0ZM5393.84,1466.04c-119.84,0-216.99-97.14-216.99-216.99s97.15-216.99,216.99-216.99,216.99,97.15,216.99,216.99-97.15,216.99-216.99,216.99h0Z"/>
      </g>
      <g>
        <polygon class="cls-4" points="6136.16 1550.34 6136.16 1057.21 5928.63 1247.43 5928.63 1550.34 5846.84 1550.34 5846.84 947.76 5928.63 947.76 5928.63 1136.58 6134.63 947.76 6217.96 947.76 6217.96 1550.34 6136.16 1550.34"/>
        <path class="cls-2" d="M6215.46,950.26v597.58h-76.8v-496.31l-8.38,7.68-202.53,185.63-1.62,1.49v301.52h-76.8v-597.58h76.8v192l8.38-7.68,201.09-184.32h79.85M6220.46,945.26h-86.8l-202.53,185.63v-185.63h-86.8v607.58h86.8v-304.32l202.53-185.63v489.95h86.8v-607.58h0Z"/>
      </g>
    </g>
  </g>
  <g>
    <g>
      <rect class="cls-4" x="4832.16" y="947.76" width="81.8" height="602.58"/>
      <path class="cls-2" d="M4834.67,950.26h76.79v597.58h-76.8s0-597.58,0-597.58M4829.67,945.26v607.58s86.79,0,86.79,0v-607.58h-86.79Z"/>
    </g>
    <g>
      <path class="cls-4" d="M4379.44,1550.34c-80.48,0-156.14-31.34-213.04-88.24-56.91-56.91-88.25-132.57-88.25-213.04s31.34-156.14,88.25-213.04c56.91-56.91,132.57-88.25,213.04-88.25s156.14,31.34,213.04,88.25c56.91,56.91,88.24,132.57,88.24,213.04s-31.34,156.14-88.24,213.04-132.57,88.24-213.04,88.24ZM4379.44,1029.56c-58.63,0-113.75,22.83-155.2,64.29s-64.29,96.58-64.29,155.2,22.83,113.75,64.29,155.21c41.46,41.46,96.58,64.29,155.2,64.29s113.75-22.83,155.2-64.29c41.46-41.46,64.29-96.58,64.29-155.21s-22.83-113.75-64.29-155.2-96.58-64.29-155.2-64.29Z"/>
      <path class="cls-2" d="M4379.44,950.26c40.34,0,79.47,7.9,116.3,23.48,35.58,15.05,67.53,36.59,94.97,64.04,27.44,27.44,48.99,59.4,64.03,94.98,15.58,36.83,23.48,75.96,23.48,116.3s-7.9,79.47-23.48,116.3c-15.05,35.58-36.59,67.53-64.03,94.97-27.44,27.44-59.4,48.99-94.97,64.03-36.83,15.58-75.96,23.48-116.3,23.48s-79.47-7.9-116.3-23.48c-35.58-15.05-67.53-36.59-94.97-64.03s-48.99-59.4-64.03-94.97c-15.58-36.83-23.48-75.96-23.48-116.3s7.9-79.47,23.48-116.3c15.05-35.58,36.59-67.53,64.03-94.98,27.44-27.44,59.4-48.99,94.97-64.04,36.83-15.58,75.96-23.48,116.3-23.48M4379.44,1471.04c29.97,0,59.04-5.87,86.41-17.45,26.44-11.18,50.18-27.19,70.56-47.57,20.39-20.39,36.39-44.13,47.57-70.56,11.58-27.37,17.45-56.45,17.45-86.41s-5.87-59.04-17.45-86.41c-11.18-26.44-27.19-50.18-47.57-70.56-20.39-20.39-44.13-36.39-70.56-47.57-27.37-11.58-56.44-17.45-86.41-17.45s-59.04,5.87-86.41,17.45c-26.44,11.18-50.18,27.19-70.56,47.57-20.39,20.39-36.39,44.13-47.57,70.56-11.58,27.37-17.45,56.44-17.45,86.41s5.87,59.04,17.45,86.41c11.18,26.44,27.19,50.18,47.57,70.56,20.39,20.39,44.13,36.39,70.56,47.57,27.37,11.58,56.44,17.45,86.41,17.45M4379.44,945.26c-167.78,0-303.79,136.02-303.79,303.79s136.01,303.79,303.79,303.79,303.79-136.01,303.79-303.79-136.01-303.79-303.79-303.79h0ZM4379.44,1466.04c-119.84,0-216.99-97.14-216.99-216.99s97.15-216.99,216.99-216.99,216.99,97.15,216.99,216.99-97.15,216.99-216.99,216.99h0Z"/>
    </g>
  </g>
  <g>
    <rect class="cls-4" x="4078.17" y="1772.23" width="602.58" height="81.8"/>
    <path class="cls-2" d="M4080.67,1774.73h597.58s0,76.8,0,76.8h-597.58v-76.8M4075.67,1769.73v86.8s607.58,0,607.58,0v-86.79s-607.58,0-607.58,0h0Z"/>
  </g>
  <g>
    <path class="cls-4" d="M3296.22,2374.91v-602.58s602.58,0,602.58,0v602.58h-602.58ZM3378.02,2293.11h438.98v-438.98h-438.98v438.98Z"/>
    <path class="cls-2" d="M3896.3,1774.83v597.58h-597.58v-81.8s0-433.98,0-433.98v-81.8h81.8s433.98,0,433.98,0h81.8M3375.52,2295.61h443.98v-438.98s0-5,0-5h-443.98v438.98s0,5,0,5M3901.3,1769.83h-520.78s0,0,0,0h-86.8s0,0,0,0v86.8h0v433.98h0v86.8h607.58v-607.58h0ZM3380.52,2290.61v-433.98s433.98,0,433.98,0v433.98s-433.98,0-433.98,0h0Z"/>
  </g>
  <g>
    <g>
      <polygon class="cls-4" points="3817.76 1550.34 3817.76 1057.21 3610.23 1247.43 3610.23 1550.34 3528.44 1550.34 3528.44 947.76 3610.23 947.76 3610.23 1136.58 3816.23 947.76 3899.56 947.76 3899.56 1550.34 3817.76 1550.34"/>
      <path class="cls-2" d="M3897.06,950.26v597.58h-76.8v-496.31l-8.38,7.68-202.53,185.64-1.62,1.49v301.51h-76.8v-597.58h76.8v192l8.38-7.68,201.09-184.32h79.85M3902.06,945.26h-86.8l-202.53,185.64v-185.64h-86.8v607.58h86.8v-304.31l202.53-185.64v489.95h86.8v-607.58h0Z"/>
    </g>
    <g>
      <polygon class="cls-4" points="3296.22 1550.34 3293.72 1550.27 2857.25 1550.27 2857.25 1550.34 2775.44 1550.34 2775.44 1468.48 2775.45 1465.98 2775.45 1246.55 2775.44 1246.55 2775.44 1164.76 2775.45 1162.26 2775.45 643.97 2857.25 643.98 2857.25 1164.76 3175.49 1164.76 3175.49 1246.55 2857.25 1246.55 2857.25 1468.48 3296.22 1468.48 3296.22 947.76 3378.02 947.76 3378.02 1550.34 3296.22 1550.34"/>
      <path class="cls-2" d="M2777.95,646.47h76.8v520.78h318.25s0,76.8,0,76.8h-318.25v226.92h443.98v-520.71h76.8v597.58h-76.8v-.07h-443.98v.07h-76.8v-.07s0-76.8,0-76.8h0v-226.92s0-76.8,0-76.8h0v-520.78M2772.95,641.47v520.78h0v86.8h0v216.92h0v86.8h0v.07h86.8v-.07h433.98v.07h86.8v-.07h0v-86.8h0v-520.71s-86.8,0-86.8,0v520.71h-433.98v-216.92h318.25v-86.8h-318.25s0-520.78,0-520.78h-86.8Z"/>
    </g>
  </g>
  <g id="_른" data-name="른">
    <g>
      <polygon class="cls-4" points="1994.27 1550.34 1994.27 860.97 2515.05 860.97 2515.05 725.77 1994.27 725.77 1994.27 643.98 2596.85 643.97 2596.85 942.76 2076.07 942.76 2076.07 1468.54 2596.85 1468.54 2596.85 1550.34 1994.27 1550.34"/>
      <path class="cls-2" d="M2594.35,646.47v293.79h-520.78v525.78s0,5,0,5h520.78s0,76.8,0,76.8h-597.58v-602.58s0-81.8,0-81.8h515.78s5,0,5,0v-140.2h-520.78v-76.8h515.78s81.8,0,81.8,0M2599.35,641.47h-607.58v86.8h520.78v130.2h-520.78v607.58s0,86.8,0,86.8h607.58v-86.8h-520.78s0-520.78,0-520.78h520.78v-303.79h0Z"/>
    </g>
    <g>
      <polygon class="cls-4" points="1994.27 2374.91 1994.27 2291.72 2473.38 1854.13 1994.27 1854.13 1994.27 1772.33 2596.85 1772.33 2596.85 1855.53 2117.74 2293.11 2596.85 2293.11 2596.85 2374.91 1994.27 2374.91"/>
      <path class="cls-2" d="M2594.35,1774.83v79.59l-473.54,432.5-9.52,8.69h483.06s0,76.8,0,76.8h-597.58v-79.59l473.54-432.5,9.52-8.69h-483.06v-76.8h597.58M2599.35,1769.83h-607.58v86.8h475.17l-475.17,433.98v86.8h607.58v-86.8h-475.17s475.17-433.98,475.17-433.98v-86.8h0Z"/>
    </g>
  </g>
  <g>
    <polygon class="cls-4" points="1531.17 2374.91 1531.17 1854.13 1212.91 1854.13 1212.91 1772.33 1815.49 1772.33 1815.49 1854.13 1612.96 1854.13 1612.96 2374.91 1531.17 2374.91"/>
    <path class="cls-3" d="M1812.99,1774.83v76.8h-202.53v520.78h-76.8v-515.78s0-5,0-5h-318.26v-76.8h597.58M1817.99,1769.83h-607.58v86.8h318.26v520.78s86.8,0,86.8,0v-520.78h202.53v-86.8h0Z"/>
  </g>
  <g>
    <path class="cls-4" d="M1213.1,1550.34l-2.5-.07h-200.03v-81.8h202.53v-438.92h-202.53v-81.8h520.78v-.07h81.8l2.5.07h200.03v81.8h-202.53v438.92h202.53v81.8h-520.78v.07h-81.8ZM1294.9,1468.47h236.46v-438.92h-236.46v438.92Z"/>
    <path class="cls-3" d="M1610.65,950.2v.07h202.53v76.8h-202.53v443.92h202.53v76.8h-520.78v.07h-76.8v-.07h-202.53v-76.8h202.53v-443.92h-202.53v-76.8h520.78v-.07h76.8M1292.4,1470.98h241.46v-443.92h-241.46v443.92M1615.65,945.2h-86.8v.07h-520.78v86.8h202.53v433.92h-202.53v86.8h202.53v.07h86.8v-.07h520.78v-86.8h-202.53v-433.92h202.53v-86.8h-202.53v-.07h0ZM1297.4,1465.98v-433.92h231.46v433.92h-231.46Z"/>
  </g>
  <g>
    <rect class="cls-2" x="5090.55" y="641.98" width="404.05" height="85.8"/>
    <path class="cls-2" d="M5494.11,642.48v84.8h-403.05s0-84.8,0-84.8h403.05M5495.11,641.48h-405.05v86.8h405.05v-86.8h0Z"/>
  </g>
  <g>
    <rect class="cls-2" x="5090.55" y="641.98" width="85.8" height="172.59"/>
    <path class="cls-2" d="M5175.85,642.48v171.59s-84.8,0-84.8,0v-171.59s84.8,0,84.8,0M5176.85,641.48h-86.8v173.59h86.8v-173.59h0Z"/>
  </g>
  <g>
    <path class="cls-2" d="M5473.37,1046.75c-25.6-10.08-52.35-15.19-79.53-15.19-3.07,0-6.13.21-9.08.41-1.04.07-2.09.14-3.13.2-18.27-61.52-56.59-116.86-107.92-155.86-53.05-40.29-116.37-61.64-183.15-61.75v-85.8c46.56.06,92.08,8.24,135.33,24.31,41.93,15.59,80.63,38.16,115.02,67.09,68.97,58.03,115.99,138.46,132.47,226.57Z"/>
    <path class="cls-2" d="M5091.05,729.27c46.32.12,91.62,8.28,134.66,24.28,41.87,15.57,80.52,38.11,114.87,67.01,34.09,28.68,62.81,62.65,85.35,100.98,22.72,38.62,38.46,80.47,46.78,124.42-25.4-9.88-51.92-14.89-78.87-14.89-3.09,0-6.15.21-9.12.41-.91.06-1.82.12-2.73.18-9.22-30.89-23.25-60.03-41.71-86.59-18.36-26.42-40.66-49.68-66.27-69.14-25.91-19.68-54.57-34.98-85.21-45.48-31.38-10.76-64.26-16.26-97.74-16.37v-84.8M5090.05,728.27v86.8c137.82,0,254.04,91.85,291.2,217.63,4.19-.24,8.34-.64,12.58-.64,28.35,0,55.36,5.59,80.18,15.48-33.53-181.64-192.63-319.27-383.97-319.27h0Z"/>
  </g>
  <path class="cls-2" d="M5393.84,945.26v86.8c119.84,0,216.99,97.15,216.99,216.99s-97.15,216.99-216.99,216.99-216.99-97.14-216.99-216.99h-86.8c0,167.78,136.01,303.79,303.79,303.79s303.79-136.01,303.79-303.79-136.01-303.79-303.79-303.79Z"/>
  <g>
    <rect class="cls-2" x="4076.15" y="1770.33" width="606.58" height="85.8"/>
    <path class="cls-2" d="M4682.23,1770.83v84.8h-605.58v-84.8h605.58M4683.23,1769.83h-607.58v86.8h607.58v-86.8h0Z"/>
  </g>
  <g>
    <path class="cls-2" d="M4076.17,1856.12v-86.3c.08-80.94,31.67-157.03,88.93-214.24,57.15-57.1,133.08-88.6,213.84-88.73v85.8c-57.85.13-112.23,22.7-153.18,63.6-41.06,41.01-63.71,95.55-63.8,153.57v86.3h-85.8Z"/>
    <path class="cls-2" d="M4378.44,1467.36v84.8c-29.05.13-57.23,5.88-83.78,17.1-25.94,10.96-49.24,26.65-69.25,46.64-20.01,19.99-35.73,43.27-46.73,69.19-11.38,26.84-17.17,55.35-17.22,84.74v85.8h-84.8v-85.8c.04-40.84,8.08-80.46,23.88-117.74,15.27-36.02,37.1-68.37,64.9-96.14,27.8-27.78,60.17-49.58,96.2-64.82,37-15.64,76.29-23.63,116.79-23.76M4379.44,1466.36c-167.67,0-303.6,135.85-303.77,303.47h0v86.8h86.8v-86.8c.17-119.69,97.24-216.67,216.98-216.67v-86.8h0Z"/>
  </g>
  <g>
    <path class="cls-2" d="M4379.94,1466.54c57.91-.13,112.33-22.74,153.29-63.7,41.08-41.08,63.7-95.7,63.7-153.79s-22.62-112.71-63.7-153.79c-41.08-41.08-95.7-63.7-153.79-63.7s-112.71,22.62-153.79,63.7c-40.96,40.96-63.57,95.38-63.7,153.29h-85.8c.13-80.82,31.67-156.79,88.83-213.96,57.28-57.28,133.45-88.83,214.46-88.83s157.17,31.55,214.46,88.83,88.83,133.45,88.83,214.46-31.55,157.17-88.83,214.46c-57.16,57.16-133.13,88.7-213.96,88.83v-85.8Z"/>
    <path class="cls-2" d="M4379.44,946.26c40.88,0,80.53,8.01,117.86,23.79,36.06,15.25,68.44,37.08,96.24,64.89,27.81,27.81,49.64,60.19,64.89,96.24,15.79,37.33,23.79,76.98,23.79,117.86s-8.01,80.53-23.79,117.86c-15.25,36.06-37.08,68.44-64.89,96.24-27.81,27.81-60.19,49.64-96.24,64.89-37.02,15.66-76.34,23.66-116.86,23.79v-84.8c29.07-.13,57.28-5.89,83.85-17.13,25.96-10.98,49.27-26.7,69.29-46.72,20.02-20.02,35.74-43.33,46.72-69.29,11.37-26.88,17.13-55.43,17.13-84.85s-5.76-57.98-17.13-84.85c-10.98-25.96-26.7-49.27-46.72-69.29-20.02-20.02-43.33-35.74-69.29-46.72-26.88-11.37-55.42-17.13-84.85-17.13s-57.98,5.76-84.85,17.13c-25.96,10.98-49.27,26.7-69.29,46.72-20.02,20.02-35.74,43.33-46.72,69.29-11.24,26.57-17,54.78-17.13,83.85h-84.8c.13-40.52,8.13-79.83,23.79-116.86,15.25-36.06,37.08-68.44,64.89-96.24,27.81-27.81,60.19-49.64,96.24-64.89,37.33-15.79,76.98-23.79,117.86-23.79M4379.44,945.26c-167.78,0-303.79,136.01-303.79,303.79h86.8c0-119.84,97.15-216.99,216.99-216.99s216.99,97.15,216.99,216.99-97.15,216.99-216.99,216.99v86.8c167.78,0,303.79-136.01,303.79-303.79s-136.01-303.79-303.79-303.79h0Z"/>
  </g>
  <g>
    <rect class="cls-2" x="3294.22" y="1770.33" width="85.8" height="606.58"/>
    <path class="cls-2" d="M3379.52,1770.83v605.58h-84.8v-605.58h84.8M3380.52,1769.83h-86.8v607.58h86.8v-607.58h0Z"/>
  </g>
  <g>
    <rect class="cls-2" x="3294.22" y="2291.11" width="606.58" height="85.8"/>
    <path class="cls-2" d="M3900.3,2291.61v84.8h-605.58v-84.8h605.58M3901.3,2290.61h-607.58v86.8h607.58v-86.8h0Z"/>
  </g>
  <g>
    <rect class="cls-2" x="3815" y="1770.33" width="85.8" height="606.58"/>
    <path class="cls-2" d="M3900.3,1770.83v605.58h-84.8v-605.58h84.8M3901.3,1769.83h-86.8v607.58h86.8v-607.58h0Z"/>
  </g>
  <g>
    <rect class="cls-2" x="3294.22" y="1770.33" width="606.58" height="85.8"/>
    <path class="cls-2" d="M3900.3,1770.83v84.8h-605.58v-84.8h605.58M3901.3,1769.83h-607.58v86.8h607.58v-86.8h0Z"/>
  </g>
  <g>
    <rect class="cls-2" x="1994.27" y="643.97" width="602.58" height="81.8"/>
    <path class="cls-2" d="M2594.35,646.47v76.8h-597.58v-76.8h597.58M2599.35,641.47h-607.58v86.8h607.58v-86.8h0Z"/>
  </g>
  <g>
    <rect class="cls-2" x="2515.05" y="643.97" width="81.8" height="298.79"/>
    <path class="cls-2" d="M2594.35,646.47v293.79s-76.8,0-76.8,0v-293.79s76.8,0,76.8,0M2599.35,641.47h-86.8v303.79h86.8v-303.79h0Z"/>
  </g>
  <g>
    <rect class="cls-2" x="1994.27" y="860.97" width="602.58" height="81.8"/>
    <path class="cls-2" d="M2594.35,863.47v76.8h-597.58v-76.8h597.58M2599.35,858.47h-607.58v86.8h607.58v-86.8h0Z"/>
  </g>
  <g>
    <rect class="cls-2" x="1994.27" y="860.97" width="81.8" height="689.37"/>
    <path class="cls-2" d="M2073.57,863.47v684.37h-76.8v-684.37h76.8M2078.57,858.47h-86.8v694.37h86.8v-694.37h0Z"/>
  </g>
  <g>
    <rect class="cls-2" x="1994.27" y="1468.54" width="602.58" height="81.8"/>
    <path class="cls-2" d="M2594.35,1471.04v76.8h-597.58s0-76.8,0-76.8h597.58M2599.35,1466.04h-607.58v86.8h607.58v-86.8h0Z"/>
  </g>
  <g>
    <rect class="cls-1" x="5451.82" y="696.84" width="17.33" height="17.33"/>
    <rect class="cls-1" x="5451.82" y="654.75" width="17.33" height="17.33"/>
  </g>
  <g>
    <rect class="cls-1" x="4639.94" y="1825.2" width="17.33" height="17.33"/>
    <rect class="cls-1" x="4639.94" y="1783.11" width="17.33" height="17.33"/>
  </g>
  <g>
    <rect class="cls-1" x="3349.5" y="1795.79" width="17.33" height="17.33"/>
    <rect class="cls-1" x="3307.41" y="1795.79" width="17.33" height="17.33"/>
  </g>
  <g>
    <rect class="cls-1" x="2017.73" y="697.25" width="17.33" height="17.33"/>
    <rect class="cls-1" x="2017.73" y="655.16" width="17.33" height="17.33"/>
  </g>
</svg>