<?xml version="1.0" encoding="UTF-8"?>
<svg id="_레이어_1" data-name="레이어 1" xmlns="http://www.w3.org/2000/svg" viewBox="0 0 1366 273.8">
  <defs>
    <style>
      .cls-1 {
        fill: #000;
        stroke-width: 0px;
      }
    </style>
  </defs>
  <path class="cls-1" d="M311.56,114.29c-3.62-.7-7.56-1.21-11.69-1.34-18.09-.59-22.88-.03-22.88-.03,0,0-33.08.75-35.71,13.93-.17.84.48,1.64,1.33,1.64h24.77c.46,0,.89-.22,1.12-.61,1.11-1.81,5.44-7.04,18.21-7.04,15.45,0,16.77,4.86,17.36,6.03.59,1.18-.15,4.27-5.88,5-5.64.72-26.85,1.45-27.55,1.47-.03,0,0,0-.03,0-.8-.02-32.59-.69-33.61,13.98-1.03,14.86,23.98,17.07,34.28,16.78,9.63-.28,22.08.22,32.07-6.32.88-.58,2.05.08,2.05,1.13v1.79c0,.74.6,1.35,1.35,1.35h24.23c.74,0,1.35-.6,1.35-1.35v-24.78c0-10.32-8.61-19.26-20.76-21.62ZM287.17,152.85c-14.3,1.06-18.88-3.59-19.62-7.06-.32-1.5.26-2.66,1.73-2.81l32.08-3.33c1.33-.13,2.32.41,2.45,1.79.35,3.75-3.72,10.46-16.63,11.42Z"/>
  <path class="cls-1" d="M438.95,153.83h-.79c-3.77-.01-9.93-1.22-14.16-3.36-3.09-1.56-7.7-5.61-7.7-11.9,0-10.46,8.8-13.88,11.77-14.73.57-.16.92-.72.85-1.33l-.94-8.41c-.07-.63-.58-1.1-1.19-1.1h-38.71c-.61,0-1.12.47-1.19,1.09l-.71,5.87c-.09.71.43,1.34,1.12,1.39l16.11,1.07c1.35.09,1.55,2.04.25,2.42-7.42,2.18-16.64,6.88-16.64,16.77,0,16.29,25.75,22.33,50.88,22.52.67,0,1.22-.56,1.22-1.25l-.17-9.05Z"/>
  <path class="cls-1" d="M437.06,153.9l1.62-.07c3.77-.01,9.37-1.2,13.6-3.33,3.09-1.56,7.7-5.61,7.7-11.9,0-10.46-8.8-13.88-11.77-14.73-.57-.16-.92-.72-.85-1.33l.94-8.41c.07-.63.58-1.1,1.19-1.1h38.71c.61,0,1.12.47,1.19,1.09l.71,5.87c.09.71-.43,1.34-1.12,1.39l-16.11,1.07c-1.35.09-1.55,2.04-.25,2.42,7.42,2.18,16.64,6.88,16.64,16.77,0,16.29-25.76,22.31-50.9,22.49-.67,0-1.2-.53-1.2-1.22l-.11-9.01Z"/>
  <path class="cls-1" d="M1151.24,131.46l-28.65,30.74c-1.14,1.22-2.74,1.92-4.41,1.92h-33.76c-1.6,0-3.13-.63-4.27-1.74l-52.89-51.7c-.4-.4-.07-1.01.55-1.01h41.05c1.55,0,3.04.59,4.16,1.66l25.6,24.29c2.43,2.3,6.3,2.2,8.6-.23l22.92-24.27c1.07-1.07,1.82-1.45,3.17-1.45h17.94"/>
  <path class="cls-1" d="M1151.11,131.46l28.65,30.74c1.14,1.22,2.74,1.92,4.41,1.92h33.76c1.6,0,3.13-.63,4.27-1.74l52.89-51.7c.4-.4.07-1.01-.55-1.01h-41.05c-1.55,0-3.04.59-4.16,1.66l-25.6,24.29c-2.43,2.3-6.3,2.2-8.6-.23l-22.92-24.27c-1.07-1.07-1.82-1.45-3.17-1.45h-17.94"/>
  <path class="cls-1" d="M847.92,109.92h-74.34c-.34,0-.72,0-1.97,0-.45,0-1.01,0-1.71,0l.02,54.18,43.65.03c.86,0,1.5-.3,1.5-1.31v-17.38c0-.41.38-.73.85-.73h46.84s41.85-.24,41.85-17.82-53.36-16.96-56.69-16.96ZM852.04,131.36l-37.14.06c-.4,0-.76-.26-.88-.65l-2.99-6.95c-.19-.59.26-1.2.88-1.2h37.21s14.65.07,14.65,4.37-11.72,4.37-11.72,4.37Z"/>
  <path class="cls-1" d="M1055.58,161.37l-50.53-48.9c-1.85-1.79-4.35-2.79-6.92-2.79-.04,0-.07,0-.1,0h-45.11s-.06,0-.1,0c-2.58,0-5.07,1-6.92,2.79l-50.53,48.9c-1.16,1.06-.26,2.76,1.45,2.76h39.63c.57,0,1.1-.2,1.48-.56l7.71-7.37c.37-.36.91-.56,1.48-.56h56.72c.57,0,1.1.2,1.48.56l7.71,7.37c.37.36.91.56,1.48.56h39.63c1.71,0,2.6-1.7,1.45-2.76ZM991.11,141.46l-30.26-.15c-1.58,0-2.3-1.96-1.11-2.99l14.72-14.06c.64-.55,1.58-.55,2.21,0l15.54,14.21c1.2,1.03.47,2.99-1.11,2.99Z"/>
  <path class="cls-1" d="M602.56,152.05c4.42-1.38,5.64-3.5,5.1-5.53-.69-2.62-5.66-4.67-15.19-5.3-33.99-2.23-40.23-2.13-45.23-6.07-4.05-3.19-4.89-9.13,2.32-14.08,9.05-6.21,22.33-7.61,22.33-7.61,0,0,13.51-2.27,34.46.45,20.1,2.6,27.72,11.88,28.61,14.09.37.92-.64,1.09-.96,1.09l-25.23-.32c-.33-.01-.54-.32-.59-.43-2.26-5.51-17.35-6.37-20.7-6.37s-15.35-.07-15.35,4.89c0,4.59,7.62,6.06,26.53,6.85,26.53,1.11,31.75,5.55,33.59,6.96,1.71,1.31,5.12,5.78,2.08,10.99-6.53,11.2-26.81,12.12-26.81,12.12,0,0-5.36.29-10.1.29l-13.56.05c-1.37,0-7.54-.28-8.9-.42-24.09-2.4-31.22-14.51-31.16-17.1.03-1.32.6-1.76,2.11-1.67,4.5.25,22.23,1.69,25.16,2.03.18.02.26.02.49.05.08.01.16.04.19.07.05.06.05.08.08.21.71,3.56,13.97,6,24.23,5.56.31-.01,3.77-.05,5.61-.56l.89-.25Z"/>
  <path class="cls-1" d="M149.49,152.05c4.42-1.38,5.64-3.5,5.1-5.53-.69-2.62-5.66-4.67-15.19-5.3-33.99-2.23-40.23-2.13-45.23-6.07-4.05-3.19-4.89-9.13,2.32-14.08,9.05-6.21,22.33-7.61,22.33-7.61,0,0,13.51-2.27,34.46.45,20.1,2.6,27.72,11.88,28.61,14.09.37.92-.64,1.09-.96,1.09l-25.23-.32c-.33-.01-.54-.32-.59-.43-2.26-5.51-17.35-6.37-20.7-6.37s-15.35-.07-15.35,4.89c0,4.59,7.62,6.06,26.53,6.85,26.53,1.11,31.75,5.55,33.59,6.96,1.71,1.31,5.12,5.78,2.08,10.99-6.53,11.2-26.81,12.12-26.81,12.12,0,0-5.36.29-10.1.29l-13.56.05c-1.37,0-7.54-.28-8.9-.42-24.09-2.4-31.22-14.51-31.16-17.1.03-1.32.6-1.76,2.11-1.67,4.5.25,22.23,1.69,25.16,2.03.18.02.26.02.49.05.08.01.16.04.19.07.05.06.05.08.08.21.71,3.56,13.97,6,24.23,5.56.31-.01,3.77-.05,5.61-.56l.89-.25Z"/>
  <path class="cls-1" d="M1150.36,164.1s.78-.73,1.68.02l-.87-.94-.81.92Z"/>
</svg>