<?xml version="1.0" encoding="UTF-8"?>
<svg id="_레이어_1" data-name="레이어 1" xmlns="http://www.w3.org/2000/svg" viewBox="0 0 1190.55 1683.78">
  <defs>
    <style>
      .cls-1 {
        fill: #0b318f;
        stroke: #0b318f;
      }

      .cls-1, .cls-2, .cls-3, .cls-4, .cls-5, .cls-6, .cls-7, .cls-8 {
        stroke-miterlimit: 10;
      }

      .cls-1, .cls-2, .cls-3, .cls-4, .cls-5, .cls-8 {
        stroke-width: 1.8px;
      }

      .cls-2 {
        fill: #231815;
      }

      .cls-2, .cls-3, .cls-6, .cls-7, .cls-8 {
        stroke: #231815;
      }

      .cls-3 {
        fill: #040000;
      }

      .cls-4 {
        fill: #009a3e;
        stroke: #009a3e;
      }

      .cls-5 {
        fill: #e60012;
        stroke: #e60012;
      }

      .cls-6 {
        stroke-width: 6px;
      }

      .cls-6, .cls-8 {
        fill: none;
      }

      .cls-7 {
        fill: #fff;
      }
    </style>
  </defs>
  <rect class="cls-7" width="1190.55" height="1683.78"/>
  <path class="cls-8" d="M312.92,682.89c-104.95,0-190.03-85.08-190.03-190.03"/>
  <line class="cls-8" x1="1394.05" y1="1325.81" x2="802.18" y2="1325.81"/>
  <line class="cls-8" x1="1491.57" y1="679.67" x2="899.71" y2="679.67"/>
  <line class="cls-8" x1="176.75" y1="988.85" x2="-415.11" y2="988.85"/>
  <line class="cls-8" x1="646.08" y1="1232.14" x2="646.08" y2="2051.03"/>
  <g>
    <line class="cls-8" x1="290.9" y1="399.32" x2="290.9" y2="515.01"/>
    <circle class="cls-5" cx="274.08" cy="399.32" r="16.82"/>
  </g>
  <g>
    <g>
      <path class="cls-8" d="M372.96,454.51c18.57,0,33.63,15.06,33.63,33.63"/>
      <line class="cls-8" x1="372.96" y1="454.51" x2="372.96" y2="488.14"/>
    </g>
    <rect class="cls-2" x="372.96" y="414.9" width="63.6" height="4.71"/>
    <line class="cls-8" x1="372.96" y1="416.1" x2="372.96" y2="546.8"/>
  </g>
  <g>
    <path class="cls-8" d="M487.98,444.84c27.88,0,50.49,22.6,50.49,50.49"/>
    <path class="cls-8" d="M538.47,495.33c0,27.88-22.6,50.49-50.49,50.49"/>
    <path class="cls-8" d="M487.98,444.84c-27.88,0-50.49,22.6-50.49,50.49"/>
    <path class="cls-8" d="M437.49,495.33c0,27.88,22.6,50.49,50.49,50.49"/>
  </g>
  <path class="cls-1" d="M556.25,478.48c0-18.57,15.06-33.63,33.63-33.63"/>
  <path class="cls-8" d="M556.26,478.36c0,35.12,28.47,63.6,63.6,63.6"/>
  <polyline class="cls-1" points="556.26 478.48 589.89 478.48 589.89 444.84"/>
  <path class="cls-6" d="M683.45,480.61c0,35.12-28.47,63.6-63.6,63.6"/>
  <rect class="cls-3" x="651.2" y="431.7" width="98.38" height="0" transform="translate(268.69 1132.09) rotate(-90)"/>
  <path class="cls-2" d="M700.39,382.51c0,27.17,22.02,49.19,49.19,49.19h-49.19v-49.19Z"/>
  <path class="cls-8" d="M749.58,431.7c27.17,0,49.19,22.02,49.19,49.19"/>
  <rect class="cls-3" x="751.94" y="429.34" width="98.38" height="4.71" transform="translate(369.43 1232.83) rotate(-90)"/>
  <g>
    <path class="cls-8" d="M833.46,419.17c35.12,0,63.6,28.47,63.6,63.6"/>
    <line class="cls-8" x1="833.46" y1="482.77" x2="833.46" y2="419.17"/>
  </g>
  <g>
    <path class="cls-8" d="M833.46,546.37c35.12,0,63.6-28.47,63.6-63.6"/>
    <line class="cls-8" x1="833.46" y1="546.37" x2="833.46" y2="482.77"/>
  </g>
  <g>
    <path class="cls-4" d="M831.11,449.74c18.57,0,33.63,15.06,33.63,33.63"/>
    <polyline class="cls-4" points="831.11 449.74 831.11 483.37 864.74 483.37"/>
  </g>
  <g>
    <path class="cls-4" d="M864.74,483.37c0,18.57-15.06,33.63-33.63,33.63"/>
    <polyline class="cls-4" points="864.74 483.37 831.11 483.37 831.11 517"/>
  </g>
  <g>
    <path class="cls-2" d="M312.92,682.92c18.57,0,33.63-15.06,33.63-33.63v33.63h-33.63Z"/>
    <path class="cls-8" d="M346.56,649.29c0-18.57,15.06-33.63,33.63-33.63"/>
    <g>
      <path class="cls-8" d="M452.4,682.89c0-37.13-30.1-67.23-67.23-67.23"/>
      <line class="cls-8" x1="385.17" y1="682.89" x2="385.17" y2="615.66"/>
    </g>
    <rect class="cls-3" x="349.06" y="646.79" width="67.23" height="4.98" transform="translate(1031.95 266.6) rotate(90)"/>
  </g>
  <path class="cls-8" d="M533.37,747.99c-35.12,0-63.6-28.47-63.6-63.6"/>
  <rect class="cls-3" x="503.94" y="713.83" width="63.6" height="4.71" transform="translate(-180.45 1251.92) rotate(-90)"/>
  <path class="cls-8" d="M469.78,811.57c35.12,0,63.6-28.47,63.6-63.6"/>
  <g>
    <path class="cls-5" d="M469.78,811.57c-18.57,0-33.63-15.06-33.63-33.63"/>
    <polyline class="cls-5" points="469.78 811.57 469.78 777.93 436.15 777.93"/>
  </g>
  <g>
    <path class="cls-8" d="M623.24,616.07c-35.12,0-63.6,28.47-63.6,63.6"/>
    <line class="cls-8" x1="623.24" y1="679.67" x2="559.65" y2="679.67"/>
  </g>
  <rect class="cls-3" x="559.65" y="679.67" width="95.39" height="4.71" transform="translate(1214.69 1364.05) rotate(-180)"/>
  <g>
    <path class="cls-8" d="M591.44,747.98c35.12,0,63.6-28.47,63.6-63.6"/>
    <line class="cls-8" x1="591.44" y1="684.38" x2="655.04" y2="684.38"/>
  </g>
  <g>
    <path class="cls-4" d="M623.24,616.07c18.57,0,33.63,15.06,33.63,33.63"/>
    <polyline class="cls-4" points="623.24 616.07 623.24 649.71 656.87 649.71"/>
  </g>
  <path class="cls-2" d="M593.28,747.98c-18.57,0-33.63-15.06-33.63-33.63v33.63s33.63,0,33.63,0Z"/>
  <g>
    <g>
      <path class="cls-8" d="M740.23,616.07c-35.12,0-63.6,28.47-63.6,63.6"/>
      <line class="cls-8" x1="740.23" y1="679.67" x2="676.63" y2="679.67"/>
    </g>
    <g>
      <path class="cls-8" d="M740.23,747.98c-35.12,0-63.6-28.47-63.6-63.6"/>
      <line class="cls-8" x1="740.23" y1="684.38" x2="676.63" y2="684.38"/>
    </g>
    <rect class="cls-3" x="676.63" y="679.67" width="63.6" height="4.71"/>
    <path class="cls-2" d="M740.17,747.98c-35.05,0-63.47-28.42-63.47-63.47v63.47s63.47,0,63.47,0Z"/>
  </g>
  <g>
    <line class="cls-8" x1="764.21" y1="551.88" x2="764.21" y2="679.67"/>
    <rect class="cls-3" x="764.21" y="679.67" width="63.6" height="4.71"/>
    <path class="cls-8" d="M827.81,679.67c18.57,0,33.63-15.06,33.63-33.63"/>
  </g>
  <g>
    <g>
      <path class="cls-8" d="M874.09,719.27c18.57,0,33.63,15.06,33.63,33.63"/>
      <line class="cls-8" x1="874.09" y1="719.27" x2="874.09" y2="752.91"/>
    </g>
    <rect class="cls-2" x="874.09" y="679.67" width="63.6" height="4.71"/>
    <line class="cls-8" x1="874.09" y1="680.87" x2="874.09" y2="812.17"/>
  </g>
  <g>
    <path class="cls-2" d="M315.26,988.82c-18.57,0-33.63,15.06-33.63,33.63v-33.63h33.63Z"/>
    <path class="cls-8" d="M281.63,1022.45c0,18.57-15.06,33.63-33.63,33.63"/>
    <g>
      <path class="cls-8" d="M175.79,988.85c0,37.13,30.1,67.23,67.23,67.23"/>
      <line class="cls-8" x1="243.02" y1="988.85" x2="243.02" y2="1056.08"/>
    </g>
    <rect class="cls-3" x="211.89" y="1019.97" width="67.23" height="4.98" transform="translate(-776.95 1267.97) rotate(-90)"/>
  </g>
  <g>
    <path class="cls-8" d="M413.41,885.96c-35.12,0-63.6,28.47-63.6,63.6"/>
    <polyline class="cls-8" points="413.41 885.96 413.41 949.56 349.81 949.56"/>
  </g>
  <line class="cls-8" x1="413.41" y1="890.67" x2="413.41" y2="989.49"/>
  <g>
    <path class="cls-4" d="M348.9,955.18c-18.57,0-33.63,15.06-33.63,33.63"/>
    <polyline class="cls-4" points="348.9 955.18 348.9 988.82 315.26 988.82"/>
  </g>
  <rect class="cls-3" x="349.81" y="949.56" width="63.6" height="4.71" transform="translate(763.21 1903.83) rotate(-180)"/>
  <g>
    <path class="cls-8" d="M496.67,955.18c18.57,0,33.63,15.06,33.63,33.63"/>
    <rect class="cls-3" x="433.07" y="950.47" width="63.6" height="4.71"/>
    <line class="cls-8" x1="480.46" y1="955.18" x2="480.46" y2="1052.41"/>
    <path class="cls-2" d="M480.46,1052.2c18.57,0,33.63-15.06,33.63-33.63v33.63h-33.63Z"/>
  </g>
  <polyline class="cls-8" points="541.71 916.84 541.71 950.47 575.34 950.47"/>
  <rect class="cls-3" x="541.71" y="950.47" width="63.6" height="4.71"/>
  <path class="cls-8" d="M605.31,853.24c-35.12,0-63.6,28.47-63.6,63.6"/>
  <g>
    <path class="cls-1" d="M605.31,853.24c18.57,0,33.63,15.06,33.63,33.63"/>
    <polyline class="cls-1" points="605.31 853.24 605.31 886.88 638.94 886.88"/>
  </g>
  <line class="cls-8" x1="640.55" y1="899.5" x2="640.55" y2="1001.44"/>
  <line class="cls-8" x1="705.94" y1="899.5" x2="705.94" y2="1001.44"/>
  <rect class="cls-3" x="640.55" y="950.47" width="63.6" height="4.71"/>
  <line class="cls-8" x1="740.21" y1="855.6" x2="740.21" y2="952.83"/>
  <circle class="cls-5" cx="723.39" cy="855.6" r="16.82"/>
  <rect class="cls-3" x="877.21" y="948.12" width="63.6" height="4.71"/>
  <path class="cls-8" d="M940.81,850.89c-35.12,0-63.6,28.47-63.6,63.6"/>
  <polyline class="cls-8" points="877.21 914.48 877.21 948.12 910.84 948.12"/>
  <path class="cls-8" d="M940.81,850.89c18.57,0,33.63,15.06,33.63,33.63"/>
  <g>
    <path class="cls-4" d="M907.18,913.58c0,18.57,15.06,33.63,33.63,33.63"/>
    <polyline class="cls-4" points="907.18 913.58 940.81 913.58 940.81 947.21"/>
  </g>
  <g>
    <path class="cls-8" d="M391.32,1196.85c18.57,0,33.63,15.06,33.63,33.63"/>
    <rect class="cls-3" x="327.72" y="1192.14" width="63.6" height="4.71"/>
    <line class="cls-8" x1="375.11" y1="1196.85" x2="375.11" y2="1294.08"/>
    <path class="cls-2" d="M375.11,1293.86c18.57,0,33.63-15.06,33.63-33.63v33.63h-33.63Z"/>
  </g>
  <g>
    <path class="cls-8" d="M583.87,1100.24c-35.12,0-63.6,28.47-63.6,63.6"/>
    <line class="cls-8" x1="583.87" y1="1163.83" x2="520.27" y2="1163.83"/>
  </g>
  <g>
    <path class="cls-8" d="M583.87,1232.14c-35.12,0-63.6-28.47-63.6-63.6"/>
    <line class="cls-8" x1="583.87" y1="1168.54" x2="520.27" y2="1168.54"/>
  </g>
  <rect class="cls-3" x="520.27" y="1163.83" width="63.6" height="4.71"/>
  <path class="cls-2" d="M583.81,1232.14c-35.05,0-63.47-28.42-63.47-63.47v63.47s63.47,0,63.47,0Z"/>
  <g>
    <path class="cls-8" d="M709.67,1100.24c-35.12,0-63.6,28.47-63.6,63.6"/>
    <line class="cls-8" x1="709.67" y1="1163.83" x2="646.08" y2="1163.83"/>
  </g>
  <rect class="cls-3" x="646.08" y="1163.83" width="95.39" height="4.71" transform="translate(1387.55 2332.38) rotate(-180)"/>
  <g>
    <path class="cls-8" d="M677.88,1232.14c35.12,0,63.6-28.47,63.6-63.6"/>
    <line class="cls-8" x1="677.88" y1="1168.54" x2="741.47" y2="1168.54"/>
  </g>
  <g>
    <path class="cls-1" d="M709.67,1100.24c18.57,0,33.63,15.06,33.63,33.63"/>
    <polyline class="cls-1" points="709.67 1100.24 709.67 1133.87 743.3 1133.87"/>
  </g>
  <path class="cls-2" d="M679.71,1232.14c-18.57,0-33.63-15.06-33.63-33.63v33.63s33.63,0,33.63,0Z"/>
  <g>
    <line class="cls-8" x1="768.24" y1="1135.04" x2="768.24" y2="1232.27"/>
    <g>
      <path class="cls-8" d="M768.24,1198.63c18.57,0,33.63,15.06,33.63,33.63"/>
      <line class="cls-8" x1="768.24" y1="1198.63" x2="768.24" y2="1232.27"/>
    </g>
    <rect class="cls-3" x="702.28" y="1166.31" width="127.19" height="4.71" transform="translate(1934.55 402.79) rotate(90)"/>
    <g>
      <path class="cls-8" d="M831.83,1135.04c0,35.12-28.47,63.6-63.6,63.6"/>
      <line class="cls-8" x1="768.24" y1="1135.04" x2="768.24" y2="1198.63"/>
    </g>
    <path class="cls-2" d="M768.24,1198.63c18.57,0,33.63,15.06,33.63,33.63v-33.63h-33.63Z"/>
  </g>
  <path class="cls-8" d="M884.43,1295.86c-35.12,0-63.6-28.47-63.6-63.6"/>
  <rect class="cls-3" x="854.99" y="1261.71" width="63.6" height="4.71" transform="translate(-377.28 2150.85) rotate(-90)"/>
  <path class="cls-8" d="M820.83,1359.44c35.12,0,63.6-28.47,63.6-63.6"/>
  <g>
    <rect class="cls-3" x="708.47" y="1005.58" width="98.38" height="0" transform="translate(-247.91 1763.24) rotate(-90)"/>
    <path class="cls-2" d="M757.67,956.39c0,27.17,22.02,49.19,49.19,49.19h-49.19v-49.19Z"/>
    <path class="cls-8" d="M806.86,1005.58c27.17,0,49.19,22.02,49.19,49.19"/>
    <rect class="cls-3" x="809.21" y="1003.22" width="98.38" height="4.71" transform="translate(-147.17 1863.98) rotate(-90)"/>
  </g>
  <line class="cls-8" x1="439.48" y1="1232.14" x2="439.48" y2="1334.08"/>
  <line class="cls-8" x1="503.08" y1="1232.14" x2="503.08" y2="1334.08"/>
  <rect class="cls-3" x="439.48" y="1283.11" width="63.6" height="4.71"/>
  <g>
    <path class="cls-5" d="M820.83,1359.44c-18.57,0-33.63-15.06-33.63-33.63"/>
    <polyline class="cls-5" points="820.83 1359.44 820.83 1325.81 787.2 1325.81"/>
  </g>
  <rect class="cls-3" x="767.51" y="480.41" width="127.19" height="4.71" transform="translate(1313.88 -348.34) rotate(90)"/>
  <path class="cls-8" d="M122.9,492.87c0-178.39-144.61-323-323-323"/>
  <line class="cls-8" x1="803.49" y1="416.1" x2="803.49" y2="-99.69"/>
</svg>