<?xml version="1.0" encoding="UTF-8"?>
<svg id="_레이어_1" data-name="레이어 1" xmlns="http://www.w3.org/2000/svg" viewBox="0 0 680.31 340.16">
  <defs>
    <style>
      .cls-1 {
        stroke-dasharray: 0 0 3 3;
      }

      .cls-1, .cls-2, .cls-3 {
        fill: none;
        stroke-miterlimit: 10;
      }

      .cls-1, .cls-3 {
        stroke: #000;
        stroke-width: .5px;
      }

      .cls-2 {
        stroke: #040000;
        stroke-linecap: square;
        stroke-width: .25px;
      }

      .cls-4 {
        fill: #fff;
        stroke-width: 0px;
      }
    </style>
  </defs>
  <rect class="cls-4" x="0" width="680.31" height="340.16"/>
  <polyline class="cls-3" points="43.46 50.28 33.32 50.28 33.32 60.41 46.84 60.41"/>
  <line class="cls-3" x1="43.46" y1="60.41" x2="43.46" y2="63.79"/>
  <line class="cls-3" x1="40.08" y1="63.79" x2="46.84" y2="63.79"/>
  <ellipse class="cls-3" cx="57.6" cy="62.1" rx="3.38" ry="11.83"/>
  <polyline class="cls-3" points="64.35 65.06 64.35 77.31 64.35 84.06"/>
  <polyline class="cls-3" points="67.35 50.28 77.49 50.28 77.49 63.79 84.25 63.79 77.49 67.17 84.25 67.17 77.49 70.55 84.25 70.55 77.49 73.93 84.25 73.93 77.49 79 84.25 79 77.49 84.06 82.98 84.06"/>
  <line class="cls-3" x1="80.87" y1="53.66" x2="80.87" y2="63.79"/>
  <line class="cls-3" x1="70.73" y1="53.66" x2="77.49" y2="53.66"/>
  <polyline class="cls-3" points="129.47 76.46 155.65 50.28 169.17 63.79"/>
  <circle class="cls-3" cx="128.62" cy="77.31" r="1.27"/>
  <ellipse class="cls-3" cx="192.75" cy="63.79" rx="5.07" ry="6.76"/>
  <line class="cls-3" x1="201.2" y1="51.54" x2="201.2" y2="70.55"/>
  <line class="cls-3" x1="197.82" y1="63.79" x2="201.2" y2="63.79"/>
  <polyline class="cls-3" points="197.82 67.17 197.82 77.31 204.57 77.31 204.57 70.55"/>
  <line class="cls-3" x1="197.82" y1="73.93" x2="201.2" y2="73.93"/>
  <polyline class="cls-3" points="180.92 97.58 184.3 94.2 207.95 70.55 211.33 73.93"/>
  <ellipse class="cls-3" cx="253.36" cy="63.79" rx="3.38" ry="13.51"/>
  <line class="cls-3" x1="261.38" y1="63.79" x2="266.87" y2="63.79"/>
  <line class="cls-3" x1="260.12" y1="77.31" x2="260.12" y2="65.06"/>
  <line class="cls-3" x1="266.87" y1="50.28" x2="280.39" y2="50.28"/>
  <line class="cls-3" x1="277.01" y1="50.28" x2="277.01" y2="57.03"/>
  <line class="cls-3" x1="273.63" y1="50.28" x2="273.63" y2="57.03"/>
  <line class="cls-3" x1="270.25" y1="57.03" x2="280.39" y2="57.03"/>
  <line class="cls-3" x1="270.25" y1="60.41" x2="280.39" y2="60.41"/>
  <polyline class="cls-3" points="280.39 79.42 280.39 84.06 277.01 84.06 277.01 63.79 280.39 63.79 280.39 76.88"/>
  <circle class="cls-3" cx="280.39" cy="78.15" r="1.27"/>
  <polyline class="cls-3" points="40.08 67.17 46.84 67.17 40.08 70.55 46.84 70.55 40.08 73.93 46.84 73.93 40.08 79 46.84 79 40.08 84.06 45.57 84.06"/>
  <line class="cls-3" x1="152.7" y1="63.79" x2="172.97" y2="63.79"/>
  <line class="cls-3" x1="165.79" y1="63.79" x2="165.79" y2="77.31"/>
  <line class="cls-3" x1="298.2" y1="53.66" x2="303.69" y2="53.66"/>
  <polyline class="cls-3" points="286.8 50.28 286.8 63.79 296.93 63.79 296.93 54.92"/>
  <circle class="cls-3" cx="296.93" cy="53.66" r="1.27"/>
  <rect class="cls-3" x="296.93" y="67.17" width="3.38" height="16.89"/>
  <line class="cls-3" x1="296.93" y1="63.79" x2="296.93" y2="67.17"/>
  <polyline class="cls-3" points="360.58 50.28 367.34 50.28 367.34 63.79"/>
  <line class="cls-3" x1="365.23" y1="77.31" x2="370.72" y2="77.31"/>
  <line class="cls-3" x1="363.96" y1="53.66" x2="363.96" y2="76.04"/>
  <circle class="cls-3" cx="363.96" cy="77.31" r="1.27"/>
  <polyline class="cls-3" points="345.07 50.28 351.83 50.28 351.83 63.79"/>
  <line class="cls-3" x1="355.21" y1="51.54" x2="355.21" y2="73.93"/>
  <path class="cls-3" d="M214.87,40.14c0-.7.57-1.27,1.27-1.27s1.27.57,1.27,1.27-.57,1.27-1.27,1.27-1.27-.57-1.27-1.27"/>
  <polyline class="cls-3" points="216.13 41.41 216.13 60.41 226.27 60.41 212.75 63.79 229.65 63.79 216.13 77.31 216.13 84.06 226.27 84.06"/>
  <circle class="cls-3" cx="46.84" cy="84.06" r="1.27"/>
  <circle class="cls-3" cx="64.35" cy="63.79" r="1.27"/>
  <circle class="cls-3" cx="84.25" cy="84.06" r="1.27"/>
  <circle class="cls-3" cx="201.2" cy="50.28" r="1.27"/>
  <circle class="cls-3" cx="260.12" cy="63.79" r="1.27"/>
  <circle class="cls-3" cx="355.17" cy="50.28" r="1.27"/>
  <polyline class="cls-3" points="319.54 119.49 326.3 119.49 326.3 133.01"/>
  <line class="cls-3" x1="324.18" y1="146.52" x2="329.68" y2="146.52"/>
  <line class="cls-3" x1="322.92" y1="122.87" x2="322.92" y2="145.26"/>
  <circle class="cls-3" cx="322.92" cy="146.52" r="1.27"/>
  <ellipse class="cls-3" cx="398.1" cy="62.1" rx="3.38" ry="11.83"/>
  <line class="cls-3" x1="406.09" y1="63.79" x2="411.61" y2="63.79"/>
  <line class="cls-3" x1="404.85" y1="77.31" x2="404.85" y2="65.06"/>
  <polyline class="cls-3" points="412.61 53.66 422.75 53.66 422.75 70.55"/>
  <line class="cls-3" x1="419.37" y1="53.66" x2="419.37" y2="67.17"/>
  <line class="cls-3" x1="426.12" y1="50.28" x2="426.12" y2="73.93"/>
  <path class="cls-3" d="M441.75,73.93c0-.7.57-1.27,1.27-1.27s1.27.57,1.27,1.27-.57,1.27-1.27,1.27-1.27-.57-1.27-1.27"/>
  <line class="cls-3" x1="422.75" y1="73.93" x2="441.75" y2="73.93"/>
  <polyline class="cls-3" points="422.75 73.93 419.37 73.93 419.37 77.31 453.15 77.31 453.15 73.93 444.28 73.93"/>
  <ellipse class="cls-3" cx="453.46" cy="63.79" rx="5.07" ry="6.76"/>
  <line class="cls-3" x1="461.91" y1="51.54" x2="461.91" y2="70.55"/>
  <line class="cls-3" x1="458.53" y1="63.79" x2="461.91" y2="63.79"/>
  <polyline class="cls-3" points="458.53 67.17 458.53 77.31 465.29 77.31 465.29 70.55"/>
  <line class="cls-3" x1="458.53" y1="73.93" x2="461.91" y2="73.93"/>
  <ellipse class="cls-3" cx="478.8" cy="62.1" rx="3.38" ry="11.83"/>
  <polyline class="cls-3" points="485.56 65.06 485.56 75.05 485.56 84.06"/>
  <polyline class="cls-3" points="276.38 145.76 302.65 119.49 295.89 119.49"/>
  <polyline class="cls-3" points="316.16 119.49 302.65 119.49 316.16 133.01"/>
  <circle class="cls-3" cx="275.54" cy="146.61" r="1.27"/>
  <line class="cls-3" x1="302.65" y1="133.01" x2="319.54" y2="133.01"/>
  <line class="cls-3" x1="316.16" y1="133.01" x2="316.16" y2="146.52"/>
  <polyline class="cls-3" points="356.33 146.52 346.19 146.52 346.19 126.25 359.7 126.25"/>
  <line class="cls-3" x1="349.57" y1="126.25" x2="349.57" y2="141.88"/>
  <polyline class="cls-3" points="352.95 133.01 359.7 133.01 359.7 112.74"/>
  <line class="cls-3" x1="359.7" y1="133.01" x2="359.7" y2="146.52"/>
  <circle class="cls-3" cx="349.57" cy="143.14" r="1.27"/>
  <line class="cls-3" x1="375.49" y1="122.87" x2="380.98" y2="122.87"/>
  <polyline class="cls-3" points="364.08 119.49 364.08 133.01 374.22 133.01 374.22 124.14"/>
  <line class="cls-3" x1="374.22" y1="133.01" x2="374.22" y2="146.52"/>
  <circle class="cls-3" cx="374.22" cy="122.87" r="1.27"/>
  <polyline class="cls-3" points="394.48 119.49 384.34 119.49 384.35 133.01 397.87 133.01"/>
  <line class="cls-3" x1="394.49" y1="133.01" x2="394.46" y2="146.52"/>
  <polyline class="cls-3" points="399.95 146.52 397.84 146.52 391.08 146.52 387.7 146.52"/>
  <ellipse class="cls-3" cx="430.04" cy="126.25" rx="5.07" ry="6.76"/>
  <line class="cls-3" x1="438.49" y1="119.49" x2="424.97" y2="119.49"/>
  <line class="cls-3" x1="430.04" y1="119.49" x2="430.04" y2="112.74"/>
  <line class="cls-3" x1="440.18" y1="136.39" x2="440.18" y2="146.52"/>
  <line class="cls-3" x1="436.8" y1="136.39" x2="443.56" y2="136.39"/>
  <line class="cls-3" x1="436.8" y1="136.39" x2="427.93" y2="136.39"/>
  <circle class="cls-3" cx="426.66" cy="136.39" r="1.27"/>
  <ellipse class="cls-3" cx="452.31" cy="126.25" rx="5.07" ry="6.76"/>
  <line class="cls-3" x1="460.76" y1="119.49" x2="447.24" y2="119.49"/>
  <line class="cls-3" x1="452.31" y1="119.49" x2="452.31" y2="112.74"/>
  <polyline class="cls-3" points="452.31 133.01 452.31 139.77 460.76 139.77 460.76 112.74"/>
  <line class="cls-3" x1="452.31" y1="139.77" x2="450.2" y2="139.77"/>
  <ellipse class="cls-3" cx="472.89" cy="126.25" rx="5.07" ry="6.76"/>
  <line class="cls-3" x1="481.34" y1="119.49" x2="467.83" y2="119.49"/>
  <line class="cls-3" x1="472.89" y1="119.49" x2="472.89" y2="112.74"/>
  <line class="cls-3" x1="482.61" y1="112.74" x2="488.1" y2="112.74"/>
  <circle class="cls-3" cx="481.34" cy="112.74" r="1.27"/>
  <polyline class="cls-3" points="498.2 146.52 477.93 146.52 477.96 143.14 477.96 139.77 481.34 139.77 481.34 114"/>
  <polyline class="cls-3" points="504.08 138.92 530.26 112.74 520.13 112.74"/>
  <circle class="cls-3" cx="503.23" cy="139.77" r="1.27"/>
  <line class="cls-3" x1="537.02" y1="119.49" x2="547.16" y2="119.49"/>
  <polyline class="cls-3" points="543.78 126.25 530.26 112.74 547.16 112.74 547.16 129.63"/>
  <polyline class="cls-3" points="543.78 129.63 550.53 129.63 550.53 139.77 550.53 146.52"/>
  <line class="cls-3" x1="460.76" y1="136.39" x2="460.76" y2="139.77"/>
  <circle class="cls-3" cx="448.93" cy="139.77" r="1.27"/>
  <polyline class="cls-3" points="441.61 97.58 444.99 94.2 468.64 70.55 472.01 73.93"/>
  <circle class="cls-3" cx="404.82" cy="63.79" r="1.27"/>
  <circle class="cls-3" cx="461.88" cy="50.28" r="1.27"/>
  <circle class="cls-3" cx="485.53" cy="63.79" r="1.27"/>
  <circle class="cls-3" cx="401.22" cy="146.52" r="1.27"/>
  <ellipse class="cls-3" cx="602.25" cy="131.32" rx="3.38" ry="11.83"/>
  <polyline class="cls-3" points="609.01 130.9 609.01 143.14 609.01 146.52"/>
  <ellipse class="cls-3" cx="578.6" cy="133.01" rx="5.07" ry="6.76"/>
  <line class="cls-3" x1="587.05" y1="120.76" x2="587.05" y2="139.77"/>
  <line class="cls-3" x1="583.67" y1="133.01" x2="587.05" y2="133.01"/>
  <polyline class="cls-3" points="583.67 136.39 583.67 146.52 590.42 146.52 590.42 139.77"/>
  <line class="cls-3" x1="583.67" y1="143.14" x2="587.05" y2="143.14"/>
  <polyline class="cls-3" points="566.77 166.79 570.15 163.42 593.8 139.77 597.18 143.14"/>
  <line class="cls-3" x1="609.01" y1="133.01" x2="605.63" y2="133.01"/>
  <polyline class="cls-3" points="50.45 215.74 77.47 188.71 90.99 202.22 74.1 202.22"/>
  <line class="cls-3" x1="87.61" y1="202.22" x2="87.61" y2="205.6"/>
  <ellipse class="cls-3" cx="113.57" cy="202.22" rx="5.07" ry="6.76"/>
  <line class="cls-3" x1="122.02" y1="195.47" x2="108.5" y2="195.47"/>
  <line class="cls-3" x1="113.57" y1="195.47" x2="113.57" y2="188.71"/>
  <line class="cls-3" x1="123.28" y1="188.71" x2="128.77" y2="188.71"/>
  <circle class="cls-3" cx="122.02" cy="188.71" r="1.27"/>
  <polyline class="cls-3" points="138.91 222.5 118.64 222.5 118.64 219.12 118.64 215.74 122.02 215.74 122.02 189.98"/>
  <polyline class="cls-3" points="139 214.89 165.18 188.71 155.05 188.71"/>
  <circle class="cls-3" cx="138.15" cy="215.74" r="1.27"/>
  <line class="cls-3" x1="188.83" y1="195.47" x2="182.07" y2="195.47"/>
  <polyline class="cls-3" points="178.7 202.22 165.18 188.71 182.07 188.71 182.07 195.47 182.07 205.6 178.7 205.6 178.79 215.64 192.31 215.64"/>
  <path class="cls-3" d="M239.14,206.87c-.47,5.18-1.72,8.87-3.17,8.87-1.87,0-3.38-6.05-3.38-13.51,0-7.46,1.51-13.51,3.38-13.51s3.38,6.05,3.38,13.51c0,.72-.01,1.42-.04,2.11"/>
  <polyline class="cls-3" points="240.61 205.6 246.1 205.6 246.1 215.74"/>
  <line class="cls-3" x1="246.1" y1="205.6" x2="246.1" y2="198.85"/>
  <circle class="cls-3" cx="239.35" cy="205.6" r="1.27"/>
  <line class="cls-3" x1="249.48" y1="222.5" x2="249.48" y2="198.85"/>
  <rect class="cls-3" x="278.62" y="188.71" width="6.76" height="13.51"/>
  <line class="cls-3" x1="288.75" y1="193.36" x2="288.75" y2="215.74"/>
  <line class="cls-3" x1="290.02" y1="192.09" x2="295.51" y2="192.09"/>
  <circle class="cls-3" cx="288.75" cy="192.09" r="1.27"/>
  <polyline class="cls-3" points="293.73 214.89 319.92 188.71 309.78 188.71"/>
  <circle class="cls-3" cx="292.89" cy="215.74" r="1.27"/>
  <polyline class="cls-3" points="333.43 202.22 319.92 188.71 336.81 188.71 336.81 195.47 336.81 202.22"/>
  <rect class="cls-3" x="341.88" y="188.71" width="6.76" height="13.51"/>
  <polyline class="cls-3" points="352.01 193.36 352.01 208.98 358.77 208.98 358.77 222.5"/>
  <line class="cls-3" x1="353.28" y1="192.09" x2="358.77" y2="192.09"/>
  <circle class="cls-3" cx="352.01" cy="192.09" r="1.27"/>
  <polyline class="cls-3" points="84.23 205.6 90.99 205.6 84.23 208.98 90.99 208.98 84.23 212.36 90.99 212.36 84.23 215.74 90.99 215.74 84.23 220.81 90.99 220.81 84.23 225.87 89.72 225.87"/>
  <circle class="cls-3" cx="587.05" cy="119.49" r="1.27"/>
  <circle class="cls-3" cx="609.01" cy="129.63" r="1.27"/>
  <circle class="cls-3" cx="90.99" cy="225.87" r="1.27"/>
  <line class="cls-3" x1="389.68" y1="202.22" x2="406.58" y2="202.22"/>
  <ellipse class="cls-3" cx="401.51" cy="195.47" rx="5.07" ry="6.76"/>
  <line class="cls-3" x1="403.2" y1="202.22" x2="403.2" y2="205.6"/>
  <ellipse class="cls-3" cx="455.02" cy="195.47" rx="5.07" ry="6.76"/>
  <line class="cls-3" x1="449.95" y1="202.22" x2="460.09" y2="202.22"/>
  <polyline class="cls-3" points="460.09 218.69 460.09 222.5 456.71 222.5 456.71 205.6 460.09 205.6 460.09 216.16"/>
  <circle class="cls-3" cx="460.09" cy="217.43" r="1.27"/>
  <polyline class="cls-3" points="467.47 205.6 477.6 205.6 467.47 208.98 477.6 208.98 467.47 212.36 477.6 212.36 467.47 215.74 477.6 215.74 467.47 222.5 476.34 222.5"/>
  <ellipse class="cls-3" cx="472.54" cy="195.47" rx="5.07" ry="6.76"/>
  <line class="cls-3" x1="467.47" y1="202.22" x2="477.6" y2="202.22"/>
  <path class="cls-3" d="M476.34,222.5c0-.7.57-1.27,1.27-1.27s1.27.57,1.27,1.27-.57,1.27-1.27,1.27-1.27-.57-1.27-1.27"/>
  <line class="cls-3" x1="508.76" y1="192.09" x2="514.25" y2="192.09"/>
  <polyline class="cls-3" points="507.5 193.36 507.5 202.22 497.36 202.22 497.36 188.71 504.12 188.71"/>
  <circle class="cls-3" cx="507.5" cy="192.09" r="1.27"/>
  <rect class="cls-3" x="507.5" y="205.6" width="3.38" height="16.89"/>
  <line class="cls-3" x1="507.5" y1="202.22" x2="507.5" y2="205.6"/>
  <ellipse class="cls-3" cx="522.01" cy="202.22" rx="3.38" ry="13.51"/>
  <line class="cls-3" x1="530.04" y1="202.22" x2="535.53" y2="202.22"/>
  <line class="cls-3" x1="528.77" y1="215.74" x2="528.77" y2="203.49"/>
  <polyline class="cls-3" points="377.01 231.79 403.2 205.6 409.95 212.36"/>
  <path class="cls-3" d="M374.89,232.63c0-.7.57-1.27,1.27-1.27s1.27.57,1.27,1.27-.57,1.27-1.27,1.27-1.27-.57-1.27-1.27"/>
  <circle class="cls-3" cx="528.77" cy="202.22" r="1.27"/>
  <line class="cls-3" x1="111.01" y1="261.3" x2="116.5" y2="261.3"/>
  <polyline class="cls-3" points="99.61 257.93 99.61 271.44 109.74 271.44 109.74 262.57"/>
  <circle class="cls-3" cx="109.74" cy="261.3" r="1.27"/>
  <polyline class="cls-3" points="109.74 271.44 109.74 274.82 106.36 274.82 106.44 291.71 119.96 291.71"/>
  <polyline class="cls-3" points="152.5 291.71 143.63 291.71 143.63 271.44 157.15 271.44"/>
  <polyline class="cls-3" points="150.39 278.2 157.15 278.2 157.15 257.93"/>
  <line class="cls-3" x1="157.15" y1="278.2" x2="157.15" y2="291.71"/>
  <ellipse class="cls-3" cx="210.04" cy="269.75" rx="3.38" ry="11.83"/>
  <polyline class="cls-3" points="216.8 272.71 216.8 284.95 216.8 291.71"/>
  <line class="cls-3" x1="261.99" y1="257.93" x2="267.48" y2="257.93"/>
  <polyline class="cls-3" points="220.18 284.95 247.21 257.93 260.72 271.44 260.72 259.19"/>
  <circle class="cls-3" cx="260.72" cy="257.93" r="1.27"/>
  <ellipse class="cls-3" cx="260.72" cy="278.2" rx="5.07" ry="6.76"/>
  <polyline class="cls-3" points="291.48 284.95 318.51 257.93 332.02 271.44"/>
  <polyline class="cls-3" points="296.55 284.95 322.73 258.77 332.02 268.06"/>
  <line class="cls-3" x1="333.29" y1="257.93" x2="338.78" y2="257.93"/>
  <line class="cls-3" x1="332.02" y1="271.44" x2="332.02" y2="259.19"/>
  <circle class="cls-3" cx="332.02" cy="257.93" r="1.27"/>
  <polyline class="cls-3" points="341.78 274.82 351.91 274.82 341.78 278.2 351.91 278.2 341.78 281.58 351.91 281.58 341.78 284.95 351.91 284.95 341.78 291.71 350.65 291.71"/>
  <ellipse class="cls-3" cx="346.85" cy="264.68" rx="5.07" ry="6.76"/>
  <line class="cls-3" x1="341.78" y1="271.44" x2="351.91" y2="271.44"/>
  <path class="cls-3" d="M350.65,291.71c0-.7.57-1.27,1.27-1.27s1.27.57,1.27,1.27-.57,1.27-1.27,1.27-1.27-.57-1.27-1.27"/>
  <line class="cls-3" x1="348.53" y1="271.44" x2="348.53" y2="274.82"/>
  <ellipse class="cls-3" cx="376.87" cy="264.68" rx="5.07" ry="6.76"/>
  <line class="cls-3" x1="385.32" y1="257.93" x2="371.81" y2="257.93"/>
  <line class="cls-3" x1="376.87" y1="257.93" x2="376.87" y2="251.17"/>
  <circle class="cls-3" cx="385.32" cy="251.17" r="1.27"/>
  <polyline class="cls-3" points="385.32 252.44 385.32 278.2 385.32 281.58"/>
  <path class="cls-3" d="M397.57,281.58c0-.7.57-1.27,1.27-1.27s1.27.57,1.27,1.27-.57,1.27-1.27,1.27-1.27-.57-1.27-1.27"/>
  <line class="cls-3" x1="387.85" y1="281.58" x2="397.57" y2="281.58"/>
  <polyline class="cls-3" points="388.7 281.58 381.94 281.58 381.94 284.95 405.57 284.86 405.59 281.58 400.1 281.58"/>
  <ellipse class="cls-3" cx="410.66" cy="269.75" rx="3.38" ry="11.83"/>
  <polyline class="cls-3" points="417.42 272.71 417.42 284.95 417.42 291.71"/>
  <line class="cls-3" x1="449.02" y1="261.3" x2="454.51" y2="261.3"/>
  <polyline class="cls-3" points="447.76 262.57 447.76 271.44 437.62 271.44 437.62 257.93"/>
  <circle class="cls-3" cx="447.76" cy="261.3" r="1.27"/>
  <rect class="cls-3" x="447.76" y="274.82" width="3.38" height="16.89"/>
  <line class="cls-3" x1="447.76" y1="271.44" x2="447.76" y2="274.82"/>
  <ellipse class="cls-3" cx="463.27" cy="271.44" rx="3.38" ry="13.51"/>
  <line class="cls-3" x1="471.3" y1="271.44" x2="476.79" y2="271.44"/>
  <line class="cls-3" x1="470.03" y1="284.95" x2="470.03" y2="272.71"/>
  <polyline class="cls-3" points="481.41 301.85 508.44 274.82 518.57 284.95"/>
  <polyline class="cls-3" points="486.48 301.85 512.66 275.66 518.57 281.58"/>
  <ellipse class="cls-3" cx="499.99" cy="268.06" rx="5.07" ry="6.76"/>
  <line class="cls-3" x1="508.44" y1="274.82" x2="508.44" y2="255.81"/>
  <polyline class="cls-3" points="554.18 284.12 580.38 257.93 570.24 257.93"/>
  <circle class="cls-3" cx="553.34" cy="284.96" r="1.27"/>
  <polyline class="cls-3" points="593.89 271.44 580.38 257.93 597.27 257.93 597.27 264.68 597.27 271.44"/>
  <polyline class="cls-3" points="633.3 284.95 626.54 284.95 626.54 278.2"/>
  <ellipse class="cls-3" cx="636.68" cy="286.64" rx="3.38" ry="5.07"/>
  <line class="cls-3" x1="629.92" y1="281.58" x2="640.05" y2="281.58"/>
  <line class="cls-3" x1="633.3" y1="281.58" x2="633.3" y2="278.2"/>
  <ellipse class="cls-3" cx="621.47" cy="271.44" rx="5.07" ry="6.76"/>
  <line class="cls-3" x1="629.92" y1="259.19" x2="629.92" y2="278.2"/>
  <line class="cls-3" x1="631.19" y1="257.93" x2="636.68" y2="257.93"/>
  <circle class="cls-3" cx="629.92" cy="257.93" r="1.27"/>
  <ellipse class="cls-3" cx="646.79" cy="271.44" rx="3.38" ry="13.51"/>
  <line class="cls-3" x1="654.82" y1="271.44" x2="660.31" y2="271.44"/>
  <line class="cls-3" x1="653.55" y1="284.95" x2="653.55" y2="272.71"/>
  <circle class="cls-3" cx="153.77" cy="291.71" r="1.27"/>
  <circle class="cls-3" cx="216.8" cy="271.44" r="1.27"/>
  <circle class="cls-3" cx="417.42" cy="271.44" r="1.27"/>
  <circle class="cls-3" cx="470.03" cy="271.44" r="1.27"/>
  <circle class="cls-3" cx="508.44" cy="254.55" r="1.27"/>
  <circle class="cls-3" cx="653.55" cy="271.44" r="1.27"/>
  <path class="cls-1" d="M120.4,65.06s0,8.09-6.73,8.09c-6.73,0-6.73-8.09-6.73-8.09,0,0,0-8.09-6.73-8.09s-6.73,8.09-6.73,8.09"/>
  <path class="cls-1" d="M338.49,63.79s0,8.09-6.73,8.09c-6.73,0-6.73-8.09-6.73-8.09,0,0,0-8.09-6.73-8.09s-6.73,8.09-6.73,8.09"/>
  <path class="cls-1" d="M223.48,202.22s0,8.09-6.73,8.09c-6.73,0-6.73-8.09-6.73-8.09,0,0,0-8.09-6.73-8.09s-6.73,8.09-6.73,8.09"/>
  <line class="cls-1" x1="414.89" y1="202.17" x2="442.27" y2="202.17"/>
  <path class="cls-1" d="M194.35,271.44s0,8.09-6.73,8.09c-6.73,0-6.73-8.09-6.73-8.09,0,0,0-8.09-6.73-8.09s-6.73,8.09-6.73,8.09"/>
  <path class="cls-1" d="M549.71,271.44s0,8.09-6.73,8.09c-6.73,0-6.73-8.09-6.73-8.09,0,0,0-8.09-6.73-8.09s-6.73,8.09-6.73,8.09"/>
  <path class="cls-2" d="M57.29,299.24c.96-.62,2.24-.33,2.86.63.62.96.33,2.24-.63,2.86s-2.24.33-2.86-.63-.33-2.24.63-2.86"/>
  <path class="cls-2" d="M45.68,270.9c.96-.62,2.24-.33,2.86.63s.33,2.24-.63,2.86-2.24.33-2.86-.63-.33-2.24.63-2.86"/>
  <path class="cls-2" d="M41.98,259.56c.96-.62,2.24-.33,2.86.63.62.96.33,2.24-.63,2.86s-2.24.33-2.86-.63-.33-2.24.63-2.86"/>
  <path class="cls-2" d="M37,240.06c.96-.62,2.24-.33,2.86.63s.33,2.24-.63,2.86-2.24.33-2.86-.63-.33-2.24.63-2.86"/>
  <path class="cls-2" d="M32.21,155.74c.96-.62,2.24-.33,2.86.63.62.96.33,2.24-.63,2.86s-2.24.33-2.86-.63-.33-2.24.63-2.86"/>
  <path class="cls-2" d="M35.86,127.88c.96-.62,2.24-.33,2.86.63.62.96.33,2.24-.63,2.86s-2.24.33-2.86-.63c-.62-.96-.33-2.24.63-2.86"/>
  <path class="cls-2" d="M37.93,115.68c.96-.62,2.24-.33,2.86.63.62.96.33,2.24-.63,2.86s-2.24.33-2.86-.63-.33-2.24.63-2.86"/>
  <path class="cls-2" d="M39.5,109.17c.96-.62,2.24-.33,2.86.63s.33,2.24-.63,2.86-2.24.33-2.86-.63-.33-2.24.63-2.86"/>
  <path class="cls-2" d="M68.62,33.22c.96-.62,2.24-.33,2.86.63.62.96.33,2.24-.63,2.86s-2.24.33-2.86-.63-.33-2.24.63-2.86"/>
  <path class="cls-2" d="M87.42,7.19c.96-.62,2.24-.33,2.86.63.62.96.33,2.24-.63,2.86-.96.62-2.24.33-2.86-.63s-.33-2.24.63-2.86"/>
  <path class="cls-2" d="M327.25,6.34c.96-.62,2.24-.33,2.86.63.62.96.33,2.24-.63,2.86s-2.24.33-2.86-.63-.33-2.24.63-2.86"/>
  <path class="cls-2" d="M375.04,37.13c.96-.62,2.24-.33,2.86.63.62.96.33,2.24-.63,2.86s-2.24.33-2.86-.63-.33-2.24.63-2.86"/>
  <path class="cls-2" d="M368.04,31.68c.96-.62,2.24-.33,2.86.63s.33,2.24-.63,2.86-2.24.33-2.86-.63-.33-2.24.63-2.86"/>
  <path class="cls-2" d="M488.38,171.49c.96-.62,2.24-.33,2.86.63.62.96.33,2.24-.63,2.86s-2.24.33-2.86-.63-.33-2.24.63-2.86"/>
  <path class="cls-2" d="M477.76,154.49c.96-.62,2.24-.33,2.86.63.62.96.33,2.24-.63,2.86-.96.62-2.24.33-2.86-.63s-.33-2.24.63-2.86"/>
  <path class="cls-2" d="M544.73,194.81c.96-.62,2.24-.33,2.86.63s.33,2.24-.63,2.86-2.24.33-2.86-.63-.33-2.24.63-2.86"/>
  <path class="cls-2" d="M552.65,189.03c.96-.62,2.24-.33,2.86.63s.33,2.24-.63,2.86c-.96.62-2.24.33-2.86-.63s-.33-2.24.63-2.86"/>
  <path class="cls-2" d="M564.87,173.56c.96-.62,2.24-.33,2.86.63.62.96.33,2.24-.63,2.86s-2.24.33-2.86-.63c-.62-.96-.33-2.24.63-2.86"/>
  <path class="cls-2" d="M579.39,100.95c.96-.62,2.24-.33,2.86.63s.33,2.24-.63,2.86-2.24.33-2.86-.63c-.62-.96-.33-2.24.63-2.86"/>
  <path class="cls-2" d="M579.39,93.76c.96-.62,2.24-.33,2.86.63s.33,2.24-.63,2.86-2.24.33-2.86-.63-.33-2.24.63-2.86"/>
  <path class="cls-2" d="M579.19,106.27c.96-.62,2.24-.33,2.86.63.62.96.33,2.24-.63,2.86s-2.24.33-2.86-.63-.33-2.24.63-2.86"/>
  <path class="cls-2" d="M576.23,61.91c.96-.62,2.24-.33,2.86.63s.33,2.24-.63,2.86-2.24.33-2.86-.63-.33-2.24.63-2.86"/>
  <path class="cls-2" d="M555.97,5.92c.96-.62,2.24-.33,2.86.63s.33,2.24-.63,2.86-2.24.33-2.86-.63-.33-2.24.63-2.86"/>
  <line class="cls-2" x1="43.69" y1="263.28" x2="46.08" y2="270.58"/>
  <path class="cls-2" d="M71.32,325.95l2.13,3.7c.96-.62,2.24-.33,2.86.63.62.96.33,2.24-.63,2.86s-2.24.33-2.86-.63c-.62-.96-.33-2.24.63-2.86"/>
  <path class="cls-2" d="M75.68,333.14l.44.65c.96-.62,2.24-.33,2.86.63.62.96.33,2.24-.63,2.86s-2.24.33-2.86-.63-.33-2.24.63-2.86"/>
  <path class="cls-2" d="M59.25,302.87l10.06,19.48c.96-.62,2.24-.33,2.86.63.62.96.33,2.24-.63,2.86s-2.24.33-2.86-.63c-.62-.96-.33-2.24.63-2.86"/>
  <line class="cls-2" x1="38.54" y1="119.49" x2="37.25" y2="127.56"/>
  <line class="cls-2" x1="370.73" y1="34.75" x2="374.5" y2="37.63"/>
  <path class="cls-2" d="M479.98,157.98l4.25,7.89c.96-.62,2.24-.33,2.86.63s.33,2.24-.63,2.86-2.24.33-2.86-.63c-.62-.96-.33-2.24.63-2.86"/>
  <line class="cls-2" x1="580.51" y1="104.76" x2="580.4" y2="105.87"/>
  <line class="cls-2" x1="580.51" y1="97.58" x2="580.51" y2="100.62"/>
  <line class="cls-2" x1="547.59" y1="195.44" x2="552.02" y2="191.89"/>
</svg>