<?xml version="1.0" encoding="UTF-8"?>
<svg id="_레이어_1" data-name="레이어 1" xmlns="http://www.w3.org/2000/svg" viewBox="0 0 680.31 340.16">
  <defs>
    <style>
      .cls-1 {
        stroke-dasharray: 0 0 3 3;
      }

      .cls-1, .cls-2, .cls-3 {
        fill: none;
        stroke-miterlimit: 10;
      }

      .cls-1, .cls-3 {
        stroke: #000;
        stroke-width: .5px;
      }

      .cls-2 {
        stroke: #040000;
        stroke-linecap: square;
        stroke-width: .25px;
      }

      .cls-4 {
        fill: #fff;
        stroke-width: 0px;
      }
    </style>
  </defs>
  <rect class="cls-4" x="0" width="680.31" height="340.16"/>
  <circle class="cls-3" cx="119.14" cy="77.31" r="1.27"/>
  <line class="cls-3" x1="58.76" y1="50.28" x2="64.25" y2="50.28"/>
  <polyline class="cls-3" points="16.95 77.31 43.98 50.28 57.49 63.79 57.49 51.54"/>
  <circle class="cls-3" cx="57.49" cy="50.28" r="1.27"/>
  <line class="cls-3" x1="106.47" y1="71.39" x2="112.38" y2="77.31"/>
  <polyline class="cls-3" points="105.63 43.52 112.38 43.52 112.38 70.55 106.89 70.55"/>
  <polyline class="cls-3" points="115.76 77.31 115.76 63.79 122.52 63.79"/>
  <circle class="cls-3" cx="105.63" cy="70.55" r="1.27"/>
  <polyline class="cls-3" points="119.98 76.46 146.17 50.28 136.03 50.28"/>
  <polyline class="cls-3" points="163.06 63.79 163.06 50.28 146.17 50.28 159.68 63.79"/>
  <circle class="cls-3" cx="119.14" cy="77.31" r="1.27"/>
  <line class="cls-3" x1="330" y1="70.55" x2="330" y2="77.31"/>
  <polyline class="cls-3" points="374.02 50.28 380.78 50.28 380.78 63.79"/>
  <line class="cls-3" x1="378.67" y1="77.31" x2="384.16" y2="77.31"/>
  <line class="cls-3" x1="377.4" y1="53.66" x2="377.4" y2="76.04"/>
  <polyline class="cls-3" points="380.78 77.31 380.78 84.06 387.54 84.06"/>
  <polyline class="cls-3" points="306.35 50.28 326.63 50.28 326.63 70.55 333.38 70.55"/>
  <line class="cls-3" x1="323.25" y1="50.28" x2="323.25" y2="67.17"/>
  <line class="cls-3" x1="326.63" y1="70.55" x2="317.76" y2="70.55"/>
  <circle class="cls-3" cx="316.49" cy="70.55" r="1.27"/>
  <circle class="cls-3" cx="377.4" cy="77.31" r="1.27"/>
  <polyline class="cls-3" points="243.54 70.57 253.68 70.57 253.68 50.31 250.31 50.31 250.3 66.52 250.31 50.31 243.55 50.31"/>
  <polyline class="cls-3" points="243.54 70.54 253.68 70.54 253.68 50.28 250.31 50.28 250.3 66.49 250.31 50.28 243.55 50.28"/>
  <path class="cls-3" d="M269.3,73.93c0-.7.57-1.27,1.27-1.27s1.27.57,1.27,1.27-.57,1.27-1.27,1.27-1.27-.57-1.27-1.27"/>
  <polyline class="cls-3" points="250.3 70.55 250.3 73.93 269.3 73.93"/>
  <polyline class="cls-3" points="250.3 73.93 243.54 73.93 243.54 77.31 280.7 77.31 280.7 73.93 271.84 73.93"/>
  <polyline class="cls-3" points="284.08 67.17 294.22 67.17 284.08 70.55 294.22 70.55 284.08 73.93 294.22 73.93 284.08 77.31 294.22 77.31 284.08 84.06 292.95 84.06"/>
  <ellipse class="cls-3" cx="289.15" cy="57.03" rx="5.07" ry="6.76"/>
  <line class="cls-3" x1="284.08" y1="63.79" x2="294.22" y2="63.79"/>
  <path class="cls-3" d="M210.62,40.14c0-.7.57-1.27,1.27-1.27s1.27.57,1.27,1.27-.57,1.27-1.27,1.27-1.27-.57-1.27-1.27"/>
  <path class="cls-3" d="M292.95,84.06c0-.7.57-1.27,1.27-1.27s1.27.57,1.27,1.27-.57,1.27-1.27,1.27-1.27-.57-1.27-1.27"/>
  <polyline class="cls-3" points="211.89 41.41 211.89 60.41 222.03 60.41 208.51 63.79 225.4 63.79 211.89 77.31 211.89 84.06 222.03 84.06"/>
  <ellipse class="cls-3" cx="392.6" cy="70.55" rx="5.07" ry="6.76"/>
  <line class="cls-3" x1="401.05" y1="63.79" x2="387.54" y2="63.79"/>
  <line class="cls-3" x1="392.6" y1="63.79" x2="392.6" y2="60.41"/>
  <line class="cls-3" x1="404.43" y1="77.31" x2="404.43" y2="51.54"/>
  <line class="cls-3" x1="401.05" y1="63.79" x2="401.05" y2="84.06"/>
  <path class="cls-3" d="M403.16,50.28c0-.7.57-1.27,1.27-1.27s1.27.57,1.27,1.27-.57,1.27-1.27,1.27-1.27-.57-1.27-1.27"/>
  <line class="cls-3" x1="401.05" y1="73.93" x2="404.43" y2="73.93"/>
  <polyline class="cls-3" points="418.57 77.31 445.6 50.28 459.11 63.79 442.22 63.79"/>
  <line class="cls-3" x1="455.73" y1="63.79" x2="455.73" y2="67.17"/>
  <polyline class="cls-3" points="457 77.31 462.49 77.31 462.49 67.17 455.73 67.17 455.73 76.04"/>
  <polyline class="cls-3" points="501.48 46.9 506.97 46.9 506.97 63.79"/>
  <polyline class="cls-3" points="503.59 50.28 503.59 70.55 510.34 70.55"/>
  <polyline class="cls-3" points="97.72 145.68 123.91 119.49 113.77 119.49"/>
  <polyline class="cls-3" points="137.42 119.49 123.91 119.49 137.42 133.01"/>
  <circle class="cls-3" cx="96.88" cy="146.52" r="1.27"/>
  <line class="cls-3" x1="123.91" y1="119.49" x2="123.91" y2="112.74"/>
  <polyline class="cls-3" points="107.02 160.04 134.04 133.01 123.58 133.01"/>
  <polyline class="cls-3" points="137.42 133.01 134.04 133.01 144.18 143.14"/>
  <polyline class="cls-3" points="137.42 133.01 137.42 122.87 144.18 122.87"/>
  <ellipse class="cls-3" cx="190.06" cy="133.01" rx="3.38" ry="13.51"/>
  <line class="cls-3" x1="198.08" y1="133.01" x2="203.57" y2="133.01"/>
  <line class="cls-3" x1="196.81" y1="146.52" x2="196.81" y2="134.27"/>
  <polyline class="cls-3" points="228.09 146.52 217.95 146.52 217.95 126.25 231.46 126.25"/>
  <line class="cls-3" x1="221.33" y1="126.25" x2="221.33" y2="141.88"/>
  <line class="cls-3" x1="251.25" y1="122.87" x2="256.74" y2="122.87"/>
  <polyline class="cls-3" points="239.84 119.49 239.84 133.01 249.98 133.01 249.98 124.14"/>
  <line class="cls-3" x1="263.96" y1="140.61" x2="269.87" y2="146.52"/>
  <polyline class="cls-3" points="263.11 112.74 269.87 112.74 269.87 139.77 264.38 139.77"/>
  <circle class="cls-3" cx="263.11" cy="139.77" r="1.27"/>
  <line class="cls-3" x1="273.25" y1="133.01" x2="273.25" y2="146.52"/>
  <polyline class="cls-3" points="273.25 143.14 276.63 143.14 276.63 129.63"/>
  <line class="cls-3" x1="276.63" y1="143.14" x2="276.63" y2="146.52"/>
  <polyline class="cls-3" points="224.71 133.01 231.46 133.01 231.46 112.74"/>
  <line class="cls-3" x1="231.46" y1="133.01" x2="231.46" y2="146.52"/>
  <circle class="cls-3" cx="455.73" cy="77.31" r="1.27"/>
  <circle class="cls-3" cx="500.21" cy="46.9" r="1.27"/>
  <circle class="cls-3" cx="221.33" cy="143.14" r="1.27"/>
  <circle class="cls-3" cx="249.98" cy="122.87" r="1.27"/>
  <polyline class="cls-3" points="467.87 67.17 478 67.17 467.87 70.55 478 70.55 467.87 73.93 478 73.93 467.87 77.31 478 77.31 467.87 84.06 476.74 84.06"/>
  <ellipse class="cls-3" cx="472.94" cy="57.03" rx="5.07" ry="6.76"/>
  <line class="cls-3" x1="467.87" y1="63.79" x2="478" y2="63.79"/>
  <path class="cls-3" d="M476.74,84.06c0-.7.57-1.27,1.27-1.27s1.27.57,1.27,1.27-.57,1.27-1.27,1.27-1.27-.57-1.27-1.27"/>
  <polyline class="cls-3" points="517.41 67.17 527.55 67.17 517.41 70.55 527.55 70.55 517.41 73.93 527.55 73.93 517.41 77.31 527.55 77.31 517.41 84.06 526.28 84.06"/>
  <ellipse class="cls-3" cx="522.48" cy="57.03" rx="5.07" ry="6.76"/>
  <line class="cls-3" x1="517.41" y1="63.79" x2="527.55" y2="63.79"/>
  <path class="cls-3" d="M526.28,84.06c0-.7.57-1.27,1.27-1.27s1.27.57,1.27,1.27-.57,1.27-1.27,1.27-1.27-.57-1.27-1.27"/>
  <polyline class="cls-3" points="249.98 133.01 256.74 133.01 249.98 136.39 256.74 136.39 249.98 139.77 256.74 139.77 249.98 143.14 256.74 143.14 249.98 148.21 256.74 148.21 249.98 153.28 256.74 153.28"/>
  <polyline class="cls-3" points="479.94 97.58 506.97 70.55 513.72 77.31"/>
  <circle class="cls-3" cx="196.81" cy="133.01" r="1.27"/>
  <line class="cls-3" x1="333.78" y1="119.49" x2="339.27" y2="119.49"/>
  <polyline class="cls-3" points="291.97 146.52 319 119.49 332.51 133.01 332.51 120.76"/>
  <circle class="cls-3" cx="332.51" cy="119.49" r="1.27"/>
  <ellipse class="cls-3" cx="330.82" cy="138.08" rx="6.76" ry="5.07"/>
  <polyline class="cls-3" points="333.36 145.68 359.54 119.49 349.4 119.49"/>
  <polyline class="cls-3" points="376.43 136.39 376.43 119.49 359.54 119.49 373.05 133.01"/>
  <circle class="cls-3" cx="332.51" cy="146.52" r="1.27"/>
  <line class="cls-3" x1="359.54" y1="119.49" x2="359.54" y2="112.74"/>
  <line class="cls-3" x1="376.43" y1="126.25" x2="369.67" y2="126.25"/>
  <polyline class="cls-3" points="382.81 112.74 382.81 133.01 392.95 133.01 392.95 119.49"/>
  <line class="cls-3" x1="389.57" y1="112.74" x2="389.57" y2="133.01"/>
  <line class="cls-3" x1="383.23" y1="129.63" x2="392.95" y2="129.63"/>
  <polyline class="cls-3" points="384.08 136.39 392.95 136.39 392.95 143.14"/>
  <polyline class="cls-3" points="389.57 139.77 389.57 146.52 396.32 146.52"/>
  <ellipse class="cls-3" cx="443.39" cy="133.01" rx="5.07" ry="6.76"/>
  <line class="cls-3" x1="451.84" y1="143.14" x2="451.84" y2="114"/>
  <polyline class="cls-3" points="445.08 139.34 445.08 146.52 465.35 146.52"/>
  <ellipse class="cls-3" cx="482.37" cy="133.01" rx="3.38" ry="13.51"/>
  <polyline class="cls-3" points="485.75 133.01 492.5 133.01 492.5 129.63"/>
  <line class="cls-3" x1="492.5" y1="133.01" x2="492.5" y2="146.52"/>
  <line class="cls-3" x1="492.5" y1="136.39" x2="490.39" y2="136.39"/>
  <line class="cls-3" x1="502.64" y1="122.87" x2="502.64" y2="133.01"/>
  <circle class="cls-3" cx="382.81" cy="136.39" r="1.27"/>
  <circle class="cls-3" cx="451.84" cy="112.74" r="1.27"/>
  <polyline class="cls-3" points="492.5 119.49 499.26 119.49 499.26 133.01 506.02 133.01 499.26 136.39 506.02 136.39 499.26 139.77 506.02 139.77 499.26 143.14 506.02 143.14 499.26 148.21 506.02 148.21 499.26 153.28 504.75 153.28"/>
  <circle class="cls-3" cx="489.12" cy="136.39" r="1.27"/>
  <circle class="cls-3" cx="506.02" cy="153.28" r="1.27"/>
  <polyline class="cls-3" points="538.33 114 538.33 129.63 538.33 133.01 548.47 133.01 548.47 129.63 548.47 119.49"/>
  <line class="cls-3" x1="551.85" y1="126.25" x2="551.85" y2="122.87"/>
  <polyline class="cls-3" points="551.85 126.25 551.85 129.63 551.85 133.01"/>
  <polyline class="cls-3" points="524.82 160.04 551.85 133.01 558.6 139.77"/>
  <line class="cls-3" x1="551.85" y1="129.63" x2="548.47" y2="129.63"/>
  <line class="cls-3" x1="538.33" y1="129.63" x2="545.09" y2="129.63"/>
  <path class="cls-3" d="M607.31,137.65c-.47,5.18-1.72,8.87-3.17,8.87-1.87,0-3.38-6.05-3.38-13.51,0-7.46,1.51-13.51,3.38-13.51s3.38,6.05,3.38,13.51c0,.72-.01,1.42-.04,2.11"/>
  <polyline class="cls-3" points="608.78 136.39 614.27 136.39 614.27 153.28"/>
  <line class="cls-3" x1="614.27" y1="136.39" x2="614.27" y2="133.01"/>
  <line class="cls-3" x1="631.05" y1="122.87" x2="636.54" y2="122.87"/>
  <polyline class="cls-3" points="619.65 119.49 619.65 133.01 629.78 133.01 629.78 124.14"/>
  <line class="cls-3" x1="629.78" y1="133.01" x2="629.78" y2="146.52"/>
  <polyline class="cls-3" points="55.43 215.74 82.46 188.71 95.98 202.22 79.08 202.22"/>
  <line class="cls-3" x1="92.6" y1="202.22" x2="92.6" y2="205.6"/>
  <polyline class="cls-3" points="90.49 208.98 99.36 208.98 99.36 205.6 89.22 205.6 89.22 207.71"/>
  <polyline class="cls-3" points="130.68 215.74 157.71 188.71 171.22 202.22 154.33 202.22"/>
  <line class="cls-3" x1="167.84" y1="202.22" x2="167.84" y2="205.6"/>
  <line class="cls-3" x1="171.22" y1="202.22" x2="171.22" y2="188.71"/>
  <polyline class="cls-3" points="280.34 229.25 307.37 202.22 317.51 212.36"/>
  <polyline class="cls-3" points="285.41 229.25 311.59 203.07 317.51 208.98"/>
  <ellipse class="cls-3" cx="298.92" cy="195.47" rx="5.07" ry="6.76"/>
  <line class="cls-3" x1="307.37" y1="202.22" x2="307.37" y2="183.22"/>
  <polyline class="cls-3" points="416.36 188.71 416.36 205.6 416.36 208.98 426.5 208.98 426.5 205.6 426.5 195.47"/>
  <line class="cls-3" x1="416.36" y1="205.6" x2="423.12" y2="205.6"/>
  <line class="cls-3" x1="431.14" y1="202.22" x2="436.63" y2="202.22"/>
  <line class="cls-3" x1="429.88" y1="215.74" x2="429.88" y2="203.49"/>
  <line class="cls-3" x1="483.06" y1="209.83" x2="488.97" y2="215.74"/>
  <polyline class="cls-3" points="482.22 181.95 488.97 181.95 488.97 208.98 483.48 208.98"/>
  <polyline class="cls-3" points="492.35 215.74 492.35 202.22 499.11 202.22"/>
  <circle class="cls-3" cx="482.22" cy="208.98" r="1.27"/>
  <polyline class="cls-3" points="502.49 181.95 502.49 212.36 509.24 212.36"/>
  <polyline class="cls-3" points="507.13 205.6 512.62 205.6 512.62 215.74"/>
  <line class="cls-3" x1="516" y1="215.74" x2="516" y2="198.85"/>
  <circle class="cls-3" cx="538.33" cy="112.74" r="1.27"/>
  <circle class="cls-3" cx="629.78" cy="122.87" r="1.27"/>
  <circle class="cls-3" cx="89.22" cy="208.98" r="1.27"/>
  <path class="cls-3" d="M211.16,215.74c0,.7-.56,1.27-1.27,1.27s-1.27-.56-1.27-1.27.56-1.27,1.27-1.27,1.27.56,1.27,1.27ZM250.44,202.22h3.38M243.68,202.22v13.51M210.74,214.89l26.18-26.18,13.51,13.51h-16.89"/>
  <circle class="cls-3" cx="607.51" cy="136.39" r="1.27"/>
  <polyline class="cls-3" points="102.73 205.6 112.87 205.6 102.73 208.98 112.87 208.98 102.73 212.36 112.87 212.36 102.73 215.74 112.87 215.74 102.73 222.5 111.6 222.5"/>
  <ellipse class="cls-3" cx="107.8" cy="195.47" rx="5.07" ry="6.76"/>
  <line class="cls-3" x1="102.73" y1="202.22" x2="112.87" y2="202.22"/>
  <path class="cls-3" d="M111.6,222.5c0-.7.57-1.27,1.27-1.27s1.27.57,1.27,1.27-.57,1.27-1.27,1.27-1.27-.57-1.27-1.27"/>
  <line class="cls-3" x1="365.67" y1="192.09" x2="365.67" y2="202.22"/>
  <polyline class="cls-3" points="355.53 188.71 362.29 188.71 362.29 202.22 369.04 202.22 362.29 205.6 369.04 205.6 362.29 208.98 369.04 208.98 362.29 212.36 369.04 212.36 362.29 217.43 369.04 217.43 362.29 222.5 367.78 222.5"/>
  <polyline class="cls-3" points="164.46 205.6 171.22 205.6 164.46 208.98 171.22 208.98 164.46 212.36 171.22 212.36 164.46 217.43 171.22 217.43 164.46 222.5 169.96 222.5"/>
  <circle class="cls-3" cx="171.22" cy="222.5" r="1.27"/>
  <circle class="cls-3" cx="307.37" cy="181.95" r="1.27"/>
  <circle class="cls-3" cx="369.04" cy="222.5" r="1.27"/>
  <circle class="cls-3" cx="429.88" cy="202.22" r="1.27"/>
  <circle class="cls-3" cx="505.87" cy="205.6" r="1.27"/>
  <line class="cls-3" x1="204.24" y1="257.93" x2="209.74" y2="257.93"/>
  <polyline class="cls-3" points="162.43 284.95 189.46 257.93 202.98 271.44 202.98 259.19"/>
  <circle class="cls-3" cx="202.98" cy="257.93" r="1.27"/>
  <line class="cls-3" x1="217.96" y1="279.04" x2="223.87" y2="284.95"/>
  <polyline class="cls-3" points="217.11 251.17 223.87 251.17 223.87 278.2 218.38 278.2"/>
  <polyline class="cls-3" points="227.25 284.95 227.25 271.44 234.01 271.44"/>
  <circle class="cls-3" cx="217.11" cy="278.2" r="1.27"/>
  <ellipse class="cls-3" cx="230.63" cy="290.45" rx="5.07" ry="6.76"/>
  <ellipse class="cls-3" cx="274.48" cy="271.44" rx="5.07" ry="6.76"/>
  <line class="cls-3" x1="282.93" y1="264.68" x2="269.41" y2="264.68"/>
  <line class="cls-3" x1="274.48" y1="264.68" x2="274.48" y2="257.93"/>
  <line class="cls-3" x1="282.93" y1="259.19" x2="282.93" y2="284.95"/>
  <line class="cls-3" x1="284.2" y1="257.93" x2="289.69" y2="257.93"/>
  <circle class="cls-3" cx="282.93" cy="257.93" r="1.27"/>
  <polyline class="cls-3" points="322.09 284.95 301.82 284.95 301.82 278.2 305.2 278.2 305.2 252.44"/>
  <circle class="cls-3" cx="305.2" cy="251.17" r="1.27"/>
  <rect class="cls-3" x="291.69" y="264.68" width="6.76" height="13.51"/>
  <line class="cls-3" x1="298.44" y1="264.68" x2="305.2" y2="264.68"/>
  <line class="cls-3" x1="305.2" y1="268.06" x2="301.82" y2="268.06"/>
  <line class="cls-3" x1="340.99" y1="257.93" x2="346.48" y2="257.93"/>
  <polyline class="cls-3" points="307.2 284.95 334.23 257.93 347.74 271.44 347.74 259.19"/>
  <circle class="cls-3" cx="347.74" cy="257.93" r="1.27"/>
  <line class="cls-3" x1="419.56" y1="284.95" x2="389.15" y2="284.95"/>
  <line class="cls-3" x1="402.66" y1="281.58" x2="402.66" y2="284.95"/>
  <line class="cls-3" x1="419.56" y1="284.95" x2="419.56" y2="259.19"/>
  <ellipse class="cls-3" cx="402.66" cy="276.51" rx="13.51" ry="5.07"/>
  <polyline class="cls-3" points="425.06 251.17 431.82 251.17 431.69 278.54 424.94 278.54 424.94 281.58 430.43 281.58"/>
  <polyline class="cls-3" points="441.83 284.95 428.31 284.95 428.31 281.58"/>
  <line class="cls-3" x1="445.21" y1="271.44" x2="455.34" y2="271.44"/>
  <path class="cls-3" d="M470.97,281.58c0-.7.57-1.27,1.27-1.27s1.27.57,1.27,1.27-.57,1.27-1.27,1.27-1.27-.57-1.27-1.27"/>
  <polyline class="cls-3" points="451.96 271.44 451.96 281.58 470.97 281.58"/>
  <polyline class="cls-3" points="451.96 281.58 445.21 281.58 445.21 284.95 482.37 284.95 482.37 281.58 473.5 281.58"/>
  <ellipse class="cls-3" cx="450.27" cy="262.99" rx="5.07" ry="8.45"/>
  <ellipse class="cls-3" cx="490.82" cy="262.99" rx="5.07" ry="11.83"/>
  <line class="cls-3" x1="485.75" y1="274.82" x2="495.89" y2="274.82"/>
  <polyline class="cls-3" points="495.89 274.82 485.75 278.2 485.75 284.95 494.62 284.95"/>
  <polyline class="cls-3" points="363.68 257.93 353.54 257.93 353.56 271.44 367.07 271.44"/>
  <line class="cls-3" x1="363.69" y1="271.44" x2="363.66" y2="284.95"/>
  <polyline class="cls-3" points="369.17 284.95 367.04 284.95 360.28 284.95 356.9 284.95"/>
  <polyline class="cls-3" points="240.76 268.06 250.9 268.06 240.76 271.44 250.9 271.44 240.76 274.82 250.9 274.82 240.76 278.2 250.9 278.2 240.76 284.95 249.63 284.95"/>
  <ellipse class="cls-3" cx="245.83" cy="257.93" rx="5.07" ry="6.76"/>
  <line class="cls-3" x1="240.76" y1="264.68" x2="250.9" y2="264.68"/>
  <path class="cls-3" d="M249.63,284.95c0-.7.57-1.27,1.27-1.27s1.27.57,1.27,1.27-.57,1.27-1.27,1.27-1.27-.57-1.27-1.27"/>
  <circle class="cls-3" cx="370.44" cy="284.95" r="1.27"/>
  <circle class="cls-3" cx="419.56" cy="257.93" r="1.27"/>
  <circle class="cls-3" cx="431.69" cy="281.58" r="1.27"/>
  <circle class="cls-3" cx="495.89" cy="284.95" r="1.27"/>
  <polyline class="cls-3" points="509.42 256.66 529.69 256.66 529.69 276.93"/>
  <line class="cls-3" x1="526.32" y1="256.66" x2="526.32" y2="273.55"/>
  <line class="cls-3" x1="520.83" y1="276.93" x2="536.45" y2="276.93"/>
  <polyline class="cls-3" points="533.07 287.07 526.32 287.07 526.32 280.31"/>
  <ellipse class="cls-3" cx="536.45" cy="288.76" rx="3.38" ry="5.07"/>
  <line class="cls-3" x1="529.69" y1="283.69" x2="539.83" y2="283.69"/>
  <line class="cls-3" x1="533.07" y1="283.69" x2="533.07" y2="280.31"/>
  <ellipse class="cls-3" cx="546.9" cy="270.17" rx="5.07" ry="6.76"/>
  <line class="cls-3" x1="555.34" y1="256.66" x2="555.34" y2="280.31"/>
  <path class="cls-3" d="M570.97,280.31c0-.7.57-1.27,1.27-1.27s1.27.57,1.27,1.27-.57,1.27-1.27,1.27-1.27-.57-1.27-1.27"/>
  <line class="cls-3" x1="551.97" y1="280.31" x2="570.97" y2="280.31"/>
  <polyline class="cls-3" points="551.97 280.31 545.21 280.31 545.21 283.69 582.37 283.69 582.37 280.31 573.5 280.31"/>
  <ellipse class="cls-3" cx="587.44" cy="270.17" rx="5.07" ry="6.76"/>
  <line class="cls-3" x1="595.89" y1="257.93" x2="595.89" y2="276.93"/>
  <line class="cls-3" x1="592.51" y1="270.17" x2="595.89" y2="270.17"/>
  <polyline class="cls-3" points="592.51 273.55 592.51 283.69 599.27 283.69 599.27 276.93"/>
  <line class="cls-3" x1="592.51" y1="280.31" x2="595.89" y2="280.31"/>
  <ellipse class="cls-3" cx="612.78" cy="268.48" rx="3.38" ry="11.83"/>
  <polyline class="cls-3" points="619.54 271.44 619.54 283.69 619.54 290.45"/>
  <polyline class="cls-3" points="575.62 303.96 578.99 300.58 602.64 276.93 606.02 280.31"/>
  <circle class="cls-3" cx="519.56" cy="276.93" r="1.27"/>
  <circle class="cls-3" cx="595.89" cy="256.66" r="1.27"/>
  <circle class="cls-3" cx="619.54" cy="270.17" r="1.27"/>
  <path class="cls-1" d="M96.59,63.79s0,8.09-6.73,8.09c-6.73,0-6.73-8.09-6.73-8.09,0,0,0-8.09-6.73-8.09s-6.73,8.09-6.73,8.09"/>
  <path class="cls-1" d="M199.75,63.79s0,8.09-6.73,8.09c-6.73,0-6.73-8.09-6.73-8.09,0,0,0-8.09-6.73-8.09-6.73,0-6.73,8.09-6.73,8.09"/>
  <path class="cls-1" d="M365.67,63.79s0,8.09-6.73,8.09c-6.73,0-6.73-8.09-6.73-8.09,0,0,0-8.09-6.73-8.09s-6.73,8.09-6.73,8.09"/>
  <path class="cls-1" d="M177.49,133.01s0,8.09-6.73,8.09c-6.73,0-6.73-8.09-6.73-8.09,0,0,0-8.09-6.73-8.09s-6.73,8.09-6.73,8.09"/>
  <path class="cls-1" d="M430.28,133.01s0,8.09-6.73,8.09c-6.73,0-6.73-8.09-6.73-8.09,0,0,0-8.09-6.73-8.09s-6.73,8.09-6.73,8.09"/>
  <path class="cls-1" d="M591.76,133.01s0,8.09-6.73,8.09c-6.73,0-6.73-8.09-6.73-8.09,0,0,0-8.09-6.73-8.09s-6.73,8.09-6.73,8.09"/>
  <line class="cls-1" x1="182.74" y1="202.22" x2="210.12" y2="202.22"/>
  <line class="cls-1" x1="260.56" y1="202.22" x2="287.94" y2="202.22"/>
  <line class="cls-1" x1="323.21" y1="202.22" x2="350.59" y2="202.22"/>
  <line class="cls-1" x1="379.43" y1="202.22" x2="406.81" y2="202.22"/>
  <path class="cls-1" d="M470.66,202.22s0,8.09-6.73,8.09c-6.73,0-6.73-8.09-6.73-8.09,0,0,0-8.09-6.73-8.09s-6.73,8.09-6.73,8.09"/>
  <path class="cls-2" d="M7.31,166.84c.88-.73,2.19-.6,2.91.28s.6,2.19-.28,2.91-2.19.6-2.91-.28-.6-2.19.28-2.91"/>
  <path class="cls-2" d="M6.62,174.15c.88-.73,2.19-.6,2.91.28s.6,2.19-.28,2.91-2.19.6-2.91-.28-.6-2.19.28-2.91"/>
  <path class="cls-2" d="M6.09,180.56c.88-.73,2.19-.6,2.91.28s.6,2.19-.28,2.91-2.19.6-2.91-.28-.6-2.19.28-2.91"/>
  <path class="cls-2" d="M5.83,186.58c.88-.73,2.19-.6,2.91.28s.6,2.19-.28,2.91-2.19.6-2.91-.28-.6-2.19.28-2.91"/>
  <path class="cls-2" d="M5.89,191.7c.88-.73,2.19-.6,2.91.28s.6,2.19-.28,2.91-2.19.6-2.91-.28-.6-2.19.28-2.91"/>
  <path class="cls-2" d="M6.13,196.94c.88-.73,2.19-.6,2.91.28s.6,2.19-.28,2.91-2.19.6-2.91-.28-.6-2.19.28-2.91"/>
  <path class="cls-2" d="M10.17,221.41c.88-.73,2.19-.6,2.91.28s.6,2.19-.28,2.91-2.19.6-2.91-.28-.6-2.19.28-2.91"/>
  <path class="cls-2" d="M17.48,241.87c.88-.73,2.19-.6,2.91.28s.6,2.19-.28,2.91-2.19.6-2.91-.28-.6-2.19.28-2.91"/>
  <path class="cls-2" d="M23.08,252.93c.88-.73,2.19-.6,2.91.28s.6,2.19-.28,2.91-2.19.6-2.91-.28-.6-2.19.28-2.91"/>
  <path class="cls-2" d="M26.8,258.99c.88-.73,2.19-.6,2.91.28s.6,2.19-.28,2.91-2.19.6-2.91-.28-.6-2.19.28-2.91"/>
  <path class="cls-2" d="M37.84,275.04c.88-.73,2.18-.62,2.92.26s.62,2.18-.26,2.92-2.18.62-2.92-.26-.62-2.18.26-2.92"/>
  <path class="cls-2" d="M73.14,304.89c.88-.73,2.18-.62,2.92.26s.62,2.18-.26,2.92-2.18.62-2.92-.26-.62-2.18.26-2.92"/>
  <path class="cls-2" d="M79.9,308.88c.88-.73,2.18-.62,2.92.26s.62,2.18-.26,2.92-2.18.62-2.92-.26-.62-2.18.26-2.92"/>
  <path class="cls-2" d="M96.16,316.23c.88-.73,2.18-.62,2.92.26s.62,2.18-.26,2.92-2.18.62-2.92-.26-.62-2.18.26-2.92"/>
  <path class="cls-2" d="M120.7,324.3c.88-.73,2.18-.62,2.92.26s.62,2.18-.26,2.92-2.18.62-2.92-.26-.62-2.18.26-2.92"/>
  <path class="cls-2" d="M127.6,325.75c.88-.73,2.18-.62,2.92.26s.62,2.18-.26,2.92-2.18.62-2.92-.26-.62-2.18.26-2.92"/>
  <path class="cls-2" d="M138.33,327.44c.88-.73,2.18-.62,2.92.26.73.88.62,2.18-.26,2.92s-2.18.62-2.92-.26-.62-2.18.26-2.92"/>
  <path class="cls-2" d="M171.93,328.64c.88-.73,2.18-.62,2.92.26s.62,2.18-.26,2.92-2.18.62-2.92-.26-.62-2.18.26-2.92"/>
  <path class="cls-2" d="M214.6,327.02c.93-.67,2.22-.46,2.89.47.67.93.46,2.22-.47,2.89s-2.22.46-2.89-.47c-.67-.93-.46-2.22.47-2.89"/>
  <path class="cls-2" d="M223.89,325.12c.93-.67,2.22-.46,2.89.47s.46,2.22-.47,2.89-2.22.46-2.89-.47c-.67-.93-.46-2.22.47-2.89"/>
  <path class="cls-2" d="M235.46,320.19c.93-.67,2.22-.46,2.89.47.67.93.46,2.22-.47,2.89s-2.22.46-2.89-.47-.46-2.22.47-2.89"/>
  <path class="cls-2" d="M245.89,314.66c.79-.83,2.1-.86,2.93-.07s.86,2.1.07,2.93-2.1.86-2.93.07-.86-2.1-.07-2.93"/>
  <path class="cls-2" d="M251.65,309.91c.79-.83,2.1-.86,2.93-.07.83.79.86,2.1.07,2.93s-2.1.86-2.93.07-.86-2.1-.07-2.93"/>
  <path class="cls-2" d="M264.16,290.05c.7-.9,2-1.06,2.9-.36s1.06,2,.36,2.9-2,1.06-2.9.36-1.06-2-.36-2.9"/>
  <path class="cls-2" d="M255.75,305.98c.79-.83,2.1-.86,2.93-.07s.86,2.1.07,2.93-2.1.86-2.93.07-.86-2.1-.07-2.93"/>
  <path class="cls-2" d="M258.85,301.58c.79-.83,2.1-.86,2.93-.07s.86,2.1.07,2.93-2.1.86-2.93.07-.86-2.1-.07-2.93"/>
  <path class="cls-2" d="M264.27,248.64c.88-.73,2.18-.62,2.92.26s.62,2.18-.26,2.92-2.18.62-2.92-.26-.62-2.18.26-2.92"/>
  <path class="cls-2" d="M260.71,240.88c.88-.73,2.18-.62,2.92.26s.62,2.18-.26,2.92-2.18.62-2.92-.26-.62-2.18.26-2.92"/>
  <path class="cls-2" d="M254.27,229.32c.88-.73,2.18-.62,2.92.26s.62,2.18-.26,2.92-2.18.62-2.92-.26-.62-2.18.26-2.92"/>
  <path class="cls-2" d="M214.81,170.26c.88-.73,2.18-.62,2.92.26s.62,2.18-.26,2.92-2.18.62-2.92-.26-.62-2.18.26-2.92"/>
  <path class="cls-2" d="M262.21,294.66c.7-.9,2-1.06,2.9-.36s1.06,2,.36,2.9c-.7.9-2,1.06-2.9.36s-1.06-2-.36-2.9"/>
  <path class="cls-2" d="M357.92,179.14c.88-.73,2.18-.62,2.92.26s.62,2.18-.26,2.92-2.18.62-2.92-.26-.62-2.18.26-2.92"/>
  <path class="cls-2" d="M210.63,125.73c.88-.73,2.18-.62,2.92.26.73.88.62,2.18-.26,2.92s-2.18.62-2.92-.26-.62-2.18.26-2.92"/>
  <path class="cls-2" d="M218.97,112.33c.88-.73,2.18-.62,2.92.26s.62,2.18-.26,2.92-2.18.62-2.92-.26-.62-2.18.26-2.92"/>
  <path class="cls-2" d="M394.9,232.02c.98-.59,2.25-.27,2.84.71s.27,2.25-.71,2.84-2.25.27-2.84-.71c-.59-.98-.27-2.25.71-2.84"/>
  <path class="cls-2" d="M239.21,105.07c.88-.73,2.18-.62,2.92.26s.62,2.18-.26,2.92-2.18.62-2.92-.26-.62-2.18.26-2.92"/>
  <line class="cls-2" x1="256.61" y1="232.72" x2="260.99" y2="240.59"/>
  <line class="cls-2" x1="223.07" y1="327.21" x2="217.84" y2="328.28"/>
  <line class="cls-2" x1="7.31" y1="184.23" x2="7.23" y2="186.11"/>
  <line class="cls-2" x1="7.77" y1="177.81" x2="7.57" y2="180.1"/>
  <line class="cls-2" x1="8.42" y1="170.61" x2="8.22" y2="173.7"/>
  <line class="cls-2" x1="19.56" y1="245.39" x2="23.47" y2="252.67"/>
  <line class="cls-2" x1="12.18" y1="224.96" x2="18.1" y2="241.52"/>
  <line class="cls-2" x1="83.11" y1="311.32" x2="95.6" y2="316.97"/>
  <path class="cls-2" d="M248.04,104c.88-.73,2.18-.62,2.92.26s.62,2.18-.26,2.92-2.18.62-2.92-.26-.62-2.18.26-2.92"/>
  <line class="cls-2" x1="242.61" y1="106.14" x2="247.3" y2="105.59"/>
  <path class="cls-2" d="M9.53,152.51c.88-.73,2.18-.62,2.92.26s.62,2.18-.26,2.92-2.18.62-2.92-.26-.62-2.18.26-2.92"/>
  <path class="cls-2" d="M24.84,104.25c.88-.73,2.18-.62,2.92.26s.62,2.18-.26,2.92-2.18.62-2.92-.26-.62-2.18.26-2.92"/>
  <path class="cls-2" d="M78.4,14.1c.88-.73,2.18-.62,2.92.26s.62,2.18-.26,2.92-2.18.62-2.92-.26-.62-2.18.26-2.92"/>
  <path class="cls-2" d="M88.98,4.37c.88-.73,2.18-.62,2.92.26s.62,2.18-.26,2.92-2.18.62-2.92-.26-.62-2.18.26-2.92"/>
  <path class="cls-2" d="M398.38,240.51c.98-.59,2.25-.27,2.84.71.59.98.27,2.25-.71,2.84s-2.25.27-2.84-.71c-.59-.98-.27-2.25.71-2.84"/>
  <path class="cls-2" d="M436.02,320.28c.88-.73,2.18-.62,2.92.26.73.88.62,2.18-.26,2.92s-2.18.62-2.92-.26-.62-2.18.26-2.92"/>
  <path class="cls-2" d="M447.09,333.89c.88-.73,2.18-.62,2.92.26s.62,2.18-.26,2.92-2.18.62-2.92-.26-.62-2.18.26-2.92"/>
  <path class="cls-2" d="M614.21,333.02c.99-.58,2.25-.25,2.83.74s.25,2.25-.74,2.83-2.25.25-2.83-.74c-.58-.99-.25-2.25.74-2.83"/>
  <path class="cls-2" d="M628.62,315.07c1.05-.45,2.27.04,2.71,1.09s-.04,2.27-1.09,2.71-2.27-.04-2.71-1.09.04-2.27,1.09-2.71"/>
  <path class="cls-2" d="M634.41,307.39c1.05-.45,2.27.04,2.71,1.09s-.04,2.27-1.09,2.71-2.27-.04-2.71-1.09.04-2.27,1.09-2.71"/>
  <path class="cls-2" d="M653.67,275.53c1.09-.35,2.25.25,2.6,1.34s-.25,2.25-1.34,2.6-2.25-.25-2.6-1.34.25-2.25,1.34-2.6"/>
  <path class="cls-2" d="M659.16,263.35c1.09-.35,2.25.25,2.6,1.34s-.25,2.25-1.34,2.6-2.25-.25-2.6-1.34c-.35-1.09.25-2.25,1.34-2.6"/>
  <path class="cls-2" d="M651.1,281.03c1.09-.35,2.25.25,2.6,1.34.35,1.09-.25,2.25-1.34,2.6s-2.25-.25-2.6-1.34.25-2.25,1.34-2.6"/>
  <line class="cls-2" x1="396.63" y1="235.86" x2="398.76" y2="240.21"/>
  <line class="cls-2" x1="616.62" y1="333.26" x2="628.22" y2="318.64"/>
  <line class="cls-2" x1="633.94" y1="310.92" x2="630.82" y2="315.44"/>
  <path class="cls-2" d="M674.07,220.61c1.04-.47,2.27,0,2.74,1.04s0,2.27-1.04,2.74-2.27,0-2.74-1.04,0-2.27,1.04-2.74"/>
  <path class="cls-2" d="M293.9,115.75c.96-.62,2.24-.33,2.86.63s.33,2.24-.63,2.86-2.24.33-2.86-.63-.33-2.24.63-2.86"/>
</svg>