<?xml version="1.0" encoding="UTF-8"?>
<svg id="_레이어_1" data-name="레이어 1" xmlns="http://www.w3.org/2000/svg" viewBox="0 0 680.31 340.16">
  <defs>
    <style>
      .cls-1 {
        stroke-dasharray: 0 0 3 3;
      }

      .cls-1, .cls-2, .cls-3 {
        fill: none;
        stroke-miterlimit: 10;
      }

      .cls-1, .cls-3 {
        stroke: #000;
        stroke-width: .5px;
      }

      .cls-2 {
        stroke: #040000;
        stroke-linecap: square;
        stroke-width: .25px;
      }

      .cls-4 {
        fill: #fff;
        stroke-width: 0px;
      }
    </style>
  </defs>
  <rect class="cls-4" width="680.31" height="340.16"/>
  <circle class="cls-3" cx="120.14" cy="77.31" r="1.27"/>
  <line class="cls-3" x1="59.76" y1="50.28" x2="65.25" y2="50.28"/>
  <polyline class="cls-3" points="17.95 77.31 44.98 50.28 58.49 63.79 58.49 51.54"/>
  <circle class="cls-3" cx="58.49" cy="50.28" r="1.27"/>
  <line class="cls-3" x1="107.47" y1="71.39" x2="113.38" y2="77.31"/>
  <polyline class="cls-3" points="106.63 43.52 113.38 43.52 113.38 70.55 107.89 70.55"/>
  <polyline class="cls-3" points="116.76 77.31 116.76 63.79 123.52 63.79"/>
  <circle class="cls-3" cx="106.63" cy="70.55" r="1.27"/>
  <polyline class="cls-3" points="120.98 76.46 147.17 50.28 137.03 50.28"/>
  <polyline class="cls-3" points="164.06 63.79 164.06 50.28 147.17 50.28 160.68 63.79"/>
  <circle class="cls-3" cx="120.14" cy="77.31" r="1.27"/>
  <line class="cls-3" x1="331" y1="70.55" x2="331" y2="77.31"/>
  <polyline class="cls-3" points="375.02 50.28 381.78 50.28 381.78 63.79"/>
  <line class="cls-3" x1="379.67" y1="77.31" x2="385.16" y2="77.31"/>
  <line class="cls-3" x1="378.4" y1="53.66" x2="378.4" y2="76.04"/>
  <polyline class="cls-3" points="381.78 77.31 381.78 84.06 388.54 84.06"/>
  <polyline class="cls-3" points="307.35 50.28 327.63 50.28 327.63 70.55 334.38 70.55"/>
  <line class="cls-3" x1="324.25" y1="50.28" x2="324.25" y2="67.17"/>
  <line class="cls-3" x1="327.63" y1="70.55" x2="318.76" y2="70.55"/>
  <circle class="cls-3" cx="317.49" cy="70.55" r="1.27"/>
  <circle class="cls-3" cx="378.4" cy="77.31" r="1.27"/>
  <polyline class="cls-3" points="244.54 70.57 254.68 70.57 254.68 50.31 251.31 50.31 251.3 66.52 251.31 50.31 244.55 50.31"/>
  <polyline class="cls-3" points="244.54 70.54 254.68 70.54 254.68 50.28 251.31 50.28 251.3 66.49 251.31 50.28 244.55 50.28"/>
  <path class="cls-3" d="M270.3,73.93c0-.7.57-1.27,1.27-1.27s1.27.57,1.27,1.27-.57,1.27-1.27,1.27-1.27-.57-1.27-1.27"/>
  <polyline class="cls-3" points="251.3 70.55 251.3 73.93 270.3 73.93"/>
  <polyline class="cls-3" points="251.3 73.93 244.54 73.93 244.54 77.31 281.7 77.31 281.7 73.93 272.84 73.93"/>
  <polyline class="cls-3" points="285.08 67.17 295.22 67.17 285.08 70.55 295.22 70.55 285.08 73.93 295.22 73.93 285.08 77.31 295.22 77.31 285.08 84.06 293.95 84.06"/>
  <ellipse class="cls-3" cx="290.15" cy="57.03" rx="5.07" ry="6.76"/>
  <line class="cls-3" x1="285.08" y1="63.79" x2="295.22" y2="63.79"/>
  <path class="cls-3" d="M211.62,40.14c0-.7.57-1.27,1.27-1.27s1.27.57,1.27,1.27-.57,1.27-1.27,1.27-1.27-.57-1.27-1.27"/>
  <path class="cls-3" d="M293.95,84.06c0-.7.57-1.27,1.27-1.27s1.27.57,1.27,1.27-.57,1.27-1.27,1.27-1.27-.57-1.27-1.27"/>
  <polyline class="cls-3" points="212.89 41.41 212.89 60.41 223.03 60.41 209.51 63.79 226.4 63.79 212.89 77.31 212.89 84.06 223.03 84.06"/>
  <ellipse class="cls-3" cx="393.6" cy="70.55" rx="5.07" ry="6.76"/>
  <line class="cls-3" x1="402.05" y1="63.79" x2="388.54" y2="63.79"/>
  <line class="cls-3" x1="393.6" y1="63.79" x2="393.6" y2="60.41"/>
  <line class="cls-3" x1="405.43" y1="77.31" x2="405.43" y2="51.54"/>
  <line class="cls-3" x1="402.05" y1="63.79" x2="402.05" y2="84.06"/>
  <path class="cls-3" d="M404.16,50.28c0-.7.57-1.27,1.27-1.27s1.27.57,1.27,1.27-.57,1.27-1.27,1.27-1.27-.57-1.27-1.27"/>
  <line class="cls-3" x1="402.05" y1="73.93" x2="405.43" y2="73.93"/>
  <polyline class="cls-3" points="419.57 77.31 446.6 50.28 460.11 63.79 443.22 63.79"/>
  <line class="cls-3" x1="456.73" y1="63.79" x2="456.73" y2="67.17"/>
  <polyline class="cls-3" points="458 77.31 463.49 77.31 463.49 67.17 456.73 67.17 456.73 76.04"/>
  <polyline class="cls-3" points="502.48 46.9 507.97 46.9 507.97 63.79"/>
  <polyline class="cls-3" points="504.59 50.28 504.59 70.55 511.34 70.55"/>
  <polyline class="cls-3" points="97.72 145.68 123.91 119.49 113.77 119.49"/>
  <polyline class="cls-3" points="137.42 119.49 123.91 119.49 137.42 133.01"/>
  <circle class="cls-3" cx="96.88" cy="146.52" r="1.27"/>
  <line class="cls-3" x1="123.91" y1="119.49" x2="123.91" y2="112.74"/>
  <polyline class="cls-3" points="107.02 160.04 134.04 133.01 123.58 133.01"/>
  <polyline class="cls-3" points="137.42 133.01 134.04 133.01 144.18 143.14"/>
  <polyline class="cls-3" points="137.42 133.01 137.42 122.87 144.18 122.87"/>
  <ellipse class="cls-3" cx="190.06" cy="133.01" rx="3.38" ry="13.51"/>
  <line class="cls-3" x1="198.08" y1="133.01" x2="203.57" y2="133.01"/>
  <line class="cls-3" x1="196.81" y1="146.52" x2="196.81" y2="134.27"/>
  <polyline class="cls-3" points="228.09 146.52 217.95 146.52 217.95 126.25 231.46 126.25"/>
  <line class="cls-3" x1="221.33" y1="126.25" x2="221.33" y2="141.88"/>
  <line class="cls-3" x1="251.25" y1="122.87" x2="256.74" y2="122.87"/>
  <polyline class="cls-3" points="239.84 119.49 239.84 133.01 249.98 133.01 249.98 124.14"/>
  <line class="cls-3" x1="263.96" y1="140.61" x2="269.87" y2="146.52"/>
  <polyline class="cls-3" points="263.11 112.74 269.87 112.74 269.87 139.77 264.38 139.77"/>
  <circle class="cls-3" cx="263.11" cy="139.77" r="1.27"/>
  <line class="cls-3" x1="273.25" y1="133.01" x2="273.25" y2="146.52"/>
  <polyline class="cls-3" points="273.25 143.14 276.63 143.14 276.63 129.63"/>
  <line class="cls-3" x1="276.63" y1="143.14" x2="276.63" y2="146.52"/>
  <polyline class="cls-3" points="224.71 133.01 231.46 133.01 231.46 112.74"/>
  <line class="cls-3" x1="231.46" y1="133.01" x2="231.46" y2="146.52"/>
  <circle class="cls-3" cx="456.73" cy="77.31" r="1.27"/>
  <circle class="cls-3" cx="501.21" cy="46.9" r="1.27"/>
  <circle class="cls-3" cx="221.33" cy="143.14" r="1.27"/>
  <circle class="cls-3" cx="249.98" cy="122.87" r="1.27"/>
  <polyline class="cls-3" points="468.87 67.17 479 67.17 468.87 70.55 479 70.55 468.87 73.93 479 73.93 468.87 77.31 479 77.31 468.87 84.06 477.74 84.06"/>
  <ellipse class="cls-3" cx="473.94" cy="57.03" rx="5.07" ry="6.76"/>
  <line class="cls-3" x1="468.87" y1="63.79" x2="479" y2="63.79"/>
  <path class="cls-3" d="M477.74,84.06c0-.7.57-1.27,1.27-1.27s1.27.57,1.27,1.27-.57,1.27-1.27,1.27-1.27-.57-1.27-1.27"/>
  <polyline class="cls-3" points="518.41 67.17 528.55 67.17 518.41 70.55 528.55 70.55 518.41 73.93 528.55 73.93 518.41 77.31 528.55 77.31 518.41 84.06 527.28 84.06"/>
  <ellipse class="cls-3" cx="523.48" cy="57.03" rx="5.07" ry="6.76"/>
  <line class="cls-3" x1="518.41" y1="63.79" x2="528.55" y2="63.79"/>
  <path class="cls-3" d="M527.28,84.06c0-.7.57-1.27,1.27-1.27s1.27.57,1.27,1.27-.57,1.27-1.27,1.27-1.27-.57-1.27-1.27"/>
  <polyline class="cls-3" points="249.98 133.01 256.74 133.01 249.98 136.39 256.74 136.39 249.98 139.77 256.74 139.77 249.98 143.14 256.74 143.14 249.98 148.21 256.74 148.21 249.98 153.28 256.74 153.28"/>
  <polyline class="cls-3" points="480.94 97.58 507.97 70.55 514.72 77.31"/>
  <circle class="cls-3" cx="196.81" cy="133.01" r="1.27"/>
  <line class="cls-3" x1="333.78" y1="119.49" x2="339.27" y2="119.49"/>
  <polyline class="cls-3" points="291.97 146.52 319 119.49 332.51 133.01 332.51 120.76"/>
  <circle class="cls-3" cx="332.51" cy="119.49" r="1.27"/>
  <ellipse class="cls-3" cx="330.82" cy="138.08" rx="6.76" ry="5.07"/>
  <polyline class="cls-3" points="333.36 145.68 359.54 119.49 349.4 119.49"/>
  <polyline class="cls-3" points="376.43 136.39 376.43 119.49 359.54 119.49 373.05 133.01"/>
  <circle class="cls-3" cx="332.51" cy="146.52" r="1.27"/>
  <line class="cls-3" x1="359.54" y1="119.49" x2="359.54" y2="112.74"/>
  <line class="cls-3" x1="376.43" y1="126.25" x2="369.67" y2="126.25"/>
  <polyline class="cls-3" points="382.81 112.74 382.81 133.01 392.95 133.01 392.95 119.49"/>
  <line class="cls-3" x1="389.57" y1="112.74" x2="389.57" y2="133.01"/>
  <line class="cls-3" x1="383.23" y1="129.63" x2="392.95" y2="129.63"/>
  <polyline class="cls-3" points="384.08 136.39 392.95 136.39 392.95 143.14"/>
  <polyline class="cls-3" points="389.57 139.77 389.57 146.52 396.32 146.52"/>
  <ellipse class="cls-3" cx="443.39" cy="133.01" rx="5.07" ry="6.76"/>
  <line class="cls-3" x1="451.84" y1="143.14" x2="451.84" y2="114"/>
  <polyline class="cls-3" points="445.08 139.34 445.08 146.52 465.35 146.52"/>
  <ellipse class="cls-3" cx="482.37" cy="133.01" rx="3.38" ry="13.51"/>
  <polyline class="cls-3" points="485.75 133.01 492.5 133.01 492.5 129.63"/>
  <line class="cls-3" x1="492.5" y1="133.01" x2="492.5" y2="146.52"/>
  <line class="cls-3" x1="492.5" y1="136.39" x2="490.39" y2="136.39"/>
  <line class="cls-3" x1="502.64" y1="122.87" x2="502.64" y2="133.01"/>
  <circle class="cls-3" cx="382.81" cy="136.39" r="1.27"/>
  <circle class="cls-3" cx="451.84" cy="112.74" r="1.27"/>
  <polyline class="cls-3" points="492.5 119.49 499.26 119.49 499.26 133.01 506.02 133.01 499.26 136.39 506.02 136.39 499.26 139.77 506.02 139.77 499.26 143.14 506.02 143.14 499.26 148.21 506.02 148.21 499.26 153.28 504.75 153.28"/>
  <circle class="cls-3" cx="489.12" cy="136.39" r="1.27"/>
  <circle class="cls-3" cx="506.02" cy="153.28" r="1.27"/>
  <polyline class="cls-3" points="538.33 114 538.33 129.63 538.33 133.01 548.47 133.01 548.47 129.63 548.47 119.49"/>
  <line class="cls-3" x1="551.85" y1="126.25" x2="551.85" y2="122.87"/>
  <polyline class="cls-3" points="551.85 126.25 551.85 129.63 551.85 133.01"/>
  <polyline class="cls-3" points="524.82 160.04 551.85 133.01 558.6 139.77"/>
  <line class="cls-3" x1="551.85" y1="129.63" x2="548.47" y2="129.63"/>
  <line class="cls-3" x1="538.33" y1="129.63" x2="545.09" y2="129.63"/>
  <path class="cls-3" d="M607.31,137.65c-.47,5.18-1.72,8.87-3.17,8.87-1.87,0-3.38-6.05-3.38-13.51,0-7.46,1.51-13.51,3.38-13.51s3.38,6.05,3.38,13.51c0,.72-.01,1.42-.04,2.11"/>
  <polyline class="cls-3" points="608.78 136.39 614.27 136.39 614.27 153.28"/>
  <line class="cls-3" x1="614.27" y1="136.39" x2="614.27" y2="133.01"/>
  <line class="cls-3" x1="631.05" y1="122.87" x2="636.54" y2="122.87"/>
  <polyline class="cls-3" points="619.65 119.49 619.65 133.01 629.78 133.01 629.78 124.14"/>
  <line class="cls-3" x1="629.78" y1="133.01" x2="629.78" y2="146.52"/>
  <polyline class="cls-3" points="55.43 215.74 82.46 188.71 95.98 202.22 79.08 202.22"/>
  <line class="cls-3" x1="92.6" y1="202.22" x2="92.6" y2="205.6"/>
  <polyline class="cls-3" points="90.49 208.98 99.36 208.98 99.36 205.6 89.22 205.6 89.22 207.71"/>
  <polyline class="cls-3" points="130.68 215.74 157.71 188.71 171.22 202.22 154.33 202.22"/>
  <line class="cls-3" x1="167.84" y1="202.22" x2="167.84" y2="205.6"/>
  <line class="cls-3" x1="171.22" y1="202.22" x2="171.22" y2="188.71"/>
  <polyline class="cls-3" points="280.34 229.25 307.37 202.22 317.51 212.36"/>
  <polyline class="cls-3" points="285.41 229.25 311.59 203.07 317.51 208.98"/>
  <ellipse class="cls-3" cx="298.92" cy="195.47" rx="5.07" ry="6.76"/>
  <line class="cls-3" x1="307.37" y1="202.22" x2="307.37" y2="183.22"/>
  <polyline class="cls-3" points="416.36 188.71 416.36 205.6 416.36 208.98 426.5 208.98 426.5 205.6 426.5 195.47"/>
  <line class="cls-3" x1="416.36" y1="205.6" x2="423.12" y2="205.6"/>
  <line class="cls-3" x1="431.14" y1="202.22" x2="436.63" y2="202.22"/>
  <line class="cls-3" x1="429.88" y1="215.74" x2="429.88" y2="203.49"/>
  <line class="cls-3" x1="483.06" y1="209.83" x2="488.97" y2="215.74"/>
  <polyline class="cls-3" points="482.22 181.95 488.97 181.95 488.97 208.98 483.48 208.98"/>
  <polyline class="cls-3" points="492.35 215.74 492.35 202.22 499.11 202.22"/>
  <circle class="cls-3" cx="482.22" cy="208.98" r="1.27"/>
  <polyline class="cls-3" points="502.49 181.95 502.49 212.36 509.24 212.36"/>
  <polyline class="cls-3" points="507.13 205.6 512.62 205.6 512.62 215.74"/>
  <line class="cls-3" x1="516" y1="215.74" x2="516" y2="198.85"/>
  <circle class="cls-3" cx="538.33" cy="112.74" r="1.27"/>
  <circle class="cls-3" cx="629.78" cy="122.87" r="1.27"/>
  <circle class="cls-3" cx="89.22" cy="208.98" r="1.27"/>
  <path class="cls-3" d="M211.16,215.74c0,.7-.56,1.27-1.27,1.27s-1.27-.56-1.27-1.27.56-1.27,1.27-1.27,1.27.56,1.27,1.27ZM250.44,202.22h3.38M243.68,202.22v13.51M210.74,214.89l26.18-26.18,13.51,13.51h-16.89"/>
  <circle class="cls-3" cx="607.51" cy="136.39" r="1.27"/>
  <polyline class="cls-3" points="102.73 205.6 112.87 205.6 102.73 208.98 112.87 208.98 102.73 212.36 112.87 212.36 102.73 215.74 112.87 215.74 102.73 222.5 111.6 222.5"/>
  <ellipse class="cls-3" cx="107.8" cy="195.47" rx="5.07" ry="6.76"/>
  <line class="cls-3" x1="102.73" y1="202.22" x2="112.87" y2="202.22"/>
  <path class="cls-3" d="M111.6,222.5c0-.7.57-1.27,1.27-1.27s1.27.57,1.27,1.27-.57,1.27-1.27,1.27-1.27-.57-1.27-1.27"/>
  <line class="cls-3" x1="365.67" y1="192.09" x2="365.67" y2="202.22"/>
  <polyline class="cls-3" points="355.53 188.71 362.29 188.71 362.29 202.22 369.04 202.22 362.29 205.6 369.04 205.6 362.29 208.98 369.04 208.98 362.29 212.36 369.04 212.36 362.29 217.43 369.04 217.43 362.29 222.5 367.78 222.5"/>
  <polyline class="cls-3" points="164.46 205.6 171.22 205.6 164.46 208.98 171.22 208.98 164.46 212.36 171.22 212.36 164.46 217.43 171.22 217.43 164.46 222.5 169.96 222.5"/>
  <circle class="cls-3" cx="171.22" cy="222.5" r="1.27"/>
  <circle class="cls-3" cx="307.37" cy="181.95" r="1.27"/>
  <circle class="cls-3" cx="369.04" cy="222.5" r="1.27"/>
  <circle class="cls-3" cx="429.88" cy="202.22" r="1.27"/>
  <circle class="cls-3" cx="505.87" cy="205.6" r="1.27"/>
  <path class="cls-1" d="M97.59,63.79s0,8.09-6.73,8.09c-6.73,0-6.73-8.09-6.73-8.09,0,0,0-8.09-6.73-8.09s-6.73,8.09-6.73,8.09"/>
  <path class="cls-1" d="M200.75,63.79s0,8.09-6.73,8.09c-6.73,0-6.73-8.09-6.73-8.09,0,0,0-8.09-6.73-8.09-6.73,0-6.73,8.09-6.73,8.09"/>
  <path class="cls-1" d="M366.67,63.79s0,8.09-6.73,8.09c-6.73,0-6.73-8.09-6.73-8.09,0,0,0-8.09-6.73-8.09s-6.73,8.09-6.73,8.09"/>
  <path class="cls-1" d="M177.49,133.01s0,8.09-6.73,8.09c-6.73,0-6.73-8.09-6.73-8.09,0,0,0-8.09-6.73-8.09s-6.73,8.09-6.73,8.09"/>
  <path class="cls-1" d="M430.28,133.01s0,8.09-6.73,8.09c-6.73,0-6.73-8.09-6.73-8.09,0,0,0-8.09-6.73-8.09s-6.73,8.09-6.73,8.09"/>
  <path class="cls-1" d="M591.76,133.01s0,8.09-6.73,8.09c-6.73,0-6.73-8.09-6.73-8.09,0,0,0-8.09-6.73-8.09s-6.73,8.09-6.73,8.09"/>
  <line class="cls-1" x1="182.74" y1="202.22" x2="210.12" y2="202.22"/>
  <line class="cls-1" x1="260.56" y1="202.22" x2="287.94" y2="202.22"/>
  <line class="cls-1" x1="323.21" y1="202.22" x2="350.59" y2="202.22"/>
  <line class="cls-1" x1="379.43" y1="202.22" x2="406.81" y2="202.22"/>
  <path class="cls-1" d="M470.66,202.22s0,8.09-6.73,8.09c-6.73,0-6.73-8.09-6.73-8.09,0,0,0-8.09-6.73-8.09s-6.73,8.09-6.73,8.09"/>
  <polyline class="cls-3" points="350.13 284.11 376.32 257.93 366.18 257.93"/>
  <polyline class="cls-3" points="389.83 257.93 376.32 257.93 389.83 271.44"/>
  <circle class="cls-3" cx="349.29" cy="284.95" r="1.27"/>
  <line class="cls-3" x1="376.32" y1="257.93" x2="376.32" y2="251.17"/>
  <polyline class="cls-3" points="359.42 298.47 386.45 271.44 375.99 271.44"/>
  <polyline class="cls-3" points="389.83 271.44 386.45 271.44 396.59 281.58"/>
  <polyline class="cls-3" points="389.83 271.44 389.83 261.3 396.59 261.3"/>
  <ellipse class="cls-3" cx="441.34" cy="271.44" rx="3.38" ry="13.51"/>
  <line class="cls-3" x1="449.37" y1="271.44" x2="454.86" y2="271.44"/>
  <line class="cls-3" x1="448.1" y1="284.95" x2="448.1" y2="272.71"/>
  <polyline class="cls-3" points="224.47 274.82 234.61 274.82 224.47 278.2 234.61 278.2 224.47 281.58 234.61 281.58 224.47 284.95 234.61 284.95 224.47 291.71 233.34 291.71"/>
  <ellipse class="cls-3" cx="229.54" cy="264.68" rx="5.07" ry="6.76"/>
  <line class="cls-3" x1="224.47" y1="271.44" x2="234.61" y2="271.44"/>
  <path class="cls-3" d="M233.34,291.71c0-.7.57-1.27,1.27-1.27s1.27.57,1.27,1.27-.57,1.27-1.27,1.27-1.27-.57-1.27-1.27"/>
  <polyline class="cls-3" points="314.02 274.82 324.15 274.82 314.02 278.2 324.15 278.2 314.02 281.58 324.15 281.58 314.02 284.95 324.15 284.95 314.02 291.71 322.88 291.71"/>
  <ellipse class="cls-3" cx="319.08" cy="264.68" rx="5.07" ry="6.76"/>
  <line class="cls-3" x1="314.02" y1="271.44" x2="324.15" y2="271.44"/>
  <path class="cls-3" d="M322.88,291.71c0-.7.57-1.27,1.27-1.27s1.27.57,1.27,1.27-.57,1.27-1.27,1.27-1.27-.57-1.27-1.27"/>
  <line class="cls-3" x1="469.64" y1="261.3" x2="475.13" y2="261.3"/>
  <circle class="cls-3" cx="468.37" cy="261.3" r="1.27"/>
  <polyline class="cls-3" points="454.86 257.93 464.99 257.93 464.99 271.44"/>
  <line class="cls-3" x1="468.37" y1="262.57" x2="468.37" y2="284.95"/>
  <path class="cls-3" d="M479.24,247.79c0-.7.57-1.27,1.27-1.27s1.27.57,1.27,1.27-.57,1.27-1.27,1.27-1.27-.57-1.27-1.27"/>
  <polyline class="cls-3" points="480.51 249.06 480.51 268.06 490.64 268.06 477.13 271.44 494.02 271.44 480.51 284.95 480.51 291.71 490.64 291.71"/>
  <polyline class="cls-3" points="522.54 252.44 522.54 281.58 532.67 281.58"/>
  <line class="cls-3" x1="532.67" y1="268.06" x2="532.67" y2="284.95"/>
  <polyline class="cls-3" points="532.67 271.44 536.05 271.44 536.05 268.06"/>
  <line class="cls-3" x1="536.05" y1="271.44" x2="536.05" y2="284.95"/>
  <polyline class="cls-3" points="584.3 284.11 610.49 257.93 624 271.44 607.11 271.44"/>
  <polyline class="cls-3" points="617.24 274.82 617.24 291.71 623.97 291.71 623.97 278.2"/>
  <line class="cls-3" x1="620.59" y1="284.95" x2="623.97" y2="284.95"/>
  <polyline class="cls-3" points="573.32 272.71 573.32 274.82 573.32 278.2 569.94 278.2 563.19 278.2 563.19 274.82 563.19 257.93 573.32 257.93 573.32 264.68 573.32 270.17"/>
  <polyline class="cls-3" points="569.94 278.2 569.94 284.95 566.57 284.95 580.08 284.95"/>
  <ellipse class="cls-3" cx="632.76" cy="269.75" rx="3.38" ry="11.83"/>
  <polyline class="cls-3" points="639.52 272.71 639.52 284.95 639.52 291.71"/>
  <polyline class="cls-3" points="256.39 254.55 261.88 254.55 261.88 271.44"/>
  <polyline class="cls-3" points="258.5 257.93 258.5 278.2 265.26 278.2"/>
  <circle class="cls-3" cx="255.12" cy="254.55" r="1.27"/>
  <polyline class="cls-3" points="234.85 305.23 261.88 278.2 268.64 284.95"/>
  <circle class="cls-3" cx="448.1" cy="271.44" r="1.27"/>
  <circle class="cls-3" cx="522.54" cy="251.17" r="1.27"/>
  <circle class="cls-3" cx="573.32" cy="271.44" r="1.27"/>
  <circle class="cls-3" cx="583.46" cy="284.95" r="1.27"/>
  <circle class="cls-3" cx="639.52" cy="271.44" r="1.27"/>
  <polyline class="cls-3" points="176.76 284.95 203.79 257.93 217.3 271.44 200.41 271.44"/>
  <line class="cls-3" x1="213.92" y1="271.44" x2="213.92" y2="274.82"/>
  <polyline class="cls-3" points="211.81 278.2 220.68 278.2 220.68 274.82 210.54 274.82 210.54 276.93"/>
  <circle class="cls-3" cx="210.54" cy="278.2" r="1.27"/>
  <line class="cls-1" x1="276.53" y1="271.44" x2="303.91" y2="271.44"/>
  <line class="cls-1" x1="402.59" y1="271.44" x2="429.97" y2="271.44"/>
  <path class="cls-2" d="M660.01,239.14c1.11.26,1.8,1.37,1.54,2.49-.26,1.11-1.37,1.8-2.49,1.54-1.11-.26-1.8-1.37-1.54-2.49.26-1.11,1.37-1.8,2.49-1.54"/>
  <path class="cls-2" d="M651.36,211.01c1.11.26,1.8,1.37,1.54,2.49-.26,1.11-1.37,1.8-2.49,1.54s-1.8-1.37-1.54-2.49,1.37-1.8,2.49-1.54"/>
  <path class="cls-2" d="M647.38,201.81c1.11.26,1.8,1.37,1.54,2.49s-1.37,1.8-2.49,1.54-1.8-1.37-1.54-2.49c.26-1.11,1.37-1.8,2.49-1.54"/>
  <path class="cls-2" d="M644.77,195.96c1.11.26,1.8,1.37,1.54,2.49-.26,1.11-1.37,1.8-2.49,1.54s-1.8-1.37-1.54-2.49,1.37-1.8,2.49-1.54"/>
  <path class="cls-2" d="M642.73,191.64c1.11.26,1.8,1.37,1.54,2.49s-1.37,1.8-2.49,1.54-1.8-1.37-1.54-2.49,1.37-1.8,2.49-1.54"/>
  <path class="cls-2" d="M641.03,187.71c1.11.26,1.8,1.37,1.54,2.49-.26,1.11-1.37,1.8-2.49,1.54s-1.8-1.37-1.54-2.49,1.37-1.8,2.49-1.54"/>
  <path class="cls-2" d="M635.65,177.04c1.11.26,1.8,1.37,1.54,2.49s-1.37,1.8-2.49,1.54-1.8-1.37-1.54-2.49,1.37-1.8,2.49-1.54"/>
  <path class="cls-2" d="M626.5,163.04c1.11.26,1.8,1.37,1.54,2.49-.26,1.11-1.37,1.8-2.49,1.54s-1.8-1.37-1.54-2.49c.26-1.11,1.37-1.8,2.49-1.54"/>
  <path class="cls-2" d="M551.53,95.82c1.14,0,2.07.92,2.08,2.06,0,1.14-.92,2.07-2.06,2.08s-2.07-.92-2.08-2.06.92-2.07,2.06-2.08"/>
  <path class="cls-2" d="M537.05,95.45c1.14,0,2.07.92,2.08,2.06s-.92,2.07-2.06,2.08-2.07-.92-2.08-2.06c0-1.14.92-2.07,2.06-2.08"/>
  <path class="cls-2" d="M530.15,95.87c1.14,0,2.07.92,2.08,2.06s-.92,2.07-2.06,2.08-2.07-.92-2.08-2.06c0-1.14.92-2.07,2.06-2.08"/>
  <path class="cls-2" d="M434.99,153.28c1.14,0,2.07.92,2.08,2.06s-.92,2.07-2.06,2.08-2.07-.92-2.08-2.06c0-1.14.92-2.07,2.06-2.08"/>
  <path class="cls-2" d="M420.63,173.05c1.14,0,2.07.92,2.08,2.06,0,1.14-.92,2.07-2.06,2.08s-2.07-.92-2.08-2.06c0-1.14.92-2.07,2.06-2.08"/>
  <path class="cls-2" d="M412.06,214.18c1.14,0,2.07.92,2.08,2.06s-.92,2.07-2.06,2.08-2.07-.92-2.08-2.06c0-1.14.92-2.07,2.06-2.08"/>
  <path class="cls-2" d="M410.63,226.59c-1.14,0-2.07.93-2.06,2.08,0,.86.53,1.59,1.27,1.9.25.1.52.16.81.16,1.14,0,2.07-.93,2.06-2.08s-.93-2.07-2.08-2.06"/>
  <path class="cls-2" d="M408.92,232.65c1.14,0,2.07.92,2.08,2.06s-.92,2.07-2.06,2.08-2.07-.92-2.08-2.06c0-1.14.92-2.07,2.06-2.08"/>
  <path class="cls-2" d="M325.39,310.08c1.14,0,2.07.92,2.08,2.06,0,1.14-.92,2.07-2.06,2.08s-2.07-.92-2.08-2.06.92-2.07,2.06-2.08"/>
  <path class="cls-2" d="M286.51,319.94c1.14,0,2.07.92,2.08,2.06,0,1.14-.92,2.07-2.06,2.08s-2.07-.92-2.08-2.06.92-2.07,2.06-2.08"/>
  <path class="cls-2" d="M275.96,320.57c1.14,0,2.07.92,2.08,2.06,0,1.14-.92,2.07-2.06,2.08s-2.07-.92-2.08-2.06c0-1.14.92-2.07,2.06-2.08"/>
  <path class="cls-2" d="M269.17,320.98c1.14,0,2.07.92,2.08,2.06,0,1.14-.92,2.07-2.06,2.08s-2.07-.92-2.08-2.06c0-1.14.92-2.07,2.06-2.08"/>
  <path class="cls-2" d="M247.43,319.21c1.14,0,2.07.92,2.08,2.06,0,1.14-.92,2.07-2.06,2.08s-2.07-.92-2.08-2.06.92-2.07,2.06-2.08"/>
  <path class="cls-2" d="M171.6,310.6c1.14,0,2.07.92,2.08,2.06,0,1.14-.92,2.07-2.06,2.08s-2.07-.92-2.08-2.06.92-2.07,2.06-2.08"/>
  <path class="cls-2" d="M150.66,304.05c1.14,0,2.07.92,2.08,2.06,0,1.14-.92,2.07-2.06,2.08s-2.07-.92-2.08-2.06c0-1.14.92-2.07,2.06-2.08"/>
  <path class="cls-2" d="M117.25,289.08c1.14,0,2.07.92,2.08,2.06,0,1.14-.92,2.07-2.06,2.08s-2.07-.92-2.08-2.06c0-1.14.92-2.07,2.06-2.08"/>
  <path class="cls-2" d="M77.04,258.88c1.14,0,2.07.92,2.08,2.06s-.92,2.07-2.06,2.08-2.07-.92-2.08-2.06.92-2.07,2.06-2.08"/>
  <path class="cls-2" d="M67.43,249.3c1.14,0,2.07.92,2.08,2.06,0,1.14-.92,2.07-2.06,2.08s-2.07-.92-2.08-2.06c0-1.14.92-2.07,2.06-2.08"/>
  <path class="cls-2" d="M61.68,242.88c1.14,0,2.07.92,2.08,2.06s-.92,2.07-2.06,2.08-2.07-.92-2.08-2.06c0-1.14.92-2.07,2.06-2.08"/>
  <path class="cls-2" d="M58.41,238.93c1.14,0,2.07.92,2.08,2.06,0,1.14-.92,2.07-2.06,2.08s-2.07-.92-2.08-2.06.92-2.07,2.06-2.08"/>
  <path class="cls-2" d="M632.45,171.27c1.11.26,1.8,1.37,1.54,2.49-.26,1.11-1.37,1.8-2.49,1.54s-1.8-1.37-1.54-2.49c.26-1.11,1.37-1.8,2.49-1.54"/>
  <path class="cls-2" d="M7,122.29c.92-.68,2.22-.48,2.89.44s.48,2.22-.44,2.89-2.22.48-2.89-.44-.48-2.22.44-2.89"/>
  <path class="cls-2" d="M6.52,115.12c.92-.68,2.22-.48,2.89.44s.48,2.22-.44,2.89c-.92.68-2.22.48-2.89-.44s-.48-2.22.44-2.89"/>
  <path class="cls-2" d="M7.67,127.59c.92-.68,2.22-.48,2.89.44s.48,2.22-.44,2.89-2.22.48-2.89-.44-.48-2.22.44-2.89"/>
  <path class="cls-2" d="M11.16,151.08c.92-.68,2.22-.48,2.89.44.68.92.48,2.22-.44,2.89s-2.22.48-2.89-.44-.48-2.22.44-2.89"/>
  <path class="cls-2" d="M13.91,162.38c.92-.68,2.22-.48,2.89.44.68.92.48,2.22-.44,2.89-.92.68-2.22.48-2.89-.44s-.48-2.22.44-2.89"/>
  <path class="cls-2" d="M50.09,230.82c.92-.68,2.22-.48,2.89.44s.48,2.22-.44,2.89-2.22.48-2.89-.44-.48-2.22.44-2.89"/>
  <path class="cls-2" d="M37.94,20.02c.92-.68,2.22-.48,2.89.44.68.92.48,2.22-.44,2.89-.92.68-2.22.48-2.89-.44s-.48-2.22.44-2.89"/>
  <path class="cls-2" d="M24.99,42.02c.92-.68,2.22-.48,2.89.44.68.92.48,2.22-.44,2.89s-2.22.48-2.89-.44-.48-2.22.44-2.89"/>
  <path class="cls-2" d="M21.6,49.89c.92-.68,2.22-.48,2.89.44.68.92.48,2.22-.44,2.89s-2.22.48-2.89-.44-.48-2.22.44-2.89"/>
  <path class="cls-2" d="M18.77,56.83c.92-.68,2.22-.48,2.89.44.68.92.48,2.22-.44,2.89s-2.22.48-2.89-.44-.48-2.22.44-2.89"/>
  <path class="cls-2" d="M569.44,101.84c.92-.68,2.22-.48,2.89.44.68.92.48,2.22-.44,2.89s-2.22.48-2.89-.44c-.68-.92-.48-2.22.44-2.89"/>
  <path class="cls-2" d="M506.84,103.54c.92-.68,2.22-.48,2.89.44s.48,2.22-.44,2.89-2.22.48-2.89-.44-.48-2.22.44-2.89"/>
  <path class="cls-2" d="M22.47,187.1c.92-.68,2.22-.48,2.89.44s.48,2.22-.44,2.89-2.22.48-2.89-.44-.48-2.22.44-2.89"/>
  <path class="cls-2" d="M663.12,310.59c.92-.68,2.22-.48,2.89.44.68.92.48,2.22-.44,2.89s-2.22.48-2.89-.44-.48-2.22.44-2.89"/>
  <line class="cls-2" x1="37.5" y1="22.92" x2="27.15" y2="41.62"/>
  <line class="cls-2" x1="22.07" y1="53.63" x2="20.76" y2="56.58"/>
  <line class="cls-2" x1="8.23" y1="126.03" x2="8.48" y2="127.23"/>
  <line class="cls-2" x1="12.39" y1="154.82" x2="14.46" y2="162.1"/>
  <line class="cls-2" x1="15.64" y1="166.06" x2="22.97" y2="186.7"/>
  <line class="cls-2" x1="59.62" y1="242.69" x2="60.34" y2="243.38"/>
  <line class="cls-2" x1="62.95" y1="246.59" x2="66.05" y2="249.84"/>
  <line class="cls-2" x1="119.02" y1="292.21" x2="148.6" y2="305.12"/>
  <line class="cls-2" x1="249.5" y1="321.27" x2="267.11" y2="323.06"/>
  <line class="cls-2" x1="278.04" y1="322.64" x2="284.45" y2="322.01"/>
  <line class="cls-2" x1="271.25" y1="323.05" x2="273.9" y2="322.65"/>
  <line class="cls-2" x1="410.08" y1="230.67" x2="409.47" y2="232.73"/>
  <line class="cls-2" x1="410.99" y1="226.59" x2="411.76" y2="218.32"/>
  <line class="cls-2" x1="532.22" y1="97.93" x2="534.99" y2="97.53"/>
  <line class="cls-2" x1="539.12" y1="97.52" x2="549.46" y2="97.9"/>
  <line class="cls-2" x1="553.6" y1="97.88" x2="568.59" y2="102.64"/>
  <line class="cls-2" x1="651.65" y1="214.95" x2="658.71" y2="239.09"/>
</svg>