<?xml version="1.0" encoding="UTF-8"?>
<svg id="_레이어_1" data-name="레이어 1" xmlns="http://www.w3.org/2000/svg" viewBox="0 0 680.31 340.16">
  <defs>
    <style>
      .cls-1 {
        stroke-dasharray: 0 0 3 3;
      }

      .cls-1, .cls-2, .cls-3 {
        fill: none;
        stroke-miterlimit: 10;
      }

      .cls-1, .cls-3 {
        stroke: #000;
        stroke-width: .5px;
      }

      .cls-2 {
        stroke: #040000;
        stroke-linecap: square;
        stroke-width: .25px;
      }

      .cls-4 {
        fill: #fff;
        stroke-width: 0px;
      }
    </style>
  </defs>
  <rect class="cls-4" width="680.31" height="340.16"/>
  <line class="cls-3" x1="80.92" y1="50.28" x2="86.41" y2="50.28"/>
  <polyline class="cls-3" points="39.11 77.31 66.14 50.28 79.66 63.79 79.66 51.54"/>
  <circle class="cls-3" cx="79.66" cy="50.28" r="1.27"/>
  <line class="cls-3" x1="90.64" y1="71.39" x2="96.55" y2="77.31"/>
  <polyline class="cls-3" points="89.79 43.52 96.55 43.52 96.55 70.55 91.06 70.55"/>
  <polyline class="cls-3" points="99.93 77.31 99.93 63.79 106.68 63.79"/>
  <circle class="cls-3" cx="89.79" cy="70.55" r="1.27"/>
  <polyline class="cls-3" points="106.15 76.46 132.33 50.28 122.2 50.28"/>
  <polyline class="cls-3" points="149.23 63.79 149.23 50.28 132.33 50.28 145.85 63.79"/>
  <circle class="cls-3" cx="105.31" cy="77.31" r="1.27"/>
  <polyline class="cls-3" points="184.01 84.06 163.74 84.06 163.74 77.31 167.12 77.31 167.12 51.54"/>
  <circle class="cls-3" cx="167.12" cy="50.28" r="1.27"/>
  <rect class="cls-3" x="153.61" y="63.79" width="6.76" height="13.51"/>
  <line class="cls-3" x1="160.36" y1="63.79" x2="167.12" y2="63.79"/>
  <line class="cls-3" x1="167.12" y1="67.17" x2="163.74" y2="67.17"/>
  <polyline class="cls-3" points="230.39 50.28 250.66 50.28 250.66 70.55"/>
  <line class="cls-3" x1="247.29" y1="50.28" x2="247.29" y2="67.17"/>
  <line class="cls-3" x1="241.79" y1="70.55" x2="257.42" y2="70.55"/>
  <polyline class="cls-3" points="254.04 73.93 247.29 73.93 247.29 84.06 257.42 84.06"/>
  <line class="cls-3" x1="247.29" y1="77.31" x2="254.04" y2="77.31"/>
  <ellipse class="cls-3" cx="265.87" cy="70.55" rx="5.07" ry="6.76"/>
  <line class="cls-3" x1="274.31" y1="80.68" x2="274.31" y2="51.54"/>
  <polyline class="cls-3" points="267.56 76.88 267.56 84.06 287.83 84.06"/>
  <circle class="cls-3" cx="274.31" cy="50.28" r="1.27"/>
  <polyline class="cls-3" points="293.45 77.31 320.48 50.28 333.99 63.79 317.1 63.79"/>
  <line class="cls-3" x1="330.61" y1="63.79" x2="330.61" y2="67.17"/>
  <polyline class="cls-3" points="327.24 67.17 333.99 67.17 327.24 70.55 333.99 70.55 327.24 73.93 333.99 73.93 327.24 77.31 333.99 77.31 327.24 82.37 333.99 82.37 327.24 87.44 332.73 87.44"/>
  <polyline class="cls-3" points="310.34 50.28 320.48 50.28 333.99 50.28"/>
  <ellipse class="cls-3" cx="358.95" cy="57.03" rx="5.07" ry="6.76"/>
  <line class="cls-3" x1="367.4" y1="63.79" x2="367.4" y2="44.79"/>
  <line class="cls-3" x1="368.67" y1="43.52" x2="374.16" y2="43.52"/>
  <circle class="cls-3" cx="367.4" cy="43.52" r="1.27"/>
  <polyline class="cls-3" points="364.02 63.79 370.78 63.79 364.02 67.17 370.78 67.17 364.02 70.55 370.78 70.55 364.02 73.93 370.78 73.93 364.02 79 370.78 79 364.02 84.06 370.78 84.06"/>
  <polyline class="cls-3" points="370.78 90.82 397.81 63.79 407.94 73.93"/>
  <polyline class="cls-3" points="375.85 90.82 402.03 64.64 407.94 70.55"/>
  <ellipse class="cls-3" cx="389.36" cy="57.03" rx="5.07" ry="6.76"/>
  <line class="cls-3" x1="397.81" y1="63.79" x2="397.81" y2="44.79"/>
  <line class="cls-3" x1="399.07" y1="43.52" x2="404.56" y2="43.52"/>
  <circle class="cls-3" cx="397.81" cy="43.52" r="1.27"/>
  <path class="cls-3" d="M414.43,40.14c0-.7.57-1.27,1.27-1.27s1.27.57,1.27,1.27-.57,1.27-1.27,1.27-1.27-.57-1.27-1.27"/>
  <polyline class="cls-3" points="415.7 41.41 415.7 60.41 425.84 60.41 412.32 63.79 429.21 63.79 415.7 77.31 415.7 84.06 425.84 84.06"/>
  <polyline class="cls-3" points="443.73 84.06 433.59 84.06 433.59 63.79 447.11 63.79"/>
  <polyline class="cls-3" points="441.62 70.55 447.11 70.55 447.11 50.28"/>
  <line class="cls-3" x1="447.11" y1="70.55" x2="447.11" y2="77.31"/>
  <line class="cls-3" x1="450.49" y1="50.28" x2="450.49" y2="84.06"/>
  <line class="cls-3" x1="26.42" y1="133.01" x2="43.32" y2="133.01"/>
  <ellipse class="cls-3" cx="38.25" cy="126.25" rx="5.07" ry="6.76"/>
  <line class="cls-3" x1="39.94" y1="133.01" x2="39.94" y2="136.39"/>
  <polyline class="cls-3" points="52.07 136.39 62.21 136.39 52.07 139.77 62.21 139.77 52.07 143.14 62.21 143.14 52.07 146.52 62.21 146.52 52.07 153.28 60.94 153.28"/>
  <ellipse class="cls-3" cx="57.14" cy="126.25" rx="5.07" ry="6.76"/>
  <line class="cls-3" x1="52.07" y1="133.01" x2="62.21" y2="133.01"/>
  <path class="cls-3" d="M60.94,153.28c0-.7.57-1.27,1.27-1.27s1.27.57,1.27,1.27-.57,1.27-1.27,1.27-1.27-.57-1.27-1.27"/>
  <polyline class="cls-3" points="13.75 162.57 39.94 136.39 46.69 143.14"/>
  <path class="cls-3" d="M11.64,163.42c0-.7.57-1.27,1.27-1.27s1.27.57,1.27,1.27-.57,1.27-1.27,1.27-1.27-.57-1.27-1.27"/>
  <circle class="cls-3" cx="240.53" cy="70.55" r="1.27"/>
  <circle class="cls-3" cx="333.99" cy="87.44" r="1.27"/>
  <circle class="cls-3" cx="440.35" cy="70.55" r="1.27"/>
  <line class="cls-1" x1="187.04" y1="63.79" x2="214.42" y2="63.79"/>
  <line class="cls-1" x1="463.73" y1="63.79" x2="510.67" y2="63.79"/>
  <polyline class="cls-3" points="83.81 147.16 110.84 120.13 124.36 133.64 107.46 133.64"/>
  <line class="cls-3" x1="120.98" y1="133.64" x2="120.98" y2="137.02"/>
  <polyline class="cls-3" points="117.6 137.02 124.36 137.02 117.6 140.4 124.36 140.4 117.6 143.78 124.36 143.78 117.6 147.16 124.36 147.16 117.6 152.22 124.36 152.22 117.6 157.29 123.09 157.29"/>
  <polyline class="cls-3" points="100.71 120.13 110.84 120.13 124.36 120.13"/>
  <ellipse class="cls-3" cx="149.32" cy="126.88" rx="5.07" ry="6.76"/>
  <line class="cls-3" x1="157.76" y1="133.64" x2="157.76" y2="114.64"/>
  <line class="cls-3" x1="159.03" y1="113.37" x2="164.52" y2="113.37"/>
  <circle class="cls-3" cx="157.76" cy="113.37" r="1.27"/>
  <polyline class="cls-3" points="154.38 133.64 161.14 133.64 154.38 137.02 161.14 137.02 154.38 140.4 161.14 140.4 154.38 143.78 161.14 143.78 154.38 148.85 161.14 148.85 154.38 153.91 161.14 153.91"/>
  <polyline class="cls-3" points="161.14 160.67 188.17 133.64 198.31 143.78"/>
  <polyline class="cls-3" points="166.21 160.67 192.39 134.49 198.31 140.4"/>
  <ellipse class="cls-3" cx="179.72" cy="126.88" rx="5.07" ry="6.76"/>
  <line class="cls-3" x1="188.17" y1="133.64" x2="188.17" y2="114.64"/>
  <line class="cls-3" x1="189.44" y1="113.37" x2="194.93" y2="113.37"/>
  <circle class="cls-3" cx="188.17" cy="113.37" r="1.27"/>
  <path class="cls-3" d="M204.8,109.99c0-.7.57-1.27,1.27-1.27s1.27.57,1.27,1.27-.57,1.27-1.27,1.27-1.27-.57-1.27-1.27"/>
  <polyline class="cls-3" points="206.06 111.26 206.06 130.26 216.2 130.26 202.68 133.64 219.58 133.64 206.06 147.16 206.06 153.91 216.2 153.91"/>
  <polyline class="cls-3" points="234.09 153.91 223.96 153.91 223.96 133.64 237.47 133.64"/>
  <polyline class="cls-3" points="231.98 140.4 237.47 140.4 237.47 120.13"/>
  <line class="cls-3" x1="237.47" y1="140.4" x2="237.47" y2="147.16"/>
  <line class="cls-3" x1="240.85" y1="120.13" x2="240.85" y2="153.91"/>
  <circle class="cls-3" cx="124.36" cy="157.29" r="1.27"/>
  <circle class="cls-3" cx="230.71" cy="140.4" r="1.27"/>
  <line class="cls-1" x1="254.1" y1="133.64" x2="301.03" y2="133.64"/>
  <line class="cls-3" x1="60.98" y1="209.83" x2="66.89" y2="215.74"/>
  <polyline class="cls-3" points="60.14 181.95 66.89 181.95 66.89 208.98 61.4 208.98"/>
  <line class="cls-3" x1="70.27" y1="215.74" x2="70.27" y2="202.22"/>
  <circle class="cls-3" cx="60.14" cy="208.98" r="1.27"/>
  <polyline class="cls-3" points="41.24 183.22 41.24 198.85 41.24 202.22 51.38 202.22 51.38 198.85 51.38 188.71 51.38 185.33"/>
  <line class="cls-3" x1="41.24" y1="198.85" x2="48" y2="198.85"/>
  <polyline class="cls-3" points="54.76 215.74 54.76 195.47 51.38 195.47"/>
  <circle class="cls-3" cx="41.24" cy="181.95" r="1.27"/>
  <line class="cls-3" x1="54.76" y1="195.47" x2="54.76" y2="188.71"/>
  <polyline class="cls-3" points="74.5 214.89 100.68 188.71 90.54 188.71"/>
  <polyline class="cls-3" points="117.57 202.22 117.57 188.71 100.68 188.71 114.19 202.22"/>
  <circle class="cls-3" cx="73.65" cy="215.74" r="1.27"/>
  <polyline class="cls-3" points="145.71 202.22 145.71 208.98 152.46 208.98"/>
  <polyline class="cls-3" points="122.06 236.01 149.09 208.98 155.84 215.74"/>
  <polyline class="cls-3" points="149.09 197.58 149.09 185.33 142.33 185.33 142.33 202.22 149.09 202.22 149.09 200.11"/>
  <line class="cls-3" x1="145.71" y1="208.98" x2="142.33" y2="208.98"/>
  <ellipse class="cls-3" cx="162.91" cy="208.98" rx="5.07" ry="6.76"/>
  <line class="cls-3" x1="171.36" y1="202.22" x2="157.84" y2="202.22"/>
  <line class="cls-3" x1="162.91" y1="202.22" x2="162.91" y2="198.85"/>
  <line class="cls-3" x1="174.74" y1="215.74" x2="174.74" y2="189.98"/>
  <line class="cls-3" x1="171.36" y1="202.22" x2="171.36" y2="222.5"/>
  <line class="cls-3" x1="171.36" y1="212.36" x2="174.74" y2="212.36"/>
  <path class="cls-3" d="M173.47,188.71c0-.7.57-1.27,1.27-1.27s1.27.57,1.27,1.27-.57,1.27-1.27,1.27-1.27-.57-1.27-1.27"/>
  <polyline class="cls-3" points="580.86 202.22 587.62 202.22 580.86 205.6 587.62 205.6 580.86 208.98 587.62 208.98 580.86 212.36 587.62 212.36 580.86 217.43 587.62 217.43 580.86 222.5 587.62 222.5"/>
  <polyline class="cls-3" points="570.72 188.71 580.86 188.71 580.86 198.85"/>
  <polyline class="cls-3" points="580.86 192.09 584.24 192.09 584.24 202.22"/>
  <line class="cls-3" x1="580.86" y1="195.47" x2="584.24" y2="195.47"/>
  <line class="cls-3" x1="584.24" y1="192.09" x2="584.24" y2="189.98"/>
  <line class="cls-3" x1="601.13" y1="208.98" x2="601.13" y2="215.74"/>
  <polyline class="cls-3" points="590.99 188.71 601.13 188.71 601.13 208.98 604.51 208.98"/>
  <line class="cls-3" x1="601.13" y1="208.98" x2="592.26" y2="208.98"/>
  <circle class="cls-3" cx="590.99" cy="208.98" r="1.27"/>
  <polyline class="cls-3" points="597.75 215.74 604.51 215.74 604.51 222.5"/>
  <polyline class="cls-3" points="38.64 284.11 64.82 257.93 54.68 257.93"/>
  <circle class="cls-3" cx="37.79" cy="284.95" r="1.27"/>
  <line class="cls-3" x1="71.58" y1="264.68" x2="81.71" y2="264.68"/>
  <polyline class="cls-3" points="78.33 271.44 64.82 257.93 81.71 257.93 81.71 271.44"/>
  <line class="cls-3" x1="85.09" y1="271.44" x2="85.09" y2="251.17"/>
  <polyline class="cls-3" points="75.8 284.11 101.98 257.93 91.85 257.93"/>
  <circle class="cls-3" cx="74.96" cy="284.95" r="1.27"/>
  <polyline class="cls-3" points="115.5 271.44 101.98 257.93 118.88 257.93 118.88 271.44"/>
  <line class="cls-3" x1="118.88" y1="264.68" x2="125.64" y2="264.68"/>
  <line class="cls-3" x1="129.86" y1="279.04" x2="135.77" y2="284.95"/>
  <polyline class="cls-3" points="129.01 251.17 135.77 251.17 135.77 278.2 130.28 278.2"/>
  <line class="cls-3" x1="139.15" y1="284.95" x2="139.15" y2="271.44"/>
  <circle class="cls-3" cx="129.01" cy="278.2" r="1.27"/>
  <path class="cls-3" d="M254.65,276.09c-.47,5.18-1.72,8.87-3.17,8.87-1.87,0-3.38-6.05-3.38-13.51,0-7.46,1.51-13.51,3.38-13.51s3.38,6.05,3.38,13.51c0,.72-.01,1.42-.04,2.11"/>
  <polyline class="cls-3" points="256.12 274.82 261.61 274.82 261.61 284.95"/>
  <line class="cls-3" x1="261.61" y1="274.82" x2="261.61" y2="268.06"/>
  <circle class="cls-3" cx="254.86" cy="274.82" r="1.27"/>
  <line class="cls-3" x1="264.99" y1="291.71" x2="264.99" y2="268.06"/>
  <line class="cls-3" x1="298.78" y1="257.93" x2="304.27" y2="257.93"/>
  <polyline class="cls-3" points="264.99 284.95 292.02 257.93 305.53 271.44 305.53 259.19"/>
  <circle class="cls-3" cx="305.53" cy="257.93" r="1.27"/>
  <circle class="cls-3" cx="149.09" cy="198.85" r="1.27"/>
  <circle class="cls-3" cx="584.24" cy="188.71" r="1.27"/>
  <line class="cls-1" x1="615.26" y1="202.22" x2="662.19" y2="202.22"/>
  <path class="cls-1" d="M180.51,271.44s0,8.09-6.73,8.09c-6.73,0-6.73-8.09-6.73-8.09,0,0,0-8.09-6.73-8.09s-6.73,8.09-6.73,8.09"/>
  <path class="cls-1" d="M207.42,271.44s0,8.09-6.73,8.09c-6.73,0-6.73-8.09-6.73-8.09,0,0,0-8.09-6.73-8.09s-6.73,8.09-6.73,8.09"/>
  <path class="cls-1" d="M234.32,271.44s0,8.09-6.73,8.09c-6.73,0-6.73-8.09-6.73-8.09,0,0,0-8.09-6.73-8.09s-6.73,8.09-6.73,8.09"/>
  <path class="cls-1" d="M344.87,271.77s0,8.09-6.73,8.09c-6.73,0-6.73-8.09-6.73-8.09,0,0,0-8.09-6.73-8.09s-6.73,8.09-6.73,8.09"/>
  <path class="cls-1" d="M371.77,271.34s0,8.09-6.73,8.09c-6.73,0-6.73-8.09-6.73-8.09,0,0,0-8.09-6.73-8.09s-6.73,8.09-6.73,8.09"/>
  <path class="cls-1" d="M398.67,271.11s0,8.09-6.73,8.09c-6.73,0-6.73-8.09-6.73-8.09,0,0,0-8.09-6.73-8.09s-6.73,8.09-6.73,8.09"/>
  <path class="cls-1" d="M425.58,271.11s0,8.09-6.73,8.09c-6.73,0-6.73-8.09-6.73-8.09,0,0,0-8.09-6.73-8.09s-6.73,8.09-6.73,8.09"/>
  <path class="cls-1" d="M452.48,271.11s0,8.09-6.73,8.09c-6.73,0-6.73-8.09-6.73-8.09,0,0,0-8.09-6.73-8.09s-6.73,8.09-6.73,8.09"/>
  <path class="cls-1" d="M479.38,271.11s0,8.09-6.73,8.09c-6.73,0-6.73-8.09-6.73-8.09,0,0,0-8.09-6.73-8.09s-6.73,8.09-6.73,8.09"/>
  <path class="cls-1" d="M506.31,271.11s0,8.09-6.73,8.09c-6.73,0-6.73-8.09-6.73-8.09,0,0,0-8.09-6.73-8.09s-6.73,8.09-6.73,8.09"/>
  <path class="cls-1" d="M560.86,271.77s0,8.09-6.73,8.09c-6.73,0-6.73-8.09-6.73-8.09,0,0,0-8.09-6.73-8.09s-6.73,8.09-6.73,8.09"/>
  <path class="cls-1" d="M587.78,271.77s0,8.09-6.73,8.09c-6.73,0-6.73-8.09-6.73-8.09,0,0,0-8.09-6.73-8.09s-6.73,8.09-6.73,8.09"/>
  <path class="cls-1" d="M628.21,271.77s0,8.09-6.73,8.09c-6.73,0-6.73-8.09-6.73-8.09,0,0,0-8.09-6.73-8.09s-6.73,8.09-6.73,8.09"/>
  <path class="cls-2" d="M42.82,298.19c.96-.62,2.24-.33,2.86.63.62.96.33,2.24-.63,2.86s-2.24.33-2.86-.63-.33-2.24.63-2.86"/>
  <path class="cls-2" d="M31.22,269.85c.96-.62,2.24-.33,2.86.63.62.96.33,2.24-.63,2.86s-2.24.33-2.86-.63c-.62-.96-.33-2.24.63-2.86"/>
  <path class="cls-2" d="M27.52,258.51c.96-.62,2.24-.33,2.86.63s.33,2.24-.63,2.86c-.96.62-2.24.33-2.86-.63-.62-.96-.33-2.24.63-2.86"/>
  <path class="cls-2" d="M22.54,239.01c.96-.62,2.24-.33,2.86.63.62.96.33,2.24-.63,2.86s-2.24.33-2.86-.63c-.62-.96-.33-2.24.63-2.86"/>
  <path class="cls-2" d="M17.74,146.52c.96-.62,2.24-.33,2.86.63s.33,2.24-.63,2.86-2.24.33-2.86-.63c-.62-.96-.33-2.24.63-2.86"/>
  <path class="cls-2" d="M21.4,126.84c.96-.62,2.24-.33,2.86.63s.33,2.24-.63,2.86-2.24.33-2.86-.63c-.62-.96-.33-2.24.63-2.86"/>
  <path class="cls-2" d="M23.47,114.63c.96-.62,2.24-.33,2.86.63.62.96.33,2.24-.63,2.86s-2.24.33-2.86-.63-.33-2.24.63-2.86"/>
  <path class="cls-2" d="M25.04,108.12c.96-.62,2.24-.33,2.86.63.62.96.33,2.24-.63,2.86s-2.24.33-2.86-.63c-.62-.96-.33-2.24.63-2.86"/>
  <path class="cls-2" d="M54.15,32.17c.96-.62,2.24-.33,2.86.63.62.96.33,2.24-.63,2.86s-2.24.33-2.86-.63c-.62-.96-.33-2.24.63-2.86"/>
  <path class="cls-2" d="M72.96,6.14c.96-.62,2.24-.33,2.86.63s.33,2.24-.63,2.86-2.24.33-2.86-.63c-.62-.96-.33-2.24.63-2.86"/>
  <path class="cls-2" d="M312.79,5.29c.96-.62,2.24-.33,2.86.63.62.96.33,2.24-.63,2.86s-2.24.33-2.86-.63c-.62-.96-.33-2.24.63-2.86"/>
  <path class="cls-2" d="M360.58,36.08c.96-.62,2.24-.33,2.86.63.62.96.33,2.24-.63,2.86s-2.24.33-2.86-.63c-.62-.96-.33-2.24.63-2.86"/>
  <path class="cls-2" d="M353.57,30.63c.96-.62,2.24-.33,2.86.63.62.96.33,2.24-.63,2.86s-2.24.33-2.86-.63c-.62-.96-.33-2.24.63-2.86"/>
  <path class="cls-2" d="M442.81,111.88c-.91.7-2.21.52-2.9-.38s-.52-2.21.38-2.9,2.21-.52,2.9.38.52,2.21-.38,2.9"/>
  <path class="cls-2" d="M454.85,127.92c-.91.7-2.21.52-2.9-.38-.7-.91-.52-2.21.38-2.9.91-.7,2.21-.52,2.9.38s.52,2.21-.38,2.9"/>
  <path class="cls-2" d="M521.07,194.81c.96-.62,2.24-.33,2.86.63.62.96.33,2.24-.63,2.86-.96.62-2.24.33-2.86-.63s-.33-2.24.63-2.86"/>
  <path class="cls-2" d="M531.4,192.94c.96-.62,2.24-.33,2.86.63s.33,2.24-.63,2.86-2.24.33-2.86-.63-.33-2.24.63-2.86"/>
  <path class="cls-2" d="M550.41,172.51c.96-.62,2.24-.33,2.86.63.62.96.33,2.24-.63,2.86-.96.62-2.24.33-2.86-.63s-.33-2.24.63-2.86"/>
  <path class="cls-2" d="M564.93,99.9c.96-.62,2.24-.33,2.86.63s.33,2.24-.63,2.86-2.24.33-2.86-.63-.33-2.24.63-2.86"/>
  <path class="cls-2" d="M564.93,92.71c.96-.62,2.24-.33,2.86.63s.33,2.24-.63,2.86-2.24.33-2.86-.63-.33-2.24.63-2.86"/>
  <path class="cls-2" d="M564.73,105.22c.96-.62,2.24-.33,2.86.63s.33,2.24-.63,2.86-2.24.33-2.86-.63-.33-2.24.63-2.86"/>
  <path class="cls-2" d="M561.76,60.86c.96-.62,2.24-.33,2.86.63s.33,2.24-.63,2.86-2.24.33-2.86-.63-.33-2.24.63-2.86"/>
  <path class="cls-2" d="M541.5,4.87c.96-.62,2.24-.33,2.86.63.62.96.33,2.24-.63,2.86s-2.24.33-2.86-.63c-.62-.96-.33-2.24.63-2.86"/>
  <line class="cls-2" x1="29.23" y1="262.23" x2="31.62" y2="269.53"/>
  <path class="cls-2" d="M56.86,324.9l2.13,3.7c.96-.62,2.24-.33,2.86.63s.33,2.24-.63,2.86-2.24.33-2.86-.63c-.62-.96-.33-2.24.63-2.86"/>
  <path class="cls-2" d="M61.21,332.09l.44.65c.96-.62,2.24-.33,2.86.63.62.96.33,2.24-.63,2.86s-2.24.33-2.86-.63c-.62-.96-.33-2.24.63-2.86"/>
  <path class="cls-2" d="M44.79,301.82l10.06,19.48c.96-.62,2.24-.33,2.86.63.62.96.33,2.24-.63,2.86s-2.24.33-2.86-.63-.33-2.24.63-2.86"/>
  <line class="cls-2" x1="24.08" y1="118.45" x2="22.78" y2="126.51"/>
  <line class="cls-2" x1="356.26" y1="33.7" x2="360.04" y2="36.59"/>
  <path class="cls-2" d="M452.33,124.63l-4.91-7.5c-.91.7-2.21.52-2.9-.38s-.52-2.21.38-2.9,2.21-.52,2.9.38.52,2.21-.38,2.9"/>
  <line class="cls-2" x1="566.04" y1="103.72" x2="565.94" y2="104.82"/>
  <line class="cls-2" x1="566.04" y1="96.53" x2="566.04" y2="99.58"/>
  <path class="cls-2" d="M474.5,162.95c.96-.62,2.24-.33,2.86.63s.33,2.24-.63,2.86-2.24.33-2.86-.63-.33-2.24.63-2.86"/>
</svg>