<?xml version="1.0" encoding="UTF-8"?>
<svg id="_레이어_1" data-name="레이어 1" xmlns="http://www.w3.org/2000/svg" viewBox="0 0 680.31 340.16">
  <defs>
    <style>
      .cls-1 {
        stroke-dasharray: 0 0 3 3;
      }

      .cls-1, .cls-2, .cls-3 {
        fill: none;
        stroke-miterlimit: 10;
      }

      .cls-1, .cls-3 {
        stroke: #000;
        stroke-width: .5px;
      }

      .cls-2 {
        stroke: #040000;
        stroke-linecap: square;
        stroke-width: .25px;
      }

      .cls-4 {
        fill: #fff;
        stroke-width: 0px;
      }
    </style>
  </defs>
  <rect class="cls-4" x="0" width="680.31" height="340.16"/>
  <rect class="cls-3" x="55.75" y="50.28" width="6.76" height="13.51"/>
  <line class="cls-3" x1="65.88" y1="54.92" x2="65.88" y2="77.31"/>
  <line class="cls-3" x1="67.15" y1="53.66" x2="72.64" y2="53.66"/>
  <circle class="cls-3" cx="65.88" cy="53.66" r="1.27"/>
  <polyline class="cls-3" points="71.86 76.46 98.05 50.28 87.91 50.28"/>
  <circle class="cls-3" cx="71.02" cy="77.31" r="1.27"/>
  <polyline class="cls-3" points="111.56 63.79 98.05 50.28 114.94 50.28 114.94 57.03 114.94 63.79"/>
  <rect class="cls-3" x="120.01" y="50.28" width="6.76" height="13.51"/>
  <polyline class="cls-3" points="130.14 54.92 130.14 70.55 136.9 70.55 136.9 84.06"/>
  <line class="cls-3" x1="131.41" y1="53.66" x2="136.9" y2="53.66"/>
  <circle class="cls-3" cx="130.14" cy="53.66" r="1.27"/>
  <polyline class="cls-3" points="185.95 76.46 212.13 50.28 225.65 63.79"/>
  <circle class="cls-3" cx="185.11" cy="77.31" r="1.27"/>
  <line class="cls-3" x1="208.76" y1="63.79" x2="229.03" y2="63.79"/>
  <polyline class="cls-3" points="222.27 63.79 222.27 70.55 222.27 73.93"/>
  <polyline class="cls-3" points="218.89 70.55 218.89 77.31 229.03 77.31"/>
  <line class="cls-3" x1="245.81" y1="53.66" x2="251.3" y2="53.66"/>
  <circle class="cls-3" cx="244.54" cy="53.66" r="1.27"/>
  <polyline class="cls-3" points="244.54 54.92 244.54 63.79 244.54 67.17 241.16 67.17 241.24 84.06 254.76 84.06"/>
  <polyline class="cls-3" points="231.03 50.28 241.16 50.28 241.16 63.79"/>
  <path class="cls-3" d="M266.61,68.44c-.47,5.18-1.72,8.87-3.17,8.87-1.87,0-3.38-6.05-3.38-13.51,0-7.46,1.51-13.51,3.38-13.51s3.38,6.05,3.38,13.51c0,.72-.01,1.42-.04,2.11"/>
  <polyline class="cls-3" points="268.08 67.17 273.57 67.17 273.57 77.31"/>
  <line class="cls-3" x1="273.57" y1="67.17" x2="273.57" y2="60.41"/>
  <circle class="cls-3" cx="266.81" cy="67.17" r="1.27"/>
  <line class="cls-3" x1="276.95" y1="84.06" x2="276.95" y2="60.41"/>
  <polyline class="cls-3" points="301.46 44.79 301.46 60.41 301.46 63.79 311.6 63.79 311.6 60.41 311.6 50.28"/>
  <line class="cls-3" x1="301.46" y1="60.41" x2="308.22" y2="60.41"/>
  <polyline class="cls-3" points="314.98 67.17 314.98 57.03 321.73 57.03"/>
  <polyline class="cls-3" points="311.6 67.17 318.36 67.17 311.6 70.55 318.36 70.55 311.6 73.93 318.36 73.93 311.6 79 318.36 79 311.6 84.06 318.36 84.06"/>
  <polyline class="cls-3" points="321.73 50.28 331.87 50.28 331.87 63.79 338.63 63.79 331.87 67.17 338.63 67.17 331.87 70.55 338.63 70.55 331.87 73.93 338.63 73.93 331.87 79 338.63 79 331.87 84.06 338.63 84.06"/>
  <line class="cls-3" x1="335.25" y1="54.92" x2="335.25" y2="63.79"/>
  <polyline class="cls-3" points="345.01 67.17 355.14 67.17 345.01 70.55 355.14 70.55 345.01 73.93 355.14 73.93 345.01 77.31 355.14 77.31 345.01 84.06 353.87 84.06"/>
  <ellipse class="cls-3" cx="350.07" cy="57.03" rx="5.07" ry="6.76"/>
  <line class="cls-3" x1="345.01" y1="63.79" x2="355.14" y2="63.79"/>
  <path class="cls-3" d="M353.87,84.06c0-.7.57-1.27,1.27-1.27s1.27.57,1.27,1.27-.57,1.27-1.27,1.27-1.27-.57-1.27-1.27"/>
  <polyline class="cls-3" points="391.41 50.28 381.28 50.28 381.28 60.41 394.79 60.41"/>
  <line class="cls-3" x1="391.41" y1="60.41" x2="391.41" y2="63.79"/>
  <line class="cls-3" x1="388.03" y1="63.79" x2="394.79" y2="63.79"/>
  <polyline class="cls-3" points="388.03 67.17 394.79 67.17 388.03 70.55 394.79 70.55 388.03 73.93 394.79 73.93 388.03 79 394.79 79 388.03 84.06 393.52 84.06"/>
  <line class="cls-3" x1="444.02" y1="71.39" x2="449.93" y2="77.31"/>
  <polyline class="cls-3" points="443.17 43.52 449.93 43.52 449.93 70.55 444.44 70.55"/>
  <circle class="cls-3" cx="443.17" cy="70.55" r="1.27"/>
  <polyline class="cls-3" points="449.93 67.17 456.68 67.17 456.68 77.31"/>
  <line class="cls-3" x1="456.68" y1="70.55" x2="453.31" y2="70.55"/>
  <line class="cls-3" x1="456.68" y1="67.17" x2="456.68" y2="63.79"/>
  <rect class="cls-3" x="25.85" y="119.49" width="6.76" height="13.51"/>
  <polyline class="cls-3" points="35.99 133.01 42.75 133.01 35.99 136.39 42.75 136.39 35.99 139.77 42.75 139.77 35.99 143.14 42.75 143.14 35.99 148.21 42.75 148.21 35.99 153.28 41.48 153.28"/>
  <line class="cls-3" x1="35.99" y1="122.87" x2="35.99" y2="133.01"/>
  <line class="cls-3" x1="32.61" y1="129.63" x2="35.99" y2="129.63"/>
  <line class="cls-3" x1="52.99" y1="140.61" x2="58.9" y2="146.52"/>
  <polyline class="cls-3" points="52.14 112.74 58.9 112.74 58.9 139.77 53.41 139.77"/>
  <line class="cls-3" x1="62.28" y1="146.52" x2="62.28" y2="133.01"/>
  <circle class="cls-3" cx="52.14" cy="139.77" r="1.27"/>
  <line class="cls-3" x1="99.44" y1="119.49" x2="104.93" y2="119.49"/>
  <polyline class="cls-3" points="65.66 146.52 92.69 119.49 106.2 133.01 106.2 120.76"/>
  <circle class="cls-3" cx="106.2" cy="119.49" r="1.27"/>
  <line class="cls-3" x1="113.42" y1="140.61" x2="119.34" y2="146.52"/>
  <polyline class="cls-3" points="112.58 112.74 119.34 112.74 119.34 139.77 113.85 139.77"/>
  <polyline class="cls-3" points="122.72 146.52 122.72 133.01 129.47 133.01"/>
  <circle class="cls-3" cx="112.58" cy="139.77" r="1.27"/>
  <polyline class="cls-3" points="142.99 119.49 132.85 119.49 132.86 133.01 146.38 133.01"/>
  <line class="cls-3" x1="143" y1="133.01" x2="142.97" y2="146.52"/>
  <polyline class="cls-3" points="148.46 146.52 146.35 146.52 139.59 146.52 136.21 146.52"/>
  <circle class="cls-3" cx="301.46" cy="43.52" r="1.27"/>
  <polyline class="cls-3" points="184.92 120.76 184.92 136.39 184.92 139.77 191.68 139.77 195.05 139.77 195.05 136.39 195.05 126.25"/>
  <line class="cls-3" x1="184.92" y1="136.39" x2="191.68" y2="136.39"/>
  <polyline class="cls-3" points="191.68 139.77 191.68 146.52 188.3 146.52 201.81 146.52"/>
  <polyline class="cls-3" points="203.81 119.49 210.57 119.49 210.57 133.01"/>
  <line class="cls-3" x1="208.46" y1="146.52" x2="213.95" y2="146.52"/>
  <line class="cls-3" x1="207.19" y1="122.87" x2="207.19" y2="145.26"/>
  <circle class="cls-3" cx="207.19" cy="146.52" r="1.27"/>
  <circle class="cls-3" cx="335.25" cy="53.66" r="1.27"/>
  <circle class="cls-3" cx="394.79" cy="84.06" r="1.27"/>
  <circle class="cls-3" cx="42.75" cy="153.28" r="1.27"/>
  <circle class="cls-3" cx="149.73" cy="146.52" r="1.27"/>
  <circle class="cls-3" cx="184.92" cy="119.49" r="1.27"/>
  <line class="cls-3" x1="251.86" y1="122.87" x2="257.35" y2="122.87"/>
  <polyline class="cls-3" points="240.46 119.49 240.46 133.01 250.6 133.01 250.6 124.14"/>
  <line class="cls-3" x1="250.6" y1="133.01" x2="250.6" y2="146.52"/>
  <circle class="cls-3" cx="250.6" cy="122.87" r="1.27"/>
  <line class="cls-3" x1="287.76" y1="119.49" x2="293.25" y2="119.49"/>
  <polyline class="cls-3" points="253.97 146.52 281 119.49 294.52 133.01 294.52 120.76"/>
  <circle class="cls-3" cx="294.52" cy="119.49" r="1.27"/>
  <ellipse class="cls-3" cx="301.27" cy="133.01" rx="3.38" ry="13.51"/>
  <line class="cls-3" x1="309.3" y1="133.01" x2="314.79" y2="133.01"/>
  <line class="cls-3" x1="308.03" y1="146.52" x2="308.03" y2="134.27"/>
  <polyline class="cls-3" points="308.03 136.39 311.41 136.39 314.79 136.39"/>
  <polyline class="cls-3" points="343.55 114 343.55 143.14 353.68 143.14"/>
  <line class="cls-3" x1="353.68" y1="129.63" x2="353.68" y2="146.52"/>
  <polyline class="cls-3" points="353.68 133.01 357.06 133.01 357.06 129.63"/>
  <line class="cls-3" x1="357.06" y1="133.01" x2="357.06" y2="146.52"/>
  <rect class="cls-3" x="378.51" y="119.49" width="6.76" height="13.51"/>
  <line class="cls-3" x1="388.64" y1="124.14" x2="388.64" y2="146.52"/>
  <line class="cls-3" x1="389.91" y1="122.87" x2="395.4" y2="122.87"/>
  <circle class="cls-3" cx="388.64" cy="122.87" r="1.27"/>
  <ellipse class="cls-3" cx="404.3" cy="126.13" rx="5.07" ry="6.76"/>
  <line class="cls-3" x1="399.23" y1="132.89" x2="409.37" y2="132.89"/>
  <polyline class="cls-3" points="409.37 149.36 409.37 153.16 405.99 153.16 405.99 136.27 409.37 136.27 409.37 146.82"/>
  <circle class="cls-3" cx="409.37" cy="148.09" r="1.27"/>
  <ellipse class="cls-3" cx="419.98" cy="131.32" rx="3.38" ry="11.83"/>
  <polyline class="cls-3" points="426.74 134.27 426.74 146.52 426.74 153.28"/>
  <circle class="cls-3" cx="308.03" cy="133.01" r="1.27"/>
  <circle class="cls-3" cx="343.55" cy="112.74" r="1.27"/>
  <circle class="cls-3" cx="426.74" cy="133.01" r="1.27"/>
  <polyline class="cls-3" points="462.36 153.28 452.23 153.28 452.23 133.01 465.74 133.01"/>
  <line class="cls-3" x1="455.61" y1="133.01" x2="455.61" y2="148.63"/>
  <polyline class="cls-3" points="458.98 139.77 465.74 139.77 465.74 119.49"/>
  <line class="cls-3" x1="465.74" y1="139.77" x2="465.74" y2="153.28"/>
  <circle class="cls-3" cx="455.61" cy="149.9" r="1.27"/>
  <line class="cls-3" x1="482.52" y1="122.87" x2="488.01" y2="122.87"/>
  <polyline class="cls-3" points="471.12 119.49 471.12 133.01 481.26 133.01 481.26 124.14"/>
  <circle class="cls-3" cx="481.26" cy="122.87" r="1.27"/>
  <polyline class="cls-3" points="481.26 133.01 481.26 136.39 477.88 136.39 477.96 153.28 491.47 153.28"/>
  <path class="cls-3" d="M570.59,137.65c-.47,5.18-1.72,8.87-3.17,8.87-1.87,0-3.38-6.05-3.38-13.51,0-7.46,1.51-13.51,3.38-13.51s3.38,6.05,3.38,13.51c0,.72-.01,1.42-.04,2.11"/>
  <polyline class="cls-3" points="572.07 136.39 577.56 136.39 577.56 146.52"/>
  <line class="cls-3" x1="577.56" y1="136.39" x2="577.56" y2="129.63"/>
  <circle class="cls-3" cx="570.8" cy="136.39" r="1.27"/>
  <line class="cls-3" x1="580.93" y1="153.28" x2="580.93" y2="129.63"/>
  <polyline class="cls-3" points="519.28 126.25 509.15 126.25 509.15 136.39 522.66 136.39"/>
  <polyline class="cls-3" points="519.31 139.84 519.31 143.22 519.28 153.28"/>
  <polyline class="cls-3" points="510.42 139.77 522.69 139.84 522.69 126.33"/>
  <line class="cls-3" x1="522.69" y1="139.84" x2="522.66" y2="153.28"/>
  <circle class="cls-3" cx="509.15" cy="139.77" r="1.27"/>
  <line class="cls-3" x1="112.32" y1="260.93" x2="117.81" y2="260.93"/>
  <polyline class="cls-3" points="100.91 257.55 100.91 271.06 111.05 271.06 111.05 262.19"/>
  <circle class="cls-3" cx="111.05" cy="260.93" r="1.27"/>
  <polyline class="cls-3" points="111.05 271.06 111.05 274.44 107.67 274.44 107.75 291.33 121.26 291.33"/>
  <polyline class="cls-3" points="153.81 291.33 144.94 291.33 144.94 271.06 158.46 271.06"/>
  <polyline class="cls-3" points="151.7 277.82 158.46 277.82 158.46 257.55"/>
  <line class="cls-3" x1="158.46" y1="277.82" x2="158.46" y2="291.33"/>
  <ellipse class="cls-3" cx="211.35" cy="269.37" rx="3.38" ry="11.83"/>
  <polyline class="cls-3" points="218.11 272.33 218.11 284.58 218.11 291.33"/>
  <line class="cls-3" x1="263.29" y1="257.55" x2="268.78" y2="257.55"/>
  <polyline class="cls-3" points="221.48 284.58 248.51 257.55 262.03 271.06 262.03 258.82"/>
  <circle class="cls-3" cx="262.03" cy="257.55" r="1.27"/>
  <ellipse class="cls-3" cx="262.03" cy="277.82" rx="5.07" ry="6.76"/>
  <polyline class="cls-3" points="292.78 284.58 319.81 257.55 333.33 271.06"/>
  <polyline class="cls-3" points="297.86 284.58 324.04 258.39 333.33 267.68"/>
  <line class="cls-3" x1="334.59" y1="257.55" x2="340.09" y2="257.55"/>
  <line class="cls-3" x1="333.33" y1="271.06" x2="333.33" y2="258.82"/>
  <circle class="cls-3" cx="333.33" cy="257.55" r="1.27"/>
  <polyline class="cls-3" points="343.09 274.44 353.22 274.44 343.09 277.82 353.22 277.82 343.09 281.2 353.22 281.2 343.09 284.58 353.22 284.58 343.09 291.33 351.95 291.33"/>
  <ellipse class="cls-3" cx="348.15" cy="264.31" rx="5.07" ry="6.76"/>
  <line class="cls-3" x1="343.09" y1="271.06" x2="353.22" y2="271.06"/>
  <path class="cls-3" d="M351.95,291.33c0-.7.57-1.27,1.27-1.27s1.27.57,1.27,1.27-.57,1.27-1.27,1.27-1.27-.57-1.27-1.27"/>
  <line class="cls-3" x1="349.84" y1="271.06" x2="349.84" y2="274.44"/>
  <ellipse class="cls-3" cx="378.18" cy="264.31" rx="5.07" ry="6.76"/>
  <line class="cls-3" x1="386.63" y1="257.55" x2="373.11" y2="257.55"/>
  <line class="cls-3" x1="378.18" y1="257.55" x2="378.18" y2="250.79"/>
  <circle class="cls-3" cx="386.63" cy="250.79" r="1.27"/>
  <polyline class="cls-3" points="386.63 252.06 386.63 277.82 386.63 281.2"/>
  <path class="cls-3" d="M398.88,281.2c0-.7.57-1.27,1.27-1.27s1.27.57,1.27,1.27-.57,1.27-1.27,1.27-1.27-.57-1.27-1.27"/>
  <line class="cls-3" x1="389.16" y1="281.2" x2="398.88" y2="281.2"/>
  <polyline class="cls-3" points="390.01 281.2 383.25 281.2 383.25 284.58 406.87 284.48 406.9 281.2 401.41 281.2"/>
  <ellipse class="cls-3" cx="411.97" cy="269.37" rx="3.38" ry="11.83"/>
  <polyline class="cls-3" points="418.72 272.33 418.72 284.58 418.72 291.33"/>
  <line class="cls-3" x1="450.33" y1="260.93" x2="455.82" y2="260.93"/>
  <polyline class="cls-3" points="449.06 262.19 449.06 271.06 438.93 271.06 438.93 257.55"/>
  <circle class="cls-3" cx="449.06" cy="260.93" r="1.27"/>
  <rect class="cls-3" x="449.06" y="274.44" width="3.38" height="16.89"/>
  <line class="cls-3" x1="449.06" y1="271.06" x2="449.06" y2="274.44"/>
  <ellipse class="cls-3" cx="464.58" cy="271.06" rx="3.38" ry="13.51"/>
  <line class="cls-3" x1="472.6" y1="271.06" x2="478.09" y2="271.06"/>
  <line class="cls-3" x1="471.34" y1="284.58" x2="471.34" y2="272.33"/>
  <polyline class="cls-3" points="482.71 301.47 509.74 274.44 519.88 284.58"/>
  <polyline class="cls-3" points="487.79 301.47 513.97 275.29 519.88 281.2"/>
  <ellipse class="cls-3" cx="501.3" cy="267.68" rx="5.07" ry="6.76"/>
  <line class="cls-3" x1="509.74" y1="274.44" x2="509.74" y2="255.44"/>
  <polyline class="cls-3" points="555.49 283.74 581.68 257.55 571.55 257.55"/>
  <circle class="cls-3" cx="554.64" cy="284.59" r="1.27"/>
  <polyline class="cls-3" points="595.2 271.06 581.68 257.55 598.58 257.55 598.58 264.31 598.58 271.06"/>
  <polyline class="cls-3" points="634.6 284.58 627.85 284.58 627.85 277.82"/>
  <ellipse class="cls-3" cx="637.98" cy="286.27" rx="3.38" ry="5.07"/>
  <line class="cls-3" x1="631.23" y1="281.2" x2="641.36" y2="281.2"/>
  <line class="cls-3" x1="634.6" y1="281.2" x2="634.6" y2="277.82"/>
  <ellipse class="cls-3" cx="622.78" cy="271.06" rx="5.07" ry="6.76"/>
  <line class="cls-3" x1="631.23" y1="258.82" x2="631.23" y2="277.82"/>
  <line class="cls-3" x1="632.49" y1="257.55" x2="637.98" y2="257.55"/>
  <circle class="cls-3" cx="631.23" cy="257.55" r="1.27"/>
  <ellipse class="cls-3" cx="648.1" cy="271.06" rx="3.38" ry="13.51"/>
  <line class="cls-3" x1="656.12" y1="271.06" x2="661.61" y2="271.06"/>
  <line class="cls-3" x1="654.86" y1="284.58" x2="654.86" y2="272.33"/>
  <circle class="cls-3" cx="155.08" cy="291.33" r="1.27"/>
  <circle class="cls-3" cx="218.11" cy="271.06" r="1.27"/>
  <circle class="cls-3" cx="418.72" cy="271.06" r="1.27"/>
  <circle class="cls-3" cx="471.34" cy="271.06" r="1.27"/>
  <circle class="cls-3" cx="509.74" cy="254.17" r="1.27"/>
  <circle class="cls-3" cx="654.86" cy="271.06" r="1.27"/>
  <path class="cls-1" d="M195.65,271.06s0,8.09-6.73,8.09c-6.73,0-6.73-8.09-6.73-8.09,0,0,0-8.09-6.73-8.09s-6.73,8.09-6.73,8.09"/>
  <path class="cls-1" d="M551.01,271.06s0,8.09-6.73,8.09c-6.73,0-6.73-8.09-6.73-8.09,0,0,0-8.09-6.73-8.09s-6.73,8.09-6.73,8.09"/>
  <line class="cls-1" x1="146.96" y1="63.79" x2="174.34" y2="63.79"/>
  <path class="cls-1" d="M431.24,63.79s0,8.09-6.73,8.09c-6.73,0-6.73-8.09-6.73-8.09,0,0,0-8.09-6.73-8.09-6.73,0-6.73,8.09-6.73,8.09"/>
  <ellipse class="cls-3" cx="364.69" cy="195.47" rx="5.07" ry="6.76"/>
  <line class="cls-3" x1="373.13" y1="188.71" x2="359.62" y2="188.71"/>
  <line class="cls-3" x1="364.69" y1="188.71" x2="364.69" y2="181.95"/>
  <line class="cls-3" x1="374.82" y1="205.6" x2="374.82" y2="215.74"/>
  <line class="cls-3" x1="371.44" y1="205.6" x2="378.2" y2="205.6"/>
  <line class="cls-3" x1="371.44" y1="205.6" x2="362.57" y2="205.6"/>
  <circle class="cls-3" cx="361.31" cy="205.6" r="1.27"/>
  <ellipse class="cls-3" cx="386.96" cy="195.47" rx="5.07" ry="6.76"/>
  <line class="cls-3" x1="395.4" y1="188.71" x2="381.89" y2="188.71"/>
  <line class="cls-3" x1="386.96" y1="188.71" x2="386.96" y2="181.95"/>
  <polyline class="cls-3" points="386.96 202.22 386.96 208.98 395.4 208.98 395.4 181.95"/>
  <line class="cls-3" x1="386.96" y1="208.98" x2="384.85" y2="208.98"/>
  <line class="cls-3" x1="395.4" y1="205.6" x2="395.4" y2="208.98"/>
  <circle class="cls-3" cx="383.58" cy="208.98" r="1.27"/>
  <ellipse class="cls-3" cx="422.33" cy="202.22" rx="5.07" ry="6.76"/>
  <line class="cls-3" x1="430.77" y1="189.98" x2="430.77" y2="208.98"/>
  <line class="cls-3" x1="427.4" y1="202.22" x2="430.77" y2="202.22"/>
  <polyline class="cls-3" points="427.4 205.6 427.4 215.74 434.15 215.74 434.15 208.98"/>
  <line class="cls-3" x1="427.4" y1="212.36" x2="430.77" y2="212.36"/>
  <polyline class="cls-3" points="410.5 236.01 413.88 232.63 437.53 208.98 440.91 212.36"/>
  <polyline class="cls-3" points="444.29 205.6 454.42 205.6 444.29 208.98 454.42 208.98 444.29 212.36 454.42 212.36 444.29 215.74 454.42 215.74 444.29 222.5 453.16 222.5"/>
  <ellipse class="cls-3" cx="449.36" cy="195.47" rx="5.07" ry="6.76"/>
  <line class="cls-3" x1="444.29" y1="202.22" x2="454.42" y2="202.22"/>
  <path class="cls-3" d="M453.16,222.5c0-.7.57-1.27,1.27-1.27s1.27.57,1.27,1.27-.57,1.27-1.27,1.27-1.27-.57-1.27-1.27"/>
  <polyline class="cls-3" points="481.55 188.71 491.69 188.71 491.69 201.8 491.69 202.22"/>
  <polyline class="cls-3" points="491.69 198.85 495.06 198.85 495.06 193.36"/>
  <line class="cls-3" x1="495.06" y1="198.85" x2="495.06" y2="202.22"/>
  <polyline class="cls-3" points="468.04 229.25 495.06 202.22 501.82 208.98"/>
  <line class="cls-3" x1="535.22" y1="192.09" x2="540.71" y2="192.09"/>
  <circle class="cls-3" cx="533.95" cy="192.09" r="1.27"/>
  <polyline class="cls-3" points="533.95 193.36 533.95 202.22 533.95 205.6 530.58 205.6 530.58 222.5 537.33 222.5"/>
  <polyline class="cls-3" points="520.44 188.71 530.58 188.71 530.58 202.22"/>
  <line class="cls-3" x1="533.95" y1="205.6" x2="540.71" y2="205.6"/>
  <ellipse class="cls-3" cx="549.47" cy="202.22" rx="3.38" ry="13.51"/>
  <line class="cls-3" x1="557.49" y1="202.22" x2="562.98" y2="202.22"/>
  <line class="cls-3" x1="556.23" y1="215.74" x2="556.23" y2="203.49"/>
  <line class="cls-3" x1="530.58" y1="219.12" x2="537.33" y2="219.12"/>
  <circle class="cls-3" cx="430.77" cy="188.71" r="1.27"/>
  <circle class="cls-3" cx="495.06" cy="192.09" r="1.27"/>
  <circle class="cls-3" cx="556.23" cy="202.22" r="1.27"/>
  <path class="cls-1" d="M557,133.48s0,8.09-6.73,8.09c-6.73,0-6.73-8.09-6.73-8.09,0,0,0-8.09-6.73-8.09s-6.73,8.09-6.73,8.09"/>
  <path class="cls-2" d="M32.95,297.1c.96-.62,2.24-.33,2.86.63.62.96.33,2.24-.63,2.86-.96.62-2.24.33-2.86-.63s-.33-2.24.63-2.86"/>
  <path class="cls-2" d="M21.34,268.76c.96-.62,2.24-.33,2.86.63.62.96.33,2.24-.63,2.86s-2.24.33-2.86-.63c-.62-.96-.33-2.24.63-2.86"/>
  <path class="cls-2" d="M17.64,257.42c.96-.62,2.24-.33,2.86.63.62.96.33,2.24-.63,2.86-.96.62-2.24.33-2.86-.63s-.33-2.24.63-2.86"/>
  <path class="cls-2" d="M12.66,237.92c.96-.62,2.24-.33,2.86.63.62.96.33,2.24-.63,2.86s-2.24.33-2.86-.63-.33-2.24.63-2.86"/>
  <path class="cls-2" d="M7.87,153.6c.96-.62,2.24-.33,2.86.63.62.96.33,2.24-.63,2.86s-2.24.33-2.86-.63-.33-2.24.63-2.86"/>
  <path class="cls-2" d="M11.52,125.75c.96-.62,2.24-.33,2.86.63.62.96.33,2.24-.63,2.86s-2.24.33-2.86-.63-.33-2.24.63-2.86"/>
  <path class="cls-2" d="M13.59,113.54c.96-.62,2.24-.33,2.86.63.62.96.33,2.24-.63,2.86-.96.62-2.24.33-2.86-.63s-.33-2.24.63-2.86"/>
  <path class="cls-2" d="M15.16,107.03c.96-.62,2.24-.33,2.86.63.62.96.33,2.24-.63,2.86s-2.24.33-2.86-.63-.33-2.24.63-2.86"/>
  <path class="cls-2" d="M44.28,31.08c.96-.62,2.24-.33,2.86.63.62.96.33,2.24-.63,2.86-.96.62-2.24.33-2.86-.63s-.33-2.24.63-2.86"/>
  <path class="cls-2" d="M63.08,5.05c.96-.62,2.24-.33,2.86.63s.33,2.24-.63,2.86-2.24.33-2.86-.63c-.62-.96-.33-2.24.63-2.86"/>
  <path class="cls-2" d="M302.91,4.2c.96-.62,2.24-.33,2.86.63.62.96.33,2.24-.63,2.86-.96.62-2.24.33-2.86-.63s-.33-2.24.63-2.86"/>
  <path class="cls-2" d="M350.7,34.99c.96-.62,2.24-.33,2.86.63s.33,2.24-.63,2.86c-.96.62-2.24.33-2.86-.63s-.33-2.24.63-2.86"/>
  <path class="cls-2" d="M343.7,29.54c.96-.62,2.24-.33,2.86.63.62.96.33,2.24-.63,2.86s-2.24.33-2.86-.63c-.62-.96-.33-2.24.63-2.86"/>
  <path class="cls-2" d="M432.93,110.79c-.91.7-2.21.52-2.9-.38s-.52-2.21.38-2.9,2.21-.52,2.9.38.52,2.21-.38,2.9"/>
  <path class="cls-2" d="M444.97,126.82c-.91.7-2.21.52-2.9-.38-.7-.91-.52-2.21.38-2.9s2.21-.52,2.9.38.52,2.21-.38,2.9"/>
  <path class="cls-2" d="M511.19,193.72c.96-.62,2.24-.33,2.86.63.62.96.33,2.24-.63,2.86s-2.24.33-2.86-.63c-.62-.96-.33-2.24.63-2.86"/>
  <path class="cls-2" d="M521.53,191.85c.96-.62,2.24-.33,2.86.63s.33,2.24-.63,2.86-2.24.33-2.86-.63-.33-2.24.63-2.86"/>
  <path class="cls-2" d="M540.53,171.42c.96-.62,2.24-.33,2.86.63.62.96.33,2.24-.63,2.86s-2.24.33-2.86-.63c-.62-.96-.33-2.24.63-2.86"/>
  <path class="cls-2" d="M555.05,98.81c.96-.62,2.24-.33,2.86.63s.33,2.24-.63,2.86-2.24.33-2.86-.63-.33-2.24.63-2.86"/>
  <path class="cls-2" d="M555.05,91.62c.96-.62,2.24-.33,2.86.63s.33,2.24-.63,2.86-2.24.33-2.86-.63-.33-2.24.63-2.86"/>
  <path class="cls-2" d="M554.85,104.13c.96-.62,2.24-.33,2.86.63.62.96.33,2.24-.63,2.86s-2.24.33-2.86-.63-.33-2.24.63-2.86"/>
  <path class="cls-2" d="M551.89,59.77c.96-.62,2.24-.33,2.86.63s.33,2.24-.63,2.86-2.24.33-2.86-.63-.33-2.24.63-2.86"/>
  <path class="cls-2" d="M531.63,3.78c.96-.62,2.24-.33,2.86.63.62.96.33,2.24-.63,2.86s-2.24.33-2.86-.63-.33-2.24.63-2.86"/>
  <line class="cls-2" x1="19.35" y1="261.14" x2="21.74" y2="268.44"/>
  <path class="cls-2" d="M46.98,323.81l2.13,3.7c.96-.62,2.24-.33,2.86.63s.33,2.24-.63,2.86-2.24.33-2.86-.63c-.62-.96-.33-2.24.63-2.86"/>
  <path class="cls-2" d="M51.34,331l.44.65c.96-.62,2.24-.33,2.86.63.62.96.33,2.24-.63,2.86-.96.62-2.24.33-2.86-.63s-.33-2.24.63-2.86"/>
  <path class="cls-2" d="M34.91,300.73l10.06,19.48c.96-.62,2.24-.33,2.86.63.62.96.33,2.24-.63,2.86s-2.24.33-2.86-.63c-.62-.96-.33-2.24.63-2.86"/>
  <line class="cls-2" x1="14.2" y1="117.35" x2="12.9" y2="125.42"/>
  <line class="cls-2" x1="346.39" y1="32.61" x2="350.16" y2="35.49"/>
  <path class="cls-2" d="M442.45,123.54l-4.91-7.5c-.91.7-2.21.52-2.9-.38s-.52-2.21.38-2.9,2.21-.52,2.9.38.52,2.21-.38,2.9"/>
  <line class="cls-2" x1="556.16" y1="102.63" x2="556.06" y2="103.73"/>
  <line class="cls-2" x1="556.16" y1="95.44" x2="556.16" y2="98.49"/>
  <path class="cls-2" d="M464.63,161.86c.96-.62,2.24-.33,2.86.63s.33,2.24-.63,2.86-2.24.33-2.86-.63-.33-2.24.63-2.86"/>
</svg>