<?xml version="1.0" encoding="UTF-8"?>
<svg id="_레이어_1" data-name="레이어 1" xmlns="http://www.w3.org/2000/svg" viewBox="0 0 680.31 340.16">
  <defs>
    <style>
      .cls-1 {
        stroke-dasharray: 0 0 3 3;
      }

      .cls-1, .cls-2, .cls-3 {
        fill: none;
        stroke-miterlimit: 10;
      }

      .cls-1, .cls-3 {
        stroke: #000;
        stroke-width: .5px;
      }

      .cls-2 {
        stroke: #040000;
        stroke-linecap: square;
        stroke-width: .25px;
      }

      .cls-4 {
        fill: #fff;
        stroke-width: 0px;
      }
    </style>
  </defs>
  <rect class="cls-4" x="0" width="680.31" height="340.16"/>
  <line class="cls-3" x1="50.58" y1="53.66" x2="56.07" y2="53.66"/>
  <polyline class="cls-3" points="39.18 50.28 39.18 63.79 49.31 63.79 49.31 54.92"/>
  <line class="cls-3" x1="49.31" y1="63.79" x2="49.31" y2="77.31"/>
  <circle class="cls-3" cx="49.31" cy="53.66" r="1.27"/>
  <polyline class="cls-3" points="60.45 67.17 70.58 67.17 60.45 70.55 70.58 70.55 60.45 73.93 70.58 73.93 60.45 77.31 70.58 77.31 60.45 84.06 69.32 84.06"/>
  <line class="cls-3" x1="60.45" y1="63.79" x2="70.58" y2="63.79"/>
  <path class="cls-3" d="M69.32,84.06c0-.7.57-1.27,1.27-1.27s1.27.57,1.27,1.27-.57,1.27-1.27,1.27-1.27-.57-1.27-1.27"/>
  <polyline class="cls-3" points="60.45 50.28 70.58 50.28 60.45 57.03 70.58 57.03 60.45 60.41 70.58 60.41"/>
  <polyline class="cls-3" points="107.23 77.31 97.1 77.31 97.1 57.03 110.61 57.03"/>
  <line class="cls-3" x1="100.48" y1="57.03" x2="100.48" y2="72.66"/>
  <polyline class="cls-3" points="103.86 63.79 110.61 63.79 110.61 43.52"/>
  <line class="cls-3" x1="110.61" y1="63.79" x2="110.61" y2="77.31"/>
  <circle class="cls-3" cx="100.48" cy="73.93" r="1.27"/>
  <line class="cls-3" x1="163.39" y1="53.66" x2="168.88" y2="53.66"/>
  <polyline class="cls-3" points="151.99 50.28 151.99 63.79 162.13 63.79 162.13 54.92"/>
  <line class="cls-3" x1="162.13" y1="63.79" x2="162.13" y2="77.31"/>
  <circle class="cls-3" cx="162.13" cy="53.66" r="1.27"/>
  <line class="cls-3" x1="186.96" y1="53.66" x2="192.45" y2="53.66"/>
  <circle class="cls-3" cx="185.7" cy="53.66" r="1.27"/>
  <polyline class="cls-3" points="185.7 54.92 185.7 63.79 185.7 67.17 182.32 67.17 182.4 84.06 195.91 84.06"/>
  <polyline class="cls-3" points="172.18 50.28 182.32 50.28 182.32 63.79"/>
  <polyline class="cls-3" points="218.05 43.52 218.05 73.93 224.81 73.93"/>
  <line class="cls-3" x1="228.18" y1="68.44" x2="228.18" y2="77.31"/>
  <line class="cls-3" x1="221.43" y1="67.17" x2="226.92" y2="67.17"/>
  <line class="cls-3" x1="231.56" y1="77.31" x2="231.56" y2="60.41"/>
  <line class="cls-3" x1="250.72" y1="53.66" x2="256.21" y2="53.66"/>
  <circle class="cls-3" cx="249.46" cy="53.66" r="1.27"/>
  <polyline class="cls-3" points="235.94 50.28 246.08 50.28 246.08 63.79"/>
  <line class="cls-3" x1="249.46" y1="54.92" x2="249.46" y2="77.31"/>
  <polyline class="cls-3" points="296.48 77.31 286.35 77.31 286.35 57.03 299.86 57.03"/>
  <line class="cls-3" x1="299.86" y1="67.17" x2="299.86" y2="65.06"/>
  <line class="cls-3" x1="299.86" y1="67.17" x2="299.86" y2="77.31"/>
  <line class="cls-3" x1="301.13" y1="63.79" x2="306.62" y2="63.79"/>
  <path class="cls-3" d="M299.86,65.06c-.7,0-1.27-.57-1.27-1.27s.57-1.27,1.27-1.27,1.27.57,1.27,1.27-.57,1.27-1.27,1.27"/>
  <polyline class="cls-3" points="303.24 77.31 330.27 50.28 343.78 63.79"/>
  <line class="cls-3" x1="343.78" y1="63.79" x2="343.78" y2="51.54"/>
  <polyline class="cls-3" points="371.43 77.31 361.3 77.31 361.3 57.03 374.81 57.03"/>
  <line class="cls-3" x1="364.68" y1="57.03" x2="364.68" y2="72.66"/>
  <polyline class="cls-3" points="368.06 63.79 374.81 63.79 374.81 43.52"/>
  <line class="cls-3" x1="374.81" y1="63.79" x2="374.81" y2="77.31"/>
  <circle class="cls-3" cx="364.68" cy="73.93" r="1.27"/>
  <polyline class="cls-3" points="383.3 60.41 393.44 60.41 383.3 63.79 393.44 63.79 383.3 67.17 393.44 67.17 383.3 70.55 393.44 70.55 383.3 77.31 392.17 77.31"/>
  <ellipse class="cls-3" cx="388.37" cy="50.28" rx="5.07" ry="6.76"/>
  <path class="cls-3" d="M392.17,77.31c0-.7.57-1.27,1.27-1.27s1.27.57,1.27,1.27-.57,1.27-1.27,1.27-1.27-.57-1.27-1.27"/>
  <line class="cls-3" x1="388.37" y1="57.03" x2="388.37" y2="60.41"/>
  <line class="cls-3" x1="403.93" y1="71.39" x2="409.84" y2="77.31"/>
  <polyline class="cls-3" points="403.09 43.52 409.84 43.52 409.84 70.55 404.35 70.55"/>
  <polyline class="cls-3" points="413.22 77.31 413.22 63.79 419.98 63.79"/>
  <circle class="cls-3" cx="403.09" cy="70.55" r="1.27"/>
  <path class="cls-3" d="M226.92,67.17c0-.7.57-1.27,1.27-1.27s1.27.57,1.27,1.27-.57,1.27-1.27,1.27-1.27-.57-1.27-1.27"/>
  <circle class="cls-3" cx="343.78" cy="50.28" r="1.27"/>
  <polyline class="cls-3" points="46.01 197.58 46.01 188.71 39.25 188.71 39.25 202.22 46.01 202.22 46.01 200.11"/>
  <line class="cls-3" x1="49.39" y1="192.09" x2="49.39" y2="215.74"/>
  <polyline class="cls-3" points="85.17 215.74 64.9 215.74 64.9 208.98 68.28 208.98 68.28 183.22"/>
  <circle class="cls-3" cx="68.28" cy="181.95" r="1.27"/>
  <line class="cls-3" x1="68.28" y1="198.85" x2="61.52" y2="198.85"/>
  <line class="cls-3" x1="68.28" y1="195.47" x2="59.41" y2="195.47"/>
  <polyline class="cls-3" points="54.76 195.47 61.52 195.47 54.76 202.22 61.52 202.22 54.76 207.29 61.52 207.29"/>
  <polyline class="cls-3" points="94.33 188.71 84.19 188.71 84.2 202.22 97.72 202.22"/>
  <line class="cls-3" x1="94.34" y1="202.22" x2="94.31" y2="215.74"/>
  <polyline class="cls-3" points="99.8 215.74 97.69 215.74 90.93 215.74 87.55 215.74"/>
  <ellipse class="cls-3" cx="235.94" cy="202.22" rx="5.07" ry="6.76"/>
  <line class="cls-3" x1="244.38" y1="195.47" x2="230.87" y2="195.47"/>
  <line class="cls-3" x1="235.94" y1="195.47" x2="235.94" y2="188.71"/>
  <line class="cls-3" x1="246.07" y1="212.36" x2="246.07" y2="222.5"/>
  <line class="cls-3" x1="242.69" y1="212.36" x2="249.45" y2="212.36"/>
  <line class="cls-3" x1="242.69" y1="212.36" x2="233.83" y2="212.36"/>
  <circle class="cls-3" cx="232.56" cy="212.36" r="1.27"/>
  <ellipse class="cls-3" cx="260.21" cy="202.22" rx="5.07" ry="6.76"/>
  <line class="cls-3" x1="268.66" y1="195.47" x2="255.14" y2="195.47"/>
  <line class="cls-3" x1="260.21" y1="195.47" x2="260.21" y2="188.71"/>
  <polyline class="cls-3" points="260.21 208.98 260.21 215.74 268.66 215.74 268.66 188.71"/>
  <line class="cls-3" x1="260.21" y1="215.74" x2="258.1" y2="215.74"/>
  <line class="cls-3" x1="268.66" y1="212.36" x2="268.66" y2="215.74"/>
  <circle class="cls-3" cx="256.83" cy="215.74" r="1.27"/>
  <polyline class="cls-3" points="285.19 188.71 275.05 188.71 275.07 202.22 288.58 202.22"/>
  <line class="cls-3" x1="285.2" y1="202.22" x2="285.17" y2="215.74"/>
  <polyline class="cls-3" points="290.66 215.74 288.55 215.74 281.79 215.74 278.41 215.74"/>
  <ellipse class="cls-3" cx="429.45" cy="202.22" rx="5.07" ry="6.76"/>
  <line class="cls-3" x1="437.9" y1="189.98" x2="437.9" y2="208.98"/>
  <line class="cls-3" x1="434.52" y1="202.22" x2="437.9" y2="202.22"/>
  <polyline class="cls-3" points="434.52 205.6 434.52 215.74 441.27 215.74 441.27 208.98"/>
  <line class="cls-3" x1="434.52" y1="212.36" x2="437.9" y2="212.36"/>
  <polyline class="cls-3" points="417.62 236.01 421 232.63 444.65 208.98 448.03 212.36"/>
  <polyline class="cls-3" points="451.41 205.6 461.55 205.6 451.41 208.98 461.55 208.98 451.41 212.36 461.55 212.36 451.41 215.74 461.55 215.74 451.41 222.5 460.28 222.5"/>
  <ellipse class="cls-3" cx="456.48" cy="195.47" rx="5.07" ry="6.76"/>
  <line class="cls-3" x1="451.41" y1="202.22" x2="461.55" y2="202.22"/>
  <path class="cls-3" d="M460.28,222.5c0-.7.57-1.27,1.27-1.27s1.27.57,1.27,1.27-.57,1.27-1.27,1.27-1.27-.57-1.27-1.27"/>
  <polyline class="cls-3" points="471.68 215.74 498.71 188.71 512.22 202.22 495.33 202.22"/>
  <line class="cls-3" x1="508.85" y1="202.22" x2="508.85" y2="205.6"/>
  <polyline class="cls-3" points="505.47 205.6 512.22 205.6 505.47 208.98 512.22 208.98 505.47 212.36 512.22 212.36 505.47 215.74 512.22 215.74 505.47 220.81 512.22 220.81 505.47 225.87 510.96 225.87"/>
  <polyline class="cls-3" points="488.57 188.71 498.71 188.71 512.22 188.71"/>
  <ellipse class="cls-3" cx="269.22" cy="264.31" rx="5.07" ry="6.76"/>
  <line class="cls-3" x1="277.67" y1="271.06" x2="277.67" y2="252.06"/>
  <line class="cls-3" x1="278.94" y1="250.79" x2="284.43" y2="250.79"/>
  <circle class="cls-3" cx="277.67" cy="250.79" r="1.27"/>
  <polyline class="cls-3" points="274.29 271.06 281.05 271.06 274.29 274.44 281.05 274.44 274.29 277.82 281.05 277.82 274.29 281.2 281.05 281.2 274.29 286.27 281.05 286.27 274.29 291.33 281.05 291.33"/>
  <polyline class="cls-3" points="279.05 298.09 306.08 271.06 316.21 281.2"/>
  <polyline class="cls-3" points="284.12 298.09 310.3 271.91 316.21 277.82"/>
  <ellipse class="cls-3" cx="297.63" cy="264.31" rx="5.07" ry="6.76"/>
  <line class="cls-3" x1="306.08" y1="271.06" x2="306.08" y2="252.06"/>
  <line class="cls-3" x1="307.34" y1="250.79" x2="312.83" y2="250.79"/>
  <circle class="cls-3" cx="306.08" cy="250.79" r="1.27"/>
  <ellipse class="cls-3" cx="322.97" cy="269.37" rx="3.38" ry="11.83"/>
  <polyline class="cls-3" points="329.73 268.95 329.73 281.2 329.73 284.58"/>
  <line class="cls-3" x1="329.73" y1="271.06" x2="326.35" y2="271.06"/>
  <circle class="cls-3" cx="46.01" cy="198.85" r="1.27"/>
  <circle class="cls-3" cx="101.06" cy="215.74" r="1.27"/>
  <circle class="cls-3" cx="291.93" cy="215.74" r="1.27"/>
  <circle class="cls-3" cx="437.9" cy="188.71" r="1.27"/>
  <circle class="cls-3" cx="512.22" cy="225.87" r="1.27"/>
  <circle class="cls-3" cx="329.73" cy="267.68" r="1.27"/>
  <ellipse class="cls-3" cx="394.32" cy="284.95" rx="5.07" ry="6.76"/>
  <line class="cls-3" x1="393.9" y1="261.3" x2="399.39" y2="261.3"/>
  <polyline class="cls-3" points="382.49 257.93 382.49 271.44 392.63 271.44 392.63 262.57"/>
  <line class="cls-3" x1="392.63" y1="265.11" x2="392.63" y2="278.62"/>
  <circle class="cls-3" cx="392.63" cy="261.3" r="1.27"/>
  <line class="cls-3" x1="392.63" y1="264.68" x2="399.39" y2="264.68"/>
  <polyline class="cls-3" points="358.11 257.93 370.36 257.93 370.36 271.02 370.36 271.44"/>
  <line class="cls-3" x1="356.84" y1="271.44" x2="377.11" y2="271.44"/>
  <circle class="cls-3" cx="356.84" cy="257.93" r="1.27"/>
  <line class="cls-1" x1="407.96" y1="271.44" x2="454.89" y2="271.44"/>
  <line class="cls-1" x1="117.11" y1="63.79" x2="144.49" y2="63.79"/>
  <path class="cls-1" d="M455.92,63.79s0,8.09-6.73,8.09c-6.73,0-6.73-8.09-6.73-8.09,0,0,0-8.09-6.73-8.09-6.73,0-6.73,8.09-6.73,8.09"/>
  <path class="cls-1" d="M482.82,63.79s0,8.09-6.73,8.09c-6.73,0-6.73-8.09-6.73-8.09,0,0,0-8.09-6.73-8.09s-6.73,8.09-6.73,8.09"/>
  <path class="cls-1" d="M509.72,63.79s0,8.09-6.73,8.09c-6.73,0-6.73-8.09-6.73-8.09,0,0,0-8.09-6.73-8.09s-6.73,8.09-6.73,8.09"/>
  <path class="cls-1" d="M536.63,63.79s0,8.09-6.73,8.09c-6.73,0-6.73-8.09-6.73-8.09,0,0,0-8.09-6.73-8.09s-6.73,8.09-6.73,8.09"/>
  <path class="cls-1" d="M563.53,63.79s0,8.09-6.73,8.09c-6.73,0-6.73-8.09-6.73-8.09,0,0,0-8.09-6.73-8.09s-6.73,8.09-6.73,8.09"/>
  <path class="cls-1" d="M590.43,63.79s0,8.09-6.73,8.09c-6.73,0-6.73-8.09-6.73-8.09,0,0,0-8.09-6.73-8.09s-6.73,8.09-6.73,8.09"/>
  <polyline class="cls-3" points="387.86 146.52 377.72 146.52 377.72 126.25 391.24 126.25"/>
  <line class="cls-3" x1="391.24" y1="136.39" x2="391.24" y2="134.27"/>
  <line class="cls-3" x1="391.24" y1="136.39" x2="391.24" y2="146.52"/>
  <line class="cls-3" x1="392.5" y1="133.01" x2="397.99" y2="133.01"/>
  <path class="cls-3" d="M391.24,134.27c-.7,0-1.27-.57-1.27-1.27s.57-1.27,1.27-1.27,1.27.57,1.27,1.27-.57,1.27-1.27,1.27"/>
  <polyline class="cls-3" points="394.62 146.52 421.64 119.49 435.16 133.01"/>
  <line class="cls-3" x1="435.16" y1="133.01" x2="435.16" y2="120.76"/>
  <polyline class="cls-3" points="462.81 146.52 452.67 146.52 452.67 126.25 466.19 126.25"/>
  <line class="cls-3" x1="456.05" y1="126.25" x2="456.05" y2="141.88"/>
  <polyline class="cls-3" points="459.43 133.01 466.19 133.01 466.19 112.74"/>
  <line class="cls-3" x1="466.19" y1="133.01" x2="466.19" y2="146.52"/>
  <circle class="cls-3" cx="456.05" cy="143.14" r="1.27"/>
  <polyline class="cls-3" points="474.68 129.63 484.81 129.63 474.68 133.01 484.81 133.01 474.68 136.39 484.81 136.39 474.68 139.77 484.81 139.77 474.68 146.52 483.55 146.52"/>
  <ellipse class="cls-3" cx="479.74" cy="119.49" rx="5.07" ry="6.76"/>
  <path class="cls-3" d="M483.55,146.52c0-.7.57-1.27,1.27-1.27s1.27.57,1.27,1.27-.57,1.27-1.27,1.27-1.27-.57-1.27-1.27"/>
  <line class="cls-3" x1="479.74" y1="126.25" x2="479.74" y2="129.63"/>
  <line class="cls-3" x1="495.3" y1="140.61" x2="501.22" y2="146.52"/>
  <polyline class="cls-3" points="494.46 112.74 501.22 112.74 501.22 139.77 495.73 139.77"/>
  <polyline class="cls-3" points="504.59 146.52 504.59 133.01 511.35 133.01"/>
  <circle class="cls-3" cx="494.46" cy="139.77" r="1.27"/>
  <circle class="cls-3" cx="435.16" cy="119.49" r="1.27"/>
  <path class="cls-1" d="M547.29,133.01s0,8.09-6.73,8.09c-6.73,0-6.73-8.09-6.73-8.09,0,0,0-8.09-6.73-8.09s-6.73,8.09-6.73,8.09"/>
  <path class="cls-1" d="M574.19,133.01s0,8.09-6.73,8.09c-6.73,0-6.73-8.09-6.73-8.09,0,0,0-8.09-6.73-8.09s-6.73,8.09-6.73,8.09"/>
  <path class="cls-1" d="M601.1,133.01s0,8.09-6.73,8.09c-6.73,0-6.73-8.09-6.73-8.09,0,0,0-8.09-6.73-8.09s-6.73,8.09-6.73,8.09"/>
  <path class="cls-1" d="M628,133.01s0,8.09-6.73,8.09c-6.73,0-6.73-8.09-6.73-8.09,0,0,0-8.09-6.73-8.09s-6.73,8.09-6.73,8.09"/>
  <path class="cls-1" d="M654.9,133.01s0,8.09-6.73,8.09c-6.73,0-6.73-8.09-6.73-8.09,0,0,0-8.09-6.73-8.09s-6.73,8.09-6.73,8.09"/>
  <path class="cls-1" d="M133.85,202.22s0,8.09-6.73,8.09c-6.73,0-6.73-8.09-6.73-8.09,0,0,0-8.09-6.73-8.09s-6.73,8.09-6.73,8.09"/>
  <path class="cls-1" d="M160.75,202.22s0,8.09-6.73,8.09c-6.73,0-6.73-8.09-6.73-8.09,0,0,0-8.09-6.73-8.09s-6.73,8.09-6.73,8.09"/>
  <path class="cls-1" d="M187.66,202.22s0,8.09-6.73,8.09c-6.73,0-6.73-8.09-6.73-8.09,0,0,0-8.09-6.73-8.09s-6.73,8.09-6.73,8.09"/>
  <path class="cls-1" d="M214.56,202.22s0,8.09-6.73,8.09c-6.73,0-6.73-8.09-6.73-8.09,0,0,0-8.09-6.73-8.09s-6.73,8.09-6.73,8.09"/>
  <path class="cls-1" d="M328.92,202.22s0,8.09-6.73,8.09c-6.73,0-6.73-8.09-6.73-8.09,0,0,0-8.09-6.73-8.09s-6.73,8.09-6.73,8.09"/>
  <path class="cls-1" d="M355.82,202.22s0,8.09-6.73,8.09c-6.73,0-6.73-8.09-6.73-8.09,0,0,0-8.09-6.73-8.09s-6.73,8.09-6.73,8.09"/>
  <path class="cls-1" d="M382.73,202.22s0,8.09-6.73,8.09c-6.73,0-6.73-8.09-6.73-8.09,0,0,0-8.09-6.73-8.09s-6.73,8.09-6.73,8.09"/>
  <path class="cls-1" d="M409.63,202.22s0,8.09-6.73,8.09c-6.73,0-6.73-8.09-6.73-8.09,0,0,0-8.09-6.73-8.09s-6.73,8.09-6.73,8.09"/>
  <path class="cls-1" d="M549.58,202.22s0,8.09-6.73,8.09c-6.73,0-6.73-8.09-6.73-8.09,0,0,0-8.09-6.73-8.09s-6.73,8.09-6.73,8.09"/>
  <path class="cls-1" d="M576.48,202.22s0,8.09-6.73,8.09c-6.73,0-6.73-8.09-6.73-8.09,0,0,0-8.09-6.73-8.09s-6.73,8.09-6.73,8.09"/>
  <path class="cls-1" d="M603.39,202.22s0,8.09-6.73,8.09c-6.73,0-6.73-8.09-6.73-8.09,0,0,0-8.09-6.73-8.09s-6.73,8.09-6.73,8.09"/>
  <path class="cls-1" d="M630.29,202.22s0,8.09-6.73,8.09c-6.73,0-6.73-8.09-6.73-8.09,0,0,0-8.09-6.73-8.09s-6.73,8.09-6.73,8.09"/>
  <path class="cls-2" d="M673.88,164.08c-.88-.73-2.19-.6-2.91.28s-.6,2.19.28,2.91,2.19.6,2.91-.28.6-2.19-.28-2.91"/>
  <path class="cls-2" d="M674.57,171.39c-.88-.73-2.19-.6-2.91.28s-.6,2.19.28,2.91c.88.73,2.19.6,2.91-.28s.6-2.19-.28-2.91"/>
  <path class="cls-2" d="M675.11,177.8c-.88-.73-2.19-.6-2.91.28s-.6,2.19.28,2.91,2.19.6,2.91-.28.6-2.19-.28-2.91"/>
  <path class="cls-2" d="M675.36,183.81c-.88-.73-2.19-.6-2.91.28s-.6,2.19.28,2.91,2.19.6,2.91-.28.6-2.19-.28-2.91"/>
  <path class="cls-2" d="M675.3,188.93c-.88-.73-2.19-.6-2.91.28-.73.88-.6,2.19.28,2.91s2.19.6,2.91-.28.6-2.19-.28-2.91"/>
  <path class="cls-2" d="M675.06,194.17c-.88-.73-2.19-.6-2.91.28s-.6,2.19.28,2.91,2.19.6,2.91-.28.6-2.19-.28-2.91"/>
  <path class="cls-2" d="M671.02,218.64c-.88-.73-2.19-.6-2.91.28s-.6,2.19.28,2.91,2.19.6,2.91-.28.6-2.19-.28-2.91"/>
  <path class="cls-2" d="M663.71,239.1c-.88-.73-2.19-.6-2.91.28-.73.88-.6,2.19.28,2.91s2.19.6,2.91-.28.6-2.19-.28-2.91"/>
  <path class="cls-2" d="M658.11,250.16c-.88-.73-2.19-.6-2.91.28s-.6,2.19.28,2.91,2.19.6,2.91-.28.6-2.19-.28-2.91"/>
  <path class="cls-2" d="M654.39,256.22c-.88-.73-2.19-.6-2.91.28s-.6,2.19.28,2.91,2.19.6,2.91-.28.6-2.19-.28-2.91"/>
  <path class="cls-2" d="M643.35,272.28c-.88-.73-2.18-.62-2.92.26s-.62,2.18.26,2.92,2.18.62,2.92-.26.62-2.18-.26-2.92"/>
  <path class="cls-2" d="M608.06,302.13c-.88-.73-2.18-.62-2.92.26s-.62,2.18.26,2.92,2.18.62,2.92-.26.62-2.18-.26-2.92"/>
  <path class="cls-2" d="M601.29,306.11c-.88-.73-2.18-.62-2.92.26s-.62,2.18.26,2.92,2.18.62,2.92-.26.62-2.18-.26-2.92"/>
  <path class="cls-2" d="M585.03,313.46c-.88-.73-2.18-.62-2.92.26s-.62,2.18.26,2.92,2.18.62,2.92-.26.62-2.18-.26-2.92"/>
  <path class="cls-2" d="M560.49,321.53c-.88-.73-2.18-.62-2.92.26s-.62,2.18.26,2.92,2.18.62,2.92-.26.62-2.18-.26-2.92"/>
  <path class="cls-2" d="M553.59,322.98c-.88-.73-2.18-.62-2.92.26-.73.88-.62,2.18.26,2.92.88.73,2.18.62,2.92-.26s.62-2.18-.26-2.92"/>
  <path class="cls-2" d="M542.87,324.68c-.88-.73-2.18-.62-2.92.26-.73.88-.62,2.18.26,2.92s2.18.62,2.92-.26c.73-.88.62-2.18-.26-2.92"/>
  <path class="cls-2" d="M509.26,325.88c-.88-.73-2.18-.62-2.92.26-.73.88-.62,2.18.26,2.92s2.18.62,2.92-.26.62-2.18-.26-2.92"/>
  <path class="cls-2" d="M466.59,324.25c-.93-.67-2.22-.46-2.89.47s-.46,2.22.47,2.89,2.22.46,2.89-.47.46-2.22-.47-2.89"/>
  <path class="cls-2" d="M457.31,322.35c-.93-.67-2.22-.46-2.89.47-.67.93-.46,2.22.47,2.89s2.22.46,2.89-.47.46-2.22-.47-2.89"/>
  <path class="cls-2" d="M445.73,317.42c-.93-.67-2.22-.46-2.89.47s-.46,2.22.47,2.89,2.22.46,2.89-.47.46-2.22-.47-2.89"/>
  <path class="cls-2" d="M435.3,311.89c-.79-.83-2.1-.86-2.93-.07s-.86,2.1-.07,2.93c.79.83,2.1.86,2.93.07s.86-2.1.07-2.93"/>
  <path class="cls-2" d="M429.54,307.14c-.79-.83-2.1-.86-2.93-.07s-.86,2.1-.07,2.93,2.1.86,2.93.07.86-2.1.07-2.93"/>
  <path class="cls-2" d="M417.03,287.29c-.7-.9-2-1.06-2.9-.36-.9.7-1.06,2-.36,2.9.7.9,2,1.06,2.9.36s1.06-2,.36-2.9"/>
  <path class="cls-2" d="M425.44,303.21c-.79-.83-2.1-.86-2.93-.07s-.86,2.1-.07,2.93c.79.83,2.1.86,2.93.07s.86-2.1.07-2.93"/>
  <path class="cls-2" d="M422.34,298.81c-.79-.83-2.1-.86-2.93-.07-.83.79-.86,2.1-.07,2.93s2.1.86,2.93.07.86-2.1.07-2.93"/>
  <path class="cls-2" d="M416.93,245.87c-.88-.73-2.18-.62-2.92.26s-.62,2.18.26,2.92,2.18.62,2.92-.26.62-2.18-.26-2.92"/>
  <path class="cls-2" d="M414.66,257.6c-.88-.73-2.18-.62-2.92.26s-.62,2.18.26,2.92,2.18.62,2.92-.26.62-2.18-.26-2.92"/>
  <path class="cls-2" d="M466.39,167.5c-.88-.73-2.18-.62-2.92.26s-.62,2.18.26,2.92,2.18.62,2.92-.26.62-2.18-.26-2.92"/>
  <path class="cls-2" d="M418.98,291.9c-.7-.9-2-1.06-2.9-.36-.9.7-1.06,2-.36,2.9s2,1.06,2.9.36,1.06-2,.36-2.9"/>
  <path class="cls-2" d="M323.27,176.37c-.88-.73-2.18-.62-2.92.26s-.62,2.18.26,2.92,2.18.62,2.92-.26.62-2.18-.26-2.92"/>
  <path class="cls-2" d="M462.22,109.56c-.88-.73-2.18-.62-2.92.26s-.62,2.18.26,2.92,2.18.62,2.92-.26.62-2.18-.26-2.92"/>
  <path class="cls-2" d="M286.29,229.25c-.98-.59-2.25-.27-2.84.71s-.27,2.25.71,2.84,2.25.27,2.84-.71.27-2.25-.71-2.84"/>
  <path class="cls-2" d="M441.98,102.3c-.88-.73-2.18-.62-2.92.26s-.62,2.18.26,2.92,2.18.62,2.92-.26.62-2.18-.26-2.92"/>
  <line class="cls-2" x1="458.12" y1="324.44" x2="463.36" y2="325.52"/>
  <line class="cls-2" x1="673.42" y1="175.05" x2="673.62" y2="177.33"/>
  <line class="cls-2" x1="672.77" y1="167.84" x2="672.97" y2="170.93"/>
  <line class="cls-2" x1="661.63" y1="242.62" x2="657.72" y2="249.9"/>
  <line class="cls-2" x1="669.01" y1="222.19" x2="663.09" y2="238.75"/>
  <line class="cls-2" x1="598.08" y1="308.55" x2="585.59" y2="314.2"/>
  <path class="cls-2" d="M433.15,101.23c-.88-.73-2.18-.62-2.92.26-.73.88-.62,2.18.26,2.92s2.18.62,2.92-.26.62-2.18-.26-2.92"/>
  <line class="cls-2" x1="438.58" y1="103.37" x2="433.89" y2="102.82"/>
  <path class="cls-2" d="M671.66,149.74c-.88-.73-2.18-.62-2.92.26s-.62,2.18.26,2.92,2.18.62,2.92-.26.62-2.18-.26-2.92"/>
  <path class="cls-2" d="M656.35,101.48c-.88-.73-2.18-.62-2.92.26s-.62,2.18.26,2.92,2.18.62,2.92-.26.62-2.18-.26-2.92"/>
  <path class="cls-2" d="M603.8,13.33c-.88-.73-2.18-.62-2.92.26-.73.88-.62,2.18.26,2.92s2.18.62,2.92-.26.62-2.18-.26-2.92"/>
  <path class="cls-2" d="M593.21,3.6c-.88-.73-2.18-.62-2.92.26s-.62,2.18.26,2.92,2.18.62,2.92-.26.62-2.18-.26-2.92"/>
  <path class="cls-2" d="M282.81,237.74c-.98-.59-2.25-.27-2.84.71s-.27,2.25.71,2.84,2.25.27,2.84-.71.27-2.25-.71-2.84"/>
  <path class="cls-2" d="M245.18,317.51c-.88-.73-2.18-.62-2.92.26s-.62,2.18.26,2.92,2.18.62,2.92-.26.62-2.18-.26-2.92"/>
  <path class="cls-2" d="M234.11,331.13c-.88-.73-2.18-.62-2.92.26s-.62,2.18.26,2.92,2.18.62,2.92-.26c.73-.88.62-2.18-.26-2.92"/>
  <path class="cls-2" d="M66.98,330.25c-.99-.58-2.25-.25-2.83.74s-.25,2.25.74,2.83,2.25.25,2.83-.74c.58-.99.25-2.25-.74-2.83"/>
  <path class="cls-2" d="M52.57,312.3c-1.05-.45-2.27.04-2.71,1.09s.04,2.27,1.09,2.71,2.27-.04,2.71-1.09-.04-2.27-1.09-2.71"/>
  <path class="cls-2" d="M46.78,304.62c-1.05-.45-2.27.04-2.71,1.09-.45,1.05.04,2.27,1.09,2.71s2.27-.04,2.71-1.09c.45-1.05-.04-2.27-1.09-2.71"/>
  <path class="cls-2" d="M27.53,272.76c-1.09-.35-2.25.25-2.6,1.34s.25,2.25,1.34,2.6,2.25-.25,2.6-1.34c.35-1.09-.25-2.25-1.34-2.6"/>
  <path class="cls-2" d="M22.03,260.58c-1.09-.35-2.25.25-2.6,1.34s.25,2.25,1.34,2.6,2.25-.25,2.6-1.34c.35-1.09-.25-2.25-1.34-2.6"/>
  <path class="cls-2" d="M30.09,278.26c-1.09-.35-2.25.25-2.6,1.34-.35,1.09.25,2.25,1.34,2.6s2.25-.25,2.6-1.34c.35-1.09-.25-2.25-1.34-2.6"/>
  <line class="cls-2" x1="284.56" y1="233.09" x2="282.44" y2="237.44"/>
  <line class="cls-2" x1="64.57" y1="330.49" x2="52.97" y2="315.88"/>
  <line class="cls-2" x1="47.26" y1="308.15" x2="50.38" y2="312.67"/>
  <path class="cls-2" d="M7.12,217.84c-1.04-.47-2.27,0-2.74,1.04-.47,1.04,0,2.27,1.04,2.74s2.27,0,2.74-1.04,0-2.27-1.04-2.74"/>
  <path class="cls-2" d="M387.3,112.98c-.96-.62-2.24-.33-2.86.63s-.33,2.24.63,2.86,2.24.33,2.86-.63.33-2.24-.63-2.86"/>
</svg>