<?xml version="1.0" encoding="UTF-8"?>
<svg id="_레이어_1" data-name="레이어 1" xmlns="http://www.w3.org/2000/svg" viewBox="0 0 680.31 340.16">
  <defs>
    <style>
      .cls-1 {
        stroke-dasharray: 0 0 3 3;
      }

      .cls-1, .cls-2, .cls-3 {
        fill: none;
        stroke-miterlimit: 10;
      }

      .cls-1, .cls-3 {
        stroke: #000;
        stroke-width: .5px;
      }

      .cls-2 {
        stroke: #040000;
        stroke-linecap: square;
        stroke-width: .25px;
      }

      .cls-4 {
        fill: #fff;
        stroke-width: 0px;
      }
    </style>
  </defs>
  <rect class="cls-4" x="0" width="680.31" height="340.16"/>
  <polyline class="cls-3" points="35.98 76.47 62.18 50.28 52.04 50.28"/>
  <circle class="cls-3" cx="35.14" cy="77.32" r="1.27"/>
  <polyline class="cls-3" points="75.69 63.79 62.18 50.28 79.07 50.28 79.07 57.03 79.07 63.79"/>
  <line class="cls-3" x1="86.83" y1="60.41" x2="96.96" y2="60.41"/>
  <polyline class="cls-3" points="96.96 79.42 96.96 84.06 93.58 84.06 93.58 63.79 96.96 63.79 96.96 76.88"/>
  <circle class="cls-3" cx="96.96" cy="78.15" r="1.27"/>
  <polyline class="cls-3" points="83.45 50.28 96.96 50.28 96.96 57.03"/>
  <ellipse class="cls-3" cx="145.72" cy="62.1" rx="3.38" ry="11.83"/>
  <polyline class="cls-3" points="152.48 65.06 152.48 77.31 152.48 84.06"/>
  <line class="cls-3" x1="201.7" y1="71.39" x2="207.61" y2="77.31"/>
  <polyline class="cls-3" points="200.85 43.52 207.61 43.52 207.61 70.55 202.12 70.55"/>
  <polyline class="cls-3" points="210.99 77.31 210.99 63.79 217.75 63.79"/>
  <circle class="cls-3" cx="200.85" cy="70.55" r="1.27"/>
  <polyline class="cls-3" points="273.26 50.28 263.13 50.28 263.14 63.79 276.65 63.79"/>
  <line class="cls-3" x1="273.27" y1="63.79" x2="273.24" y2="77.31"/>
  <polyline class="cls-3" points="278.73 77.31 276.62 77.31 269.86 77.31 266.49 77.31"/>
  <circle class="cls-3" cx="152.46" cy="63.79" r="1.27"/>
  <circle class="cls-3" cx="280" cy="77.31" r="1.27"/>
  <polyline class="cls-3" points="334.29 84.06 324.15 84.06 324.15 63.79 337.67 63.79"/>
  <line class="cls-3" x1="327.53" y1="63.79" x2="327.53" y2="79.42"/>
  <polyline class="cls-3" points="330.91 70.55 337.67 70.55 337.67 50.28"/>
  <line class="cls-3" x1="337.67" y1="70.55" x2="337.67" y2="84.06"/>
  <circle class="cls-3" cx="327.53" cy="80.68" r="1.27"/>
  <line class="cls-3" x1="395.42" y1="53.66" x2="400.91" y2="53.66"/>
  <polyline class="cls-3" points="384.02 50.28 384.02 63.79 394.15 63.79 394.15 54.92"/>
  <circle class="cls-3" cx="394.15" cy="53.66" r="1.27"/>
  <polyline class="cls-3" points="394.15 63.79 394.15 67.17 390.78 67.17 390.86 84.06 404.37 84.06"/>
  <polyline class="cls-3" points="416.8 84.06 406.67 84.06 406.67 63.79 420.18 63.79"/>
  <line class="cls-3" x1="420.18" y1="73.93" x2="420.18" y2="71.82"/>
  <line class="cls-3" x1="420.18" y1="73.93" x2="420.18" y2="84.06"/>
  <line class="cls-3" x1="421.45" y1="70.55" x2="426.94" y2="70.55"/>
  <path class="cls-3" d="M420.18,71.82c-.7,0-1.27-.57-1.27-1.27s.57-1.27,1.27-1.27,1.27.57,1.27,1.27-.57,1.27-1.27,1.27"/>
  <polyline class="cls-3" points="495.44 84.06 475.17 84.06 475.17 77.31 478.54 77.31 478.54 51.54"/>
  <circle class="cls-3" cx="478.54" cy="50.28" r="1.27"/>
  <rect class="cls-3" x="465.03" y="63.79" width="6.76" height="13.51"/>
  <line class="cls-3" x1="471.79" y1="63.79" x2="478.54" y2="63.79"/>
  <line class="cls-3" x1="478.54" y1="67.17" x2="475.17" y2="67.17"/>
  <polyline class="cls-3" points="237.45 145.68 263.64 119.49 253.5 119.49"/>
  <circle class="cls-3" cx="236.61" cy="146.52" r="1.27"/>
  <polyline class="cls-3" points="273.77 129.63 263.64 119.49 277.15 119.49"/>
  <polyline class="cls-3" points="267.02 126.25 267.02 133.01 260.26 133.01 280.53 133.01"/>
  <line class="cls-3" x1="325.29" y1="129.63" x2="335.43" y2="129.63"/>
  <polyline class="cls-3" points="335.43 148.63 335.43 153.28 332.05 153.28 332.05 133.01 335.43 133.01 335.43 146.1"/>
  <circle class="cls-3" cx="335.43" cy="147.37" r="1.27"/>
  <polyline class="cls-3" points="321.91 119.49 335.43 119.49 335.43 126.25"/>
  <ellipse class="cls-3" cx="347.19" cy="131.32" rx="3.38" ry="11.83"/>
  <polyline class="cls-3" points="353.94 133.01 353.94 146.52 353.94 153.28"/>
  <line class="cls-3" x1="363.18" y1="147.37" x2="369.1" y2="153.28"/>
  <polyline class="cls-3" points="362.34 119.49 369.1 119.49 369.1 146.52 363.61 146.52"/>
  <polyline class="cls-3" points="372.47 153.28 372.47 139.77 379.23 139.77"/>
  <circle class="cls-3" cx="362.34" cy="146.52" r="1.27"/>
  <polyline class="cls-3" points="433.75 126.25 423.61 126.25 423.62 139.77 437.14 139.77"/>
  <line class="cls-3" x1="433.76" y1="139.77" x2="433.73" y2="153.28"/>
  <polyline class="cls-3" points="439.22 153.28 437.11 153.28 430.35 153.28 426.97 153.28"/>
  <ellipse class="cls-3" cx="475.45" cy="133.01" rx="5.07" ry="6.76"/>
  <line class="cls-3" x1="483.89" y1="139.77" x2="483.89" y2="120.76"/>
  <polyline class="cls-3" points="456.86 166.79 483.89 139.77 477.14 139.77"/>
  <polyline class="cls-3" points="487.27 139.77 483.89 139.77 494.03 149.9"/>
  <polyline class="cls-3" points="496.03 119.49 502.79 119.49 502.79 133.01"/>
  <line class="cls-3" x1="500.67" y1="146.52" x2="506.16" y2="146.52"/>
  <line class="cls-3" x1="499.41" y1="122.87" x2="499.41" y2="145.26"/>
  <circle class="cls-3" cx="499.41" cy="146.52" r="1.27"/>
  <line class="cls-3" x1="536.57" y1="119.49" x2="542.06" y2="119.49"/>
  <polyline class="cls-3" points="502.79 146.52 529.81 119.49 543.33 133.01 543.33 120.76"/>
  <circle class="cls-3" cx="543.33" cy="119.49" r="1.27"/>
  <circle class="cls-3" cx="440.49" cy="153.28" r="1.27"/>
  <circle class="cls-3" cx="483.89" cy="119.49" r="1.27"/>
  <line class="cls-3" x1="365.51" y1="202.65" x2="382.4" y2="202.65"/>
  <ellipse class="cls-3" cx="377.34" cy="195.89" rx="5.07" ry="6.76"/>
  <line class="cls-3" x1="379.03" y1="202.65" x2="379.03" y2="206.03"/>
  <polyline class="cls-3" points="392.3 206.03 402.43 206.03 392.3 209.4 402.43 209.4 392.3 212.78 402.43 212.78 392.3 216.16 402.43 216.16 392.3 222.92 401.17 222.92"/>
  <ellipse class="cls-3" cx="397.37" cy="195.89" rx="5.07" ry="6.76"/>
  <line class="cls-3" x1="392.3" y1="202.65" x2="402.43" y2="202.65"/>
  <path class="cls-3" d="M401.17,222.92c0-.7.57-1.27,1.27-1.27s1.27.57,1.27,1.27-.57,1.27-1.27,1.27-1.27-.57-1.27-1.27"/>
  <polyline class="cls-3" points="352.84 232.21 379.03 206.03 385.78 212.78"/>
  <path class="cls-3" d="M350.73,233.05c0-.7.57-1.27,1.27-1.27s1.27.57,1.27,1.27-.57,1.27-1.27,1.27-1.27-.57-1.27-1.27"/>
  <polyline class="cls-3" points="418.83 215.32 445.02 189.13 458.53 202.65"/>
  <line class="cls-3" x1="441.64" y1="202.65" x2="461.91" y2="202.65"/>
  <line class="cls-3" x1="455.15" y1="202.65" x2="455.15" y2="216.16"/>
  <polyline class="cls-3" points="85.81 298.47 112.84 271.44 122.98 281.58"/>
  <polyline class="cls-3" points="90.89 298.47 117.06 272.29 122.98 278.2"/>
  <ellipse class="cls-3" cx="104.39" cy="264.68" rx="5.07" ry="6.76"/>
  <line class="cls-3" x1="112.84" y1="271.44" x2="112.84" y2="252.44"/>
  <circle class="cls-3" cx="112.84" cy="251.17" r="1.27"/>
  <polyline class="cls-3" points="129.52 274.82 139.65 274.82 129.52 278.2 139.65 278.2 129.52 281.58 139.65 281.58 129.52 284.95 139.65 284.95 129.52 291.71 138.39 291.71"/>
  <ellipse class="cls-3" cx="134.59" cy="264.68" rx="5.07" ry="6.76"/>
  <line class="cls-3" x1="129.52" y1="271.44" x2="139.65" y2="271.44"/>
  <path class="cls-3" d="M138.39,291.71c0-.7.57-1.27,1.27-1.27s1.27.57,1.27,1.27-.57,1.27-1.27,1.27-1.27-.57-1.27-1.27"/>
  <path class="cls-1" d="M133.1,63.79s0,8.09-6.73,8.09c-6.73,0-6.73-8.09-6.73-8.09,0,0,0-8.09-6.73-8.09s-6.73,8.09-6.73,8.09"/>
  <path class="cls-1" d="M189,63.79s0,8.09-6.73,8.09c-6.73,0-6.73-8.09-6.73-8.09,0,0,0-8.09-6.73-8.09-6.73,0-6.73,8.09-6.73,8.09"/>
  <path class="cls-1" d="M253.39,63.79s0,8.09-6.73,8.09c-6.73,0-6.73-8.09-6.73-8.09,0,0,0-8.09-6.73-8.09-6.73,0-6.73,8.09-6.73,8.09"/>
  <path class="cls-1" d="M313.53,63.79s0,8.09-6.73,8.09c-6.73,0-6.73-8.09-6.73-8.09,0,0,0-8.09-6.73-8.09-6.73,0-6.73,8.09-6.73,8.09"/>
  <path class="cls-1" d="M374.29,63.79s0,8.09-6.73,8.09c-6.73,0-6.73-8.09-6.73-8.09,0,0,0-8.09-6.73-8.09-6.73,0-6.73,8.09-6.73,8.09"/>
  <path class="cls-1" d="M457.87,63.79s0,8.09-6.73,8.09c-6.73,0-6.73-8.09-6.73-8.09,0,0,0-8.09-6.73-8.09-6.73,0-6.73,8.09-6.73,8.09"/>
  <path class="cls-1" d="M313.79,133.01s0,8.09-6.73,8.09c-6.73,0-6.73-8.09-6.73-8.09,0,0,0-8.09-6.73-8.09s-6.73,8.09-6.73,8.09"/>
  <path class="cls-1" d="M413.47,133.01s0,8.09-6.73,8.09c-6.73,0-6.73-8.09-6.73-8.09,0,0,0-8.09-6.73-8.09s-6.73,8.09-6.73,8.09"/>
  <path class="cls-1" d="M499.49,202.65s0,8.09-6.73,8.09c-6.73,0-6.73-8.09-6.73-8.09,0,0,0-8.09-6.73-8.09s-6.73,8.09-6.73,8.09"/>
  <polyline class="cls-3" points="145.82 271.44 159.34 271.44 159.34 284.95"/>
  <line class="cls-3" x1="155.96" y1="271.44" x2="155.96" y2="281.58"/>
  <line class="cls-3" x1="162.72" y1="262.57" x2="162.72" y2="284.95"/>
  <line class="cls-3" x1="163.98" y1="261.3" x2="169.47" y2="261.3"/>
  <circle class="cls-3" cx="162.72" cy="261.3" r="1.27"/>
  <path class="cls-1" d="M526.39,202.65s0,8.09-6.73,8.09c-6.73,0-6.73-8.09-6.73-8.09,0,0,0-8.09-6.73-8.09s-6.73,8.09-6.73,8.09"/>
  <path class="cls-1" d="M553.3,202.65s0,8.09-6.73,8.09c-6.73,0-6.73-8.09-6.73-8.09,0,0,0-8.09-6.73-8.09s-6.73,8.09-6.73,8.09"/>
  <path class="cls-1" d="M580.2,202.65s0,8.09-6.73,8.09c-6.73,0-6.73-8.09-6.73-8.09,0,0,0-8.09-6.73-8.09s-6.73,8.09-6.73,8.09"/>
  <path class="cls-1" d="M607.11,202.65s0,8.09-6.73,8.09c-6.73,0-6.73-8.09-6.73-8.09,0,0,0-8.09-6.73-8.09s-6.73,8.09-6.73,8.09"/>
  <path class="cls-1" d="M206.18,271.44s0,8.09-6.73,8.09c-6.73,0-6.73-8.09-6.73-8.09,0,0,0-8.09-6.73-8.09s-6.73,8.09-6.73,8.09"/>
  <path class="cls-1" d="M233.08,271.44s0,8.09-6.73,8.09c-6.73,0-6.73-8.09-6.73-8.09,0,0,0-8.09-6.73-8.09s-6.73,8.09-6.73,8.09"/>
  <path class="cls-1" d="M259.98,271.44s0,8.09-6.73,8.09c-6.73,0-6.73-8.09-6.73-8.09,0,0,0-8.09-6.73-8.09s-6.73,8.09-6.73,8.09"/>
  <path class="cls-1" d="M286.89,271.44s0,8.09-6.73,8.09c-6.73,0-6.73-8.09-6.73-8.09,0,0,0-8.09-6.73-8.09s-6.73,8.09-6.73,8.09"/>
  <path class="cls-1" d="M313.79,271.02s0,8.09-6.73,8.09c-6.73,0-6.73-8.09-6.73-8.09,0,0,0-8.09-6.73-8.09s-6.73,8.09-6.73,8.09"/>
  <path class="cls-1" d="M340.7,270.79s0,8.09-6.73,8.09c-6.73,0-6.73-8.09-6.73-8.09,0,0,0-8.09-6.73-8.09s-6.73,8.09-6.73,8.09"/>
  <path class="cls-1" d="M367.6,270.79s0,8.09-6.73,8.09c-6.73,0-6.73-8.09-6.73-8.09,0,0,0-8.09-6.73-8.09s-6.73,8.09-6.73,8.09"/>
  <path class="cls-1" d="M394.5,270.79s0,8.09-6.73,8.09c-6.73,0-6.73-8.09-6.73-8.09,0,0,0-8.09-6.73-8.09s-6.73,8.09-6.73,8.09"/>
  <path class="cls-1" d="M421.41,270.79s0,8.09-6.73,8.09c-6.73,0-6.73-8.09-6.73-8.09,0,0,0-8.09-6.73-8.09s-6.73,8.09-6.73,8.09"/>
  <path class="cls-1" d="M448.33,270.79s0,8.09-6.73,8.09c-6.73,0-6.73-8.09-6.73-8.09,0,0,0-8.09-6.73-8.09s-6.73,8.09-6.73,8.09"/>
  <path class="cls-1" d="M634.01,202.65s0,8.09-6.73,8.09c-6.73,0-6.73-8.09-6.73-8.09,0,0,0-8.09-6.73-8.09s-6.73,8.09-6.73,8.09"/>
  <path class="cls-1" d="M502.88,271.44s0,8.09-6.73,8.09c-6.73,0-6.73-8.09-6.73-8.09,0,0,0-8.09-6.73-8.09s-6.73,8.09-6.73,8.09"/>
  <path class="cls-1" d="M529.8,271.44s0,8.09-6.73,8.09c-6.73,0-6.73-8.09-6.73-8.09,0,0,0-8.09-6.73-8.09s-6.73,8.09-6.73,8.09"/>
  <path class="cls-1" d="M570.23,271.44s0,8.09-6.73,8.09c-6.73,0-6.73-8.09-6.73-8.09,0,0,0-8.09-6.73-8.09s-6.73,8.09-6.73,8.09"/>
  <path class="cls-2" d="M25.32,128.32c-1.14-.07-2.01-1.04-1.95-2.18.07-1.14,1.04-2.01,2.18-1.95s2.01,1.04,1.95,2.18-1.04,2.01-2.18,1.95"/>
  <path class="cls-2" d="M38.67,154.55c-1.14-.07-2.01-1.04-1.95-2.18s1.04-2.01,2.18-1.95,2.01,1.04,1.95,2.18c-.07,1.14-1.04,2.01-2.18,1.95"/>
  <path class="cls-2" d="M44.18,162.93c-1.14-.07-2.01-1.04-1.95-2.18s1.04-2.01,2.18-1.95,2.01,1.04,1.95,2.18-1.04,2.01-2.18,1.95"/>
  <path class="cls-2" d="M47.75,168.24c-1.14-.07-2.01-1.04-1.95-2.18s1.04-2.01,2.18-1.95,2.01,1.04,1.95,2.18-1.04,2.01-2.18,1.95"/>
  <path class="cls-2" d="M50.5,172.15c-1.14-.07-2.01-1.04-1.95-2.18s1.04-2.01,2.18-1.95,2.01,1.04,1.95,2.18c-.07,1.14-1.04,2.01-2.18,1.95"/>
  <path class="cls-2" d="M52.85,175.72c-1.14-.07-2.01-1.04-1.95-2.18s1.04-2.01,2.18-1.95,2.01,1.04,1.95,2.18-1.04,2.01-2.18,1.95"/>
  <path class="cls-2" d="M59.99,185.31c-1.14-.07-2.01-1.04-1.95-2.18s1.04-2.01,2.18-1.95,2.01,1.04,1.95,2.18-1.04,2.01-2.18,1.95"/>
  <path class="cls-2" d="M71.4,197.53c-1.14-.07-2.01-1.04-1.95-2.18s1.04-2.01,2.18-1.95,2.01,1.04,1.95,2.18c-.07,1.14-1.04,2.01-2.18,1.95"/>
  <path class="cls-2" d="M120.04,224.56c-1.14-.07-2.01-1.04-1.95-2.18s1.04-2.01,2.18-1.95,2.01,1.04,1.95,2.18-1.04,2.01-2.18,1.95"/>
  <path class="cls-2" d="M134.47,225.8c-1.14-.07-2.01-1.04-1.95-2.18s1.04-2.01,2.18-1.95,2.01,1.04,1.95,2.18-1.04,2.01-2.18,1.95"/>
  <path class="cls-2" d="M141.38,225.8c-1.14-.07-2.01-1.04-1.95-2.18s1.04-2.01,2.18-1.95,2.01,1.04,1.95,2.18-1.04,2.01-2.18,1.95"/>
  <path class="cls-2" d="M232.08,182.31c-1.14-.07-2.01-1.04-1.95-2.18.07-1.14,1.04-2.01,2.18-1.95s2.01,1.04,1.95,2.18-1.04,2.01-2.18,1.95"/>
  <path class="cls-2" d="M239.82,174.22c-1.14-.07-2.01-1.04-1.95-2.18s1.04-2.01,2.18-1.95,2.01,1.04,1.95,2.18-1.04,2.01-2.18,1.95"/>
  <path class="cls-2" d="M255.34,155.35c-1.14-.07-2.01-1.04-1.95-2.18.07-1.14,1.04-2.01,2.18-1.95s2.01,1.04,1.95,2.18-1.04,2.01-2.18,1.95"/>
  <path class="cls-2" d="M266.37,114.8c-1.14-.07-2.01-1.04-1.95-2.18.07-1.14,1.04-2.01,2.18-1.95s2.01,1.04,1.95,2.18-1.04,2.01-2.18,1.95"/>
  <path class="cls-2" d="M266.37,105.37c-1.14-.07-2.01-1.04-1.95-2.18s1.04-2.01,2.18-1.95,2.01,1.04,1.95,2.18-1.04,2.01-2.18,1.95"/>
  <path class="cls-2" d="M268.44,99.43c-1.14-.07-2.01-1.04-1.95-2.18s1.04-2.01,2.18-1.95,2.01,1.04,1.95,2.18-1.04,2.01-2.18,1.95"/>
  <path class="cls-2" d="M358.65,24.29c-1.14-.07-2.01-1.04-1.95-2.18s1.04-2.01,2.18-1.95,2.01,1.04,1.95,2.18-1.04,2.01-2.18,1.95"/>
  <path class="cls-2" d="M398.05,16.79c-1.14-.07-2.01-1.04-1.95-2.18s1.04-2.01,2.18-1.95,2.01,1.04,1.95,2.18-1.04,2.01-2.18,1.95"/>
  <path class="cls-2" d="M408.62,16.79c-1.14-.07-2.01-1.04-1.95-2.18.07-1.14,1.04-2.01,2.18-1.95s2.01,1.04,1.95,2.18-1.04,2.01-2.18,1.95"/>
  <path class="cls-2" d="M415.42,16.79c-1.14-.07-2.01-1.04-1.95-2.18.07-1.14,1.04-2.01,2.18-1.95s2.01,1.04,1.95,2.18-1.04,2.01-2.18,1.95"/>
  <path class="cls-2" d="M437.02,19.87c-1.14-.07-2.01-1.04-1.95-2.18s1.04-2.01,2.18-1.95,2.01,1.04,1.95,2.18-1.04,2.01-2.18,1.95"/>
  <path class="cls-2" d="M512.19,33.01c-1.14-.07-2.01-1.04-1.95-2.18s1.04-2.01,2.18-1.95,2.01,1.04,1.95,2.18c-.07,1.14-1.04,2.01-2.18,1.95"/>
  <path class="cls-2" d="M532.7,40.81c-1.14-.07-2.01-1.04-1.95-2.18.07-1.14,1.04-2.01,2.18-1.95s2.01,1.04,1.95,2.18-1.04,2.01-2.18,1.95"/>
  <path class="cls-2" d="M565.15,57.77c-1.14-.07-2.01-1.04-1.95-2.18.07-1.14,1.04-2.01,2.18-1.95s2.01,1.04,1.95,2.18-1.04,2.01-2.18,1.95"/>
  <path class="cls-2" d="M603.47,90.33c-1.14-.07-2.01-1.04-1.95-2.18.07-1.14,1.04-2.01,2.18-1.95s2.01,1.04,1.95,2.18-1.04,2.01-2.18,1.95"/>
  <path class="cls-2" d="M612.49,100.47c-1.14-.07-2.01-1.04-1.95-2.18.07-1.14,1.04-2.01,2.18-1.95s2.01,1.04,1.95,2.18-1.04,2.01-2.18,1.95"/>
  <path class="cls-2" d="M617.84,107.22c-1.14-.07-2.01-1.04-1.95-2.18s1.04-2.01,2.18-1.95,2.01,1.04,1.95,2.18c-.07,1.14-1.04,2.01-2.18,1.95"/>
  <path class="cls-2" d="M620.86,111.36c-1.14-.07-2.01-1.04-1.95-2.18s1.04-2.01,2.18-1.95,2.01,1.04,1.95,2.18c-.07,1.14-1.04,2.01-2.18,1.95"/>
  <path class="cls-2" d="M64.13,190.45c-1.14-.07-2.01-1.04-1.95-2.18s1.04-2.01,2.18-1.95,2.01,1.04,1.95,2.18c-.07,1.14-1.04,2.01-2.18,1.95"/>
  <path class="cls-2" d="M665.17,230.88c-.96.62-2.24.35-2.86-.61s-.35-2.24.61-2.86,2.24-.35,2.86.61.35,2.24-.61,2.86"/>
  <path class="cls-2" d="M665.22,238.07c-.96.62-2.24.35-2.86-.61s-.35-2.24.61-2.86,2.24-.35,2.86.61.35,2.24-.61,2.86"/>
  <path class="cls-2" d="M664.82,225.56c-.96.62-2.24.35-2.86-.61s-.35-2.24.61-2.86,2.24-.35,2.86.61.35,2.24-.61,2.86"/>
  <path class="cls-2" d="M662.75,201.89c-.96.62-2.24.35-2.86-.61s-.35-2.24.61-2.86,2.24-.35,2.86.61.35,2.24-.61,2.86"/>
  <path class="cls-2" d="M660.68,190.45c-.96.62-2.24.35-2.86-.61s-.35-2.24.61-2.86,2.24-.35,2.86.61.35,2.24-.61,2.86"/>
  <path class="cls-2" d="M628.68,119.96c-.96.62-2.24.35-2.86-.61s-.35-2.24.61-2.86,2.24-.35,2.86.61.35,2.24-.61,2.86"/>
  <path class="cls-2" d="M628.14,331.11c-.96.62-2.24.35-2.86-.61s-.35-2.24.61-2.86,2.24-.35,2.86.61.35,2.24-.61,2.86"/>
  <path class="cls-2" d="M642.38,309.93c-.96.62-2.24.35-2.86-.61s-.35-2.24.61-2.86,2.24-.35,2.86.61.35,2.24-.61,2.86"/>
  <path class="cls-2" d="M646.24,302.28c-.96.62-2.24.35-2.86-.61s-.35-2.24.61-2.86,2.24-.35,2.86.61.35,2.24-.61,2.86"/>
  <path class="cls-2" d="M649.48,295.52c-.96.62-2.24.35-2.86-.61s-.35-2.24.61-2.86,2.24-.35,2.86.61.35,2.24-.61,2.86"/>
  <path class="cls-2" d="M102.52,217.48c.34-.22.6-.53.76-.87.29-.62.26-1.37-.14-1.99-.62-.96-1.9-1.23-2.86-.61s-1.23,1.9-.61,2.86,1.9,1.23,2.86.61"/>
  <path class="cls-2" d="M165.11,219.55c-.96.62-2.24.35-2.86-.61s-.35-2.24.61-2.86,2.24-.35,2.86.61.35,2.24-.61,2.86"/>
  <path class="cls-2" d="M653.62,165.26c-.96.62-2.24.35-2.86-.61-.62-.96-.35-2.24.61-2.86s2.24-.35,2.86.61.35,2.24-.61,2.86"/>
  <path class="cls-2" d="M20.78,16.45c-.96.62-2.24.35-2.86-.61-.62-.96-.35-2.24.61-2.86s2.24-.35,2.86.61.35,2.24-.61,2.86"/>
  <line class="cls-2" x1="26.25" y1="128.15" x2="37.73" y2="150.41"/>
  <line class="cls-2" x1="45.41" y1="162.6" x2="46.63" y2="164.51"/>
  <line class="cls-2" x1="65.66" y1="189.89" x2="69.93" y2="194.15"/>
  <line class="cls-2" x1="103.28" y1="216.6" x2="118.09" y2="221.66"/>
  <line class="cls-2" x1="233.59" y1="178.72" x2="238.65" y2="173.77"/>
  <line class="cls-2" x1="417.61" y1="14.84" x2="435.07" y2="17.68"/>
  <line class="cls-2" x1="605.19" y1="89.57" x2="611.22" y2="96.86"/>
  <line class="cls-2" x1="613.83" y1="100.06" x2="616.75" y2="103.49"/>
  <line class="cls-2" x1="622.39" y1="110.81" x2="626.43" y2="116.49"/>
  <line class="cls-2" x1="661.63" y1="202.22" x2="663.26" y2="221.75"/>
  <line class="cls-2" x1="664.05" y1="231.21" x2="664.09" y2="234.26"/>
</svg>