<?xml version="1.0" encoding="UTF-8"?>
<svg id="_레이어_1" data-name="레이어 1" xmlns="http://www.w3.org/2000/svg" viewBox="0 0 680.31 340.16">
  <defs>
    <style>
      .cls-1 {
        stroke-dasharray: 0 0 3 3;
      }

      .cls-1, .cls-2, .cls-3 {
        fill: none;
        stroke-miterlimit: 10;
      }

      .cls-1, .cls-3 {
        stroke: #000;
        stroke-width: .5px;
      }

      .cls-2 {
        stroke: #040000;
        stroke-linecap: square;
        stroke-width: .25px;
      }

      .cls-4 {
        fill: #fff;
        stroke-width: 0px;
      }
    </style>
  </defs>
  <rect class="cls-4" x="0" width="680.31" height="340.16"/>
  <line class="cls-3" x1="86.85" y1="254.55" x2="92.34" y2="254.55"/>
  <polyline class="cls-3" points="85.58 255.81 85.58 264.68 75.44 264.68 75.44 251.17 82.2 251.17"/>
  <circle class="cls-3" cx="85.58" cy="254.55" r="1.27"/>
  <polyline class="cls-3" points="85.58 264.68 85.58 268.06 82.2 268.06 82.28 284.95 95.79 284.95"/>
  <ellipse class="cls-3" cx="122.53" cy="264.68" rx="5.07" ry="6.76"/>
  <line class="cls-3" x1="130.98" y1="257.93" x2="117.46" y2="257.93"/>
  <line class="cls-3" x1="122.53" y1="257.93" x2="122.53" y2="251.17"/>
  <line class="cls-3" x1="132.24" y1="251.17" x2="137.73" y2="251.17"/>
  <circle class="cls-3" cx="130.98" cy="251.17" r="1.27"/>
  <polyline class="cls-3" points="147.84 284.95 127.57 284.95 127.6 281.58 127.6 278.2 130.98 278.2 130.98 252.44"/>
  <polyline class="cls-3" points="146.12 245.68 146.12 261.3 146.12 264.68 156.26 264.68 156.26 261.3 156.26 251.17"/>
  <line class="cls-3" x1="159.64" y1="257.93" x2="159.64" y2="254.55"/>
  <polyline class="cls-3" points="159.64 257.93 159.64 261.3 159.64 264.68 159.64 268.06 156.26 268.06 156.26 284.95 169.77 284.95"/>
  <line class="cls-3" x1="159.64" y1="261.3" x2="156.26" y2="261.3"/>
  <line class="cls-3" x1="146.12" y1="261.3" x2="152.88" y2="261.3"/>
  <circle class="cls-3" cx="146.12" cy="244.41" r="1.27"/>
  <rect class="cls-3" x="172.39" y="251.17" width="6.76" height="13.51"/>
  <polyline class="cls-3" points="182.53 255.81 182.53 268.06 179.15 268.06 179.15 284.95 192.67 284.95"/>
  <line class="cls-3" x1="183.8" y1="254.55" x2="189.29" y2="254.55"/>
  <circle class="cls-3" cx="182.53" cy="254.55" r="1.27"/>
  <ellipse class="cls-3" cx="199.06" cy="262.99" rx="3.38" ry="11.83"/>
  <polyline class="cls-3" points="205.82 265.95 205.82 278.2 205.82 284.95"/>
  <circle class="cls-3" cx="205.8" cy="264.68" r="1.27"/>
  <line class="cls-3" x1="216.46" y1="279.04" x2="222.37" y2="284.95"/>
  <polyline class="cls-3" points="215.61 251.17 222.37 251.17 222.37 278.2 216.88 278.2"/>
  <polyline class="cls-3" points="225.75 284.95 225.75 271.44 232.5 271.44"/>
  <circle class="cls-3" cx="215.61" cy="278.2" r="1.27"/>
  <polyline class="cls-3" points="250.02 257.93 239.88 257.93 239.89 271.44 253.41 271.44"/>
  <line class="cls-3" x1="250.03" y1="271.44" x2="250" y2="284.95"/>
  <polyline class="cls-3" points="253.49 284.95 251.38 284.95 244.62 284.95 241.24 284.95"/>
  <circle class="cls-3" cx="254.68" cy="284.95" r="1.27"/>
  <circle class="cls-3" cx="119.14" cy="77.31" r="1.27"/>
  <line class="cls-3" x1="58.76" y1="50.28" x2="64.25" y2="50.28"/>
  <polyline class="cls-3" points="16.95 77.31 43.98 50.28 57.49 63.79 57.49 51.54"/>
  <circle class="cls-3" cx="57.49" cy="50.28" r="1.27"/>
  <line class="cls-3" x1="106.47" y1="71.39" x2="112.38" y2="77.31"/>
  <polyline class="cls-3" points="105.63 43.52 112.38 43.52 112.38 70.55 106.89 70.55"/>
  <polyline class="cls-3" points="115.76 77.31 115.76 63.79 122.52 63.79"/>
  <circle class="cls-3" cx="105.63" cy="70.55" r="1.27"/>
  <polyline class="cls-3" points="119.98 76.46 146.17 50.28 136.03 50.28"/>
  <polyline class="cls-3" points="163.06 63.79 163.06 50.28 146.17 50.28 159.68 63.79"/>
  <circle class="cls-3" cx="119.14" cy="77.31" r="1.27"/>
  <line class="cls-3" x1="330" y1="70.55" x2="330" y2="77.31"/>
  <polyline class="cls-3" points="374.02 50.28 380.78 50.28 380.78 63.79"/>
  <line class="cls-3" x1="378.67" y1="77.31" x2="384.16" y2="77.31"/>
  <line class="cls-3" x1="377.4" y1="53.66" x2="377.4" y2="76.04"/>
  <polyline class="cls-3" points="380.78 77.31 380.78 84.06 387.54 84.06"/>
  <polyline class="cls-3" points="306.35 50.28 326.63 50.28 326.63 70.55 333.38 70.55"/>
  <line class="cls-3" x1="323.25" y1="50.28" x2="323.25" y2="67.17"/>
  <line class="cls-3" x1="326.63" y1="70.55" x2="317.76" y2="70.55"/>
  <circle class="cls-3" cx="316.49" cy="70.55" r="1.27"/>
  <circle class="cls-3" cx="377.4" cy="77.31" r="1.27"/>
  <polyline class="cls-3" points="243.54 70.57 253.68 70.57 253.68 50.31 250.31 50.31 250.3 66.52 250.31 50.31 243.55 50.31"/>
  <polyline class="cls-3" points="243.54 70.54 253.68 70.54 253.68 50.28 250.31 50.28 250.3 66.49 250.31 50.28 243.55 50.28"/>
  <path class="cls-3" d="M269.3,73.93c0-.7.57-1.27,1.27-1.27s1.27.57,1.27,1.27-.57,1.27-1.27,1.27-1.27-.57-1.27-1.27"/>
  <polyline class="cls-3" points="250.3 70.55 250.3 73.93 269.3 73.93"/>
  <polyline class="cls-3" points="250.3 73.93 243.54 73.93 243.54 77.31 280.7 77.31 280.7 73.93 271.84 73.93"/>
  <polyline class="cls-3" points="284.08 67.17 294.22 67.17 284.08 70.55 294.22 70.55 284.08 73.93 294.22 73.93 284.08 77.31 294.22 77.31 284.08 84.06 292.95 84.06"/>
  <ellipse class="cls-3" cx="289.15" cy="57.03" rx="5.07" ry="6.76"/>
  <line class="cls-3" x1="284.08" y1="63.79" x2="294.22" y2="63.79"/>
  <path class="cls-3" d="M210.62,40.14c0-.7.57-1.27,1.27-1.27s1.27.57,1.27,1.27-.57,1.27-1.27,1.27-1.27-.57-1.27-1.27"/>
  <path class="cls-3" d="M292.95,84.06c0-.7.57-1.27,1.27-1.27s1.27.57,1.27,1.27-.57,1.27-1.27,1.27-1.27-.57-1.27-1.27"/>
  <polyline class="cls-3" points="211.89 41.41 211.89 60.41 222.03 60.41 208.51 63.79 225.4 63.79 211.89 77.31 211.89 84.06 222.03 84.06"/>
  <ellipse class="cls-3" cx="392.6" cy="70.55" rx="5.07" ry="6.76"/>
  <line class="cls-3" x1="401.05" y1="63.79" x2="387.54" y2="63.79"/>
  <line class="cls-3" x1="392.6" y1="63.79" x2="392.6" y2="60.41"/>
  <line class="cls-3" x1="404.43" y1="77.31" x2="404.43" y2="51.54"/>
  <line class="cls-3" x1="401.05" y1="63.79" x2="401.05" y2="84.06"/>
  <path class="cls-3" d="M403.16,50.28c0-.7.57-1.27,1.27-1.27s1.27.57,1.27,1.27-.57,1.27-1.27,1.27-1.27-.57-1.27-1.27"/>
  <line class="cls-3" x1="401.05" y1="73.93" x2="404.43" y2="73.93"/>
  <polyline class="cls-3" points="418.57 77.31 445.6 50.28 459.11 63.79 442.22 63.79"/>
  <line class="cls-3" x1="455.73" y1="63.79" x2="455.73" y2="67.17"/>
  <polyline class="cls-3" points="457 77.31 462.49 77.31 462.49 67.17 455.73 67.17 455.73 76.04"/>
  <polyline class="cls-3" points="501.48 46.9 506.97 46.9 506.97 63.79"/>
  <polyline class="cls-3" points="503.59 50.28 503.59 70.55 510.34 70.55"/>
  <polyline class="cls-3" points="97.72 145.68 123.91 119.49 113.77 119.49"/>
  <polyline class="cls-3" points="137.42 119.49 123.91 119.49 137.42 133.01"/>
  <circle class="cls-3" cx="96.88" cy="146.52" r="1.27"/>
  <line class="cls-3" x1="123.91" y1="119.49" x2="123.91" y2="112.74"/>
  <polyline class="cls-3" points="107.02 160.04 134.04 133.01 123.58 133.01"/>
  <polyline class="cls-3" points="137.42 133.01 134.04 133.01 144.18 143.14"/>
  <polyline class="cls-3" points="137.42 133.01 137.42 122.87 144.18 122.87"/>
  <ellipse class="cls-3" cx="190.06" cy="133.01" rx="3.38" ry="13.51"/>
  <line class="cls-3" x1="198.08" y1="133.01" x2="203.57" y2="133.01"/>
  <line class="cls-3" x1="196.81" y1="146.52" x2="196.81" y2="134.27"/>
  <polyline class="cls-3" points="228.09 146.52 217.95 146.52 217.95 126.25 231.46 126.25"/>
  <line class="cls-3" x1="221.33" y1="126.25" x2="221.33" y2="141.88"/>
  <line class="cls-3" x1="251.25" y1="122.87" x2="256.74" y2="122.87"/>
  <polyline class="cls-3" points="239.84 119.49 239.84 133.01 249.98 133.01 249.98 124.14"/>
  <line class="cls-3" x1="263.96" y1="140.61" x2="269.87" y2="146.52"/>
  <polyline class="cls-3" points="263.11 112.74 269.87 112.74 269.87 139.77 264.38 139.77"/>
  <circle class="cls-3" cx="263.11" cy="139.77" r="1.27"/>
  <line class="cls-3" x1="273.25" y1="133.01" x2="273.25" y2="146.52"/>
  <polyline class="cls-3" points="273.25 143.14 276.63 143.14 276.63 129.63"/>
  <line class="cls-3" x1="276.63" y1="143.14" x2="276.63" y2="146.52"/>
  <polyline class="cls-3" points="224.71 133.01 231.46 133.01 231.46 112.74"/>
  <line class="cls-3" x1="231.46" y1="133.01" x2="231.46" y2="146.52"/>
  <circle class="cls-3" cx="455.73" cy="77.31" r="1.27"/>
  <circle class="cls-3" cx="500.21" cy="46.9" r="1.27"/>
  <circle class="cls-3" cx="221.33" cy="143.14" r="1.27"/>
  <circle class="cls-3" cx="249.98" cy="122.87" r="1.27"/>
  <polyline class="cls-3" points="467.87 67.17 478 67.17 467.87 70.55 478 70.55 467.87 73.93 478 73.93 467.87 77.31 478 77.31 467.87 84.06 476.74 84.06"/>
  <ellipse class="cls-3" cx="472.94" cy="57.03" rx="5.07" ry="6.76"/>
  <line class="cls-3" x1="467.87" y1="63.79" x2="478" y2="63.79"/>
  <path class="cls-3" d="M476.74,84.06c0-.7.57-1.27,1.27-1.27s1.27.57,1.27,1.27-.57,1.27-1.27,1.27-1.27-.57-1.27-1.27"/>
  <polyline class="cls-3" points="517.41 67.17 527.55 67.17 517.41 70.55 527.55 70.55 517.41 73.93 527.55 73.93 517.41 77.31 527.55 77.31 517.41 84.06 526.28 84.06"/>
  <ellipse class="cls-3" cx="522.48" cy="57.03" rx="5.07" ry="6.76"/>
  <line class="cls-3" x1="517.41" y1="63.79" x2="527.55" y2="63.79"/>
  <path class="cls-3" d="M526.28,84.06c0-.7.57-1.27,1.27-1.27s1.27.57,1.27,1.27-.57,1.27-1.27,1.27-1.27-.57-1.27-1.27"/>
  <polyline class="cls-3" points="249.98 133.01 256.74 133.01 249.98 136.39 256.74 136.39 249.98 139.77 256.74 139.77 249.98 143.14 256.74 143.14 249.98 148.21 256.74 148.21 249.98 153.28 256.74 153.28"/>
  <polyline class="cls-3" points="479.94 97.58 506.97 70.55 513.72 77.31"/>
  <circle class="cls-3" cx="196.81" cy="133.01" r="1.27"/>
  <line class="cls-3" x1="333.78" y1="119.49" x2="339.27" y2="119.49"/>
  <polyline class="cls-3" points="291.97 146.52 319 119.49 332.51 133.01 332.51 120.76"/>
  <circle class="cls-3" cx="332.51" cy="119.49" r="1.27"/>
  <ellipse class="cls-3" cx="330.82" cy="138.08" rx="6.76" ry="5.07"/>
  <polyline class="cls-3" points="333.36 145.68 359.54 119.49 349.4 119.49"/>
  <polyline class="cls-3" points="376.43 136.39 376.43 119.49 359.54 119.49 373.05 133.01"/>
  <circle class="cls-3" cx="332.51" cy="146.52" r="1.27"/>
  <line class="cls-3" x1="359.54" y1="119.49" x2="359.54" y2="112.74"/>
  <line class="cls-3" x1="376.43" y1="126.25" x2="369.67" y2="126.25"/>
  <polyline class="cls-3" points="382.81 112.74 382.81 133.01 392.95 133.01 392.95 119.49"/>
  <line class="cls-3" x1="389.57" y1="112.74" x2="389.57" y2="133.01"/>
  <line class="cls-3" x1="383.23" y1="129.63" x2="392.95" y2="129.63"/>
  <polyline class="cls-3" points="384.08 136.39 392.95 136.39 392.95 143.14"/>
  <polyline class="cls-3" points="389.57 139.77 389.57 146.52 396.32 146.52"/>
  <ellipse class="cls-3" cx="443.39" cy="133.01" rx="5.07" ry="6.76"/>
  <line class="cls-3" x1="451.84" y1="143.14" x2="451.84" y2="114"/>
  <polyline class="cls-3" points="445.08 139.34 445.08 146.52 465.35 146.52"/>
  <ellipse class="cls-3" cx="482.37" cy="133.01" rx="3.38" ry="13.51"/>
  <polyline class="cls-3" points="485.75 133.01 492.5 133.01 492.5 129.63"/>
  <line class="cls-3" x1="492.5" y1="133.01" x2="492.5" y2="146.52"/>
  <line class="cls-3" x1="492.5" y1="136.39" x2="490.39" y2="136.39"/>
  <line class="cls-3" x1="502.64" y1="122.87" x2="502.64" y2="133.01"/>
  <circle class="cls-3" cx="382.81" cy="136.39" r="1.27"/>
  <circle class="cls-3" cx="451.84" cy="112.74" r="1.27"/>
  <polyline class="cls-3" points="492.5 119.49 499.26 119.49 499.26 133.01 506.02 133.01 499.26 136.39 506.02 136.39 499.26 139.77 506.02 139.77 499.26 143.14 506.02 143.14 499.26 148.21 506.02 148.21 499.26 153.28 504.75 153.28"/>
  <circle class="cls-3" cx="489.12" cy="136.39" r="1.27"/>
  <circle class="cls-3" cx="506.02" cy="153.28" r="1.27"/>
  <polyline class="cls-3" points="538.33 114 538.33 129.63 538.33 133.01 548.47 133.01 548.47 129.63 548.47 119.49"/>
  <line class="cls-3" x1="551.85" y1="126.25" x2="551.85" y2="122.87"/>
  <polyline class="cls-3" points="551.85 126.25 551.85 129.63 551.85 133.01"/>
  <polyline class="cls-3" points="524.82 160.04 551.85 133.01 558.6 139.77"/>
  <line class="cls-3" x1="551.85" y1="129.63" x2="548.47" y2="129.63"/>
  <line class="cls-3" x1="538.33" y1="129.63" x2="545.09" y2="129.63"/>
  <path class="cls-3" d="M607.31,137.65c-.47,5.18-1.72,8.87-3.17,8.87-1.87,0-3.38-6.05-3.38-13.51,0-7.46,1.51-13.51,3.38-13.51s3.38,6.05,3.38,13.51c0,.72-.01,1.42-.04,2.11"/>
  <polyline class="cls-3" points="608.78 136.39 614.27 136.39 614.27 153.28"/>
  <line class="cls-3" x1="614.27" y1="136.39" x2="614.27" y2="133.01"/>
  <line class="cls-3" x1="631.05" y1="122.87" x2="636.54" y2="122.87"/>
  <polyline class="cls-3" points="619.65 119.49 619.65 133.01 629.78 133.01 629.78 124.14"/>
  <line class="cls-3" x1="629.78" y1="133.01" x2="629.78" y2="146.52"/>
  <polyline class="cls-3" points="55.43 215.74 82.46 188.71 95.98 202.22 79.08 202.22"/>
  <line class="cls-3" x1="92.6" y1="202.22" x2="92.6" y2="205.6"/>
  <polyline class="cls-3" points="90.49 208.98 99.36 208.98 99.36 205.6 89.22 205.6 89.22 207.71"/>
  <polyline class="cls-3" points="130.68 215.74 157.71 188.71 171.22 202.22 154.33 202.22"/>
  <line class="cls-3" x1="167.84" y1="202.22" x2="167.84" y2="205.6"/>
  <line class="cls-3" x1="171.22" y1="202.22" x2="171.22" y2="188.71"/>
  <polyline class="cls-3" points="280.34 229.25 307.37 202.22 317.51 212.36"/>
  <polyline class="cls-3" points="285.41 229.25 311.59 203.07 317.51 208.98"/>
  <ellipse class="cls-3" cx="298.92" cy="195.47" rx="5.07" ry="6.76"/>
  <line class="cls-3" x1="307.37" y1="202.22" x2="307.37" y2="183.22"/>
  <polyline class="cls-3" points="416.36 188.71 416.36 205.6 416.36 208.98 426.5 208.98 426.5 205.6 426.5 195.47"/>
  <line class="cls-3" x1="416.36" y1="205.6" x2="423.12" y2="205.6"/>
  <line class="cls-3" x1="431.14" y1="202.22" x2="436.63" y2="202.22"/>
  <line class="cls-3" x1="429.88" y1="215.74" x2="429.88" y2="203.49"/>
  <line class="cls-3" x1="483.06" y1="209.83" x2="488.97" y2="215.74"/>
  <polyline class="cls-3" points="482.22 181.95 488.97 181.95 488.97 208.98 483.48 208.98"/>
  <polyline class="cls-3" points="492.35 215.74 492.35 202.22 499.11 202.22"/>
  <circle class="cls-3" cx="482.22" cy="208.98" r="1.27"/>
  <polyline class="cls-3" points="502.49 181.95 502.49 212.36 509.24 212.36"/>
  <polyline class="cls-3" points="507.13 205.6 512.62 205.6 512.62 215.74"/>
  <line class="cls-3" x1="516" y1="215.74" x2="516" y2="198.85"/>
  <circle class="cls-3" cx="538.33" cy="112.74" r="1.27"/>
  <circle class="cls-3" cx="629.78" cy="122.87" r="1.27"/>
  <circle class="cls-3" cx="89.22" cy="208.98" r="1.27"/>
  <path class="cls-3" d="M211.16,215.74c0,.7-.56,1.27-1.27,1.27s-1.27-.56-1.27-1.27.56-1.27,1.27-1.27,1.27.56,1.27,1.27ZM250.44,202.22h3.38M243.68,202.22v13.51M210.74,214.89l26.18-26.18,13.51,13.51h-16.89"/>
  <circle class="cls-3" cx="607.51" cy="136.39" r="1.27"/>
  <polyline class="cls-3" points="102.73 205.6 112.87 205.6 102.73 208.98 112.87 208.98 102.73 212.36 112.87 212.36 102.73 215.74 112.87 215.74 102.73 222.5 111.6 222.5"/>
  <ellipse class="cls-3" cx="107.8" cy="195.47" rx="5.07" ry="6.76"/>
  <line class="cls-3" x1="102.73" y1="202.22" x2="112.87" y2="202.22"/>
  <path class="cls-3" d="M111.6,222.5c0-.7.57-1.27,1.27-1.27s1.27.57,1.27,1.27-.57,1.27-1.27,1.27-1.27-.57-1.27-1.27"/>
  <line class="cls-3" x1="365.67" y1="192.09" x2="365.67" y2="202.22"/>
  <polyline class="cls-3" points="355.53 188.71 362.29 188.71 362.29 202.22 369.04 202.22 362.29 205.6 369.04 205.6 362.29 208.98 369.04 208.98 362.29 212.36 369.04 212.36 362.29 217.43 369.04 217.43 362.29 222.5 367.78 222.5"/>
  <polyline class="cls-3" points="164.46 205.6 171.22 205.6 164.46 208.98 171.22 208.98 164.46 212.36 171.22 212.36 164.46 217.43 171.22 217.43 164.46 222.5 169.96 222.5"/>
  <circle class="cls-3" cx="171.22" cy="222.5" r="1.27"/>
  <circle class="cls-3" cx="307.37" cy="181.95" r="1.27"/>
  <circle class="cls-3" cx="369.04" cy="222.5" r="1.27"/>
  <circle class="cls-3" cx="429.88" cy="202.22" r="1.27"/>
  <circle class="cls-3" cx="505.87" cy="205.6" r="1.27"/>
  <path class="cls-1" d="M96.59,63.79s0,8.09-6.73,8.09c-6.73,0-6.73-8.09-6.73-8.09,0,0,0-8.09-6.73-8.09s-6.73,8.09-6.73,8.09"/>
  <path class="cls-1" d="M199.75,63.79s0,8.09-6.73,8.09c-6.73,0-6.73-8.09-6.73-8.09,0,0,0-8.09-6.73-8.09-6.73,0-6.73,8.09-6.73,8.09"/>
  <path class="cls-1" d="M365.67,63.79s0,8.09-6.73,8.09c-6.73,0-6.73-8.09-6.73-8.09,0,0,0-8.09-6.73-8.09s-6.73,8.09-6.73,8.09"/>
  <path class="cls-1" d="M177.49,133.01s0,8.09-6.73,8.09c-6.73,0-6.73-8.09-6.73-8.09,0,0,0-8.09-6.73-8.09s-6.73,8.09-6.73,8.09"/>
  <path class="cls-1" d="M430.28,133.01s0,8.09-6.73,8.09c-6.73,0-6.73-8.09-6.73-8.09,0,0,0-8.09-6.73-8.09s-6.73,8.09-6.73,8.09"/>
  <path class="cls-1" d="M591.76,133.01s0,8.09-6.73,8.09c-6.73,0-6.73-8.09-6.73-8.09,0,0,0-8.09-6.73-8.09s-6.73,8.09-6.73,8.09"/>
  <line class="cls-1" x1="182.74" y1="202.22" x2="210.12" y2="202.22"/>
  <line class="cls-1" x1="260.56" y1="202.22" x2="287.94" y2="202.22"/>
  <line class="cls-1" x1="323.21" y1="202.22" x2="350.59" y2="202.22"/>
  <line class="cls-1" x1="379.43" y1="202.22" x2="406.81" y2="202.22"/>
  <path class="cls-1" d="M470.66,202.22s0,8.09-6.73,8.09c-6.73,0-6.73-8.09-6.73-8.09,0,0,0-8.09-6.73-8.09s-6.73,8.09-6.73,8.09"/>
  <polyline class="cls-3" points="343.3 284.11 369.48 257.93 383 271.44 366.1 271.44"/>
  <polyline class="cls-3" points="376.24 274.82 376.24 291.71 382.96 291.71 382.96 278.2"/>
  <line class="cls-3" x1="379.58" y1="284.95" x2="382.96" y2="284.95"/>
  <polyline class="cls-3" points="409.27 257.93 409.27 274.82 409.27 278.2 416.03 278.2 419.41 278.2 419.41 274.82 419.41 264.68"/>
  <line class="cls-3" x1="409.27" y1="274.82" x2="414.76" y2="274.82"/>
  <polyline class="cls-3" points="416.03 278.2 416.03 284.95 412.65 284.95 426.16 284.95"/>
  <polyline class="cls-3" points="332.32 272.71 332.32 274.82 332.32 278.2 328.94 278.2 322.18 278.2 322.18 274.82 322.18 257.93 332.32 257.93 332.32 264.68 332.32 270.17"/>
  <polyline class="cls-3" points="328.94 278.2 328.94 284.95 325.56 284.95 339.08 284.95"/>
  <polyline class="cls-3" points="428.16 257.93 434.92 257.93 434.92 271.44"/>
  <line class="cls-3" x1="432.81" y1="284.95" x2="438.3" y2="284.95"/>
  <line class="cls-3" x1="431.54" y1="261.3" x2="431.54" y2="283.69"/>
  <circle class="cls-3" cx="431.54" cy="284.95" r="1.27"/>
  <polyline class="cls-3" points="465.52 284.11 491.71 257.93 505.22 271.44"/>
  <line class="cls-3" x1="505.22" y1="271.44" x2="505.22" y2="257.93"/>
  <polyline class="cls-3" points="498.46 271.44 505.22 271.44 508.6 271.44"/>
  <line class="cls-3" x1="505.22" y1="271.44" x2="505.22" y2="284.95"/>
  <line class="cls-3" x1="501.84" y1="271.44" x2="501.84" y2="284.95"/>
  <line class="cls-3" x1="498.46" y1="284.95" x2="508.6" y2="284.95"/>
  <ellipse class="cls-3" cx="555.36" cy="269.75" rx="3.38" ry="11.83"/>
  <polyline class="cls-3" points="562.11 269.33 562.11 281.58 562.11 284.95"/>
  <line class="cls-3" x1="562.11" y1="271.44" x2="558.73" y2="271.44"/>
  <line class="cls-3" x1="599.28" y1="257.93" x2="604.77" y2="257.93"/>
  <polyline class="cls-3" points="565.49 284.95 592.52 257.93 606.03 271.44 606.03 259.19"/>
  <circle class="cls-3" cx="606.03" cy="257.93" r="1.27"/>
  <circle class="cls-3" cx="332.32" cy="271.44" r="1.27"/>
  <circle class="cls-3" cx="342.45" cy="284.95" r="1.27"/>
  <circle class="cls-3" cx="416.03" cy="274.82" r="1.27"/>
  <circle class="cls-3" cx="464.68" cy="284.95" r="1.27"/>
  <circle class="cls-3" cx="562.11" cy="268.06" r="1.27"/>
  <polyline class="cls-3" points="285.04 251.17 285.04 281.58 291.8 281.58"/>
  <line class="cls-3" x1="295.18" y1="276.09" x2="295.18" y2="284.95"/>
  <line class="cls-3" x1="288.42" y1="274.82" x2="293.91" y2="274.82"/>
  <line class="cls-3" x1="298.55" y1="284.95" x2="298.55" y2="268.06"/>
  <path class="cls-3" d="M293.91,274.82c0-.7.57-1.27,1.27-1.27s1.27.57,1.27,1.27-.57,1.27-1.27,1.27-1.27-.57-1.27-1.27"/>
  <line class="cls-1" x1="517.79" y1="271.44" x2="545.17" y2="271.44"/>
  <path class="cls-2" d="M608.12,181.96c1.14.07,2.12-.81,2.18-1.95s-.81-2.12-1.95-2.18-2.12.81-2.18,1.95.81,2.12,1.95,2.18l-.02.79"/>
  <path class="cls-2" d="M607.86,186.88c1.14.07,2.12-.81,2.18-1.95.07-1.14-.81-2.12-1.95-2.18s-2.12.81-2.18,1.95.81,2.12,1.95,2.18l-.68,4.22"/>
  <path class="cls-2" d="M606.94,195.23c-1.14-.07-2.01-1.04-1.95-2.18s1.04-2.01,2.18-1.95,2.01,1.04,1.95,2.18-1.04,2.01-2.18,1.95"/>
  <path class="cls-2" d="M603.17,221.01c-1.14-.07-2.01-1.04-1.95-2.18s1.04-2.01,2.18-1.95,2.01,1.04,1.95,2.18-1.04,2.01-2.18,1.95"/>
  <path class="cls-2" d="M595.99,250.77c-1.14-.07-2.01-1.04-1.95-2.18s1.04-2.01,2.18-1.95,2.01,1.04,1.95,2.18c-.07,1.14-1.04,2.01-2.18,1.95"/>
  <path class="cls-2" d="M591.36,270.13c-1.14-.07-2.01-1.04-1.95-2.18.07-1.14,1.04-2.01,2.18-1.95s2.01,1.04,1.95,2.18-1.04,2.01-2.18,1.95"/>
  <path class="cls-2" d="M584.98,288.86c-1.14-.07-2.01-1.04-1.95-2.18s1.04-2.01,2.18-1.95,2.01,1.04,1.95,2.18-1.04,2.01-2.18,1.95"/>
  <path class="cls-2" d="M576.12,311.83c-1.12.22-2.21-.51-2.43-1.63-.22-1.12.51-2.21,1.63-2.43s2.21.51,2.43,1.63-.51,2.21-1.63,2.43"/>
  <path class="cls-2" d="M562.58,336.44c-1.12.22-2.21-.51-2.43-1.63-.22-1.12.51-2.21,1.63-2.43s2.21.51,2.43,1.63-.51,2.21-1.63,2.43"/>
  <path class="cls-2" d="M213.85,300.49c-1.14-.07-2.01-1.04-1.95-2.18s1.04-2.01,2.18-1.95,2.01,1.04,1.95,2.18c-.07,1.14-1.04,2.01-2.18,1.95"/>
  <path class="cls-2" d="M191.12,237.55c-1.14-.07-2.01-1.04-1.95-2.18s1.04-2.01,2.18-1.95,2.01,1.04,1.95,2.18c-.07,1.14-1.04,2.01-2.18,1.95"/>
  <path class="cls-2" d="M193.61,246.07c-1.14-.07-2.01-1.04-1.95-2.18s1.04-2.01,2.18-1.95,2.01,1.04,1.95,2.18-1.04,2.01-2.18,1.95"/>
  <path class="cls-2" d="M178.93,79.25c-1.14-.07-2.01-1.04-1.95-2.18s1.04-2.01,2.18-1.95,2.01,1.04,1.95,2.18-1.04,2.01-2.18,1.95"/>
  <path class="cls-2" d="M178.86,72.27c-1.14-.07-2.01-1.04-1.95-2.18s1.04-2.01,2.18-1.95,2.01,1.04,1.95,2.18-1.04,2.01-2.18,1.95"/>
  <path class="cls-2" d="M177.52,92.28c-1.14-.07-2.01-1.04-1.95-2.18s1.04-2.01,2.18-1.95,2.01,1.04,1.95,2.18c-.07,1.14-1.04,2.01-2.18,1.95"/>
  <path class="cls-2" d="M146.82,20.38c-1.14-.07-2.01-1.04-1.95-2.18s1.04-2.01,2.18-1.95,2.01,1.04,1.95,2.18c-.07,1.14-1.04,2.01-2.18,1.95"/>
  <path class="cls-2" d="M137.01,20.43c-1.14-.07-2.01-1.04-1.95-2.18s1.04-2.01,2.18-1.95,2.01,1.04,1.95,2.18-1.04,2.01-2.18,1.95"/>
  <path class="cls-2" d="M118.05,25.83c-1.14-.07-2.01-1.04-1.95-2.18s1.04-2.01,2.18-1.95,2.01,1.04,1.95,2.18-1.04,2.01-2.18,1.95"/>
  <path class="cls-2" d="M61.78,81.2c-1.14-.07-2.01-1.04-1.95-2.18.07-1.14,1.04-2.01,2.18-1.95s2.01,1.04,1.95,2.18-1.04,2.01-2.18,1.95"/>
  <path class="cls-2" d="M57.57,87.03c-1.14-.07-2.01-1.04-1.95-2.18s1.04-2.01,2.18-1.95,2.01,1.04,1.95,2.18c-.07,1.14-1.04,2.01-2.18,1.95"/>
  <path class="cls-2" d="M65.05,77.01c-1.14-.07-2.01-1.04-1.95-2.18s1.04-2.01,2.18-1.95,2.01,1.04,1.95,2.18-1.04,2.01-2.18,1.95"/>
  <path class="cls-2" d="M43.49,115.71c-1.14-.07-2.01-1.04-1.95-2.18s1.04-2.01,2.18-1.95,2.01,1.04,1.95,2.18-1.04,2.01-2.18,1.95"/>
  <path class="cls-2" d="M27.15,172.97c1.14.07,2.12-.81,2.18-1.95.07-1.14-.81-2.12-1.95-2.18s-2.12.81-2.18,1.95.81,2.12,1.95,2.18l-3.38,15.85"/>
  <path class="cls-2" d="M23.01,192.85c-1.14-.07-2.01-1.04-1.95-2.18s1.04-2.01,2.18-1.95,2.01,1.04,1.95,2.18-1.04,2.01-2.18,1.95"/>
  <path class="cls-2" d="M15.29,273.51c-1.14-.07-2.01-1.04-1.95-2.18.07-1.14,1.04-2.01,2.18-1.95s2.01,1.04,1.95,2.18-1.04,2.01-2.18,1.95"/>
  <path class="cls-2" d="M11.93,321.61c-1.14-.07-2.01-1.04-1.95-2.18s1.04-2.01,2.18-1.95,2.01,1.04,1.95,2.18c-.07,1.14-1.04,2.01-2.18,1.95"/>
  <path class="cls-2" d="M231.47,326.26c-1.14-.07-2.01-1.04-1.95-2.18s1.04-2.01,2.18-1.95,2.01,1.04,1.95,2.18-1.04,2.01-2.18,1.95"/>
  <path class="cls-2" d="M238.58,333.01c-1.14-.07-2.01-1.04-1.95-2.18s1.04-2.01,2.18-1.95,2.01,1.04,1.95,2.18c-.07,1.14-1.04,2.01-2.18,1.95"/>
  <path class="cls-2" d="M614.19,63.79c-1.14-.07-2.01-1.04-1.95-2.18.07-1.14,1.04-2.01,2.18-1.95s2.01,1.04,1.95,2.18-1.04,2.01-2.18,1.95"/>
  <path class="cls-2" d="M615.26,26.35c-1.14-.07-2.01-1.04-1.95-2.18.07-1.14,1.04-2.01,2.18-1.95s2.01,1.04,1.95,2.18-1.04,2.01-2.18,1.95"/>
  <path class="cls-2" d="M615.26,15.36c-1.14-.07-2.01-1.04-1.95-2.18.07-1.14,1.04-2.01,2.18-1.95s2.01,1.04,1.95,2.18-1.04,2.01-2.18,1.95"/>
  <line class="cls-2" x1="56.63" y1="86.73" x2="44.51" y2="111.57"/>
  <line class="cls-2" x1="139.2" y1="18.49" x2="144.87" y2="18.2"/>
  <line class="cls-2" x1="232.86" y1="325.81" x2="237.17" y2="329.57"/>
  <line class="cls-2" x1="584.11" y1="288.61" x2="576.45" y2="307.73"/>
  <line class="cls-2" x1="215.03" y1="300.49" x2="230.16" y2="322.7"/>
</svg>