<?xml version="1.0" encoding="UTF-8"?>
<svg id="_레이어_1" data-name="레이어 1" xmlns="http://www.w3.org/2000/svg" viewBox="0 0 680.31 340.16">
  <defs>
    <style>
      .cls-1 {
        stroke-dasharray: 0 0 3 3;
      }

      .cls-1, .cls-2, .cls-3 {
        fill: none;
        stroke-miterlimit: 10;
      }

      .cls-1, .cls-3 {
        stroke: #000;
        stroke-width: .5px;
      }

      .cls-2 {
        stroke: #040000;
        stroke-linecap: square;
        stroke-width: .25px;
      }

      .cls-4 {
        fill: #fff;
        stroke-width: 0px;
      }
    </style>
  </defs>
  <rect class="cls-4" x="0" width="680.31" height="340.16"/>
  <circle class="cls-3" cx="119.14" cy="77.31" r="1.27"/>
  <line class="cls-3" x1="58.76" y1="50.28" x2="64.25" y2="50.28"/>
  <polyline class="cls-3" points="16.95 77.31 43.98 50.28 57.49 63.79 57.49 51.54"/>
  <circle class="cls-3" cx="57.49" cy="50.28" r="1.27"/>
  <line class="cls-3" x1="106.47" y1="71.39" x2="112.38" y2="77.31"/>
  <polyline class="cls-3" points="105.63 43.52 112.38 43.52 112.38 70.55 106.89 70.55"/>
  <polyline class="cls-3" points="115.76 77.31 115.76 63.79 122.52 63.79"/>
  <circle class="cls-3" cx="105.63" cy="70.55" r="1.27"/>
  <polyline class="cls-3" points="119.98 76.46 146.17 50.28 136.03 50.28"/>
  <polyline class="cls-3" points="163.06 63.79 163.06 50.28 146.17 50.28 159.68 63.79"/>
  <circle class="cls-3" cx="119.14" cy="77.31" r="1.27"/>
  <line class="cls-3" x1="330" y1="70.55" x2="330" y2="77.31"/>
  <polyline class="cls-3" points="374.02 50.28 380.78 50.28 380.78 63.79"/>
  <line class="cls-3" x1="378.67" y1="77.31" x2="384.16" y2="77.31"/>
  <line class="cls-3" x1="377.4" y1="53.66" x2="377.4" y2="76.04"/>
  <polyline class="cls-3" points="380.78 77.31 380.78 84.06 387.54 84.06"/>
  <polyline class="cls-3" points="306.35 50.28 326.63 50.28 326.63 70.55 333.38 70.55"/>
  <line class="cls-3" x1="323.25" y1="50.28" x2="323.25" y2="67.17"/>
  <line class="cls-3" x1="326.63" y1="70.55" x2="317.76" y2="70.55"/>
  <circle class="cls-3" cx="316.49" cy="70.55" r="1.27"/>
  <circle class="cls-3" cx="377.4" cy="77.31" r="1.27"/>
  <polyline class="cls-3" points="243.54 70.57 253.68 70.57 253.68 50.31 250.31 50.31 250.3 66.52 250.31 50.31 243.55 50.31"/>
  <polyline class="cls-3" points="243.54 70.54 253.68 70.54 253.68 50.28 250.31 50.28 250.3 66.49 250.31 50.28 243.55 50.28"/>
  <path class="cls-3" d="M269.3,73.93c0-.7.57-1.27,1.27-1.27s1.27.57,1.27,1.27-.57,1.27-1.27,1.27-1.27-.57-1.27-1.27"/>
  <polyline class="cls-3" points="250.3 70.55 250.3 73.93 269.3 73.93"/>
  <polyline class="cls-3" points="250.3 73.93 243.54 73.93 243.54 77.31 280.7 77.31 280.7 73.93 271.84 73.93"/>
  <polyline class="cls-3" points="284.08 67.17 294.22 67.17 284.08 70.55 294.22 70.55 284.08 73.93 294.22 73.93 284.08 77.31 294.22 77.31 284.08 84.06 292.95 84.06"/>
  <ellipse class="cls-3" cx="289.15" cy="57.03" rx="5.07" ry="6.76"/>
  <line class="cls-3" x1="284.08" y1="63.79" x2="294.22" y2="63.79"/>
  <path class="cls-3" d="M210.62,40.14c0-.7.57-1.27,1.27-1.27s1.27.57,1.27,1.27-.57,1.27-1.27,1.27-1.27-.57-1.27-1.27"/>
  <path class="cls-3" d="M292.95,84.06c0-.7.57-1.27,1.27-1.27s1.27.57,1.27,1.27-.57,1.27-1.27,1.27-1.27-.57-1.27-1.27"/>
  <polyline class="cls-3" points="211.89 41.41 211.89 60.41 222.03 60.41 208.51 63.79 225.4 63.79 211.89 77.31 211.89 84.06 222.03 84.06"/>
  <ellipse class="cls-3" cx="392.6" cy="70.55" rx="5.07" ry="6.76"/>
  <line class="cls-3" x1="401.05" y1="63.79" x2="387.54" y2="63.79"/>
  <line class="cls-3" x1="392.6" y1="63.79" x2="392.6" y2="60.41"/>
  <line class="cls-3" x1="404.43" y1="77.31" x2="404.43" y2="51.54"/>
  <line class="cls-3" x1="401.05" y1="63.79" x2="401.05" y2="84.06"/>
  <path class="cls-3" d="M403.16,50.28c0-.7.57-1.27,1.27-1.27s1.27.57,1.27,1.27-.57,1.27-1.27,1.27-1.27-.57-1.27-1.27"/>
  <line class="cls-3" x1="401.05" y1="73.93" x2="404.43" y2="73.93"/>
  <polyline class="cls-3" points="418.57 77.31 445.6 50.28 459.11 63.79 442.22 63.79"/>
  <line class="cls-3" x1="455.73" y1="63.79" x2="455.73" y2="67.17"/>
  <polyline class="cls-3" points="457 77.31 462.49 77.31 462.49 67.17 455.73 67.17 455.73 76.04"/>
  <polyline class="cls-3" points="501.48 46.9 506.97 46.9 506.97 63.79"/>
  <polyline class="cls-3" points="503.59 50.28 503.59 70.55 510.34 70.55"/>
  <polyline class="cls-3" points="97.72 145.68 123.91 119.49 113.77 119.49"/>
  <polyline class="cls-3" points="137.42 119.49 123.91 119.49 137.42 133.01"/>
  <circle class="cls-3" cx="96.88" cy="146.52" r="1.27"/>
  <line class="cls-3" x1="123.91" y1="119.49" x2="123.91" y2="112.74"/>
  <polyline class="cls-3" points="107.02 160.04 134.04 133.01 123.58 133.01"/>
  <polyline class="cls-3" points="137.42 133.01 134.04 133.01 144.18 143.14"/>
  <polyline class="cls-3" points="137.42 133.01 137.42 122.87 144.18 122.87"/>
  <ellipse class="cls-3" cx="190.06" cy="133.01" rx="3.38" ry="13.51"/>
  <line class="cls-3" x1="198.08" y1="133.01" x2="203.57" y2="133.01"/>
  <line class="cls-3" x1="196.81" y1="146.52" x2="196.81" y2="134.27"/>
  <polyline class="cls-3" points="228.09 146.52 217.95 146.52 217.95 126.25 231.46 126.25"/>
  <line class="cls-3" x1="221.33" y1="126.25" x2="221.33" y2="141.88"/>
  <line class="cls-3" x1="251.25" y1="122.87" x2="256.74" y2="122.87"/>
  <polyline class="cls-3" points="239.84 119.49 239.84 133.01 249.98 133.01 249.98 124.14"/>
  <line class="cls-3" x1="263.96" y1="140.61" x2="269.87" y2="146.52"/>
  <polyline class="cls-3" points="263.11 112.74 269.87 112.74 269.87 139.77 264.38 139.77"/>
  <circle class="cls-3" cx="263.11" cy="139.77" r="1.27"/>
  <line class="cls-3" x1="273.25" y1="133.01" x2="273.25" y2="146.52"/>
  <polyline class="cls-3" points="273.25 143.14 276.63 143.14 276.63 129.63"/>
  <line class="cls-3" x1="276.63" y1="143.14" x2="276.63" y2="146.52"/>
  <polyline class="cls-3" points="224.71 133.01 231.46 133.01 231.46 112.74"/>
  <line class="cls-3" x1="231.46" y1="133.01" x2="231.46" y2="146.52"/>
  <circle class="cls-3" cx="455.73" cy="77.31" r="1.27"/>
  <circle class="cls-3" cx="500.21" cy="46.9" r="1.27"/>
  <circle class="cls-3" cx="221.33" cy="143.14" r="1.27"/>
  <circle class="cls-3" cx="249.98" cy="122.87" r="1.27"/>
  <polyline class="cls-3" points="467.87 67.17 478 67.17 467.87 70.55 478 70.55 467.87 73.93 478 73.93 467.87 77.31 478 77.31 467.87 84.06 476.74 84.06"/>
  <ellipse class="cls-3" cx="472.94" cy="57.03" rx="5.07" ry="6.76"/>
  <line class="cls-3" x1="467.87" y1="63.79" x2="478" y2="63.79"/>
  <path class="cls-3" d="M476.74,84.06c0-.7.57-1.27,1.27-1.27s1.27.57,1.27,1.27-.57,1.27-1.27,1.27-1.27-.57-1.27-1.27"/>
  <polyline class="cls-3" points="517.41 67.17 527.55 67.17 517.41 70.55 527.55 70.55 517.41 73.93 527.55 73.93 517.41 77.31 527.55 77.31 517.41 84.06 526.28 84.06"/>
  <ellipse class="cls-3" cx="522.48" cy="57.03" rx="5.07" ry="6.76"/>
  <line class="cls-3" x1="517.41" y1="63.79" x2="527.55" y2="63.79"/>
  <path class="cls-3" d="M526.28,84.06c0-.7.57-1.27,1.27-1.27s1.27.57,1.27,1.27-.57,1.27-1.27,1.27-1.27-.57-1.27-1.27"/>
  <polyline class="cls-3" points="249.98 133.01 256.74 133.01 249.98 136.39 256.74 136.39 249.98 139.77 256.74 139.77 249.98 143.14 256.74 143.14 249.98 148.21 256.74 148.21 249.98 153.28 256.74 153.28"/>
  <polyline class="cls-3" points="479.94 97.58 506.97 70.55 513.72 77.31"/>
  <circle class="cls-3" cx="196.81" cy="133.01" r="1.27"/>
  <line class="cls-3" x1="333.78" y1="119.49" x2="339.27" y2="119.49"/>
  <polyline class="cls-3" points="291.97 146.52 319 119.49 332.51 133.01 332.51 120.76"/>
  <circle class="cls-3" cx="332.51" cy="119.49" r="1.27"/>
  <ellipse class="cls-3" cx="330.82" cy="138.08" rx="6.76" ry="5.07"/>
  <polyline class="cls-3" points="333.36 145.68 359.54 119.49 349.4 119.49"/>
  <polyline class="cls-3" points="376.43 136.39 376.43 119.49 359.54 119.49 373.05 133.01"/>
  <circle class="cls-3" cx="332.51" cy="146.52" r="1.27"/>
  <line class="cls-3" x1="359.54" y1="119.49" x2="359.54" y2="112.74"/>
  <line class="cls-3" x1="376.43" y1="126.25" x2="369.67" y2="126.25"/>
  <polyline class="cls-3" points="382.81 112.74 382.81 133.01 392.95 133.01 392.95 119.49"/>
  <line class="cls-3" x1="389.57" y1="112.74" x2="389.57" y2="133.01"/>
  <line class="cls-3" x1="383.23" y1="129.63" x2="392.95" y2="129.63"/>
  <polyline class="cls-3" points="384.08 136.39 392.95 136.39 392.95 143.14"/>
  <polyline class="cls-3" points="389.57 139.77 389.57 146.52 396.32 146.52"/>
  <ellipse class="cls-3" cx="443.39" cy="133.01" rx="5.07" ry="6.76"/>
  <line class="cls-3" x1="451.84" y1="143.14" x2="451.84" y2="114"/>
  <polyline class="cls-3" points="445.08 139.34 445.08 146.52 465.35 146.52"/>
  <ellipse class="cls-3" cx="482.37" cy="133.01" rx="3.38" ry="13.51"/>
  <polyline class="cls-3" points="485.75 133.01 492.5 133.01 492.5 129.63"/>
  <line class="cls-3" x1="492.5" y1="133.01" x2="492.5" y2="146.52"/>
  <line class="cls-3" x1="492.5" y1="136.39" x2="490.39" y2="136.39"/>
  <line class="cls-3" x1="502.64" y1="122.87" x2="502.64" y2="133.01"/>
  <circle class="cls-3" cx="382.81" cy="136.39" r="1.27"/>
  <circle class="cls-3" cx="451.84" cy="112.74" r="1.27"/>
  <polyline class="cls-3" points="492.5 119.49 499.26 119.49 499.26 133.01 506.02 133.01 499.26 136.39 506.02 136.39 499.26 139.77 506.02 139.77 499.26 143.14 506.02 143.14 499.26 148.21 506.02 148.21 499.26 153.28 504.75 153.28"/>
  <circle class="cls-3" cx="489.12" cy="136.39" r="1.27"/>
  <circle class="cls-3" cx="506.02" cy="153.28" r="1.27"/>
  <polyline class="cls-3" points="538.33 114 538.33 129.63 538.33 133.01 548.47 133.01 548.47 129.63 548.47 119.49"/>
  <line class="cls-3" x1="551.85" y1="126.25" x2="551.85" y2="122.87"/>
  <polyline class="cls-3" points="551.85 126.25 551.85 129.63 551.85 133.01"/>
  <polyline class="cls-3" points="524.82 160.04 551.85 133.01 558.6 139.77"/>
  <line class="cls-3" x1="551.85" y1="129.63" x2="548.47" y2="129.63"/>
  <line class="cls-3" x1="538.33" y1="129.63" x2="545.09" y2="129.63"/>
  <path class="cls-3" d="M607.31,137.65c-.47,5.18-1.72,8.87-3.17,8.87-1.87,0-3.38-6.05-3.38-13.51,0-7.46,1.51-13.51,3.38-13.51s3.38,6.05,3.38,13.51c0,.72-.01,1.42-.04,2.11"/>
  <polyline class="cls-3" points="608.78 136.39 614.27 136.39 614.27 153.28"/>
  <line class="cls-3" x1="614.27" y1="136.39" x2="614.27" y2="133.01"/>
  <line class="cls-3" x1="631.05" y1="122.87" x2="636.54" y2="122.87"/>
  <polyline class="cls-3" points="619.65 119.49 619.65 133.01 629.78 133.01 629.78 124.14"/>
  <line class="cls-3" x1="629.78" y1="133.01" x2="629.78" y2="146.52"/>
  <polyline class="cls-3" points="55.43 215.74 82.46 188.71 95.98 202.22 79.08 202.22"/>
  <line class="cls-3" x1="92.6" y1="202.22" x2="92.6" y2="205.6"/>
  <polyline class="cls-3" points="90.49 208.98 99.36 208.98 99.36 205.6 89.22 205.6 89.22 207.71"/>
  <polyline class="cls-3" points="130.68 215.74 157.71 188.71 171.22 202.22 154.33 202.22"/>
  <line class="cls-3" x1="167.84" y1="202.22" x2="167.84" y2="205.6"/>
  <line class="cls-3" x1="171.22" y1="202.22" x2="171.22" y2="188.71"/>
  <polyline class="cls-3" points="280.34 229.25 307.37 202.22 317.51 212.36"/>
  <polyline class="cls-3" points="285.41 229.25 311.59 203.07 317.51 208.98"/>
  <ellipse class="cls-3" cx="298.92" cy="195.47" rx="5.07" ry="6.76"/>
  <line class="cls-3" x1="307.37" y1="202.22" x2="307.37" y2="183.22"/>
  <polyline class="cls-3" points="416.36 188.71 416.36 205.6 416.36 208.98 426.5 208.98 426.5 205.6 426.5 195.47"/>
  <line class="cls-3" x1="416.36" y1="205.6" x2="423.12" y2="205.6"/>
  <line class="cls-3" x1="431.14" y1="202.22" x2="436.63" y2="202.22"/>
  <line class="cls-3" x1="429.88" y1="215.74" x2="429.88" y2="203.49"/>
  <line class="cls-3" x1="483.06" y1="209.83" x2="488.97" y2="215.74"/>
  <polyline class="cls-3" points="482.22 181.95 488.97 181.95 488.97 208.98 483.48 208.98"/>
  <polyline class="cls-3" points="492.35 215.74 492.35 202.22 499.11 202.22"/>
  <circle class="cls-3" cx="482.22" cy="208.98" r="1.27"/>
  <polyline class="cls-3" points="502.49 181.95 502.49 212.36 509.24 212.36"/>
  <polyline class="cls-3" points="507.13 205.6 512.62 205.6 512.62 215.74"/>
  <line class="cls-3" x1="516" y1="215.74" x2="516" y2="198.85"/>
  <circle class="cls-3" cx="538.33" cy="112.74" r="1.27"/>
  <circle class="cls-3" cx="629.78" cy="122.87" r="1.27"/>
  <circle class="cls-3" cx="89.22" cy="208.98" r="1.27"/>
  <path class="cls-3" d="M211.16,215.74c0,.7-.56,1.27-1.27,1.27s-1.27-.56-1.27-1.27.56-1.27,1.27-1.27,1.27.56,1.27,1.27ZM250.44,202.22h3.38M243.68,202.22v13.51M210.74,214.89l26.18-26.18,13.51,13.51h-16.89"/>
  <circle class="cls-3" cx="607.51" cy="136.39" r="1.27"/>
  <polyline class="cls-3" points="102.73 205.6 112.87 205.6 102.73 208.98 112.87 208.98 102.73 212.36 112.87 212.36 102.73 215.74 112.87 215.74 102.73 222.5 111.6 222.5"/>
  <ellipse class="cls-3" cx="107.8" cy="195.47" rx="5.07" ry="6.76"/>
  <line class="cls-3" x1="102.73" y1="202.22" x2="112.87" y2="202.22"/>
  <path class="cls-3" d="M111.6,222.5c0-.7.57-1.27,1.27-1.27s1.27.57,1.27,1.27-.57,1.27-1.27,1.27-1.27-.57-1.27-1.27"/>
  <line class="cls-3" x1="365.67" y1="192.09" x2="365.67" y2="202.22"/>
  <polyline class="cls-3" points="355.53 188.71 362.29 188.71 362.29 202.22 369.04 202.22 362.29 205.6 369.04 205.6 362.29 208.98 369.04 208.98 362.29 212.36 369.04 212.36 362.29 217.43 369.04 217.43 362.29 222.5 367.78 222.5"/>
  <polyline class="cls-3" points="164.46 205.6 171.22 205.6 164.46 208.98 171.22 208.98 164.46 212.36 171.22 212.36 164.46 217.43 171.22 217.43 164.46 222.5 169.96 222.5"/>
  <circle class="cls-3" cx="171.22" cy="222.5" r="1.27"/>
  <circle class="cls-3" cx="307.37" cy="181.95" r="1.27"/>
  <circle class="cls-3" cx="369.04" cy="222.5" r="1.27"/>
  <circle class="cls-3" cx="429.88" cy="202.22" r="1.27"/>
  <circle class="cls-3" cx="505.87" cy="205.6" r="1.27"/>
  <path class="cls-1" d="M96.59,63.79s0,8.09-6.73,8.09c-6.73,0-6.73-8.09-6.73-8.09,0,0,0-8.09-6.73-8.09s-6.73,8.09-6.73,8.09"/>
  <path class="cls-1" d="M199.75,63.79s0,8.09-6.73,8.09c-6.73,0-6.73-8.09-6.73-8.09,0,0,0-8.09-6.73-8.09-6.73,0-6.73,8.09-6.73,8.09"/>
  <path class="cls-1" d="M365.67,63.79s0,8.09-6.73,8.09c-6.73,0-6.73-8.09-6.73-8.09,0,0,0-8.09-6.73-8.09s-6.73,8.09-6.73,8.09"/>
  <path class="cls-1" d="M177.49,133.01s0,8.09-6.73,8.09c-6.73,0-6.73-8.09-6.73-8.09,0,0,0-8.09-6.73-8.09s-6.73,8.09-6.73,8.09"/>
  <path class="cls-1" d="M430.28,133.01s0,8.09-6.73,8.09c-6.73,0-6.73-8.09-6.73-8.09,0,0,0-8.09-6.73-8.09s-6.73,8.09-6.73,8.09"/>
  <path class="cls-1" d="M591.76,133.01s0,8.09-6.73,8.09c-6.73,0-6.73-8.09-6.73-8.09,0,0,0-8.09-6.73-8.09s-6.73,8.09-6.73,8.09"/>
  <line class="cls-1" x1="182.74" y1="202.22" x2="210.12" y2="202.22"/>
  <line class="cls-1" x1="260.56" y1="202.22" x2="287.94" y2="202.22"/>
  <line class="cls-1" x1="323.21" y1="202.22" x2="350.59" y2="202.22"/>
  <line class="cls-1" x1="379.43" y1="202.22" x2="406.81" y2="202.22"/>
  <path class="cls-1" d="M470.66,202.22s0,8.09-6.73,8.09c-6.73,0-6.73-8.09-6.73-8.09,0,0,0-8.09-6.73-8.09s-6.73,8.09-6.73,8.09"/>
  <polyline class="cls-3" points="440 284.11 466.18 257.93 456.04 257.93"/>
  <circle class="cls-3" cx="439.15" cy="284.95" r="1.27"/>
  <line class="cls-3" x1="483.07" y1="264.68" x2="493.21" y2="264.68"/>
  <polyline class="cls-3" points="479.69 271.44 466.18 257.93 483.07 257.93 483.07 274.82"/>
  <polyline class="cls-3" points="479.69 274.82 486.45 274.82 486.45 284.95 486.45 291.71"/>
  <line class="cls-3" x1="530.95" y1="257.93" x2="536.44" y2="257.93"/>
  <polyline class="cls-3" points="489.14 284.95 516.17 257.93 529.68 271.44 529.68 259.19"/>
  <circle class="cls-3" cx="529.68" cy="257.93" r="1.27"/>
  <line class="cls-3" x1="563.34" y1="261.3" x2="568.83" y2="261.3"/>
  <polyline class="cls-3" points="551.94 257.93 551.94 271.44 562.08 271.44 562.08 262.57"/>
  <line class="cls-3" x1="562.08" y1="271.44" x2="562.08" y2="284.95"/>
  <circle class="cls-3" cx="562.08" cy="261.3" r="1.27"/>
  <path class="cls-3" d="M615.04,284.64c0,.7-.56,1.27-1.27,1.27s-1.27-.56-1.27-1.27.56-1.27,1.27-1.27,1.27.56,1.27,1.27ZM654.32,271.12h3.38M647.56,271.12v13.51M614.62,283.79l26.18-26.18,13.51,13.51h-16.89"/>
  <polyline class="cls-3" points="565.15 284.95 592.18 257.93 582.05 257.93"/>
  <line class="cls-3" x1="609.08" y1="264.68" x2="619.21" y2="264.68"/>
  <polyline class="cls-3" points="605.7 271.44 592.18 257.93 609.08 257.93 609.08 274.82"/>
  <polyline class="cls-3" points="606.84 278.2 615.71 278.2 615.71 274.82 605.57 274.82 605.57 276.93"/>
  <circle class="cls-3" cx="605.57" cy="278.2" r="1.27"/>
  <circle class="cls-3" cx="541.06" cy="266.37" r="1.27"/>
  <circle class="cls-3" cx="541.06" cy="275.93" r="1.27"/>
  <path class="cls-2" d="M661.58,236.85c1.11.26,1.8,1.37,1.54,2.49s-1.37,1.8-2.49,1.54c-1.11-.26-1.8-1.37-1.54-2.49s1.37-1.8,2.49-1.54"/>
  <path class="cls-2" d="M652.93,208.72c1.11.26,1.8,1.37,1.54,2.49s-1.37,1.8-2.49,1.54-1.8-1.37-1.54-2.49,1.37-1.8,2.49-1.54"/>
  <path class="cls-2" d="M648.95,199.52c1.11.26,1.8,1.37,1.54,2.49-.26,1.11-1.37,1.8-2.49,1.54s-1.8-1.37-1.54-2.49,1.37-1.8,2.49-1.54"/>
  <path class="cls-2" d="M646.34,193.67c1.11.26,1.8,1.37,1.54,2.49-.26,1.11-1.37,1.8-2.49,1.54s-1.8-1.37-1.54-2.49,1.37-1.8,2.49-1.54"/>
  <path class="cls-2" d="M644.3,189.35c1.11.26,1.8,1.37,1.54,2.49s-1.37,1.8-2.49,1.54-1.8-1.37-1.54-2.49,1.37-1.8,2.49-1.54"/>
  <path class="cls-2" d="M642.6,185.42c1.11.26,1.8,1.37,1.54,2.49s-1.37,1.8-2.49,1.54-1.8-1.37-1.54-2.49,1.37-1.8,2.49-1.54"/>
  <path class="cls-2" d="M637.22,174.75c1.11.26,1.8,1.37,1.54,2.49-.26,1.11-1.37,1.8-2.49,1.54s-1.8-1.37-1.54-2.49,1.37-1.8,2.49-1.54"/>
  <path class="cls-2" d="M628.07,160.75c1.11.26,1.8,1.37,1.54,2.49s-1.37,1.8-2.49,1.54-1.8-1.37-1.54-2.49,1.37-1.8,2.49-1.54"/>
  <path class="cls-2" d="M553.1,93.53c1.14,0,2.07.92,2.08,2.06s-.92,2.07-2.06,2.08-2.07-.92-2.08-2.06c0-1.14.92-2.07,2.06-2.08"/>
  <path class="cls-2" d="M538.62,93.16c1.14,0,2.07.92,2.08,2.06,0,1.14-.92,2.07-2.06,2.08s-2.07-.92-2.08-2.06.92-2.07,2.06-2.08"/>
  <path class="cls-2" d="M531.72,93.58c1.14,0,2.07.92,2.08,2.06,0,1.14-.92,2.07-2.06,2.08s-2.07-.92-2.08-2.06.92-2.07,2.06-2.08"/>
  <path class="cls-2" d="M436.56,150.99c1.14,0,2.07.92,2.08,2.06,0,1.14-.92,2.07-2.06,2.08s-2.07-.92-2.08-2.06c0-1.14.92-2.07,2.06-2.08"/>
  <path class="cls-2" d="M422.2,170.76c1.14,0,2.07.92,2.08,2.06,0,1.14-.92,2.07-2.06,2.08s-2.07-.92-2.08-2.06.92-2.07,2.06-2.08"/>
  <path class="cls-2" d="M411.63,214.89c1.14,0,2.07.92,2.08,2.06,0,1.14-.92,2.07-2.06,2.08s-2.07-.92-2.08-2.06.92-2.07,2.06-2.08"/>
  <path class="cls-2" d="M408.2,227.3c1.14,0,2.07.92,2.08,2.06,0,1.14-.92,2.07-2.06,2.08s-2.07-.92-2.08-2.06.92-2.07,2.06-2.08"/>
  <path class="cls-2" d="M406.49,233.36c1.14,0,2.07.92,2.08,2.06,0,1.14-.92,2.07-2.06,2.08s-2.07-.92-2.08-2.06.92-2.07,2.06-2.08"/>
  <path class="cls-2" d="M326.96,307.78c1.14,0,2.07.92,2.08,2.06s-.92,2.07-2.06,2.08-2.07-.92-2.08-2.06c0-1.14.92-2.07,2.06-2.08"/>
  <path class="cls-2" d="M288.08,317.64c1.14,0,2.07.92,2.08,2.06s-.92,2.07-2.06,2.08-2.07-.92-2.08-2.06.92-2.07,2.06-2.08"/>
  <path class="cls-2" d="M277.53,318.28c1.14,0,2.07.92,2.08,2.06,0,1.14-.92,2.07-2.06,2.08s-2.07-.92-2.08-2.06.92-2.07,2.06-2.08"/>
  <path class="cls-2" d="M270.74,318.69c1.14,0,2.07.92,2.08,2.06,0,1.14-.92,2.07-2.06,2.08s-2.07-.92-2.08-2.06.92-2.07,2.06-2.08"/>
  <path class="cls-2" d="M249,316.91c1.14,0,2.07.92,2.08,2.06s-.92,2.07-2.06,2.08-2.07-.92-2.08-2.06c0-1.14.92-2.07,2.06-2.08"/>
  <path class="cls-2" d="M173.18,308.31c1.14,0,2.07.92,2.08,2.06,0,1.14-.92,2.07-2.06,2.08s-2.07-.92-2.08-2.06c0-1.14.92-2.07,2.06-2.08"/>
  <path class="cls-2" d="M152.24,301.76c1.14,0,2.07.92,2.08,2.06,0,1.14-.92,2.07-2.06,2.08s-2.07-.92-2.08-2.06.92-2.07,2.06-2.08"/>
  <path class="cls-2" d="M118.82,286.79c1.14,0,2.07.92,2.08,2.06,0,1.14-.92,2.07-2.06,2.08s-2.07-.92-2.08-2.06.92-2.07,2.06-2.08"/>
  <path class="cls-2" d="M78.61,256.59c1.14,0,2.07.92,2.08,2.06,0,1.14-.92,2.07-2.06,2.08s-2.07-.92-2.08-2.06c0-1.14.92-2.07,2.06-2.08"/>
  <path class="cls-2" d="M69,247.01c1.14,0,2.07.92,2.08,2.06s-.92,2.07-2.06,2.08-2.07-.92-2.08-2.06.92-2.07,2.06-2.08"/>
  <path class="cls-2" d="M63.25,240.59c1.14,0,2.07.92,2.08,2.06,0,1.14-.92,2.07-2.06,2.08s-2.07-.92-2.08-2.06.92-2.07,2.06-2.08"/>
  <path class="cls-2" d="M59.99,236.64c1.14,0,2.07.92,2.08,2.06s-.92,2.07-2.06,2.08-2.07-.92-2.08-2.06c0-1.14.92-2.07,2.06-2.08"/>
  <path class="cls-2" d="M634.02,168.98c1.11.26,1.8,1.37,1.54,2.49s-1.37,1.8-2.49,1.54-1.8-1.37-1.54-2.49c.26-1.11,1.37-1.8,2.49-1.54"/>
  <path class="cls-2" d="M8.57,120c.92-.68,2.22-.48,2.89.44.68.92.48,2.22-.44,2.89s-2.22.48-2.89-.44-.48-2.22.44-2.89"/>
  <path class="cls-2" d="M8.09,112.83c.92-.68,2.22-.48,2.89.44s.48,2.22-.44,2.89-2.22.48-2.89-.44-.48-2.22.44-2.89"/>
  <path class="cls-2" d="M9.24,125.29c.92-.68,2.22-.48,2.89.44.68.92.48,2.22-.44,2.89-.92.68-2.22.48-2.89-.44s-.48-2.22.44-2.89"/>
  <path class="cls-2" d="M12.73,148.79c.92-.68,2.22-.48,2.89.44s.48,2.22-.44,2.89-2.22.48-2.89-.44c-.68-.92-.48-2.22.44-2.89"/>
  <path class="cls-2" d="M15.48,160.09c.92-.68,2.22-.48,2.89.44.68.92.48,2.22-.44,2.89s-2.22.48-2.89-.44-.48-2.22.44-2.89"/>
  <path class="cls-2" d="M51.66,228.52c.92-.68,2.22-.48,2.89.44.68.92.48,2.22-.44,2.89-.92.68-2.22.48-2.89-.44s-.48-2.22.44-2.89"/>
  <path class="cls-2" d="M39.51,17.73c.92-.68,2.22-.48,2.89.44s.48,2.22-.44,2.89-2.22.48-2.89-.44c-.68-.92-.48-2.22.44-2.89"/>
  <path class="cls-2" d="M26.56,39.73c.92-.68,2.22-.48,2.89.44.68.92.48,2.22-.44,2.89-.92.68-2.22.48-2.89-.44-.68-.92-.48-2.22.44-2.89"/>
  <path class="cls-2" d="M23.17,47.6c.92-.68,2.22-.48,2.89.44s.48,2.22-.44,2.89-2.22.48-2.89-.44-.48-2.22.44-2.89"/>
  <path class="cls-2" d="M20.34,54.54c.92-.68,2.22-.48,2.89.44.68.92.48,2.22-.44,2.89s-2.22.48-2.89-.44-.48-2.22.44-2.89"/>
  <path class="cls-2" d="M571.01,99.55c.92-.68,2.22-.48,2.89.44s.48,2.22-.44,2.89-2.22.48-2.89-.44-.48-2.22.44-2.89"/>
  <path class="cls-2" d="M508.41,101.25c.92-.68,2.22-.48,2.89.44.68.92.48,2.22-.44,2.89-.92.68-2.22.48-2.89-.44-.68-.92-.48-2.22.44-2.89"/>
  <path class="cls-2" d="M24.04,184.81c.92-.68,2.22-.48,2.89.44.68.92.48,2.22-.44,2.89s-2.22.48-2.89-.44c-.68-.92-.48-2.22.44-2.89"/>
  <path class="cls-2" d="M664.69,308.29c.92-.68,2.22-.48,2.89.44s.48,2.22-.44,2.89-2.22.48-2.89-.44-.48-2.22.44-2.89"/>
  <line class="cls-2" x1="120.4" y1="290.18" x2="150.31" y2="303.08"/>
  <line class="cls-2" x1="64.68" y1="244.15" x2="67.64" y2="247.54"/>
  <line class="cls-2" x1="61.95" y1="241.05" x2="61.32" y2="240.29"/>
  <line class="cls-2" x1="16.03" y1="159.69" x2="14.39" y2="152.48"/>
  <line class="cls-2" x1="22.33" y1="54.13" x2="23.64" y2="51.18"/>
  <line class="cls-2" x1="25.21" y1="47.37" x2="26.96" y2="43.28"/>
  <line class="cls-2" x1="637.62" y1="178.63" x2="641.31" y2="185.37"/>
  <line class="cls-2" x1="632.21" y1="169.42" x2="628.51" y2="164.61"/>
</svg>