<?xml version="1.0" encoding="UTF-8"?>
<svg id="_레이어_1" data-name="레이어 1" xmlns="http://www.w3.org/2000/svg" viewBox="0 0 340.16 340.16">
  <defs>
    <style>
      .cls-1 {
        stroke-linecap: square;
      }

      .cls-1, .cls-2 {
        fill: none;
        stroke: #040000;
        stroke-miterlimit: 10;
      }

      .cls-3 {
        fill: #fff;
        stroke-width: 0px;
      }
    </style>
  </defs>
  <rect class="cls-3" x="-340.16" width="680.31" height="340.16"/>
  <g>
    <circle class="cls-1" cx="131.44" cy="296.44" r="2.07"/>
    <line class="cls-1" x1="94.88" y1="252.28" x2="103.84" y2="252.28"/>
    <line class="cls-1" x1="92.81" y1="254.35" x2="92.81" y2="254.35"/>
    <polyline class="cls-1" points="26.57 296.44 70.73 252.28 92.81 274.36 92.81 254.35"/>
    <circle class="cls-1" cx="92.81" cy="252.28" r="2.07"/>
    <line class="cls-1" x1="110.74" y1="286.78" x2="120.4" y2="296.44"/>
    <polyline class="cls-1" points="109.36 241.24 120.4 241.24 120.4 285.4 111.43 285.4"/>
    <polyline class="cls-1" points="125.92 296.44 125.92 274.36 136.96 274.36"/>
    <circle class="cls-1" cx="109.36" cy="285.4" r="2.07"/>
    <polyline class="cls-1" points="132.82 295.06 175.6 252.28 159.04 252.28"/>
    <polyline class="cls-1" points="203.2 274.36 203.2 252.28 175.6 252.28 197.68 274.36"/>
    <circle class="cls-1" cx="131.44" cy="296.44" r="2.07"/>
    <polyline class="cls-1" points="252.87 285.44 269.43 285.44 269.44 252.33 263.93 252.33 263.91 278.82 263.93 252.33 252.89 252.33"/>
    <polyline class="cls-1" points="252.87 285.39 269.43 285.39 269.44 252.28 263.93 252.28 263.91 278.77 263.93 252.28 252.89 252.28"/>
    <path class="cls-1" d="M294.96,290.92c0-1.14.93-2.07,2.07-2.07s2.07.93,2.07,2.07-.93,2.07-2.07,2.07-2.07-.93-2.07-2.07"/>
    <polyline class="cls-1" points="263.91 285.4 263.91 290.92 294.96 290.92"/>
    <polyline class="cls-1" points="263.91 290.92 252.87 290.92 252.87 296.44 313.59 296.44 313.59 290.92 299.1 290.92"/>
    <path class="cls-1" d="M212.16,235.72c0-1.14.93-2.07,2.07-2.07s2.07.93,2.07,2.07-.93,2.07-2.07,2.07-2.07-.93-2.07-2.07"/>
    <polyline class="cls-1" points="214.23 237.79 214.23 268.84 230.79 268.84 208.72 274.36 236.31 274.36 214.23 296.44 214.23 307.48 230.79 307.48"/>
  </g>
  <g>
    <polyline class="cls-2" points="69.42 80.53 114.13 36.41 136.49 58.47 108.54 58.47"/>
    <line class="cls-2" x1="130.9" y1="58.47" x2="130.9" y2="63.99"/>
    <polyline class="cls-2" points="125.31 63.99 136.49 63.99 125.31 69.5 136.49 69.5 125.31 75.02 136.49 75.02 125.31 80.53 136.49 80.53 125.31 88.8 136.49 88.8 125.31 97.08 134.4 97.08"/>
    <ellipse class="cls-2" cx="136.49" cy="97.08" rx="2.1" ry="2.07"/>
    <line class="cls-1" x1="161.68" y1="41.93" x2="170.65" y2="41.93"/>
    <polyline class="cls-1" points="159.61 44 159.61 58.49 143.05 58.49 143.05 36.41 154.09 36.41"/>
    <circle class="cls-1" cx="159.61" cy="41.93" r="2.07"/>
    <polyline class="cls-1" points="159.61 58.49 159.61 64.01 154.09 64.01 154.22 91.61 176.3 91.61"/>
    <line class="cls-1" x1="143.19" y1="41.93" x2="154.22" y2="41.93"/>
    <line class="cls-1" x1="231.87" y1="80.57" x2="184.27" y2="80.57"/>
    <line class="cls-1" x1="204.28" y1="75.05" x2="204.28" y2="80.57"/>
    <ellipse class="cls-1" cx="204.28" cy="66.77" rx="22.08" ry="8.28"/>
    <polyline class="cls-1" points="231.87 36.41 231.87 64.01 231.87 69.53 242.91 69.53 248.43 69.53 248.43 64.01 248.43 47.45"/>
    <line class="cls-1" x1="231.87" y1="64.01" x2="240.84" y2="64.01"/>
    <polyline class="cls-1" points="242.91 80.57 237.39 80.57 259.47 80.57"/>
    <circle class="cls-1" cx="242.91" cy="64.01" r="2.07"/>
    <circle class="cls-1" cx="182.2" cy="80.53" r="2.07"/>
  </g>
  <g>
    <polyline class="cls-1" points="176.53 158 162.04 158 162.04 124.89 184.12 124.89"/>
    <polyline class="cls-1" points="173.08 135.92 184.12 135.92 184.12 102.81"/>
    <line class="cls-1" x1="184.12" y1="135.92" x2="184.12" y2="158"/>
    <circle class="cls-1" cx="178.6" cy="158" r="2.07"/>
  </g>
  <g>
    <polyline class="cls-1" points="136.41 219.93 121.92 219.93 121.92 186.81 144 186.81"/>
    <line class="cls-1" x1="144" y1="197.85" x2="144" y2="164.74"/>
    <line class="cls-1" x1="144" y1="197.85" x2="144" y2="219.93"/>
    <polyline class="cls-1" points="129.58 242.01 173.74 197.85 195.82 219.93 168.22 219.93"/>
    <line class="cls-1" x1="195.82" y1="219.93" x2="199.52" y2="219.93"/>
    <polyline class="cls-1" points="217.13 197.85 217.13 175.77 206.1 175.77 200.58 175.77"/>
    <line class="cls-1" x1="213.68" y1="219.93" x2="222.65" y2="219.93"/>
    <line class="cls-1" x1="211.61" y1="197.85" x2="211.61" y2="217.86"/>
    <line class="cls-1" x1="217.13" y1="181.29" x2="206.1" y2="181.29"/>
    <circle class="cls-1" cx="138.48" cy="219.93" r="2.07"/>
    <circle class="cls-1" cx="211.61" cy="219.93" r="2.07"/>
    <circle class="cls-1" cx="201.59" cy="219.93" r="2.07"/>
  </g>
  <g>
    <path class="cls-1" d="M.56,286.42c0-1.14.93-2.07,2.07-2.07s2.07.93,2.07,2.07-.93,2.07-2.07,2.07-2.07-.93-2.07-2.07"/>
    <path class="cls-1" d="M5.58,291.83c0-1.14.93-2.07,2.07-2.07s2.07.93,2.07,2.07-.93,2.07-2.07,2.07-2.07-.93-2.07-2.07"/>
    <path class="cls-1" d="M10.19,296.32c0-1.14.93-2.07,2.07-2.07s2.07.93,2.07,2.07-.93,2.07-2.07,2.07-2.07-.93-2.07-2.07"/>
    <path class="cls-1" d="M14.67,300.35c0-1.14.93-2.07,2.07-2.07s2.07.93,2.07,2.07-.93,2.07-2.07,2.07-2.07-.93-2.07-2.07"/>
    <path class="cls-1" d="M18.67,303.55c0-1.14.93-2.07,2.07-2.07s2.07.93,2.07,2.07-.93,2.07-2.07,2.07-2.07-.93-2.07-2.07"/>
    <path class="cls-1" d="M22.86,306.69c0-1.14.93-2.07,2.07-2.07s2.07.93,2.07,2.07-.93,2.07-2.07,2.07-2.07-.93-2.07-2.07"/>
    <path class="cls-1" d="M30.03,311.47c0-1.14.93-2.07,2.07-2.07s2.07.93,2.07,2.07-.93,2.07-2.07,2.07-2.07-.93-2.07-2.07"/>
    <path class="cls-1" d="M44.32,319.12c0-1.14.93-2.07,2.07-2.07s2.07.93,2.07,2.07-.93,2.07-2.07,2.07-2.07-.93-2.07-2.07"/>
    <path class="cls-1" d="M64.77,326.48c0-1.14.93-2.07,2.07-2.07s2.07.93,2.07,2.07-.93,2.07-2.07,2.07-2.07-.93-2.07-2.07"/>
    <path class="cls-1" d="M76.86,329.18c0-1.14.93-2.07,2.07-2.07s2.07.93,2.07,2.07-.93,2.07-2.07,2.07-2.07-.93-2.07-2.07"/>
    <path class="cls-1" d="M83.91,330.16c0-1.14.93-2.07,2.07-2.07s2.07.93,2.07,2.07-.93,2.07-2.07,2.07-2.07-.93-2.07-2.07"/>
    <path class="cls-1" d="M106.6,331.25c0-1.14.93-2.07,2.07-2.07s2.07.93,2.07,2.07-.93,2.07-2.07,2.07-2.07-.93-2.07-2.07"/>
    <path class="cls-1" d="M152.14,323.3c0-1.14.93-2.07,2.07-2.07s2.07.93,2.07,2.07-.93,2.07-2.07,2.07-2.07-.93-2.07-2.07"/>
    <path class="cls-1" d="M159.53,320.66c0-1.14.93-2.07,2.07-2.07s2.07.93,2.07,2.07-.93,2.07-2.07,2.07-2.07-.93-2.07-2.07"/>
    <path class="cls-1" d="M175.6,312.89c0-1.14.93-2.07,2.07-2.07s2.07.93,2.07,2.07-.93,2.07-2.07,2.07-2.07-.93-2.07-2.07"/>
    <path class="cls-1" d="M197.52,299.23c0-1.14.93-2.07,2.07-2.07s2.07.93,2.07,2.07-.93,2.07-2.07,2.07-2.07-.93-2.07-2.07"/>
    <path class="cls-1" d="M203.06,294.86c0-1.14.93-2.07,2.07-2.07s2.07.93,2.07,2.07-.93,2.07-2.07,2.07-2.07-.93-2.07-2.07"/>
    <path class="cls-1" d="M211.24,287.72c0-1.14.93-2.07,2.07-2.07s2.07.93,2.07,2.07-.93,2.07-2.07,2.07-2.07-.93-2.07-2.07"/>
    <path class="cls-1" d="M233.7,262.7c0-1.14.93-2.07,2.07-2.07s2.07.93,2.07,2.07-.93,2.07-2.07,2.07-2.07-.93-2.07-2.07"/>
    <path class="cls-1" d="M259.81,228.91c.08-1.14,1.07-2,2.21-1.92s2,1.07,1.92,2.21-1.07,2-2.21,1.92-2-1.07-1.92-2.21"/>
    <path class="cls-1" d="M264.3,220.56c.08-1.14,1.07-2,2.21-1.92s2,1.07,1.92,2.21-1.07,2-2.21,1.92-2-1.07-1.92-2.21"/>
    <path class="cls-1" d="M267.94,208.52c.08-1.14,1.07-2,2.21-1.92s2,1.07,1.92,2.21-1.07,2-2.21,1.92-2-1.07-1.92-2.21"/>
    <path class="cls-1" d="M270.38,196.97c-.13-1.14.69-2.16,1.82-2.29s2.16.69,2.29,1.82-.69,2.16-1.82,2.29-2.16-.69-2.29-1.82"/>
    <path class="cls-1" d="M270.43,189.5c-.13-1.14.69-2.16,1.82-2.29s2.16.69,2.29,1.82c.13,1.14-.69,2.16-1.82,2.29s-2.16-.69-2.29-1.82"/>
    <path class="cls-1" d="M265.45,165.97c-.13-1.14.69-2.16,1.82-2.29s2.16.69,2.29,1.82-.69,2.16-1.82,2.29-2.16-.69-2.29-1.82"/>
    <path class="cls-1" d="M270.05,183.84c-.13-1.14.69-2.16,1.82-2.29s2.16.69,2.29,1.82-.69,2.16-1.82,2.29-2.16-.69-2.29-1.82"/>
    <path class="cls-1" d="M269.42,179.28c-.13-1.14.69-2.16,1.82-2.29s2.16.69,2.29,1.82-.69,2.16-1.82,2.29-2.16-.69-2.29-1.82"/>
    <path class="cls-1" d="M258.11,155.93c0-1.14.93-2.07,2.07-2.07s2.07.93,2.07,2.07-.93,2.07-2.07,2.07-2.07-.93-2.07-2.07"/>
    <path class="cls-1" d="M231.49,140.54c0-1.14.93-2.07,2.07-2.07s2.07.93,2.07,2.07-.93,2.07-2.07,2.07-2.07-.93-2.07-2.07"/>
    <path class="cls-1" d="M223.26,138.3c0-1.14.93-2.07,2.07-2.07s2.07.93,2.07,2.07-.93,2.07-2.07,2.07-2.07-.93-2.07-2.07"/>
    <path class="cls-1" d="M210.26,135.83c0-1.14.93-2.07,2.07-2.07s2.07.93,2.07,2.07-.93,2.07-2.07,2.07-2.07-.93-2.07-2.07"/>
    <path class="cls-1" d="M193.21,134.31c0-1.14.93-2.07,2.07-2.07s2.07.93,2.07,2.07-.93,2.07-2.07,2.07-2.07-.93-2.07-2.07"/>
    <path class="cls-1" d="M139.63,128.26c0-1.14.93-2.07,2.07-2.07s2.07.93,2.07,2.07-.93,2.07-2.07,2.07-2.07-.93-2.07-2.07"/>
    <path class="cls-1" d="M126.85,124.22c0-1.14.93-2.07,2.07-2.07s2.07.93,2.07,2.07-.93,2.07-2.07,2.07-2.07-.93-2.07-2.07"/>
    <path class="cls-1" d="M267.29,170.63c-.13-1.14.69-2.16,1.82-2.29s2.16.69,2.29,1.82-.69,2.16-1.82,2.29-2.16-.69-2.29-1.82"/>
    <path class="cls-1" d="M246.75,146.28c0-1.14.93-2.07,2.07-2.07s2.07.93,2.07,2.07-.93,2.07-2.07,2.07-2.07-.93-2.07-2.07"/>
    <path class="cls-1" d="M250.5,10.94c0-1.14.93-2.07,2.07-2.07s2.07.93,2.07,2.07-.93,2.07-2.07,2.07-2.07-.93-2.07-2.07"/>
    <path class="cls-1" d="M102.77,102.92c0-1.14.93-2.07,2.07-2.07s2.07.93,2.07,2.07-.93,2.07-2.07,2.07-2.07-.93-2.07-2.07"/>
    <path class="cls-1" d="M100.71,96.88c0-1.14.93-2.07,2.07-2.07s2.07.93,2.07,2.07-.93,2.07-2.07,2.07-2.07-.93-2.07-2.07"/>
    <path class="cls-1" d="M103.22,84.6c0-1.14.93-2.07,2.07-2.07s2.07.93,2.07,2.07-.93,2.07-2.07,2.07-2.07-.93-2.07-2.07"/>
    <path class="cls-1" d="M187.28,26.01c0-1.14.93-2.07,2.07-2.07s2.07.93,2.07,2.07-.93,2.07-2.07,2.07-2.07-.93-2.07-2.07"/>
    <path class="cls-1" d="M223.8,16.19c0-1.14.93-2.07,2.07-2.07s2.07.93,2.07,2.07-.93,2.07-2.07,2.07-2.07-.93-2.07-2.07"/>
    <path class="cls-1" d="M327.99,7.8c0-1.14.93-2.07,2.07-2.07s2.07.93,2.07,2.07-.93,2.07-2.07,2.07-2.07-.93-2.07-2.07"/>
    <path class="cls-1" d="M114.77,70.8c0-1.14.93-2.07,2.07-2.07s2.07.93,2.07,2.07-.93,2.07-2.07,2.07-2.07-.93-2.07-2.07"/>
    <line class="cls-1" x1="106.39" y1="104.28" x2="127.38" y2="122.85"/>
    <line class="cls-1" x1="103.34" y1="94.81" x2="104.84" y2="86.62"/>
    <line class="cls-1" x1="191.66" y1="25.48" x2="223.91" y2="16.84"/>
    <line class="cls-1" x1="214.36" y1="136.21" x2="223.22" y2="137.9"/>
    <line class="cls-1" x1="261.42" y1="157.59" x2="266.27" y2="164.08"/>
    <line class="cls-1" x1="250.4" y1="147.61" x2="258.6" y2="154.59"/>
    <line class="cls-1" x1="265.39" y1="222.53" x2="262.85" y2="227.24"/>
    <line class="cls-1" x1="13.8" y1="297.7" x2="15.2" y2="298.96"/>
    <line class="cls-1" x1="9.13" y1="293.28" x2="10.78" y2="294.88"/>
    <line class="cls-1" x1="4.19" y1="288.1" x2="6.24" y2="290.32"/>
    <line class="cls-1" x1="68.81" y1="327.11" x2="76.92" y2="328.71"/>
    <line class="cls-1" x1="48.34" y1="319.82" x2="64.9" y2="325.78"/>
    <line class="cls-1" x1="33.92" y1="312.45" x2="44.57" y2="318.15"/>
    <line class="cls-1" x1="163.46" y1="319.76" x2="175.81" y2="313.79"/>
  </g>
</svg>