<?xml version="1.0" encoding="UTF-8"?>
<svg id="_레이어_1" data-name="레이어 1" xmlns="http://www.w3.org/2000/svg" viewBox="0 0 680.31 340.16">
  <defs>
    <style>
      .cls-1 {
        stroke-dasharray: 0 0 3 3;
      }

      .cls-1, .cls-2, .cls-3 {
        fill: none;
        stroke-miterlimit: 10;
      }

      .cls-1, .cls-3 {
        stroke: #000;
        stroke-width: .5px;
      }

      .cls-2 {
        stroke: #040000;
        stroke-linecap: square;
        stroke-width: .25px;
      }

      .cls-4 {
        fill: #fff;
        stroke-width: 0px;
      }
    </style>
  </defs>
  <rect class="cls-4" x="0" width="680.31" height="340.16"/>
  <polyline class="cls-3" points="209.6 76.47 235.79 50.28 225.66 50.28"/>
  <circle class="cls-3" cx="208.76" cy="77.32" r="1.27"/>
  <polyline class="cls-3" points="249.31 63.79 235.79 50.28 252.69 50.28 252.69 57.03 252.69 63.79"/>
  <line class="cls-3" x1="260.44" y1="60.41" x2="270.58" y2="60.41"/>
  <polyline class="cls-3" points="270.58 79.42 270.58 84.06 267.2 84.06 267.2 63.79 270.58 63.79 270.58 76.88"/>
  <circle class="cls-3" cx="270.58" cy="78.15" r="1.27"/>
  <polyline class="cls-3" points="257.07 50.28 270.58 50.28 270.58 57.03"/>
  <ellipse class="cls-3" cx="319.34" cy="62.1" rx="3.38" ry="11.83"/>
  <polyline class="cls-3" points="326.09 65.06 326.09 77.31 326.09 84.06"/>
  <line class="cls-3" x1="375.32" y1="71.39" x2="381.23" y2="77.31"/>
  <polyline class="cls-3" points="374.47 43.52 381.23 43.52 381.23 70.55 375.74 70.55"/>
  <polyline class="cls-3" points="384.61 77.31 384.61 63.79 391.37 63.79"/>
  <circle class="cls-3" cx="374.47" cy="70.55" r="1.27"/>
  <polyline class="cls-3" points="446.88 50.28 436.74 50.28 436.76 63.79 450.27 63.79"/>
  <line class="cls-3" x1="446.89" y1="63.79" x2="446.86" y2="77.31"/>
  <polyline class="cls-3" points="452.35 77.31 450.24 77.31 443.48 77.31 440.11 77.31"/>
  <circle class="cls-3" cx="326.08" cy="63.79" r="1.27"/>
  <circle class="cls-3" cx="453.62" cy="77.31" r="1.27"/>
  <polyline class="cls-3" points="507.91 84.06 497.77 84.06 497.77 63.79 511.29 63.79"/>
  <line class="cls-3" x1="501.15" y1="63.79" x2="501.15" y2="79.42"/>
  <polyline class="cls-3" points="504.53 70.55 511.29 70.55 511.29 50.28"/>
  <line class="cls-3" x1="511.29" y1="70.55" x2="511.29" y2="84.06"/>
  <circle class="cls-3" cx="501.15" cy="80.68" r="1.27"/>
  <line class="cls-3" x1="569.04" y1="53.66" x2="574.53" y2="53.66"/>
  <polyline class="cls-3" points="557.64 50.28 557.64 63.79 567.77 63.79 567.77 54.92"/>
  <circle class="cls-3" cx="567.77" cy="53.66" r="1.27"/>
  <polyline class="cls-3" points="567.77 63.79 567.77 67.17 564.4 67.17 564.47 84.06 577.99 84.06"/>
  <polyline class="cls-3" points="590.42 84.06 580.29 84.06 580.29 63.79 593.8 63.79"/>
  <line class="cls-3" x1="593.8" y1="73.93" x2="593.8" y2="71.82"/>
  <line class="cls-3" x1="593.8" y1="73.93" x2="593.8" y2="84.06"/>
  <line class="cls-3" x1="595.07" y1="70.55" x2="600.56" y2="70.55"/>
  <path class="cls-3" d="M593.8,71.82c-.7,0-1.27-.57-1.27-1.27s.57-1.27,1.27-1.27,1.27.57,1.27,1.27-.57,1.27-1.27,1.27"/>
  <polyline class="cls-3" points="669.06 84.06 648.78 84.06 648.78 77.31 652.16 77.31 652.16 51.54"/>
  <circle class="cls-3" cx="652.16" cy="50.28" r="1.27"/>
  <rect class="cls-3" x="638.65" y="63.79" width="6.76" height="13.51"/>
  <line class="cls-3" x1="645.41" y1="63.79" x2="652.16" y2="63.79"/>
  <line class="cls-3" x1="652.16" y1="67.17" x2="648.78" y2="67.17"/>
  <path class="cls-1" d="M306.72,63.79s0,8.09-6.73,8.09c-6.73,0-6.73-8.09-6.73-8.09,0,0,0-8.09-6.73-8.09s-6.73,8.09-6.73,8.09"/>
  <path class="cls-1" d="M362.62,63.79s0,8.09-6.73,8.09c-6.73,0-6.73-8.09-6.73-8.09,0,0,0-8.09-6.73-8.09s-6.73,8.09-6.73,8.09"/>
  <path class="cls-1" d="M427.01,63.79s0,8.09-6.73,8.09c-6.73,0-6.73-8.09-6.73-8.09,0,0,0-8.09-6.73-8.09s-6.73,8.09-6.73,8.09"/>
  <path class="cls-1" d="M487.15,63.79s0,8.09-6.73,8.09c-6.73,0-6.73-8.09-6.73-8.09,0,0,0-8.09-6.73-8.09s-6.73,8.09-6.73,8.09"/>
  <path class="cls-1" d="M547.91,63.79s0,8.09-6.73,8.09c-6.73,0-6.73-8.09-6.73-8.09,0,0,0-8.09-6.73-8.09s-6.73,8.09-6.73,8.09"/>
  <path class="cls-1" d="M631.49,63.79s0,8.09-6.73,8.09c-6.73,0-6.73-8.09-6.73-8.09,0,0,0-8.09-6.73-8.09s-6.73,8.09-6.73,8.09"/>
  <polyline class="cls-3" points="37.25 145.68 63.43 119.49 53.3 119.49"/>
  <circle class="cls-3" cx="36.4" cy="146.52" r="1.27"/>
  <polyline class="cls-3" points="73.57 129.63 63.43 119.49 76.95 119.49"/>
  <polyline class="cls-3" points="66.81 126.25 66.81 133.01 60.05 133.01 80.32 133.01"/>
  <line class="cls-3" x1="121.7" y1="129.63" x2="131.84" y2="129.63"/>
  <polyline class="cls-3" points="131.84 148.63 131.84 153.28 128.46 153.28 128.46 133.01 131.84 133.01 131.84 146.1"/>
  <circle class="cls-3" cx="131.84" cy="147.37" r="1.27"/>
  <polyline class="cls-3" points="118.32 119.49 131.84 119.49 131.84 126.25"/>
  <ellipse class="cls-3" cx="142.6" cy="131.32" rx="3.38" ry="11.83"/>
  <polyline class="cls-3" points="149.35 133.01 149.35 146.52 149.35 153.28"/>
  <line class="cls-3" x1="155.6" y1="147.37" x2="161.51" y2="153.28"/>
  <polyline class="cls-3" points="154.75 119.49 161.51 119.49 161.51 146.52 156.02 146.52"/>
  <polyline class="cls-3" points="164.89 153.28 164.89 139.77 171.64 139.77"/>
  <circle class="cls-3" cx="154.75" cy="146.52" r="1.27"/>
  <polyline class="cls-3" points="226.16 126.25 216.02 126.25 216.03 139.77 229.55 139.77"/>
  <line class="cls-3" x1="226.17" y1="139.77" x2="226.14" y2="153.28"/>
  <polyline class="cls-3" points="231.63 153.28 229.52 153.28 222.76 153.28 219.38 153.28"/>
  <ellipse class="cls-3" cx="269.86" cy="133.01" rx="5.07" ry="6.76"/>
  <line class="cls-3" x1="278.3" y1="139.77" x2="278.3" y2="120.76"/>
  <polyline class="cls-3" points="251.28 166.79 278.3 139.77 271.55 139.77"/>
  <polyline class="cls-3" points="281.68 139.77 278.3 139.77 288.44 149.9"/>
  <polyline class="cls-3" points="290.44 119.49 297.2 119.49 297.2 133.01"/>
  <line class="cls-3" x1="295.09" y1="146.52" x2="300.58" y2="146.52"/>
  <line class="cls-3" x1="293.82" y1="122.87" x2="293.82" y2="145.26"/>
  <circle class="cls-3" cx="293.82" cy="146.52" r="1.27"/>
  <line class="cls-3" x1="377.98" y1="119.49" x2="383.47" y2="119.49"/>
  <polyline class="cls-3" points="344.2 146.52 371.23 119.49 384.74 133.01 384.74 120.76"/>
  <circle class="cls-3" cx="384.74" cy="119.49" r="1.27"/>
  <ellipse class="cls-3" cx="456.48" cy="215.74" rx="5.07" ry="6.76"/>
  <line class="cls-3" x1="456.06" y1="192.09" x2="461.55" y2="192.09"/>
  <polyline class="cls-3" points="444.66 188.71 444.66 202.22 454.79 202.22 454.79 193.36"/>
  <line class="cls-3" x1="454.79" y1="195.89" x2="454.79" y2="209.4"/>
  <circle class="cls-3" cx="454.79" cy="192.09" r="1.27"/>
  <line class="cls-3" x1="454.79" y1="195.47" x2="461.55" y2="195.47"/>
  <polyline class="cls-3" points="420.27 188.71 432.52 188.71 432.52 201.8 432.52 202.22"/>
  <line class="cls-3" x1="419.01" y1="202.22" x2="439.28" y2="202.22"/>
  <line class="cls-3" x1="127.16" y1="271.44" x2="144.05" y2="271.44"/>
  <ellipse class="cls-3" cx="138.99" cy="264.68" rx="5.07" ry="6.76"/>
  <line class="cls-3" x1="140.68" y1="271.44" x2="140.68" y2="274.82"/>
  <polyline class="cls-3" points="114.49 301 140.68 274.82 147.43 281.58"/>
  <path class="cls-3" d="M112.38,301.85c0-.7.57-1.27,1.27-1.27s1.27.57,1.27,1.27-.57,1.27-1.27,1.27-1.27-.57-1.27-1.27"/>
  <polyline class="cls-3" points="149.43 257.93 156.19 257.93 156.19 271.44"/>
  <line class="cls-3" x1="154.08" y1="284.95" x2="159.57" y2="284.95"/>
  <line class="cls-3" x1="152.81" y1="261.3" x2="152.81" y2="283.69"/>
  <circle class="cls-3" cx="152.81" cy="284.95" r="1.27"/>
  <polyline class="cls-3" points="182.86 284.11 209.05 257.93 222.56 271.44"/>
  <line class="cls-3" x1="222.56" y1="271.44" x2="222.56" y2="257.93"/>
  <polyline class="cls-3" points="215.8 271.44 222.56 271.44 225.94 271.44"/>
  <line class="cls-3" x1="222.56" y1="271.44" x2="222.56" y2="284.95"/>
  <line class="cls-3" x1="219.18" y1="271.44" x2="219.18" y2="284.95"/>
  <line class="cls-3" x1="215.8" y1="284.95" x2="225.94" y2="284.95"/>
  <polyline class="cls-3" points="388.7 284.95 378.57 284.95 378.57 264.68 392.08 264.68"/>
  <line class="cls-3" x1="392.08" y1="274.82" x2="392.08" y2="272.71"/>
  <line class="cls-3" x1="392.08" y1="274.82" x2="392.08" y2="284.95"/>
  <line class="cls-3" x1="393.35" y1="271.44" x2="398.84" y2="271.44"/>
  <path class="cls-3" d="M392.08,272.71c-.7,0-1.27-.57-1.27-1.27s.57-1.27,1.27-1.27,1.27.57,1.27,1.27-.57,1.27-1.27,1.27"/>
  <circle class="cls-3" cx="232.9" cy="153.28" r="1.27"/>
  <circle class="cls-3" cx="278.3" cy="119.49" r="1.27"/>
  <circle class="cls-3" cx="419.01" cy="188.71" r="1.27"/>
  <circle class="cls-3" cx="182.02" cy="284.95" r="1.27"/>
  <path class="cls-1" d="M113.36,133.01s0,8.09-6.73,8.09c-6.73,0-6.73-8.09-6.73-8.09,0,0,0-8.09-6.73-8.09s-6.73,8.09-6.73,8.09"/>
  <path class="cls-1" d="M206.78,133.01s0,8.09-6.73,8.09c-6.73,0-6.73-8.09-6.73-8.09,0,0,0-8.09-6.73-8.09s-6.73,8.09-6.73,8.09"/>
  <path class="cls-1" d="M335.68,132.46s0,8.09-6.73,8.09c-6.73,0-6.73-8.09-6.73-8.09,0,0,0-8.09-6.73-8.09s-6.73,8.09-6.73,8.09"/>
  <line class="cls-1" x1="470.12" y1="202.22" x2="517.05" y2="202.22"/>
  <path class="cls-1" d="M259.42,271.44s0,8.09-6.73,8.09c-6.73,0-6.73-8.09-6.73-8.09,0,0,0-8.09-6.73-8.09s-6.73,8.09-6.73,8.09"/>
  <path class="cls-1" d="M286.32,271.44s0,8.09-6.73,8.09c-6.73,0-6.73-8.09-6.73-8.09,0,0,0-8.09-6.73-8.09s-6.73,8.09-6.73,8.09"/>
  <path class="cls-1" d="M313.23,271.44s0,8.09-6.73,8.09c-6.73,0-6.73-8.09-6.73-8.09,0,0,0-8.09-6.73-8.09s-6.73,8.09-6.73,8.09"/>
  <path class="cls-1" d="M340.13,271.44s0,8.09-6.73,8.09c-6.73,0-6.73-8.09-6.73-8.09,0,0,0-8.09-6.73-8.09s-6.73,8.09-6.73,8.09"/>
  <path class="cls-1" d="M367.03,271.44s0,8.09-6.73,8.09c-6.73,0-6.73-8.09-6.73-8.09,0,0,0-8.09-6.73-8.09s-6.73,8.09-6.73,8.09"/>
  <path class="cls-1" d="M433.01,271.44s0,8.09-6.73,8.09c-6.73,0-6.73-8.09-6.73-8.09,0,0,0-8.09-6.73-8.09s-6.73,8.09-6.73,8.09"/>
  <path class="cls-1" d="M459.91,271.44s0,8.09-6.73,8.09c-6.73,0-6.73-8.09-6.73-8.09,0,0,0-8.09-6.73-8.09s-6.73,8.09-6.73,8.09"/>
  <path class="cls-1" d="M486.81,271.44s0,8.09-6.73,8.09c-6.73,0-6.73-8.09-6.73-8.09,0,0,0-8.09-6.73-8.09s-6.73,8.09-6.73,8.09"/>
  <path class="cls-1" d="M513.72,271.44s0,8.09-6.73,8.09c-6.73,0-6.73-8.09-6.73-8.09,0,0,0-8.09-6.73-8.09s-6.73,8.09-6.73,8.09"/>
  <path class="cls-1" d="M540.62,271.44s0,8.09-6.73,8.09c-6.73,0-6.73-8.09-6.73-8.09,0,0,0-8.09-6.73-8.09s-6.73,8.09-6.73,8.09"/>
  <path class="cls-1" d="M567.52,271.44s0,8.09-6.73,8.09c-6.73,0-6.73-8.09-6.73-8.09,0,0,0-8.09-6.73-8.09s-6.73,8.09-6.73,8.09"/>
  <path class="cls-1" d="M620.19,271.44s0,8.09-6.73,8.09c-6.73,0-6.73-8.09-6.73-8.09,0,0,0-8.09-6.73-8.09s-6.73,8.09-6.73,8.09"/>
  <path class="cls-2" d="M676.24,176.59c-.84-.77-2.15-.72-2.92.13s-.72,2.15.13,2.92,2.15.72,2.92-.13.72-2.15-.13-2.92"/>
  <path class="cls-2" d="M676.53,183.92c-.84-.77-2.15-.72-2.92.13s-.72,2.15.13,2.92c.84.77,2.15.72,2.92-.13s.72-2.15-.13-2.92"/>
  <path class="cls-2" d="M676.73,190.35c-.84-.77-2.15-.72-2.92.13s-.72,2.15.13,2.92,2.15.72,2.92-.13.72-2.15-.13-2.92"/>
  <path class="cls-2" d="M676.66,196.38c-.84-.77-2.15-.72-2.92.13-.77.84-.72,2.15.13,2.92s2.15.72,2.92-.13.72-2.15-.13-2.92"/>
  <path class="cls-2" d="M676.32,201.48c-.84-.77-2.15-.72-2.92.13s-.72,2.15.13,2.92,2.15.72,2.92-.13.72-2.15-.13-2.92"/>
  <path class="cls-2" d="M675.8,206.7c-.84-.77-2.15-.72-2.92.13s-.72,2.15.13,2.92,2.15.72,2.92-.13.72-2.15-.13-2.92"/>
  <path class="cls-2" d="M670.46,230.92c-.84-.77-2.15-.72-2.92.13s-.72,2.15.13,2.92,2.15.72,2.92-.13.72-2.15-.13-2.92"/>
  <path class="cls-2" d="M662.06,250.96c-.84-.77-2.15-.72-2.92.13s-.72,2.15.13,2.92,2.15.72,2.92-.13.72-2.15-.13-2.92"/>
  <path class="cls-2" d="M655.88,261.7c-.84-.77-2.15-.72-2.92.13s-.72,2.15.13,2.92,2.15.72,2.92-.13.72-2.15-.13-2.92"/>
  <path class="cls-2" d="M651.84,267.56c-.84-.77-2.15-.72-2.92.13s-.72,2.15.13,2.92,2.15.72,2.92-.13.72-2.15-.13-2.92"/>
  <path class="cls-2" d="M639.95,282.99c-.84-.78-2.15-.73-2.93.1s-.73,2.15.1,2.93,2.15.73,2.93-.1.73-2.15-.1-2.93"/>
  <path class="cls-2" d="M603.11,310.91c-.84-.78-2.15-.73-2.93.1s-.73,2.15.1,2.93,2.15.73,2.93-.1.73-2.15-.1-2.93"/>
  <path class="cls-2" d="M596.14,314.52c-.84-.78-2.15-.73-2.93.1s-.73,2.15.1,2.93,2.15.73,2.93-.1c.78-.84.73-2.15-.1-2.93"/>
  <path class="cls-2" d="M579.51,320.99c-.84-.78-2.15-.73-2.93.1-.78.84-.73,2.15.1,2.93s2.15.73,2.93-.1c.78-.84.73-2.15-.1-2.93"/>
  <path class="cls-2" d="M554.57,327.73c-.84-.78-2.15-.73-2.93.1s-.73,2.15.1,2.93,2.15.73,2.93-.1.73-2.15-.1-2.93"/>
  <path class="cls-2" d="M547.6,328.81c-.84-.78-2.15-.73-2.93.1-.78.84-.73,2.15.1,2.93.84.78,2.15.73,2.93-.1s.73-2.15-.1-2.93"/>
  <path class="cls-2" d="M536.8,329.93c-.84-.78-2.15-.73-2.93.1s-.73,2.15.1,2.93,2.15.73,2.93-.1.73-2.15-.1-2.93"/>
  <path class="cls-2" d="M503.18,329.33c-.84-.78-2.15-.73-2.93.1s-.73,2.15.1,2.93,2.15.73,2.93-.1.73-2.15-.1-2.93"/>
  <path class="cls-2" d="M460.66,325.42c-.89-.72-2.19-.58-2.91.31s-.58,2.19.31,2.91c.89.72,2.19.58,2.91-.31s.58-2.19-.31-2.91"/>
  <path class="cls-2" d="M451.49,323.02c-.89-.72-2.19-.58-2.91.31-.72.89-.58,2.19.31,2.91.89.72,2.19.58,2.91-.31.72-.89.58-2.19-.31-2.91"/>
  <path class="cls-2" d="M440.19,317.48c-.89-.72-2.19-.58-2.91.31s-.58,2.19.31,2.91,2.19.58,2.91-.31.58-2.19-.31-2.91"/>
  <path class="cls-2" d="M430.08,311.4c-.74-.87-2.05-.97-2.92-.23s-.97,2.05-.23,2.92c.74.87,2.05.97,2.92.23s.97-2.05.23-2.92"/>
  <path class="cls-2" d="M424.58,306.34c-.74-.87-2.05-.97-2.92-.23s-.97,2.05-.23,2.92,2.05.97,2.92.23.97-2.05.23-2.92"/>
  <path class="cls-2" d="M413.15,285.85c-.65-.94-1.94-1.17-2.88-.52s-1.17,1.94-.52,2.88,1.94,1.17,2.88.52,1.17-1.94.52-2.88"/>
  <path class="cls-2" d="M420.69,302.2c-.74-.87-2.05-.97-2.92-.23s-.97,2.05-.23,2.92,2.05.97,2.92.23.97-2.05.23-2.92"/>
  <path class="cls-2" d="M417.84,297.64c-.74-.87-2.05-.97-2.92-.23s-.97,2.05-.23,2.92,2.05.97,2.92.23c.87-.74.97-2.05.23-2.92"/>
  <path class="cls-2" d="M415.27,244.49c-.84-.78-2.15-.73-2.93.1s-.73,2.15.1,2.93,2.15.73,2.93-.1.73-2.15-.1-2.93"/>
  <path class="cls-2" d="M419.23,236.93c-.84-.78-2.15-.73-2.93.1s-.73,2.15.1,2.93,2.15.73,2.93-.1.73-2.15-.1-2.93"/>
  <path class="cls-2" d="M426.28,225.73c-.84-.78-2.15-.73-2.93.1s-.73,2.15.1,2.93,2.15.73,2.93-.1.73-2.15-.1-2.93"/>
  <path class="cls-2" d="M468.86,168.88c-.84-.78-2.15-.73-2.93.1s-.73,2.15.1,2.93,2.15.73,2.93-.1.73-2.15-.1-2.93"/>
  <path class="cls-2" d="M414.85,290.56c-.65-.94-1.94-1.17-2.88-.52s-1.17,1.94-.52,2.88c.65.94,1.94,1.17,2.88.52s1.17-1.94.52-2.88"/>
  <path class="cls-2" d="M325.47,170.06c-.84-.78-2.15-.73-2.93.1-.78.84-.73,2.15.1,2.93s2.15.73,2.93-.1.73-2.15-.1-2.93"/>
  <path class="cls-2" d="M475.42,124.63c-.84-.78-2.15-.73-2.93.1s-.73,2.15.1,2.93,2.15.73,2.93-.1.73-2.15-.1-2.93"/>
  <path class="cls-2" d="M467.81,110.8c-.84-.78-2.15-.73-2.93.1s-.73,2.15.1,2.93c.84.78,2.15.73,2.93-.1s.73-2.15-.1-2.93"/>
  <path class="cls-2" d="M285.72,220.88c-.95-.64-2.23-.39-2.87.56s-.39,2.23.56,2.87,2.23.39,2.87-.56.39-2.23-.56-2.87"/>
  <path class="cls-2" d="M447.98,102.46c-.84-.78-2.15-.73-2.93.1s-.73,2.15.1,2.93c.84.78,2.15.73,2.93-.1s.73-2.15-.1-2.93"/>
  <line class="cls-2" x1="423.77" y1="229" x2="418.97" y2="236.62"/>
  <line class="cls-2" x1="452.19" y1="325.15" x2="457.36" y2="326.51"/>
  <line class="cls-2" x1="675.31" y1="193.94" x2="675.29" y2="195.83"/>
  <line class="cls-2" x1="675.2" y1="187.52" x2="675.27" y2="189.81"/>
  <line class="cls-2" x1="674.93" y1="180.29" x2="674.97" y2="183.39"/>
  <line class="cls-2" x1="659.8" y1="254.36" x2="655.5" y2="261.42"/>
  <line class="cls-2" x1="668.26" y1="234.35" x2="661.46" y2="250.58"/>
  <line class="cls-2" x1="592.8" y1="316.79" x2="580.02" y2="321.76"/>
  <path class="cls-2" d="M439.23,100.92c-.84-.78-2.15-.73-2.93.1s-.73,2.15.1,2.93,2.15.73,2.93-.1.73-2.15-.1-2.93"/>
  <line class="cls-2" x1="444.53" y1="103.35" x2="439.88" y2="102.55"/>
  <path class="cls-2" d="M674.79,162.15c-.84-.78-2.15-.73-2.93.1s-.73,2.15.1,2.93,2.15.73,2.93-.1.73-2.15-.1-2.93"/>
  <path class="cls-2" d="M662.09,113.14c-.84-.78-2.15-.73-2.93.1s-.73,2.15.1,2.93,2.15.73,2.93-.1.73-2.15-.1-2.93"/>
  <path class="cls-2" d="M613.45,20.25c-.84-.78-2.15-.73-2.93.1s-.73,2.15.1,2.93,2.15.73,2.93-.1.73-2.15-.1-2.93"/>
  <path class="cls-2" d="M603.4,9.97c-.84-.78-2.15-.73-2.93.1s-.73,2.15.1,2.93,2.15.73,2.93-.1.73-2.15-.1-2.93"/>
  <path class="cls-2" d="M281.79,229.18c-.95-.64-2.23-.39-2.87.56s-.39,2.23.56,2.87,2.23.39,2.87-.56.39-2.23-.56-2.87"/>
  <path class="cls-2" d="M239.92,306.81c-.84-.78-2.15-.73-2.93.1s-.73,2.15.1,2.93,2.15.73,2.93-.1.73-2.15-.1-2.93"/>
  <path class="cls-2" d="M228.14,319.82c-.84-.78-2.15-.73-2.93.1s-.73,2.15.1,2.93,2.15.73,2.93-.1.73-2.15-.1-2.93"/>
  <path class="cls-2" d="M61.3,309.98c-.95-.63-2.24-.37-2.87.59s-.37,2.24.59,2.87c.95.63,2.24.37,2.87-.59.63-.95.37-2.24-.59-2.87"/>
  <path class="cls-2" d="M47.87,291.28c-1.03-.5-2.27-.08-2.77.95-.5,1.03-.08,2.27.95,2.77s2.27.08,2.77-.95.08-2.27-.95-2.77"/>
  <path class="cls-2" d="M42.51,283.3c-1.03-.5-2.27-.08-2.77.95s-.08,2.27.95,2.77,2.27.08,2.77-.95.08-2.27-.95-2.77"/>
  <path class="cls-2" d="M24.99,250.46c-1.07-.41-2.26.13-2.67,1.2s.13,2.26,1.2,2.67,2.26-.13,2.67-1.2-.13-2.26-1.2-2.67"/>
  <path class="cls-2" d="M20.15,238c-1.07-.41-2.26.13-2.67,1.2s.13,2.26,1.2,2.67c1.07.41,2.26-.13,2.67-1.2s-.13-2.26-1.2-2.67"/>
  <path class="cls-2" d="M27.25,256.09c-1.07-.41-2.26.13-2.67,1.2s.13,2.26,1.2,2.67,2.26-.13,2.67-1.2-.13-2.26-1.2-2.67"/>
  <line class="cls-2" x1="283.78" y1="224.63" x2="281.42" y2="228.86"/>
  <line class="cls-2" x1="58.88" y1="310.09" x2="48.08" y2="294.87"/>
  <line class="cls-2" x1="42.79" y1="286.85" x2="45.66" y2="291.53"/>
  <path class="cls-2" d="M7.55,194.52c-1.02-.53-2.26-.13-2.79.89s-.13,2.26.89,2.79,2.26.13,2.79-.89.13-2.26-.89-2.79"/>
  <path class="cls-2" d="M392.81,110.2c-.93-.67-2.22-.45-2.89.48s-.45,2.22.48,2.89,2.22.45,2.89-.48.45-2.22-.48-2.89"/>
</svg>